<svg width="256" height="256" viewBox="0 0 256 256" fill="none" xmlns="http://www.w3.org/2000/svg">
<rect width="256" height="256" fill="url(#paint0_radial_197_25)"/>
<path d="M123.654 201.104C110.963 201.104 99.4431 197.883 89.0949 191.439C78.9419 184.996 70.839 176.307 64.7863 165.373C58.9288 154.244 56 141.846 56 128.178C56 114.316 58.9288 101.917 64.7863 90.9831C70.839 79.8539 78.9419 71.0676 89.0949 64.6244C99.4431 57.9859 110.963 54.6666 123.654 54.6666C134.393 54.6666 143.863 57.0096 152.063 61.6956C160.459 66.1864 167.097 72.4344 171.979 80.4396C176.86 88.4449 179.3 97.524 179.3 107.677V148.094C179.3 158.247 176.86 167.326 171.979 175.331C167.293 183.336 160.752 189.682 152.356 194.368C143.96 198.859 134.393 201.104 123.654 201.104ZM128.926 170.645C140.836 170.645 150.403 166.643 157.628 158.637C165.047 150.632 168.757 140.381 168.757 127.885C168.757 119.49 167.097 112.07 163.778 105.627C160.459 99.1836 155.773 94.2048 149.72 90.6903C143.863 86.9805 136.931 85.1256 128.926 85.1256C121.116 85.1256 114.185 86.9805 108.132 90.6903C102.274 94.2048 97.5883 99.1836 94.0738 105.627C90.7545 112.07 89.0949 119.49 89.0949 127.885C89.0949 136.281 90.7545 143.701 94.0738 150.144C97.5883 156.587 102.274 161.664 108.132 165.373C114.185 168.888 121.116 170.645 128.926 170.645ZM166.707 198.175V160.395L172.271 126.128L166.707 92.1546V57.5954H198.923V198.175H166.707Z" fill="#002A35"/>
<defs>
<radialGradient id="paint0_radial_197_25" cx="0" cy="0" r="1" gradientUnits="userSpaceOnUse" gradientTransform="translate(128 256) rotate(-90) scale(234.959 847.159)">
<stop stop-color="#C54E85"/>
<stop offset="0.171567" stop-color="#9D62DF"/>
<stop offset="0.389729" stop-color="#FA8C6E"/>
<stop offset="1" stop-color="#F7D897"/>
</radialGradient>
</defs>
</svg>
