<svg width="32" height="32" viewBox="0 0 32 32" fill="none" xmlns="http://www.w3.org/2000/svg">
  <path
    d="M17.9264 29.3028C17.2973 29.393 16.6542 29.4403 16 29.4403C8.57781 29.4403 2.55975 23.4222 2.55975 16C2.55975 15.5444 2.58198 15.0944 2.62642 14.6514C2.6292 14.6986 2.63198 14.7444 2.63475 14.7916C2.67503 15.3222 2.81948 15.8805 3.10142 16.5847C3.38059 17.2833 3.77086 17.6764 4.23753 17.9416C4.73336 18.2236 5.33614 18.3764 6.08892 18.5361C6.18336 18.5555 6.2792 18.575 6.37642 18.5958C7.79586 18.8916 9.55836 19.2569 11.1139 20.8125C12.6709 22.3694 13.0375 24.1278 13.3334 25.5444C13.3542 25.6416 13.3736 25.7361 13.3931 25.8291C13.5528 26.5805 13.7056 27.1833 13.9875 27.6805C14.2542 28.15 14.6473 28.543 15.3459 28.8264C16.0681 29.1222 16.6445 29.2736 17.1903 29.3139C17.4306 29.3319 17.6723 29.3291 17.9264 29.3028Z"
    fill="url(#paint0_linear_95_56)" />
  <path
    d="M16 1C7.71528 1 1 7.71528 1 16C1 16.8417 1.06944 17.6667 1.20417 18.4708C2.32639 25.2569 8.00556 30.5042 14.9931 30.9667C15.3264 30.9889 15.6611 31 16 31C24.2847 31 31 24.2847 31 16C31 7.71528 24.2847 1 16 1ZM18.9542 29.1139C18.8667 29.1347 18.7764 29.1528 18.6875 29.1708C18.4181 29.2361 18.1667 29.2806 17.9264 29.3028C17.2972 29.3931 16.6542 29.4403 16 29.4403C8.57778 29.4403 2.55972 23.4222 2.55972 16C2.55972 15.5444 2.58194 15.0944 2.62639 14.6514C3.30278 7.8625 9.03333 2.55972 16 2.55972C23.4222 2.55972 29.4403 8.57778 29.4403 16C29.4403 22.4069 24.9556 27.7681 18.9542 29.1139Z"
    fill="white" />
  <path
    d="M16 1C7.71528 1 1 7.71528 1 16C1 16.8417 1.06944 17.6667 1.20417 18.4708C2.32639 25.2569 8.00556 30.5042 14.9931 30.9667C15.3264 30.9889 15.6611 31 16 31C24.2847 31 31 24.2847 31 16C31 7.71528 24.2847 1 16 1ZM18.9542 29.1139C18.8667 29.1347 18.7764 29.1528 18.6875 29.1708C18.4181 29.2361 18.1667 29.2806 17.9264 29.3028C17.2972 29.3931 16.6542 29.4403 16 29.4403C8.57778 29.4403 2.55972 23.4222 2.55972 16C2.55972 15.5444 2.58194 15.0944 2.62639 14.6514C3.30278 7.8625 9.03333 2.55972 16 2.55972C23.4222 2.55972 29.4403 8.57778 29.4403 16C29.4403 22.4069 24.9556 27.7681 18.9542 29.1139Z"
    fill="url(#paint1_linear_95_56)" />
  <defs>
    <linearGradient id="paint0_linear_95_56" x1="10.2431" y1="14.6514" x2="10.2431" y2="29.4403"
      gradientUnits="userSpaceOnUse">
      <stop stop-color="#BAB4EF" />
      <stop offset="1" stop-color="#1D1A3B" />
    </linearGradient>
    <linearGradient id="paint1_linear_95_56" x1="16" y1="1" x2="16" y2="31"
      gradientUnits="userSpaceOnUse">
      <stop stop-color="#7B74B5" />
      <stop offset="1" stop-color="#1D1A3B" />
    </linearGradient>
  </defs>
</svg>