<svg width="175" height="175" viewBox="0 0 175 175" fill="none" xmlns="http://www.w3.org/2000/svg">
<g clip-path="url(#clip0_1_180)">
<path d="M66.5719 39.8218C92.4064 39.8218 111.364 54.6906 111.364 77.923V140H87.2023V113.05C79.9538 129.964 65.4568 141.859 47.4284 141.859C28.8425 141.859 17.8768 129.964 17.8768 116.21C17.8768 97.8099 37.392 87.216 57.4648 82.7553L87.2023 75.8785V75.1351C87.2023 66.9573 81.4407 57.6643 66.7578 57.6643C53.9335 57.6643 43.7112 66.2139 43.7112 78.6664H19.5495C20.1071 55.9916 39.6223 39.8218 66.5719 39.8218ZM56.5355 122.529C74.0063 122.529 87.2023 102.642 87.2023 89.0746L62.1113 97.6241C50.7739 101.341 44.083 107.475 44.083 113.422C44.083 118.069 48.3577 122.529 56.5355 122.529Z" fill="#353434"/>
<path d="M130.168 36.3512C130.73 35.0504 132.388 35.0504 132.951 36.3512L144.206 62.3819C144.701 63.5284 143.954 64.8596 142.814 64.8596H120.304C119.165 64.8596 118.417 63.5285 118.913 62.3819L130.168 36.3512Z" fill="#353434"/>
<rect x="148.241" y="36.1514" width="7.75896" height="28.7081" rx="1.55179" fill="#353434"/>
</g>
<defs>
<clipPath id="clip0_1_180">
<rect width="175" height="175" fill="white"/>
</clipPath>
</defs>
</svg>
