<svg width="133" height="19" viewBox="0 0 133 19" fill="none" xmlns="http://www.w3.org/2000/svg">
<path d="M68.9293 19.0051H86.0058V15.2689H68.9293V19.0051ZM68.9293 7.63964V11.3758H82.8841V7.63964H68.9293ZM68.9293 3.742H86.0058V0.00579453H68.9293V3.742Z" fill="#DA291C"/>
<path d="M126.343 7.61539H118.604C117.523 7.61539 116.647 6.74591 116.647 5.6781C116.647 4.61028 117.525 3.74081 118.604 3.74081H131.391V0.00461182H118.604C115.445 0.00461182 112.873 2.54846 112.873 5.6781C112.873 8.80774 115.445 11.3516 118.604 11.3516H126.343C127.424 11.3516 128.3 12.2372 128.3 13.3281C128.3 14.419 127.422 15.2654 126.343 15.2654H113.555V19.0016H126.343C129.504 19.0016 132.074 16.437 132.074 13.2866C132.074 10.1362 129.504 7.61308 126.343 7.61308V7.61539ZM105.273 15.2677H100.139C96.5743 15.2677 93.6739 12.3963 93.6739 8.86771V0.00461182H89.8998V8.86771C89.8998 14.4582 94.4916 19.0039 100.139 19.0039H109.047V0.00230503H105.273V15.2677ZM0 10.1385V19.0016H3.77407V12.9798H15.3572V19.0016H19.1313V0H10.2389C4.59179 0 0 4.54571 0 10.1362V10.1385ZM15.3549 9.24594H3.83697C4.28194 6.08862 6.98669 3.74081 10.2366 3.74081H15.3525V9.24594H15.3549ZM61.0025 0.00461182L54.0414 7.63845H50.3932V0.00461182H46.6214V19.0062H50.3932V11.3723H54.0414L61.0002 19.0062H65.974L57.3938 9.51808L65.995 0.00461182H61.0025ZM42.8171 6.78973V4.03602C42.8171 1.81275 40.9906 0.00230503 38.7448 0.00230503H23.6928V19.0039H27.4645V12.7469H32.3918L38.0925 19.0016H43.085L37.4006 12.7123C40.4292 12.4079 42.8147 9.8525 42.8147 6.78512L42.8171 6.78973ZM27.4669 9.013V3.73851H38.7471C38.9102 3.73851 39.0453 3.87227 39.0453 4.03602V6.78973C39.0453 8.01668 38.0389 9.013 36.7995 9.013H27.4669Z" fill="white"/>
</svg>
