<svg width="114" height="40" viewBox="0 0 114 40" fill="none" xmlns="http://www.w3.org/2000/svg">
<path d="M78.173 0.542969H70.8397V32.6664C70.8397 36.4195 73.9014 39.4812 77.6545 39.4812H83.531V33.0862H78.173V0.542969Z" fill="black"/>
<path d="M56.173 30.2714L46.6422 16.9874C43.9755 13.259 39.6298 11.0615 35.0619 11.0615H33.0866V17.7775H35.4817C37.3335 17.7775 39.0866 18.6664 40.1483 20.1726L43.7039 25.1109V25.1356L49.7039 33.4812C52.3705 37.2096 56.7162 39.4319 61.2841 39.4319H63.1607V32.7158H60.8644C59.0125 32.6664 57.2594 31.7775 56.173 30.2714Z" fill="black"/>
<path d="M113.457 28.8393V17.8516C113.457 14.0985 110.42 11.0368 106.642 11.0368H95.5064C91.7533 11.0368 88.6915 14.0738 88.6915 17.8516V32.6664C88.6915 36.4195 91.7533 39.4812 95.5064 39.4812H113.013V32.8393H95.3088V28.8393H113.457ZM95.3088 22.222V17.8763C95.3088 17.7528 95.4076 17.6541 95.531 17.6541H106.617C106.741 17.6541 106.864 17.7528 106.864 17.8763V22.222H95.3088Z" fill="black"/>
<path d="M18.5681 11.0368H1.9508V17.6541H18.7409V21.6541H7.40759C3.6545 21.6541 0.592773 24.7158 0.592773 28.4689V32.6417C0.592773 36.3948 3.62981 39.4566 7.40759 39.4566H25.3582V17.8269C25.3829 14.0738 22.3212 11.0368 18.5681 11.0368ZM18.7656 32.8393H7.48166C7.35821 32.8393 7.25944 32.7405 7.25944 32.617V28.4689C7.25944 28.3701 7.33351 28.2714 7.45697 28.2714H18.7656V32.8393Z" fill="black"/>
<path d="M49.9261 16.4195L54.1977 22.4195L57.7039 17.58H63.136V11.0368H53.852L49.9261 16.4195Z" fill="black"/>
<path d="M38.0743 32.8393H33.0619V39.3825H41.9261L46.0743 33.6541L41.778 27.7282L38.0743 32.8393Z" fill="black"/>
</svg>
