<svg xmlns="http://www.w3.org/2000/svg" width="24" height="24" viewBox="0 0 25.4 24" fill="none" role="img" aria-label="Balerion">
  <path fill="#171717" d="M14.298.47c6.036 0 10.929 4.97 10.929 11.1v10.372c0 .893-.713 1.616-1.592 1.616h-.814c-.06-.01-.12-.019-.182-.024-3.066-.27-10.895-4.88-12.797-7.1-1.169-1.365-2.085-3.237-1.22-4.611.867-1.374 4.168-1.32 4.006-.605-.379 1.153-1.46.938-1.461 1.1 0 .16 2.718.662 2.49.879-.232.216-.95.433-.95.574.001.14 3.006.25 3.006.47 0 .22-.757.275-.758.385.003.11 1.84-.054 2.977.275 1.13.328 2.53 2.544 2.545 2.568 0 0-.56.426-.971.592-.41.165-1.1.245-1.117.247.993.313 1.869.285 2.865 0 1.327-.38 2.685-1.33 3.01-1.874.46-.77.228-1.574-.34-2.22-.363-.413-2.962-2.317-2.962-2.761 0-.444.292-.362.292-1.233 0-.87-2.347-3.086-4.145-4.81-.566-.542-1.935-1.432-2.841-2.25-.903-.815-1.946-2.482-1.955-2.497 0 0-.007 1.458.67 2.496.675 1.039.975 1.806.975 1.806s-2.172-.855-3.442-2.028A121.932 121.932 0 0 0 7.761.487c.005.013.874 2.408 1.63 3.19.755.783.801 1.285.801 1.288 0 0-2.242.057-2.85.183-2.814.582-4.022 1.469-3.995 1.579.028.11.438-.172.871-.227.425-.054.565.022.57.025-.016.01-1.278.904-2.12 1.929-.846 1.031-1.624 2.225-1.603 2.93.34-.23.696-.42.855-.397.258.038.107-.036-.374 1.158-.686 1.704-.588 4.17-.587 4.18.007-.016.64-1.25.64-.49 0 .11-.106 1.839.749 3.366.855 1.527 1.657 2.225 1.657 2.225s-.481-1.248 0-1.465c.289-.129 1.96 1.927 3.63 3.597H1.693A1.604 1.604 0 0 1 .1 21.942V3.702C.101 1.919 1.526.472 3.284.472h11.014Z"/>
  <path fill="#171717" d="M22.661 14.29c.041-.056.27.042.512.22.241.18.403.371.363.428-.041.057-.27-.042-.512-.22-.24-.18-.403-.37-.363-.428Zm-5.756-4.886c.036-.053.812.212.92.275.109.064.766.659.704.77-.063.11-1.136-.165-1.245-.276-.109-.11-.41-.714-.379-.77Z"/>
</svg>
