<svg xmlns="http://www.w3.org/2000/svg" width="116" height="24" fill="none"><g clip-path="url(#a)"><mask id="b" width="117" height="24" x="-1" y="0" maskUnits="userSpaceOnUse" style="mask-type:luminance"><path fill="#fff" d="M115.198 0H-.002v24h115.2V0Z"/></mask><g fill="#fff" mask="url(#b)"><path d="M32.59 18.949c.875-.107 1.569-.314 2.081-.62V5.917c-.527-.307-1.267-.513-2.217-.62l.113-.828h5.86c1.736 0 3.033.33 3.893.988.86.644 1.29 1.586 1.29 2.827 0 1.747-.883 2.873-2.648 3.379 1.041.306 1.848.789 2.421 1.447.574.644.86 1.433.86 2.367 0 1.333-.46 2.39-1.38 3.172-.905.766-2.18 1.15-3.824 1.15h-6.563l.114-.851Zm5.883-7.791c1.086 0 1.886-.23 2.399-.69.513-.46.77-1.172.77-2.137 0-.965-.265-1.67-.793-2.114-.513-.46-1.327-.69-2.444-.69-.498 0-1.078.03-1.742.092v5.539h1.81Zm.566 7.515c1.04 0 1.825-.268 2.353-.804.528-.552.792-1.341.792-2.367 0-1.027-.317-1.816-.95-2.368-.619-.567-1.547-.85-2.784-.85h-1.787v6.297c.633.061 1.425.092 2.376.092Zm10.052 1.287c-.935 0-1.66-.23-2.172-.689-.513-.46-.77-1.103-.77-1.93 0-.996.362-1.778 1.086-2.344.725-.583 1.773-.92 3.146-1.012l1.855-.137v-1.862c0-.766-.158-1.325-.475-1.678-.317-.352-.83-.528-1.539-.528-.603 0-1.07.092-1.403.275-.316.184-.475.437-.475.759 0 .398.227.682.68.85 0 .353-.114.628-.34.828-.212.183-.528.275-.95.275-.393 0-.71-.122-.951-.367-.242-.246-.362-.567-.362-.966 0-.781.34-1.402 1.018-1.861.694-.475 1.622-.713 2.783-.713 1.237 0 2.203.276 2.897.828.694.551 1.04 1.317 1.04 2.298v6.412c.137.107.355.222.657.345.302.122.611.214.928.276l-.09.78H52.53l-.227-1.033c-.467.444-.958.758-1.47.942-.514.169-1.094.253-1.743.253Zm.566-.942c.422 0 .837-.1 1.244-.298.408-.215.853-.56 1.335-1.034V14.79l-1.81.16c-.709.062-1.267.292-1.674.69-.408.383-.611.881-.611 1.494 0 1.256.505 1.884 1.516 1.884Zm7.889-.068a4.11 4.11 0 0 0 .838-.185c.21-.076.43-.207.656-.39V6.769c0-.567-.113-.95-.34-1.15-.226-.214-.64-.337-1.244-.367l.068-.69a14.91 14.91 0 0 0 1.832-.413c.65-.2 1.041-.322 1.177-.368l.43.23v14.364c.377.29.905.498 1.584.62l-.09.804h-5.001l.09-.85Zm11.51 1.01c-1.69 0-2.905-.466-3.644-1.401-.724-.95-1.086-2.36-1.086-4.229 0-1.7.4-3.034 1.2-3.999.814-.98 1.99-1.47 3.53-1.47 1.493 0 2.541.398 3.145 1.194.603.797.927 1.977.973 3.54l-.475.62h-6.291v.115c0 .996.06 1.808.18 2.436.122.628.386 1.134.793 1.517.407.368 1.01.552 1.81.552a3.89 3.89 0 0 0 1.652-.345c.498-.23.913-.475 1.245-.735l.565.689c-.377.352-.867.697-1.47 1.034-.604.322-1.313.483-2.127.483Zm2.082-6.756c0-1.21-.16-2.084-.476-2.62-.302-.536-.867-.804-1.697-.804-.86 0-1.494.321-1.9.965-.409.628-.627 1.501-.657 2.62l4.73-.161Zm3.989 5.769c.347-.062.626-.13.837-.207.21-.077.43-.207.656-.391v-6.55c0-.567-.12-.95-.362-1.15-.226-.214-.634-.336-1.222-.367l.068-.666c.468-.092 1.139-.276 2.014-.552l.747-.23.407.207.226 1.609a4.815 4.815 0 0 1 1.222-1.31c.468-.337.966-.506 1.494-.506.543 0 1.01.161 1.403.483.407.322.61.781.61 1.379a1.6 1.6 0 0 1-.339 1.011 1.008 1.008 0 0 1-.86.437 1.5 1.5 0 0 1-.724-.184c-.226-.138-.37-.314-.43-.529a.778.778 0 0 0 .159-.276c.045-.137.068-.26.068-.367 0-.46-.212-.69-.634-.69-.271 0-.558.146-.86.437a3.677 3.677 0 0 0-.77 1.126 3.328 3.328 0 0 0-.294 1.356v5.332c.408.276 1.004.49 1.788.643l-.09.782h-5.205l.09-.828Zm9.65-.001c.347-.062.626-.13.837-.207.211-.077.43-.2.657-.368v-6.619c0-.567-.121-.95-.363-1.149-.226-.214-.633-.337-1.222-.367l.068-.667c.604-.107 1.222-.26 1.856-.46.648-.199 1.026-.314 1.131-.344l.453.253v9.353c.377.276.905.483 1.584.62l-.091.782h-5l.09-.827ZM86.972 7.09c-.785 0-1.177-.444-1.177-1.333s.392-1.333 1.177-1.333c.392 0 .686.115.882.345.211.23.317.559.317.988 0 .429-.106.758-.317.988-.196.23-.49.345-.882.345Zm9.421 12.87c-1.584 0-2.784-.474-3.598-1.424-.8-.95-1.2-2.329-1.2-4.137 0-1.808.4-3.18 1.2-4.114.814-.95 2.014-1.425 3.598-1.425s2.776.475 3.575 1.425c.815.935 1.222 2.306 1.222 4.114 0 1.808-.407 3.187-1.222 4.137-.8.95-1.991 1.425-3.575 1.425Zm0-1.056c.98 0 1.69-.353 2.127-1.058.453-.704.679-1.854.679-3.447s-.219-2.735-.657-3.424c-.437-.705-1.153-1.057-2.15-1.057-.98 0-1.689.352-2.126 1.057-.423.69-.634 1.83-.634 3.424 0 1.594.211 2.743.634 3.447.437.705 1.146 1.058 2.127 1.058Zm6.892.069a5.2 5.2 0 0 0 .837-.207c.226-.092.445-.222.656-.391v-6.55c0-.567-.12-.95-.362-1.15-.226-.214-.634-.336-1.222-.367l.068-.666c.467-.092 1.139-.276 2.014-.552l.747-.23.407.207.204 1.425a3.796 3.796 0 0 1 1.312-1.195 3.503 3.503 0 0 1 1.675-.437c1.101 0 1.953.284 2.557.85.618.552.928 1.326.928 2.322v6.343c.135.123.354.245.655.368.302.122.612.214.928.276l-.09.78h-4.978l.068-.78a3.144 3.144 0 0 0 1.493-.644v-6.136c0-1.517-.649-2.275-1.946-2.275-.513 0-1.003.183-1.471.551a3.31 3.31 0 0 0-1.063 1.379v6.481c.362.291.889.506 1.584.643l-.091.782h-5.001l.091-.827ZM14.298.47c6.036 0 10.929 4.97 10.929 11.1v10.372c0 .893-.713 1.616-1.592 1.616h-.814c-.06-.01-.12-.019-.182-.024-3.066-.27-10.895-4.88-12.797-7.1-1.169-1.365-2.085-3.237-1.22-4.611.867-1.374 4.168-1.32 4.006-.605-.379 1.153-1.46.938-1.461 1.1 0 .16 2.718.662 2.49.879-.232.216-.95.433-.95.574.001.14 3.006.25 3.006.47 0 .22-.757.275-.758.385.003.11 1.84-.054 2.977.275 1.13.328 2.53 2.544 2.545 2.568 0 0-.56.426-.971.592-.41.165-1.1.245-1.117.247.993.313 1.869.285 2.865 0 1.327-.38 2.685-1.33 3.01-1.874.46-.77.228-1.574-.34-2.22-.363-.413-2.962-2.317-2.962-2.761 0-.444.292-.362.292-1.233 0-.87-2.347-3.086-4.145-4.81-.566-.542-1.935-1.432-2.841-2.25-.903-.815-1.946-2.482-1.955-2.497 0 0-.007 1.458.67 2.496.675 1.039.975 1.806.975 1.806s-2.172-.855-3.442-2.028A121.932 121.932 0 0 0 7.761.487c.005.013.874 2.408 1.63 3.19.755.783.801 1.285.801 1.288 0 0-2.242.057-2.85.183-2.814.582-4.022 1.469-3.995 1.579.028.11.438-.172.871-.227.425-.054.565.022.57.025-.016.01-1.278.904-2.12 1.929-.846 1.031-1.624 2.225-1.603 2.93.34-.23.696-.42.855-.397.258.038.107-.036-.374 1.158-.686 1.704-.588 4.17-.587 4.18.007-.016.64-1.25.64-.49 0 .11-.106 1.839.749 3.366.855 1.527 1.657 2.225 1.657 2.225s-.481-1.248 0-1.465c.289-.129 1.96 1.927 3.63 3.597H1.693A1.604 1.604 0 0 1 .1 21.942V3.702C.101 1.919 1.526.472 3.284.472h11.014Z"/><path d="M22.661 14.29c.041-.056.27.042.512.22.241.18.403.371.363.428-.041.057-.27-.042-.512-.22-.24-.18-.403-.37-.363-.428Zm-5.756-4.886c.036-.053.812.212.92.275.109.064.766.659.704.77-.063.11-1.136-.165-1.245-.276-.109-.11-.41-.714-.379-.77Z"/></g></g><defs><clipPath id="a"><path fill="#fff" d="M0 0h115.2v24H0z"/></clipPath></defs></svg>