<svg width="648" height="175" viewBox="0 0 648 175" fill="none" xmlns="http://www.w3.org/2000/svg">
<mask id="mask0_875_3" style="mask-type:alpha" maskUnits="userSpaceOnUse" x="19" y="15" width="144" height="145">
<path d="M132.659 138.266C134.303 145.374 122.98 154.063 107.369 157.674C91.7572 161.284 77.7689 158.45 76.125 151.342C74.481 144.234 83.3589 124.975 98.9704 121.364C114.582 117.753 131.015 131.158 132.659 138.266Z" fill="white"/>
<path d="M132.659 138.266C134.303 145.374 122.98 154.063 107.369 157.674C91.7572 161.284 77.7689 158.45 76.125 151.342C74.481 144.234 83.3589 124.975 98.9704 121.364C114.582 117.753 131.015 131.158 132.659 138.266Z" fill="white"/>
<path d="M49.6159 36.7331C47.9719 29.6255 59.2948 20.9364 74.9062 17.3255C90.5177 13.7146 104.506 16.5492 106.15 23.6569C107.794 30.7645 98.916 50.0239 83.3045 53.6348C67.6931 57.2457 51.2599 43.8408 49.6159 36.7331Z" fill="white"/>
<path d="M49.6159 36.7331C47.9719 29.6255 59.2948 20.9364 74.9062 17.3255C90.5177 13.7146 104.506 16.5492 106.15 23.6569C107.794 30.7645 98.916 50.0239 83.3045 53.6348C67.6931 57.2457 51.2599 43.8408 49.6159 36.7331Z" fill="white"/>
<path d="M67.9329 148.842C62.5994 153.819 49.413 148.358 38.4802 136.644C27.5473 124.929 23.0081 111.398 28.3415 106.42C33.6749 101.442 54.793 99.5013 65.7259 111.216C76.6587 122.93 73.2663 143.864 67.9329 148.842Z" fill="white"/>
<path d="M67.9329 148.842C62.5994 153.819 49.413 148.358 38.4802 136.644C27.5473 124.929 23.0081 111.398 28.3415 106.42C33.6749 101.442 54.793 99.5013 65.7259 111.216C76.6587 122.93 73.2663 143.864 67.9329 148.842Z" fill="white"/>
<path d="M114.342 26.1572C119.675 21.1797 132.862 26.641 143.794 38.3554C154.727 50.0699 159.267 63.6014 153.933 68.579C148.6 73.5566 127.482 75.4977 116.549 63.7833C105.616 52.0688 109.008 31.1348 114.342 26.1572Z" fill="white"/>
<path d="M114.342 26.1572C119.675 21.1797 132.862 26.641 143.794 38.3554C154.727 50.0699 159.267 63.6014 153.933 68.579C148.6 73.5566 127.482 75.4977 116.549 63.7833C105.616 52.0688 109.008 31.1348 114.342 26.1572Z" fill="white"/>
<path d="M26.4115 98.0752C19.4341 95.9451 17.5706 81.7947 22.2492 66.4694C26.9277 51.144 36.3768 40.4471 43.3542 42.5772C50.3316 44.7073 62.5717 62.0255 57.8931 77.3509C53.2145 92.6762 33.3889 100.205 26.4115 98.0752Z" fill="white"/>
<path d="M26.4115 98.0752C19.4341 95.9451 17.5706 81.7947 22.2492 66.4694C26.9277 51.144 36.3768 40.4471 43.3542 42.5772C50.3316 44.7073 62.5717 62.0255 57.8931 77.3509C53.2145 92.6762 33.3889 100.205 26.4115 98.0752Z" fill="white"/>
<path d="M155.863 76.9251C162.841 79.0552 164.704 93.2056 160.026 108.531C155.347 123.856 145.898 134.553 138.921 132.423C131.943 130.293 119.703 112.975 124.382 97.6494C129.06 82.3241 148.886 74.795 155.863 76.9251Z" fill="white"/>
<path d="M155.863 76.9251C162.841 79.0552 164.704 93.2056 160.026 108.531C155.347 123.856 145.898 134.553 138.921 132.423C131.943 130.293 119.703 112.975 124.382 97.6494C129.06 82.3241 148.886 74.795 155.863 76.9251Z" fill="white"/>
</mask>
<g mask="url(#mask0_875_3)">
<path d="M30.9255 183.247L186.246 147.321L150.321 -7.99972L-5 27.9258L30.9255 183.247Z" fill="white"/>
</g>
<circle cx="91.5466" cy="87.5466" r="71.2455" transform="rotate(14.201 91.5466 87.5466)" fill="url(#paint0_radial_875_3)"/>
<path d="M295.992 105.613C295.992 107.059 295.816 108.582 295.465 110.184C295.152 111.785 294.645 113.387 293.941 114.988C293.238 116.551 292.32 118.055 291.188 119.5C290.094 120.945 288.746 122.234 287.145 123.367C285.582 124.461 283.766 125.34 281.695 126.004C279.625 126.668 277.281 127 274.664 127H247.184C245.738 127 244.215 126.844 242.613 126.531C241.012 126.18 239.41 125.652 237.809 124.949C236.246 124.246 234.742 123.348 233.297 122.254C231.852 121.121 230.562 119.773 229.43 118.211C228.336 116.609 227.457 114.773 226.793 112.703C226.129 110.594 225.797 108.23 225.797 105.613V36.8828H241.031V105.613C241.031 107.488 241.617 108.992 242.789 110.125C243.961 111.219 245.426 111.766 247.184 111.766H274.664C276.578 111.766 278.062 111.199 279.117 110.066C280.211 108.934 280.758 107.449 280.758 105.613V84.9883C280.758 83.0742 280.191 81.5898 279.059 80.5352C277.926 79.4414 276.461 78.8945 274.664 78.8945H247.184V63.6602H274.664C276.109 63.6602 277.633 63.8359 279.234 64.1875C280.836 64.5 282.418 65.0078 283.98 65.7109C285.582 66.4141 287.105 67.332 288.551 68.4648C289.996 69.5586 291.266 70.9062 292.359 72.5078C293.453 74.0703 294.332 75.8867 294.996 77.957C295.66 80.0273 295.992 82.3711 295.992 84.9883V105.613ZM377.906 105.613C377.906 108.23 377.574 110.594 376.91 112.703C376.246 114.773 375.367 116.609 374.273 118.211C373.18 119.773 371.91 121.121 370.465 122.254C369.02 123.348 367.496 124.246 365.895 124.949C364.332 125.652 362.73 126.18 361.09 126.531C359.488 126.844 357.965 127 356.52 127H329.039C326.93 127 324.625 126.629 322.125 125.887C319.625 125.145 317.301 123.934 315.152 122.254C313.043 120.535 311.266 118.328 309.82 115.633C308.414 112.898 307.711 109.559 307.711 105.613V84.9883C307.711 81.082 308.414 77.7812 309.82 75.0859C311.266 72.3516 313.043 70.1445 315.152 68.4648C317.301 66.7461 319.625 65.5156 322.125 64.7734C324.625 64.0312 326.93 63.6602 329.039 63.6602H356.52C360.426 63.6602 363.746 64.3633 366.48 65.7695C369.215 67.1758 371.422 68.9531 373.102 71.1016C374.781 73.2109 375.992 75.5156 376.734 78.0156C377.516 80.5156 377.906 82.8398 377.906 84.9883V105.613ZM362.672 85.1055C362.672 82.9961 362.145 81.4336 361.09 80.418C360.035 79.4023 358.512 78.8945 356.52 78.8945H329.156C327.125 78.8945 325.582 79.4219 324.527 80.4766C323.473 81.4922 322.945 82.9961 322.945 84.9883V105.613C322.945 107.605 323.473 109.129 324.527 110.184C325.582 111.238 327.125 111.766 329.156 111.766H356.52C358.59 111.766 360.133 111.238 361.148 110.184C362.164 109.129 362.672 107.605 362.672 105.613V85.1055ZM459.82 105.613C459.82 108.23 459.488 110.594 458.824 112.703C458.16 114.773 457.281 116.609 456.188 118.211C455.094 119.773 453.824 121.121 452.379 122.254C450.934 123.348 449.41 124.246 447.809 124.949C446.246 125.652 444.645 126.18 443.004 126.531C441.402 126.844 439.879 127 438.434 127H410.953C408.844 127 406.539 126.629 404.039 125.887C401.539 125.145 399.215 123.934 397.066 122.254C394.957 120.535 393.18 118.328 391.734 115.633C390.328 112.898 389.625 109.559 389.625 105.613V84.9883C389.625 81.082 390.328 77.7812 391.734 75.0859C393.18 72.3516 394.957 70.1445 397.066 68.4648C399.215 66.7461 401.539 65.5156 404.039 64.7734C406.539 64.0312 408.844 63.6602 410.953 63.6602H438.434C442.34 63.6602 445.66 64.3633 448.395 65.7695C451.129 67.1758 453.336 68.9531 455.016 71.1016C456.695 73.2109 457.906 75.5156 458.648 78.0156C459.43 80.5156 459.82 82.8398 459.82 84.9883V105.613ZM444.586 85.1055C444.586 82.9961 444.059 81.4336 443.004 80.418C441.949 79.4023 440.426 78.8945 438.434 78.8945H411.07C409.039 78.8945 407.496 79.4219 406.441 80.4766C405.387 81.4922 404.859 82.9961 404.859 84.9883V105.613C404.859 107.605 405.387 109.129 406.441 110.184C407.496 111.238 409.039 111.766 411.07 111.766H438.434C440.504 111.766 442.047 111.238 443.062 110.184C444.078 109.129 444.586 107.605 444.586 105.613V85.1055ZM500.66 127H493.863C491.676 127 489.332 126.629 486.832 125.887C484.371 125.145 482.066 123.934 479.918 122.254C477.77 120.535 475.992 118.328 474.586 115.633C473.18 112.898 472.477 109.559 472.477 105.613V36.8828H487.711V105.613C487.711 107.488 488.297 108.992 489.469 110.125C490.641 111.219 492.105 111.766 493.863 111.766H500.66V127Z" fill="white"/>
<path d="M648 149H511V127H569.098C570.738 127 572.477 126.805 574.312 126.414C576.188 126.023 578.023 125.418 579.82 124.598C581.617 123.777 583.355 122.723 585.035 121.434C586.715 120.145 588.18 118.582 589.43 116.746C590.68 114.91 591.676 112.801 592.418 110.418C593.199 107.996 593.59 105.281 593.59 102.273C593.59 99.2656 593.219 96.5703 592.477 94.1875C591.734 91.8047 590.719 89.6953 589.43 87.8594C588.18 86.0234 586.734 84.4609 585.094 83.1719C583.453 81.8438 581.715 80.75 579.879 79.8906C578.082 79.0312 576.266 78.4062 574.43 78.0156C572.594 77.5859 570.855 77.3516 569.215 77.3125H534.059C531.168 77.3125 528.902 76.4727 527.262 74.793C525.66 73.0742 524.859 70.75 524.859 67.8203C524.859 64.9297 525.66 62.6055 527.262 60.8477C528.902 59.0898 531.168 58.2109 534.059 58.2109H585.914V42.9766H534.059C531.598 42.9766 528.941 43.4258 526.09 44.3242C523.238 45.1836 520.582 46.6094 518.121 48.6016C515.699 50.5547 513.668 53.1133 512.027 56.2773C511.637 57.039 511.295 57.8439 511 58.6914V12H648V149ZM604.383 95.2773V127H619.617V95.2773H604.383ZM511 76.9814C511.295 77.8366 511.637 78.6504 512.027 79.4219C513.668 82.5859 515.699 85.1445 518.121 87.0977C520.582 89.0508 523.238 90.4766 526.09 91.375C528.941 92.2344 531.598 92.6641 534.059 92.6641H569.098C570.504 92.6641 571.773 92.8984 572.906 93.3672C574.078 93.8359 575.055 94.5 575.836 95.3594C576.656 96.2188 577.281 97.2344 577.711 98.4062C578.141 99.5781 578.355 100.867 578.355 102.273C578.355 105.164 577.535 107.469 575.895 109.188C574.293 110.906 572.027 111.766 569.098 111.766H511V76.9814ZM604.383 68.5V82.2695H619.617V68.5H604.383Z" fill="white"/>
<defs>
<radialGradient id="paint0_radial_875_3" cx="0" cy="0" r="1" gradientUnits="userSpaceOnUse" gradientTransform="translate(81.5932 73.9261) rotate(48.7314) scale(88.2254)">
<stop stop-color="white" stop-opacity="0.15"/>
<stop offset="0.540206" stop-color="white" stop-opacity="0"/>
</radialGradient>
</defs>
</svg>
