<svg width="32" height="32" viewBox="0 0 32 32" fill="none" xmlns="http://www.w3.org/2000/svg">
<path d="M32 16.219L28.5817 12.6812L25.1633 16.219L28.5817 19.7569L32 16.219Z" fill="black"/>
<path fill-rule="evenodd" clip-rule="evenodd" d="M22.4015 24.1924C20.5483 25.8763 18.1194 26.8968 15.4595 26.8968C9.64478 26.8968 4.9308 22.018 4.9308 16C4.9308 9.98202 9.64478 5.1032 15.4595 5.1032C18.2584 5.1032 20.8013 6.23377 22.6872 8.07685C22.8369 8.22316 22.9819 8.37378 23.1232 8.5287C23.4682 8.89354 23.9745 9.44455 24.4786 10.0496C24.7504 10.3491 25.035 10.6745 25.2368 10.9334L28.591 7.46193C28.2587 6.98235 27.9907 6.61764 27.8218 6.39299C25.0009 2.51133 20.5138 0 15.4595 0C6.92129 0 0 7.1633 0 16C0 24.8367 6.92129 32 15.4595 32C19.8206 32 23.76 30.1305 26.5702 27.1236C26.5702 27.1236 27.5628 26.0484 28.5702 24.8017L25.2991 21.418C23.9483 22.8276 22.4015 24.193 22.4015 24.193V24.1924Z" fill="black"/>
</svg>
