<svg xmlns="http://www.w3.org/2000/svg" width="32" height="32" fill="none"><rect width="31.298" height="31.298" fill="#F85018" rx="6.589"/><g fill="#fff" clip-path="url(#a)"><path d="M24.468 8.066H13.986a.19.19 0 0 0-.193.189v1.553a.19.19 0 0 0 .193.188h10.482a.19.19 0 0 0 .193-.188V8.255a.19.19 0 0 0-.193-.189m-4.581 3.307H9.119a.19.19 0 0 0-.193.189v1.552a.19.19 0 0 0 .193.189h10.768a.19.19 0 0 0 .192-.189v-1.553a.19.19 0 0 0-.192-.188m-2.29 3.311H6.83a.19.19 0 0 0-.193.188v1.553a.19.19 0 0 0 .193.188h10.767a.19.19 0 0 0 .193-.188v-1.553a.19.19 0 0 0-.193-.188m2.003 3.312H9.12a.19.19 0 0 0-.193.189v1.552a.19.19 0 0 0 .193.189H19.6a.19.19 0 0 0 .193-.189v-1.552a.19.19 0 0 0-.193-.189m4.868 3.307H13.986a.19.19 0 0 0-.193.188v1.553a.19.19 0 0 0 .193.188h10.482a.19.19 0 0 0 .193-.188V21.49a.19.19 0 0 0-.193-.188"/></g><defs><clipPath id="a"><path fill="#fff" d="M6.637 8.066H24.66v15.166H6.637z"/></clipPath></defs></svg>