<svg width="600" height="600" viewBox="0 0 600 600" fill="none" xmlns="http://www.w3.org/2000/svg">
<rect width="600" height="600" rx="128" fill="#5C0FC9"/>
<g transform="translate(50 50) scale(0.835)" fill="#FFFFFF">
<path d="M79.8026 112.511C53.844 116.274 33.8714 136.728 30.4339 163.19C28.2411 180.366 34.464 198.695 46.7321 211.137C62.734 227.402 86.5589 232.683 107.598 224.55L112.932 222.547L144.462 261.026C161.768 282.208 176.051 299.687 176.11 299.93C176.229 300.294 116.251 373.914 113.584 376.646C112.636 377.677 112.399 377.617 108.962 376.221C92.1299 369.302 74.5279 370.637 57.9334 380.227C51.9475 383.686 41.8723 393.822 38.4348 399.891C29.5449 415.61 27.8262 432.483 33.4565 448.991C39.3238 466.41 54.4367 480.794 72.0387 485.771C102.146 494.147 133.142 476.667 142.269 446.017C143.81 440.919 143.929 439.827 143.929 429.934C143.929 420.102 143.81 418.888 142.328 413.972C140.61 408.327 137.824 402.197 134.92 397.827L133.142 395.096L139.187 387.813C142.506 383.747 155.722 367.663 168.583 351.944C181.385 336.224 192.29 322.933 192.823 322.326C193.771 321.355 194.779 322.508 210.069 341.262L226.368 361.29H243.733L261.157 361.351L259.379 359.045C258.371 357.831 229.627 322.69 195.431 280.994L133.261 205.189L135.809 201.244C144.106 188.256 146.773 170.898 142.802 155.36C137.646 135.089 121.17 118.763 100.901 113.725C95.2118 112.329 85.1958 111.722 79.8026 112.511Z"/>
<path d="M506.815 112.572C484.057 115 464.795 131.387 458.039 154.086C456.498 159.184 456.379 160.277 456.379 170.17C456.379 180.002 456.498 181.216 457.98 186.132C459.698 191.776 462.484 197.906 465.388 202.276L467.166 205.007L464.44 208.406C462.899 210.227 449.267 226.917 434.095 245.368L406.596 278.931L405.055 277.171C404.225 276.2 396.698 267.035 388.283 256.778L372.992 238.145H356.16C346.856 238.145 339.27 238.388 339.27 238.631C339.27 238.934 368.014 274.197 403.158 317.046L466.988 394.975L464.499 398.92C456.202 411.848 453.535 429.206 457.505 444.743C462.721 465.136 478.96 481.219 499.703 486.5C507.467 488.502 519.32 488.32 527.439 486.135C550.138 480.066 566.733 460.766 569.874 436.914C572.067 419.738 565.844 401.408 553.576 388.966C537.574 372.701 513.749 367.421 492.709 375.553L487.376 377.556L455.846 339.138C438.481 317.956 424.316 300.416 424.316 300.112C424.316 299.809 438.54 282.208 455.964 260.966C480.204 231.348 487.85 222.426 488.561 222.729C507.111 230.923 524.891 229.952 542.374 219.877C548.36 216.417 558.436 206.282 561.873 200.212C570.763 184.493 572.482 167.62 566.851 151.112C560.984 133.693 545.871 119.309 528.269 114.332C524.535 113.301 513.927 111.783 512.03 112.026C511.734 112.026 509.363 112.269 506.815 112.572Z"/>
<path d="M232.649 231.469C220.856 245.853 211.254 257.688 211.254 257.81C211.254 258.235 227.908 278.506 228.382 278.627C228.56 278.688 239.05 266.125 251.674 250.709C270.58 227.645 274.432 222.547 273.721 222.062C273.187 221.698 270.758 220.12 268.268 218.481C265.72 216.781 261.512 213.201 258.845 210.409L254.045 205.371L232.649 231.469Z"/>
<path d="M348.811 349.395C330.142 372.094 325.934 377.556 326.646 378.042C327.12 378.345 329.55 379.984 332.039 381.623C334.587 383.322 338.795 386.903 341.462 389.695L346.263 394.732L367.717 368.635C381.407 351.883 388.934 342.233 388.638 341.748C388.164 340.959 377.14 327.485 373.821 323.601L371.866 321.294L348.811 349.395Z"/>
<ellipse cx="300.004" cy="428.565" rx="57.389" ry="59.33"/>
<ellipse cx="300.004" cy="171.654" rx="57.389" ry="58.7703"/>
</g>
</svg>
