<svg xmlns="http://www.w3.org/2000/svg" viewBox="0 0 143 129" width="143" height="129" fill="#1F3DFF">
  <path d="M89.1039 17.7385C90.4558 17.6587 92.015 17.6986 93.3553 17.7062C96.7853 17.7253 101.471 16.9993 102.327 21.5086C102.596 22.9258 102.449 24.3585 102.485 25.7927C104.025 41.7085 82.2203 24.593 83.7652 41.2849C84.0885 44.7666 82.524 50.3536 86.4195 52.4545C86.9697 52.7446 87.5655 52.9403 88.1795 53.0331C90.4441 53.3831 98.707 53.325 100.91 52.7901C107.846 51.1059 100.779 39.2244 107.902 37.637C110.416 37.0772 113.589 37.6158 116.196 37.3931C121.183 37.3248 122.686 38.4232 123.068 42.8534C124.281 55.9793 117.883 52.1548 108.885 53.0083C106.694 53.2161 104.589 55.4599 104.61 57.5911C104.645 61.4437 104.179 67.3498 104.709 71.029C105.797 78.5644 117.093 73.3939 121.425 76.2582C123.8 77.8943 123.335 80.5826 123.434 82.8354C123.942 92.8622 119.26 90.5742 113.074 91.0057C97.7136 92.7514 110.637 76.8696 100.03 74.9167C98.2898 74.5959 89.6514 74.7771 87.8445 75.0027C84.507 76.0848 83.5631 78.5644 83.7521 81.8354C83.9033 84.4442 83.3284 88.925 84.2162 91.2965C86.9384 98.5047 99.8673 90.5586 102.183 97.8411C102.738 99.5868 102.758 106.343 101.711 108.07C99.819 111.191 94.9197 109.878 92.045 110.14C81.8005 111.074 84.9372 104.211 84.155 97.596C83.0833 89.5078 67.8873 95.4696 63.2174 92.2417C60.5291 90.3839 61.3466 86.0921 61.2292 83.2017C60.9594 76.5541 62.5877 75.2934 68.9016 75.3299L75.5687 75.3664C78.3157 75.3795 81.5475 75.7667 83.3701 73.1905C84.3062 71.8673 84.5669 69.913 84.46 68.32C84.2306 64.9026 84.7808 59.8725 84.3336 56.647C82.8839 46.222 62.3791 57.8795 61.3153 47.3885C61.1692 45.947 61.2475 44.1423 61.2396 42.6673C61.2566 40.6785 61.0441 38.1718 62.3908 36.5606C64.0909 34.5273 66.7426 34.8867 69.1036 34.8721C72.4894 34.8513 75.9129 34.9961 79.2947 34.8458C89.7127 33.6391 78.8658 18.7678 89.1039 17.7385Z"/>
  <path opacity="0.7" d="M42.7057 57.114C44.2506 56.9891 46.1974 57.1004 47.6424 57.0703C54.5514 56.9264 58.1092 56.7066 57.6099 65.0365C57.3909 68.6831 57.9345 71.2544 53.2646 72.1983C51.1578 72.2439 49.0015 72.2048 46.878 72.2322C42.946 72.2817 38.7223 72.7276 38.1053 67.5787C37.9619 66.2792 38.0555 64.9198 38.0256 63.6233C37.9409 59.9708 38.71 57.597 42.7057 57.114Z"/>
  <path opacity="0.7" d="M46.7915 18.9226C49.5937 18.9082 55.8925 18.3565 57.9289 19.9751C58.775 20.6319 59.4086 22.1107 59.4047 23.1698C59.3916 27.3912 60.4855 32.2504 54.6513 32.601C51.8862 32.6238 45.7175 33.166 43.6298 31.6099C42.7185 30.9629 41.9704 29.4216 41.9707 28.3045C41.9718 23.9481 40.8964 19.333 46.7915 18.9226Z"/>
  <path opacity="0.7" d="M45.9749 96.7212C48.1149 96.5596 55.1774 96.3692 57.2464 97.2831C58.112 97.6912 59.1967 99.193 59.271 100.128C59.5918 104.139 60.4952 108.945 55.4733 110.065C53.0954 110.198 46.1556 110.529 44.0665 109.392C43.2273 108.921 42.1837 107.5 42.0997 106.534C41.7533 102.546 40.9654 97.7655 45.9749 96.7212Z"/>
  <path d="M67.6965 0.117892C69.7863 -0.0173032 76.696 -0.215465 78.3478 0.688528C79.4546 1.2941 80.156 2.37305 80.4572 3.57912C80.9761 5.66284 80.9682 9.59013 79.8366 11.4404C79.0779 12.6802 78.0375 13.1993 76.6699 13.5028C73.9999 13.719 68.012 13.9989 65.5232 12.7455C64.7279 12.3447 63.6941 10.5592 63.6458 9.62116C63.445 5.72007 62.5781 0.970519 67.6965 0.117892Z"/>
  <path d="M67.4794 115.494C69.4884 115.342 76.2495 115.152 78.222 115.999C81.1488 117.257 81.051 123.151 80.2766 125.744C79.789 127.379 78.514 128.143 76.7918 128.603C74.4712 128.757 67.7519 129.057 65.6985 127.937C64.8459 127.46 63.842 126.091 63.7364 125.113C63.3219 121.28 62.7534 116.588 67.4794 115.494Z"/>
  <path d="M129.433 59.5634C131.316 59.4225 138.527 59.2616 139.757 60.1298C143.159 62.535 143.376 70.8137 138.237 72.1409C135.522 72.3377 132.624 72.223 129.897 72.1787C127.976 72.1474 125.859 70.7146 125.647 68.6955C125.253 64.9566 124.754 60.5511 129.433 59.5634Z"/>
  <path opacity="0.5" d="M24.6361 39.3712C27.1234 39.2547 29.8028 39.3337 32.2564 39.3977C34.3054 39.4513 36.0836 41.0243 36.2941 43.0393C36.692 46.8464 36.8125 50.6304 32.298 51.4552C28.4846 51.4884 20.9129 52.79 20.4268 47.4317C20.0947 43.7718 20.135 39.977 24.6361 39.3712Z"/>
  <path opacity="0.5" d="M24.0433 78.3504C26.2664 78.1991 32.1787 77.9254 34.1782 78.8314C35.0382 79.2525 36.0508 80.4728 36.1905 81.4336C36.7176 85.0593 37.0081 88.9339 32.8286 90.1124C31.162 90.3223 23.7901 90.4136 22.5873 89.5531C19.3363 87.2247 19.0923 79.6619 24.0433 78.3504Z"/>
  <path opacity="0.4" d="M4.19591 59.5727C7.18831 59.3442 13.2446 58.8367 13.8612 62.816C14.3935 66.2509 14.1525 69.5466 10.1325 70.3575C6.71051 70.4096 0.702612 71.4148 0.121157 67.4513C-0.299029 63.209 0.217111 60.1741 4.19591 59.5727Z"/>
</svg>
