<svg width="144" height="144" viewBox="0 0 144 144" fill="none" xmlns="http://www.w3.org/2000/svg">
<style>
.bg { fill: #DCFF9F; }
path { fill: #004146; }
@media (prefers-color-scheme: dark) {
  .bg { fill: #004146; }
  path { fill: #DCFF9F; }
}
</style>
<rect class="bg" width="144" height="144"/>
<path d="M43 70.4909C43 59.498 49.2604 49.4274 59.2195 44.3998L99.5644 24.0329C99.7633 23.9325 100 24.0742 100 24.2938C100 35.2867 93.7396 45.3572 83.7805 50.3848L43.4356 70.7518C43.2367 70.8522 43 70.7104 43 70.4909Z"/>
<path d="M43 94.7985C43 83.9484 49.2604 74.0086 59.2195 69.0463L99.5644 48.9439C99.7633 48.8447 100 48.9847 100 49.2014C100 60.0515 93.7396 69.9913 83.7805 74.9536L43.4356 95.056C43.2367 95.1551 43 95.0152 43 94.7985Z"/>
<path d="M43 119.706C43 108.713 49.2604 98.6428 59.2195 93.6152L99.5644 73.2482C99.7633 73.1478 100 73.2896 100 73.5091C100 84.502 93.7396 94.5726 83.7805 99.6002L43.4356 119.967C43.2367 120.068 43 119.926 43 119.706Z"/>
</svg>
