<svg width="168" height="24" viewBox="0 0 168 24" fill="none" xmlns="http://www.w3.org/2000/svg">
<g clip-path="url(#clip0_6729_1620)">
<path d="M39.0231 18.3882H29.3068V15.2418H39.0231V18.3882ZM39.9136 12.0755H29.3068V8.79058H39.9136V12.0755ZM33.1063 23.4343H29.3068V8.79058H33.1063V23.4343Z" fill="#070617"/>
<path d="M43.9768 23.4343H40.217V12.9462H43.9373V14.6085H44.056C44.1615 14.3183 44.3133 14.0346 44.5111 13.7576C44.709 13.4673 44.9927 13.2299 45.3621 13.0452C45.7315 12.8473 46.2196 12.7484 46.8264 12.7484C47.1431 12.7484 47.3805 12.7747 47.5388 12.8275C47.7103 12.8671 47.7961 12.8869 47.7961 12.8869V16.6072C47.7961 16.6072 47.7037 16.5874 47.5191 16.5478C47.3475 16.495 47.0837 16.4687 46.7275 16.4687C46.2526 16.4687 45.8436 16.5346 45.5006 16.6665C45.1576 16.7853 44.8673 16.9766 44.6299 17.2404C44.4056 17.4911 44.2407 17.8209 44.1352 18.2299C44.0296 18.6256 43.9768 19.1006 43.9768 19.6547V23.4343Z" fill="#070617"/>
<path d="M53.6211 23.6322C52.7108 23.6322 51.8995 23.4871 51.1871 23.1969C50.4879 22.9066 49.8942 22.5109 49.4061 22.0095C48.918 21.5082 48.542 20.9278 48.2781 20.2681C48.0275 19.6085 47.9022 18.9159 47.9022 18.1903C47.9022 17.4515 48.0275 16.7589 48.2781 16.1125C48.542 15.4528 48.918 14.8724 49.4061 14.371C49.8942 13.8697 50.4879 13.4739 51.1871 13.1837C51.8995 12.8935 52.7108 12.7484 53.6211 12.7484C54.5314 12.7484 55.3362 12.8935 56.0354 13.1837C56.7478 13.4739 57.348 13.8697 57.8362 14.371C58.3243 14.8724 58.6937 15.4528 58.9443 16.1125C59.2082 16.7589 59.3401 17.4515 59.3401 18.1903C59.3401 18.9159 59.2082 19.6085 58.9443 20.2681C58.6937 20.9278 58.3243 21.5082 57.8362 22.0095C57.348 22.5109 56.7478 22.9066 56.0354 23.1969C55.3362 23.4871 54.5314 23.6322 53.6211 23.6322ZM53.6211 20.6243C54.0301 20.6243 54.3797 20.5188 54.6699 20.3077C54.9602 20.0834 55.1845 19.7866 55.3428 19.4172C55.5011 19.0478 55.5802 18.6388 55.5802 18.1903C55.5802 17.7286 55.5011 17.3196 55.3428 16.9634C55.1845 16.594 54.9602 16.3038 54.6699 16.0927C54.3797 15.8684 54.0301 15.7563 53.6211 15.7563C53.2254 15.7563 52.8758 15.8684 52.5723 16.0927C52.2821 16.3038 52.0578 16.594 51.8995 16.9634C51.7412 17.3196 51.662 17.7286 51.662 18.1903C51.662 18.6388 51.7412 19.0478 51.8995 19.4172C52.0578 19.7866 52.2821 20.0834 52.5723 20.3077C52.8758 20.5188 53.2254 20.6243 53.6211 20.6243Z" fill="#070617"/>
<path d="M63.7966 23.4343H60.0367V12.9462H63.7966V14.4304H63.8956C64.0407 14.1929 64.2254 13.9489 64.4497 13.6982C64.6871 13.4344 64.9972 13.2101 65.3797 13.0254C65.7623 12.8407 66.2439 12.7484 66.8243 12.7484C67.6819 12.7484 68.3547 12.9462 68.8428 13.342C69.3441 13.7246 69.7003 14.2127 69.9114 14.8064C70.1225 15.3869 70.228 15.9739 70.228 16.5676V23.4343H66.4681V17.3196C66.4681 16.937 66.3692 16.5874 66.1713 16.2708C65.9734 15.941 65.6304 15.7761 65.1423 15.7761C64.8916 15.7761 64.6739 15.8222 64.4893 15.9146C64.3177 16.0069 64.1792 16.1323 64.0737 16.2906C63.9813 16.4357 63.9088 16.6006 63.856 16.7853C63.8164 16.9568 63.7966 17.1349 63.7966 17.3196V23.4343Z" fill="#070617"/>
<path d="M76.387 23.6322C75.5954 23.6322 74.949 23.5333 74.4477 23.3354C73.9464 23.1243 73.5572 22.8605 73.2801 22.5438C73.0031 22.214 72.8052 21.8644 72.6865 21.495C72.5677 21.1256 72.4952 20.7826 72.4688 20.466C72.4424 20.1362 72.4292 19.8658 72.4292 19.6547V10.3737H76.1891V19.5161C76.1891 19.8855 76.2881 20.189 76.4859 20.4264C76.6838 20.6507 77.0466 20.7628 77.5743 20.7628C77.7854 20.7628 77.9635 20.7497 78.1086 20.7233C78.2537 20.6837 78.3263 20.6639 78.3263 20.6639V23.4343C78.3263 23.4343 78.1284 23.4673 77.7326 23.5333C77.3501 23.5993 76.9015 23.6322 76.387 23.6322ZM78.2274 15.9146H70.7274V12.9462H78.2274V15.9146Z" fill="#070617"/>
<path d="M83.0427 23.4343H79.2828V12.9462H83.0427V23.4343ZM81.1628 11.8974C80.5427 11.8974 80.0282 11.6995 79.6192 11.3038C79.2235 10.8948 79.0256 10.4133 79.0256 9.85918C79.0256 9.2787 79.2235 8.79058 79.6192 8.3948C80.0282 7.99902 80.5427 7.80113 81.1628 7.80113C81.7828 7.80113 82.2973 7.99902 82.7063 8.3948C83.1153 8.79058 83.3198 9.2787 83.3198 9.85918C83.3198 10.4133 83.1153 10.8948 82.7063 11.3038C82.2973 11.6995 81.7828 11.8974 81.1628 11.8974Z" fill="#070617"/>
<path d="M89.8379 23.6322C88.8748 23.6322 88.0371 23.4805 87.3247 23.1771C86.6255 22.8737 86.045 22.4647 85.5833 21.9502C85.1215 21.4225 84.7785 20.8354 84.5542 20.189C84.33 19.5293 84.2178 18.8565 84.2178 18.1705C84.2178 17.5109 84.3234 16.8578 84.5345 16.2114C84.7587 15.565 85.0951 14.9845 85.5437 14.47C85.9922 13.9423 86.5595 13.5267 87.2455 13.2233C87.9447 12.9067 88.7693 12.7484 89.7191 12.7484C90.7482 12.7484 91.6519 12.966 92.4302 13.4014C93.2086 13.8367 93.8154 14.47 94.2508 15.3011C94.6861 16.1191 94.9038 17.1151 94.9038 18.2892V19.1402H87.9975C88.0239 19.4436 88.1096 19.7272 88.2548 19.9911C88.3999 20.2417 88.6044 20.4462 88.8682 20.6045C89.1321 20.7628 89.4553 20.842 89.8379 20.842C90.1545 20.842 90.4118 20.7958 90.6096 20.7035C90.8207 20.6111 90.979 20.5056 91.0846 20.3869C91.2033 20.2681 91.2825 20.1626 91.322 20.0702C91.3748 19.9779 91.4012 19.9317 91.4012 19.9317H94.8445C94.8445 19.9317 94.8115 20.057 94.7455 20.3077C94.6796 20.5584 94.5542 20.8684 94.3695 21.2378C94.1848 21.594 93.9078 21.9568 93.5384 22.3262C93.169 22.6956 92.6809 23.0056 92.074 23.2562C91.4803 23.5069 90.735 23.6322 89.8379 23.6322ZM87.9777 17.0623H91.322C91.3088 16.7061 91.2297 16.4093 91.0846 16.1718C90.9527 15.9212 90.7614 15.7365 90.5107 15.6177C90.26 15.499 89.9698 15.4396 89.64 15.4396C89.2178 15.4396 88.8418 15.5716 88.512 15.8354C88.1954 16.0993 88.0173 16.5082 87.9777 17.0623Z" fill="#070617"/>
<path d="M99.5519 23.4343H95.792V12.9462H99.5123V14.6085H99.631C99.7366 14.3183 99.8883 14.0346 100.086 13.7576C100.284 13.4673 100.568 13.2299 100.937 13.0452C101.307 12.8473 101.795 12.7484 102.401 12.7484C102.718 12.7484 102.956 12.7747 103.114 12.8275C103.285 12.8671 103.371 12.8869 103.371 12.8869V16.6072C103.371 16.6072 103.279 16.5874 103.094 16.5478C102.923 16.495 102.659 16.4687 102.303 16.4687C101.828 16.4687 101.419 16.5346 101.076 16.6665C100.733 16.7853 100.442 16.9766 100.205 17.2404C99.9807 17.4911 99.8157 17.8209 99.7102 18.2299C99.6047 18.6256 99.5519 19.1006 99.5519 19.6547V23.4343Z" fill="#070617"/>
<path d="M111.338 23.4343H107.539V8.79058H111.338V23.4343ZM119.966 23.4343H116.167V8.79058H119.966V23.4343ZM118.145 17.5373H109.676V14.2919H118.145V17.5373Z" fill="#070617"/>
<path d="M126.482 23.6322C125.519 23.6322 124.681 23.4805 123.969 23.1771C123.27 22.8737 122.689 22.4647 122.227 21.9502C121.766 21.4225 121.423 20.8354 121.198 20.189C120.974 19.5293 120.862 18.8565 120.862 18.1705C120.862 17.5109 120.968 16.8578 121.179 16.2114C121.403 15.565 121.739 14.9845 122.188 14.47C122.636 13.9423 123.204 13.5267 123.89 13.2233C124.589 12.9067 125.413 12.7484 126.363 12.7484C127.392 12.7484 128.296 12.966 129.074 13.4014C129.853 13.8367 130.46 14.47 130.895 15.3011C131.33 16.1191 131.548 17.1151 131.548 18.2892V19.1402H124.642C124.668 19.4436 124.754 19.7272 124.899 19.9911C125.044 20.2417 125.249 20.4462 125.512 20.6045C125.776 20.7628 126.099 20.842 126.482 20.842C126.799 20.842 127.056 20.7958 127.254 20.7035C127.465 20.6111 127.623 20.5056 127.729 20.3869C127.848 20.2681 127.927 20.1626 127.966 20.0702C128.019 19.9779 128.045 19.9317 128.045 19.9317H131.489C131.489 19.9317 131.456 20.057 131.39 20.3077C131.324 20.5584 131.198 20.8684 131.014 21.2378C130.829 21.594 130.552 21.9568 130.183 22.3262C129.813 22.6956 129.325 23.0056 128.718 23.2562C128.125 23.5069 127.379 23.6322 126.482 23.6322ZM124.622 17.0623H127.966C127.953 16.7061 127.874 16.4093 127.729 16.1718C127.597 15.9212 127.406 15.7365 127.155 15.6177C126.904 15.499 126.614 15.4396 126.284 15.4396C125.862 15.4396 125.486 15.5716 125.156 15.8354C124.84 16.0993 124.661 16.5082 124.622 17.0623Z" fill="#070617"/>
<path d="M136.753 12.7484C137.267 12.7484 137.709 12.8209 138.078 12.966C138.448 13.098 138.745 13.2497 138.969 13.4212C139.206 13.5927 139.378 13.751 139.483 13.8961C139.602 14.028 139.661 14.094 139.661 14.094H139.82V12.9462H143.58V23.4343H139.82V22.2866H139.661C139.661 22.2866 139.602 22.3591 139.483 22.5043C139.378 22.6362 139.206 22.7879 138.969 22.9594C138.745 23.1309 138.448 23.2892 138.078 23.4343C137.709 23.5663 137.267 23.6322 136.753 23.6322C135.987 23.6322 135.321 23.4805 134.754 23.1771C134.2 22.8605 133.731 22.4449 133.349 21.9304C132.979 21.4027 132.702 20.8156 132.518 20.1692C132.333 19.5227 132.241 18.8631 132.241 18.1903C132.241 17.5175 132.333 16.8578 132.518 16.2114C132.702 15.565 132.979 14.9845 133.349 14.47C133.731 13.9423 134.2 13.5267 134.754 13.2233C135.321 12.9067 135.987 12.7484 136.753 12.7484ZM137.999 15.7365C137.564 15.7365 137.201 15.8618 136.911 16.1125C136.621 16.3499 136.403 16.66 136.258 17.0425C136.113 17.4119 136.04 17.7945 136.04 18.1903C136.04 18.5861 136.113 18.9753 136.258 19.3578C136.403 19.7272 136.621 20.0373 136.911 20.2879C137.201 20.5254 137.564 20.6441 137.999 20.6441C138.435 20.6441 138.797 20.5254 139.088 20.2879C139.378 20.0373 139.596 19.7272 139.741 19.3578C139.886 18.9753 139.958 18.5861 139.958 18.1903C139.958 17.7945 139.886 17.4119 139.741 17.0425C139.596 16.66 139.378 16.3499 139.088 16.1125C138.797 15.8618 138.435 15.7365 137.999 15.7365Z" fill="#070617"/>
<path d="M148.623 23.4343H144.863V8.3948H148.623V23.4343Z" fill="#070617"/>
<path d="M154.967 23.6322C154.175 23.6322 153.529 23.5333 153.027 23.3354C152.526 23.1243 152.137 22.8605 151.86 22.5438C151.583 22.214 151.385 21.8644 151.266 21.495C151.147 21.1256 151.075 20.7826 151.048 20.466C151.022 20.1362 151.009 19.8658 151.009 19.6547V10.3737H154.769V19.5161C154.769 19.8855 154.868 20.189 155.066 20.4264C155.263 20.6507 155.626 20.7628 156.154 20.7628C156.365 20.7628 156.543 20.7497 156.688 20.7233C156.833 20.6837 156.906 20.6639 156.906 20.6639V23.4343C156.906 23.4343 156.708 23.4673 156.312 23.5333C155.93 23.5993 155.481 23.6322 154.967 23.6322ZM156.807 15.9146H149.307V12.9462H156.807V15.9146Z" fill="#070617"/>
<path d="M161.563 23.4343H157.803V8.3948H161.563V14.4304H161.662C161.807 14.1929 161.992 13.9489 162.216 13.6982C162.453 13.4344 162.763 13.2101 163.146 13.0254C163.529 12.8407 164.01 12.7484 164.591 12.7484C165.448 12.7484 166.121 12.9462 166.609 13.342C167.11 13.7246 167.467 14.2127 167.678 14.8064C167.889 15.3869 167.994 15.9739 167.994 16.5676V23.4343H164.234V17.3196C164.234 16.937 164.136 16.5874 163.938 16.2708C163.74 15.941 163.397 15.7761 162.909 15.7761C162.658 15.7761 162.44 15.8222 162.256 15.9146C162.084 16.0069 161.946 16.1323 161.84 16.2906C161.748 16.4357 161.675 16.6006 161.622 16.7853C161.583 16.9568 161.563 17.1349 161.563 17.3196V23.4343Z" fill="#070617"/>
<path fill-rule="evenodd" clip-rule="evenodd" d="M10.8658 23.4246L23.1375 11.1529L21.0663 9.08171L8.79463 21.3534L10.8658 23.4246Z" fill="#070617"/>
<path fill-rule="evenodd" clip-rule="evenodd" d="M2.6362 0.00146484H23.4329V2.93058H2.92911V23.4343H0V2.63766C0 1.18173 1.18027 0.00146484 2.6362 0.00146484Z" fill="#070617"/>
<path fill-rule="evenodd" clip-rule="evenodd" d="M20.7967 8.7888H8.78733V11.7179H20.5038V23.4343H23.4329V11.425C23.4329 9.96906 22.2526 8.7888 20.7967 8.7888Z" fill="#070617"/>
</g>
<defs>
<clipPath id="clip0_6729_1620">
<rect width="168" height="24" fill="white"/>
</clipPath>
</defs>
</svg>
