<svg xmlns="http://www.w3.org/2000/svg" width="64" height="64" viewBox="0 0 200 260">
  <path fill="#111827" d="M98.38 58.26h50.61c32.18 0 58.26-26.08 58.26-58.26H101.63C40.65 0 .94 43.63 .94 97.44s43.63 97.44 97.44 97.44 97.44-43.63 97.44-97.44c0-5.82-.74-11.65-2.11-17.05h-60.05a39.05 39.05 0 0 1 3.89 17.05c0 21.64-17.54 39.18-39.18 39.18S59.2 119.08 59.2 97.44s17.54-39.18 39.18-39.18Z"/>
  <path fill="#1f2937" d="M140.15 224.63h-68.5c-10.98 0-19.88-8.9-19.88-19.88v-21.72c-22.98 0-41.6 18.63-41.61 41.6 0 31.4 25.46 56.86 56.87 56.86h129.99c0-31.41-25.46-56.87-56.87-56.87Z"/>
</svg>
