<?xml version="1.0" encoding="utf-8"?>
<!-- Generator: Adobe Illustrator 26.2.1, SVG Export Plug-In . SVG Version: 6.00 Build 0)  -->
<svg version="1.1" id="Layer_1" xmlns="http://www.w3.org/2000/svg" xmlns:xlink="http://www.w3.org/1999/xlink" x="0px" y="0px"
	 viewBox="0 0 2836.2 1200" style="enable-background:new 0 0 2836.2 1200;" xml:space="preserve">
<style type="text/css">
	.st0{fill:#FFFFFF;}
	.st1{fill:#4D5B31;}
	.st2{fill:#DE8028;}
</style>
<path class="st0" d="M2354.9,706.6c-5.1-16.9-18.8-33.9-38.5-48c-11.4-8.2-24.4-15-38.5-20.3c-13.3-5-27.2-8.5-41.5-10.4
	c-18.4-2.5-35.3-2.6-51.8-0.2c-15.3,2.2-28.1,4.8-44.5,10.7c-13.5,4.9-24.8,9.6-34.3,14.3c-0.1-0.7-0.2-1.4-0.3-2.1
	c-0.8-4-2.7-7.5-5.3-10.5c0.9-1,1.7-2,2.4-3.1c3.4-5.2,4.5-11.3,3.2-17.4c-2.6-12.4-14.9-20.4-27.4-17.8c-0.9,0.2-1.8,0.5-2.7,0.8
	c0.1-1.9-0.1-3.8-0.5-5.7c-2.6-12.4-14.9-20.4-27.4-17.8c-3.2,0.7-6.3,2.1-8.9,4.1c-4.6-9.3-15-14.4-25.4-12.2
	c-12.3,2.6-20.2,14.7-17.9,27c-3.4,13-8.4,18.5-14.2,24.9c-3.6,3.9-7.6,8.3-11.4,14.4c-20.6,4.4-33.8,19.3-45.4,32.5
	c-8.1,9.2-10.4,22-6.3,34.4c0,1,0.1,2,0.1,3c-4.6-1.4-9.1-1.5-12.9-1.6c-5.7-0.1-10.6-0.2-16.5-3.8c-11-6.7-24.4-8.3-37.3-9.9
	c-13.8-1.7-26.9-3.3-33.4-10.6c-11.1-12.4-26.7-14.9-37.2-12c-0.2,0-0.3,0.1-0.5,0.1c-3.9-1.4-7.4-1.6-13.8-1.6
	c-20.9-1.9-29.7-7.4-36.7-11.8c-6.5-4.1-13.9-8.7-25.5-7.7c-2.3-2.4-4.9-4.2-8-5.3c-5.3-2-10.3-1.6-13.2-1.3l-0.6,0
	c-0.8-0.2-2.5-0.7-3.5-1c-2.3-0.7-5.3-1.6-8.9-2.4c0.2-0.6,0.5-1.3,0.7-1.9c4.8,2.6,10.3,3.4,15.7,2.3c6-1.3,11.2-4.8,14.5-10
	c3.4-5.2,4.5-11.3,3.2-17.4c-0.9-4-2.7-7.7-5.4-10.7c2.3,0.2,4.7,0.1,6.9-0.4c12.4-2.7,20.4-14.9,17.8-27.4
	c-2.1-9.9-10.2-17-19.9-18.1c2.7-4.9,3.5-10.4,2.4-15.9c-1.3-6-4.8-11.2-10-14.6c-5.1-3.3-11.1-4.5-17-3.3c0-1,0-2-0.1-3
	c0-1.4-0.2-2.8-0.5-4.2c-2.6-12.4-14.9-20.4-27.4-17.8c-9.4,2-16.5,9.5-18,18.9c-8,9.6-14.6,12.5-22.2,15.9
	c-4.9,2.2-10.5,4.6-16.4,8.8c-20-6.2-39.8-4.9-59,4.1c-9.5,4.5-16.5,13.4-19.4,24.7c-0.2,0.1-0.6,0.2-1.4,0.4
	c-2.2,0.5-5.1,1.2-9,2.9c-4.8,2-9.9,0.6-16.3-1.3c-3.7-1.1-7.5-2.2-11.6-2.7c-9.4-1.1-18.5-2.9-27.4-4.7c-4.3-0.8-8.7-1.7-13.2-2.5
	c-55.9-17-109-27.5-158.6-36.9c-8.2-1.5-16.2-2.9-24-4.3l-52.4-9c-3.7-1.2-7.4-2.3-11.1-3.4c-25.3-7.6-49.7-13.4-72.4-17.4
	c-19.4-3.4-71.3-10-133.8,2c-19.1,3.7-30.6,6.1-61.4,16.9c-22.7,8-163.2,76.5-238.1,188.5c-22.8,34-35.5,69.9-41,88.2
	c-8.1,26.8-11.3,50-8.2,59.1c2.1,6.3,6.7,8.6,9.2,9.4c10.1,3.3,39.5-2.1,62.4-7.2c15.3-3.4,53.6-12.7,79.9-25
	c123-57.2,221.1-148.2,248.2-174.8c11.4-11.2,20.9-19.8,29.8-27.3c12.1-10.1,23.1-17.9,33.6-23.7c15.8-8.8,30.7-13.4,45.5-14
	c12.9-0.5,29.9-0.7,46.6,2.3c9.8,1.8,19.8,4.7,29.6,8.5c42.1,16.6,79.7,43.8,119.6,72.5l3.2,2.3c6.3,5.9,10.8,10.9,15.5,16.3
	c3.7,4.2,7.5,8.5,12.2,13.1c1,1,2,2,2.9,2.9c8.3,8.4,16.9,17.1,33.8,23.6c14.6,5.6,23.8,23.2,24.3,36.6c-0.6,1-1.1,1.9-1.6,2.7
	c-10,10.4-14.5,24.7-11.9,37.2c4.8,22.6,16.5,40.4,34.8,52.9c0.8,8.7,3.7,15.5,6.2,21.6c4.2,10,6.9,16.6-0.5,31.3
	c-5.9,5.5-8.4,13.6-6.7,21.6c1.3,6,4.8,11.2,10,14.6c5.2,3.4,11.3,4.5,17.4,3.2c6-1.3,11.1-4.8,14.4-9.7c1.8,4,4.7,7.5,8.5,10
	c5.2,3.4,11.3,4.5,17.4,3.2c12.5-2.7,20.4-14.9,17.8-27.4c-0.2-0.7-0.3-1.4-0.6-2.1c0.1,0.1,0.2,0.1,0.3,0.2
	c4.8,9,15.1,13.8,25.2,11.7c6-1.3,11.2-4.8,14.6-10c3.4-5.2,4.5-11.3,3.2-17.4c-0.4-1.8-1-3.6-1.8-5.2c12.1-2.9,19.8-15,17.2-27.3
	c-1.9-8.8-8.5-15.4-16.7-17.5c2.8-1.9,5.2-4.5,7-7.5c5,6.6,13,8.6,19.7,10.4l0.2,0.1c0.7,0.2,1.4,0.4,2.1,0.6
	c5.4,1.4,7,3.8,10.7,10.6c5.4,10,13.7,25,42.5,27.2c2.7,0.2,5.4,0,7.9-0.7c4.6,7.6,12.7,16.4,30.9,14.9c11,9.4,22.4,11.5,35.7,6.7
	c13.9-0.2,21.8,3.6,23.1,4.5c10,10.3,23,14.4,39.5,12.3c1.2,0.2,2.5,0.4,3.8,0.5c20.1,9.5,25.5,19.6,25.6,21.1
	c0.4,8,0.9,16.4,4.6,30.2c3.9,14.8,7.5,19.2,13,25.2l0.1,0.1c0.8,0.8,1.6,1.8,2.6,2.9c1,1.2,2.2,2.8,3.4,4.5
	c4.1,5.7,8.8,12.1,16.3,15.3c13.1,5.6,27.4,6.6,41.1,6.7c4.1,6.7,8.5,11.6,12.4,15.9c6.7,7.4,12.5,13.9,16.9,30.4
	c-0.6,3-0.6,6.1,0.1,9.2c1.3,6,4.8,11.2,10,14.6c3.8,2.4,8.1,3.7,12.5,3.7c1.6,0,3.3-0.2,4.8-0.5c9.7-2.1,17-10.1,18.1-19.9
	c5.2,3.6,11.7,4.9,17.9,3.6c6-1.3,11.2-4.8,14.6-10c3.4-5.2,4.5-11.3,3.2-17.4c-0.3-1.4-0.7-2.7-1.2-4c4.1,1.6,8.6,2,13.1,1
	c12.4-2.7,20.4-14.9,17.8-27.4c-1.8-8.7-8.5-15.4-16.9-17.5c5.3-1.6,9.8-4.9,12.8-9.6c3.4-5.2,4.5-11.3,3.2-17.4
	c-2.6-12.4-14.9-20.4-27.4-17.8c-2.8,0.6-5.5,1.7-7.9,3.3c-16.4,3.9-27.7,1-39.6-2.2c-4.5-1.2-9.1-2.4-14-3.2c1.4-1,2.8-1.9,4.2-2.9
	l0.1-0.1c3.1-2.2,6.3-4.4,9.6-6.6c14.7-9.9,25.7-21.3,36.4-32.3c4.9-5,9.5-9.8,14.2-14.2c5.8-5.3,10.7-8.1,15.5-8.9
	c9.2-1.5,18.6-3.2,27.7-5c11-2.1,20.8-5.4,30.2-10.1c12,12.4,28,18.3,47.6,17.6c10.2-0.4,27.1-2,41.4-5.4
	c29-6.9,86.1-26.8,142.4-82.3c11.3-11.1,20.8-27.8,26.2-45.6C2361.9,755.4,2364,736.5,2354.9,706.6z M2064.8,684.3
	c-1.5,2-2.8,4.1-3.9,6.2c-3,5.2-7.7,9.1-13.4,11l-1.8,0.5c-5,1.4-10.4,0.5-14.7-2.6c-3.5-2.5-7-4.9-10.6-7.1
	C2034.3,691.4,2049,688.7,2064.8,684.3z M1561.2,811.7c-3.8,0.9-7.2,2.8-10.1,5.4c-14.7,6.3-19.5,3.7-26.7-0.3
	c-0.5-0.3-1-0.5-1.5-0.8c4.8-2.1,9.8-4.6,15-7.2l0.6-0.3c4.2-2.1,8.9-3,13.5-2.7C1555.2,807.6,1558.2,809.6,1561.2,811.7z"/>
<path class="st1" d="M2342.5,710.4c-4.2-13.9-16.1-28.7-33.6-41.2c-10.1-7.2-22.1-13.7-35.5-18.8c-11.9-4.5-24.8-7.8-38.7-9.7
	c-15.2-2.1-31.4-2.6-48.2-0.2c-14.7,2.1-26.5,4.5-42,10c-13.1,4.7-24.1,9.3-33.4,14c-20.9,10.5-32.8,21.1-38.9,32.2
	c-4.8,8.5-12.8,14.8-22.2,17.5c-0.3,0.1-0.5,0.1-0.8,0.1c-8.8,2.5-18.3,0.8-25.8-4.5c-8.1-5.8-16.2-10.6-24.3-14.4
	c2.9-3.2,0.4-11.8,3.3-16c24.1,1.2,49.5-4,75.9-13.1c0.9-0.3,1.7-0.7,2.5-1.1c1.3,0.3,2.7,0.3,4.2,0c5.4-1.2,8.9-6.5,7.8-12
	c-1.2-5.4-6.5-8.9-12-7.8c-2.9,0.6-5.3,2.4-6.6,4.8c-2.7,0.7-7.8,3.7-9.1,2c-1.5-1.9-0.8-2.9,0-5.2c0.5-0.4,0.7-1,1.1-1.6
	c2.5-4,9.1-8.5,14.6-11.4c1.4,0.4,3,0.4,4.5,0.1c5.4-1.2,8.9-6.5,7.8-12c-1.2-5.5-6.5-8.9-12-7.8c-2.9,0.6-5.3,2.5-6.7,4.9
	c-9.6,4.4-14.5,9.7-18.8,9.5c-3.9-0.2-6.1-4.6-4.5-8.4c1.2-2.8,7.4-7.6,9.1-12.1c2.1-2.3,3-5.5,2.4-8.8c-1.2-5.5-6.5-8.9-12-7.8
	c-4.7,1-8,5.2-8,9.8c-3.1,3.8-5.9,9-8.7,10.6c-5.1,2.8-7.7-2.3-7.8-5.4c0-1.9,0.4-5,0.7-7.8c1.4-2.2,2-4.8,1.4-7.6
	c-1.2-5.4-6.5-8.9-12-7.8c-5.4,1.2-8.9,6.5-7.8,12c0.1,0.7,0.4,1.3,0.6,2c-6.7,30.7-21.2,31.6-30.7,51.6c-19,1.5-30.5,13.9-44,29.2
	c-5.7,6.5-6.2,15.8-3.1,23.4c0.1,9.8,1.7,19.5,4.7,29.2c-24.3,0.2-47.8-1.7-70.5-5.1c-29.4-4.4-56.1-14.8-84.6-19.4
	c-30.2-4.9-57.5-19-85-28.8c-27.1-9.8-53.3-21.4-79.7-32.1c2.8,1.1-18.5-21.7-22.9-43c0.7,3.2,6-3,9.1-4.8
	c12.1,8.9,23.6,10.5,36.5,31.8c-0.1,0.9,0,1.8,0.2,2.7c1.2,5.4,6.5,8.9,12,7.8c5.4-1.2,8.9-6.5,7.8-12c-0.7-3.3-2.9-5.9-5.8-7.1
	c-0.7-1.2-1.3-2.3-1.6-3.3c-0.9-2.9,2.8-14.1,16.6-4c1.3,1,2.6,2.2,4,3.4c0,0.4,0.1,0.9,0.2,1.3c1.2,5.4,6.5,8.9,12,7.8
	c5.4-1.2,8.9-6.5,7.8-12c-1-4.7-5.1-7.9-9.7-8l-1.6-0.7c-2.2-0.9-3.9-2.7-4.6-5c-0.8-2.3-0.5-4.7,0.7-6.8c0.9-0.7,1.6-1.6,2.6-2.3
	c3.4-2.3,10.7-4.2,17.1-5c2.1,1.2,4.7,1.7,7.2,1.2c5.4-1.2,8.9-6.5,7.8-12c-1.2-5.4-6.5-8.9-12-7.8c-1.9,0.4-3.6,1.3-4.9,2.6
	c-8.5,1.5-14.1,1.5-17.5-0.5c-3.4-2-3.6-7.5-0.5-10.4c1.8-1.8,3.8-3.4,7.3-5.8c0.7,0,1.5-0.1,2.2-0.2c5.4-1.2,8.9-6.5,7.8-12
	c-1.2-5.5-6.5-8.9-12-7.8c-3.8,0.8-6.7,3.7-7.6,7.2c-5.5,3.2-5.9,2.1-9.9,2.4c-5.9,0.4-6.1-5.9-4.8-8.9c1.3-3.2,5.4-9.3,6.5-12.1
	c0.5-1.2,0.5-2.3,0.3-3.3c0-0.8,0-1.6-0.2-2.5c-1.2-5.4-6.5-8.9-12-7.8c-5.1,1.1-8.5,5.9-7.9,11c-18.7,24.6-32.1,19.6-49.1,34.5
	c-18.1-7.3-36.8-7.7-55.8,1.3c-7.3,3.4-11.6,11-12.9,18.9c-6.3,8.3-8.7,5.5-17.3,9.2c-12.9,5.5-24.4-1.8-34.6-3
	c-14.8-1.8-28.3-5-42-7.4c-53.9-16.4-105.7-26.9-157.9-36.8c-8-1.5-15.9-2.9-23.8-4.3c83.9,33.6,173.6,73.6,260.5,117
	c68,34,133.1,72.6,200.5,96.1c53.1,18.5,105.5,30.6,156.4,33c61.6,2.7,118.9,2.6,174.4-9.3c30.1-6.4,77.6-21.8,87.8-25.1
	c0.7-0.2,1.4-0.1,2,0.2c0.6,0.4,1,1,1.2,1.7c0,0.1,0.1,0.1,0.1,0.2c0.2,1.4-0.4,2.7-1.7,3.3c-11.4,5.6-23,9-38.4,13.8
	c-12.6,3.9-27.2,9.2-49.4,13.8c-55.8,11.7-112,14.9-173.8,12.9c-51.4-1.6-104.3-13.3-158.2-30.8c-71.9-23.4-142.5-65.4-216.3-103.1
	c-104.5-53.5-210.9-106.9-310.1-136.5c-24.1-7.2-47.8-13-70.9-17c-25.6-4.5-73.7-8.7-129.1,1.9c-18.3,3.5-29.2,5.8-59.5,16.4
	c-21.8,7.6-159,75-231.6,183.4c-40.9,61-53,135.1-46.7,137.2c10.6,3.5,93-13.2,132.7-31.6c130-60.5,232.3-160.3,244.6-172.3
	c10.2-10,20.3-19.4,30.5-28c11.7-9.8,23.5-18.4,35.6-25.1c16.5-9.2,33.4-14.9,51.4-15.6c16.5-0.7,33-0.5,49.4,2.5
	c10.9,2,21.6,5.1,32.1,9.2c45,17.8,84.5,46.7,126.2,76.8c12.4,11.5,18.3,20,28.6,30.3c8.9,8.9,16.1,17.4,32.3,23.7
	c21.3,8.2,33.8,33.8,32.5,52.5c-1.7,2.7-3,5-4,6.8c-7.1,6.8-11.7,17-9.7,26.6c4.8,22.6,17.2,38.1,34.9,48.3
	c-1.6,25.6,22.2,33.7,3.1,68.5c-3.3,2.2-5.2,6.3-4.3,10.5c1.2,5.4,6.5,8.9,12,7.8s8.9-6.5,7.8-12c1.8-2.6,4-5.6,5.1-7.8
	c1.7-3.3,9-8.1,12.4-2.7c1.9,3,1.8,10,2.8,15.5c0,0.9,0,1.8,0.2,2.7c1.2,5.4,6.5,8.9,12,7.8c5.4-1.2,8.9-6.5,7.8-12
	c-0.2-1.1-0.6-2.1-1.1-2.9c-0.7-4.5-2.4-9.2-2.1-11.8c0.5-4.6,6.4-16.2,26.4,2.2c1.5,4.9,6.6,7.9,11.7,6.8c5.4-1.2,8.9-6.5,7.8-12
	c-1-4.8-5.3-8.1-10-8c-5.1-4.3-10-9.1-6.7-14.2c3.9-6,10-4.9,12.3-3.6l1.5,0.9c2.2,3.4,6.4,5.3,10.6,4.4c5.4-1.2,8.9-6.5,7.8-12
	c-1.2-5.4-6.5-8.9-12-7.8c-0.6,0.1-1.2,0.3-1.7,0.5c-2.8-0.9-5.3-1.9-7.8-3c-11.6-7.7-8.9-14.8-6.5-16.5c1.7-1.2,5.4-2,8.5-2.9
	c1.5,0.4,3,0.4,4.6,0.1c5.4-1.2,8.9-6.5,7.8-12c-1.2-5.4-6.5-8.9-12-7.8c-2.4,0.5-4.5,1.9-5.9,3.7c-31,14.3-36.8-1-51.8-4.4
	c-0.5-5.7-1.3-10.9-2.3-15.7c7.2-0.3,17.8-5.7,28.1-11c7.3-3.7,15.5-4.9,23.4-3.7c17.7,9.4,33.7,24.4,38.7,37.3
	c0.4,10.1,6.3,10.8,17.1,13.6c25.6,6.8,12.3,34.4,50.9,37.4c6.1,0.5,9.7-3.9,8.2-6.1c-2.5-10.3-9.4-14.7-11.2-15.6
	c-0.1-0.1-0.3-0.1-0.4-0.2c0,0,0.2,0.1,0.4,0.2c25.3,13,12.2,41.7,45.2,35.1c10.8,11.6,18.9,11.6,28.7,7.5c19-0.8,31.4,4.6,34.9,8.2
	c9.2,9.6,20.3,9.9,30.8,8.3c1.8,0.4,4,0.7,6.8,0.9c22.2,10,34.8,23.6,35.3,33.1c0.4,8.1,0.9,15.2,4.2,27.6c4,14.9,6.5,15.6,12.9,23
	c4.6,5.3,9.1,13.8,15,16.4c13.5,5.8,29.6,5.7,43.7,5.7c11,23.4,26.4,23.1,35,59.5c-0.8,1.9-1.1,4-0.7,6.2c1.2,5.4,6.5,8.9,12,7.8
	c4.7-1,7.9-5.1,8-9.6c0.1-0.5,0.1-1,0.1-1.5c0-3.3-1.5-11.5-1.6-15.4c-0.1-3.8,2.4-10.3,8-7.4c2.6,1.4,5.9,5.1,9.4,8.3
	c0,0.5,0.1,1.1,0.2,1.6c1.2,5.4,6.5,8.9,12,7.8c5.4-1.2,8.9-6.5,7.8-12c-0.6-2.7-2.2-5-4.4-6.4c-2-4.4-5.8-8.5-7-11.3
	c-1.9-4.4,0.4-10,4.4-10.7c4.5-0.8,9.5,3.1,19.5,7.2c2.3,2.4,5.8,3.5,9.3,2.8c5.4-1.2,8.9-6.5,7.8-12c-1.2-5.4-6.5-8.9-12-7.8
	c-0.1,0-0.2,0-0.3,0.1c-5.5-3.1-11.3-7.7-13.9-11.8c-0.7-1-1-2.1-1.6-3.2c-0.5-2.7,0.2-5.5,1.9-7.6c1.7-2.1,4.2-3.3,6.9-3.3
	c1.1,0,2.2,0,3.1,0c2.1,1.2,4.6,1.7,7.2,1.1c5.4-1.2,8.9-6.5,7.8-12c-1.2-5.4-6.5-8.9-12-7.8c-1.9,0.4-3.5,1.3-4.8,2.5
	c-36.4,9.8-53-8.6-77.8-4.7c-2.8-4.2-5.6-8-8.4-11.3c9.8-4.6,21-13.2,33.4-21.6c20.2-13.6,33.6-30.9,49-45.2
	c6.4-5.9,13.6-10.8,22.2-12.2c9.1-1.5,18.2-3.1,27.3-4.9c9.9-1.9,19-4.9,27.8-9.5c4.5-2.4,9.9-1.4,13.4,2.3
	c9.9,10.8,23.1,15,38.6,14.5c11-0.4,26.5-2.1,38.8-5c39.3-9.4,89.8-33.1,136.2-78.9c9.7-9.5,18.1-24.3,22.9-40
	C2349,753.1,2350.5,736.6,2342.5,710.4z M1710.7,872.4c-76.9-31.9-67.9-45.1-133.7-85c33.7,8.4,60.5,49.7,136.1,78.6
	c49,18.7,96.7,27.5,157.7,35C1846,905.4,1757.5,891.8,1710.7,872.4z M2208.9,673.9c-0.6-6.9,7.7-12.6,18.5-12.5
	c10.8,0,20.1,5.6,20.7,12.5c0.6,6.9-4.9,7.5-15.7,7.5C2221.6,681.4,2209.5,680.8,2208.9,673.9z M2264.7,795.7
	c-9,5.3-19.4,4.8-23.2-1.3c-3.8-6.1,2.9-13.5,11.9-18.8c9-5.3,17-6.6,20.8-0.6C2277.9,781,2273.7,790.3,2264.7,795.7z"/>
<path class="st1" d="M1698.1,662.8c-3.1-10.1-10.6-8.2-15.2-8c-5.9,0.3-17.7-7.8-42.1-4.9c58.4,23.3,102.2,45.2,142.4,51.8
	c14.1,2.3,23.2,4.2,34.1,7.1c45.4,12,81.2,17.8,103,14.5c-8.5-8.9-21,0.1-38.1-10.2c-20.1-12.2-56.5-3.8-73.7-22.9
	c-10.9-12.1-26.7-9.2-27.3-6c-5.6-3-6.6-3.2-15.1-3.2C1718.6,676.7,1723.3,655.3,1698.1,662.8z"/>
<g>
	<path class="st2" d="M1936.5,839.1c-3.2-14.5,4.4-10.1,12.1-16.2c4.8-3.8,5.5-3.5,12.4-5.5c5.2-1.5,14.8-4.3,17.6,2.5
		c4.3,10.4-2.8,12.6-8.3,19.7c-3,3.9-2.6,10.5-6.3,13.5c-5.1,4.2-19.9,2.1-23.9-3.1C1937.7,847,1937.3,842.7,1936.5,839.1"/>
	<path class="st2" d="M1611.9,769.7c6.6-12.6,9.4-4.7,18.7-4.4c5.8,0.2,6.2,0.8,12.3,3.7c4.7,2.2,13.4,6,11.3,12.7
		c-3.3,10.3-9.8,7.5-18.1,9.4c-4.6,1-8.3,6.1-12.8,6c-6.3-0.1-15.8-10.9-15.5-17.2C1607.9,776.3,1610.2,772.9,1611.9,769.7"/>
	<path class="st2" d="M1813.5,842.2c1.9-4.9,4.4-12.2,12.9-17c5.3-3,7.7-0.2,14.7-0.8c5.3-0.5,15.1-1.5,16.5,6.2
		c2.2,11.8,3.9,17.5-2.7,23.8c-3.6,3.5-16.7,5.3-20.8,7.7c-5.7,3.4-16.4-1.4-19.3-7.7C1813.3,850.8,1812.1,846,1813.5,842.2"/>
	<path class="st2" d="M1737.1,819.4c-1.3-2.9,2.6-12.8,9.3-16.6c4.1-2.3,5.8-6.5,11.2-7c4.2-0.4,11.8-1.2,12.9,4.8
		c1.7,9.3,3.1,13.7-2.1,18.6c-2.9,2.7-13.1,4.2-16.3,6.1C1747.8,828,1739.4,824.3,1737.1,819.4"/>
	<path class="st2" d="M1725.5,828.2c0.3,1.7-3,6.6-7.1,7.8c-2.5,0.7-3.9,2.8-6.9,2.3c-2.3-0.3-6.6-0.9-6.4-4.3
		c0.2-5.2,0-7.8,3.4-9.8c1.9-1.1,7.6-0.6,9.6-1.2C1720.7,822.1,1724.8,825.2,1725.5,828.2"/>
	<path class="st2" d="M1685.5,807.1c-1.5-0.8-3.1-6.6-1.4-10.6c1-2.5,0.4-4.9,2.6-7c1.7-1.6,4.8-4.6,7.2-2.4c3.8,3.5,5.9,5,5.3,9
		c-0.3,2.2-4.3,6.4-5.1,8.3C1693,807.2,1688.1,808.5,1685.5,807.1"/>
	<path class="st2" d="M1806.7,801c1,1.4,0.1,7.3-3,10.2c-1.9,1.8-2.3,4.2-5.2,5.2c-2.2,0.7-6.2,2.2-7.6-1c-2.1-4.8-3.4-7-1.2-10.4
		c1.2-1.9,6.6-3.9,8.1-5.4C1799.9,797.7,1804.9,798.6,1806.7,801"/>
	<path class="st2" d="M1897.8,846.1c2.4,1.5,6.2,10.5,4.9,16.2c-0.8,3.5,0.8,7.3-1.8,10c-2,2.1-5.5,6.1-9.7,2.2
		c-6.4-5.9-9.7-8.5-9.9-14.5c-0.1-3.3,4.4-8.8,5-11.6C1887.1,844.6,1893.7,843.5,1897.8,846.1"/>
	<path class="st2" d="M1885.9,747.9c4.1-10.2,6.8-4.4,14-4.9c4.4-0.3,4.8,0.1,9.7,1.8c3.8,1.3,10.7,3.5,9.6,8.8
		c-1.7,8.2-6.9,6.6-13.2,8.7c-3.4,1.1-5.9,5.3-9.4,5.7c-4.8,0.4-12.9-7.1-13.2-11.9C1883.4,753.3,1884.9,750.4,1885.9,747.9"/>
	<path class="st2" d="M1800,741.8c1.5-2.9,3.4-7.2,9.1-9.8c3.6-1.6,5,0.2,9.5,0.1c3.4-0.1,9.8-0.3,10.4,4.5
		c0.9,7.3,1.8,10.8-2.8,14.4c-2.5,2-11,2.5-13.8,3.8c-3.8,1.8-10.5-1.6-12.1-5.5C1799.4,747,1798.8,744,1800,741.8"/>
	<path class="st2" d="M1690.7,717.2c-1-2.2,2.1-10,7.3-12.9c3.2-1.8,4.5-5,8.7-5.4c3.2-0.3,9.2-0.9,10.1,3.8
		c1.3,7.2,2.4,10.6-1.7,14.5c-2.2,2.1-10.2,3.2-12.7,4.7C1699,723.9,1692.5,721,1690.7,717.2"/>
	<path class="st2" d="M1668.7,696.1c0.3,1.3-2.3,5.1-5.5,6c-2,0.6-3.1,2.1-5.4,1.8c-1.8-0.3-5.1-0.7-5-3.3c0.2-4.1,0-6.1,2.7-7.6
		c1.5-0.9,5.9-0.4,7.5-0.9C1665,691.4,1668.2,693.8,1668.7,696.1"/>
	<path class="st2" d="M1741.2,735.8c0-1.3,3.2-4.6,6.5-5c2-0.2,3.4-1.6,5.6-0.8c1.7,0.6,4.9,1.5,4.4,4.1c-0.8,4-1,6-3.9,7
		c-1.6,0.6-5.9-0.6-7.5-0.4C1744,741,1741.2,738.1,1741.2,735.8"/>
	<path class="st2" d="M1786,725.6c0.8,1.1,0.1,5.7-2.3,7.9c-1.5,1.4-1.8,3.3-4.1,4.1c-1.7,0.6-4.9,1.7-5.9-0.7
		c-1.6-3.7-2.6-5.5-0.9-8.1c0.9-1.4,5.1-3.1,6.3-4.2C1780.7,723,1784.6,723.7,1786,725.6"/>
	<path class="st2" d="M1864.1,737.3c1.8,1.2,4.8,8.1,3.8,12.6c-0.6,2.8,0.6,5.6-1.4,7.8c-1.5,1.6-4.3,4.8-7.5,1.7
		c-5-4.6-7.5-6.6-7.7-11.3c-0.1-2.5,3.5-6.9,3.9-9C1855.8,736.1,1861,735.3,1864.1,737.3"/>
	<path class="st2" d="M1957,757.1c-1.2,1.8-8,4.7-12.3,3.5c-2.7-0.7-5.5,0.4-7.6-1.7c-1.6-1.6-4.6-4.5-1.6-7.7
		c4.6-4.9,6.6-7.5,11.1-7.5c2.5,0,6.7,3.7,8.8,4.3C1958.2,748.7,1959,753.9,1957,757.1"/>
</g>
<g>
	<path class="st0" d="M1061.2,484.2V459h-115V76.2h-74.5v449.7h8.8C957.3,489.4,1018,482.6,1061.2,484.2z"/>
	<polygon class="st0" points="710.5,76.2 636,76.2 636,525.9 825.5,525.9 825.5,459 710.5,459 	"/>
	<polygon class="st0" points="452.3,330.6 555,330.6 555,265 452.3,265 452.3,141.7 575,141.7 575,76.2 377.7,76.2 377.7,525.9 
		576.9,525.9 576.9,460.3 452.3,460.3 	"/>
	<polygon class="st0" points="232.5,263.7 147.1,263.7 147.1,76.2 72.6,76.2 72.6,525.9 147.1,525.9 147.1,330.6 232.5,330.6 
		232.5,525.9 307.1,525.9 307.1,76.2 232.5,76.2 	"/>
	<path class="st0" d="M1282.9,292c36-4.5,50.1-38.5,50.1-70.7v-56.5c0-56.5-39.8-88.7-107.9-88.7h-117.6v413.1
		c0.4,0.1,0.8,0.1,1.1,0.2c40.9,7.2,83.6,19.8,127.3,36c61.1-3.7,99.6-35.2,99.6-88.3v-73.9C1335.5,328.6,1322.1,298.4,1282.9,292z
		 M1182,140.4h41.8c21.2,0,34.7,10.9,34.7,34.7v52c0,23.8-13.5,34.7-34.7,34.7H1182V140.4z M1261,426.9c0,23.8-13.5,34.7-34.7,34.7
		H1182V324.8h44.3c21.2,0,34.7,10.9,34.7,34.7V426.9z"/>
	<path class="st0" d="M2698.1,335.1c30.8-13.5,48.8-40.5,48.8-83.5v-80.3c0-68.1-45-95.1-113.1-95.1h-116.3v449.7h74.5V346.6h37.3
		l57.2,179.2h75.8L2698.1,335.1z M2672.4,241.3c0,32.1-16.7,41.1-41.1,41.1h-39.2V141.7h39.2c24.4,0,41.1,9,41.1,41.1V241.3z"/>
	<path class="st0" d="M2078.2,76.2h-115v449.7h115c68.1,0,113.1-27,113.1-95.1V171.2C2191.2,103.1,2146.3,76.2,2078.2,76.2z
		 M2116.7,419.2c0,32.1-16.7,41.1-41.1,41.1h-37.9V141.7h37.9c24.4,0,41.1,9,41.1,41.1V419.2z"/>
	<polygon class="st0" points="2333.8,330.6 2436.6,330.6 2436.6,265 2333.8,265 2333.8,141.7 2456.5,141.7 2456.5,76.2 2259.3,76.2 
		2259.3,525.9 2458.5,525.9 2458.5,460.3 2333.8,460.3 	"/>
	<path class="st0" d="M1824.4,354.3L1730,76.2h-74.5V495c13,0.2,23.5,10.2,23.5,22.5c0,3-0.6,5.8-1.7,8.4h46.3V233.6l98.3,292.3
		h70.7V76.2h-68.1V354.3z"/>
	<polygon class="st0" points="1471.7,330.6 1574.5,330.6 1574.5,265 1471.7,265 1471.7,141.7 1594.4,141.7 1594.4,76.2 1397.2,76.2 
		1397.2,525.9 1596.4,525.9 1596.4,460.3 1471.7,460.3 	"/>
</g>
</svg>
