<svg xmlns="http://www.w3.org/2000/svg" width="133.642" height="44" viewBox="0 0 133.642 44" fill="currentColor">
  <g transform="translate(0,0.262)"><path d="M 22.434 0 L 0 0 L 0 22.423 C 0 34.173 9.569 43.738 21.326 43.738 L 43.76 43.738 L 43.76 21.315 C 43.76 9.564 34.191 0 22.434 0 Z M 37.487 20.353 L 21.355 20.353 C 13.361 20.353 6.797 14.113 6.301 6.269 L 22.463 6.269 C 30.457 6.269 36.992 12.509 37.487 20.353 Z M 21.326 37.469 C 13.011 37.469 6.272 30.704 6.272 22.423 L 6.272 20.323 C 10.123 24.201 15.491 26.592 21.384 26.592 L 37.546 26.592 L 37.546 37.498 L 21.355 37.498 L 21.326 37.469 Z"></path></g>
  <g transform="translate(49.74,0.321)"><path d="M 0.146 0 L 13.565 0 L 13.565 4.17 L 9.364 4.17 L 9.364 15.017 L 13.74 15.017 L 13.74 19.186 L 0 19.186 L 0 15.046 L 4.376 15.046 L 4.376 4.17 L 0.175 4.17 L 0.175 0 L 0.146 0 Z"></path></g>
  <g transform="translate(66.952,0.321)"><path d="M 7.585 19.186 L 4.988 9.943 C 4.609 8.573 3.968 5.074 3.968 5.074 L 3.734 5.074 C 3.734 5.074 3.997 8.427 3.997 10.147 L 3.997 19.215 L 0 19.215 L 0 0 L 6.389 0 L 8.985 9.243 C 9.364 10.614 10.006 14.113 10.006 14.113 L 10.24 14.113 C 10.24 14.113 9.977 10.759 9.977 9.039 L 9.977 0 L 13.974 0 L 13.974 19.157 L 7.585 19.157 L 7.585 19.186 Z"></path></g>
  <g transform="translate(83.581,0)"><path d="M 0.759 5.919 C 0.759 2.712 3.121 0 7.439 0 C 11.757 0 13.682 1.72 15.141 4.286 L 10.736 7.085 C 10.327 5.278 9.189 4.053 7.527 4.053 C 5.863 4.053 5.718 4.695 5.718 5.482 C 5.718 6.706 7.264 6.998 9.539 7.727 C 12.603 8.66 15.199 9.972 15.199 13.617 C 15.199 17.262 12.486 19.799 8.227 19.799 C 3.968 19.799 1.634 18.107 0 14.871 L 4.522 12.013 C 5.193 14.258 6.126 15.716 8.168 15.716 C 10.21 15.716 10.24 14.9 10.24 13.967 C 10.24 12.392 8.431 12.159 5.951 11.343 C 2.976 10.468 0.759 9.097 0.759 5.89 L 0.759 5.919 Z"></path></g>
  <g transform="translate(101.026,0.321)"><path d="M 0 0 L 15.082 0 L 15.082 4.578 L 10.123 4.578 L 10.123 19.186 L 4.96 19.186 L 4.96 4.578 L 0 4.578 L 0 0 Z"></path></g>
  <g transform="translate(118.122,0.321)"><path d="M 9.948 15.512 L 5.456 15.512 L 4.726 19.157 L 0 19.157 L 4.259 0 L 11.232 0 L 15.491 19.157 L 10.678 19.157 L 9.919 15.512 L 9.948 15.512 Z M 6.302 11.313 L 9.073 11.313 L 8.256 7.406 C 8.023 6.269 7.76 4.17 7.76 4.17 L 7.585 4.17 C 7.585 4.17 7.293 6.269 7.089 7.406 L 6.272 11.313 L 6.302 11.313 Z"></path></g>
  <g transform="translate(50.382,24.843)"><path d="M 0 19.157 L 0 0 L 4.988 0 L 4.988 14.813 L 8.81 14.813 L 8.81 8.806 L 13.42 11.722 L 13.42 19.186 L 0 19.186 L 0 19.157 Z"></path></g>
  <g transform="translate(67.069,24.814)"><path d="M 0.146 0 L 13.565 0 L 13.565 4.14 L 9.365 4.14 L 9.365 14.987 L 13.74 14.987 L 13.74 19.128 L 0 19.128 L 0 14.987 L 4.376 14.987 L 4.376 4.14 L 0.175 4.14 L 0.175 0 L 0.146 0 Z"></path></g>
  <g transform="translate(85.04,24.843)"><path d="M 0 19.157 L 0 0 L 4.988 0 L 4.988 14.813 L 8.81 14.813 L 8.81 8.806 L 13.42 11.722 L 13.42 19.186 L 0 19.186 L 0 19.157 Z"></path></g>
  <g transform="translate(100.589,24.814)"><path d="M 5.543 15.017 L 5.543 11.226 L 0 0 L 5.251 0 L 6.739 3.47 C 7.323 4.869 8.023 6.969 8.023 6.969 L 8.139 6.969 C 8.139 6.969 8.869 4.869 9.452 3.47 L 10.94 0 L 15.987 0 L 10.444 11.226 L 10.444 15.017 L 13.828 15.017 L 13.828 19.157 L 2.188 19.157 L 2.188 15.017 L 5.572 15.017 L 5.543 15.017 Z"></path></g>
  <g transform="translate(117.859,39.918)"><path d="M 15.637 4.082 L 0 4.082 L 2.421 0 L 15.666 0"></path></g>
</svg>