<svg xmlns="http://www.w3.org/2000/svg" width="33" height="32" viewBox="0 0 33 32" fill="none"><path d="M24.6689 23.9989C24.6689 28.4177 21.0867 31.9999 16.668 31.9999L16.668 23.999C16.668 19.5803 20.2501 15.998 24.6688 15.998L24.6689 23.9989Z" fill="#49CDEA"></path><path d="M24.6649 8.00269C29.0837 8.00269 32.6659 11.5848 32.6659 16.0036L24.665 16.0036C20.2463 16.0036 16.6641 12.4215 16.6641 8.00271L24.6649 8.00269Z" fill="#C828E2"></path><path d="M8.66883 16.0093C13.0876 16.0093 16.6698 19.5914 16.6698 24.0102L8.66895 24.0102C4.25018 24.0102 0.667969 20.4281 0.667969 16.0093L8.66883 16.0093Z" fill="#F7A900"></path><path d="M16.665 8.00086C16.665 12.4196 13.0828 16.0018 8.66406 16.0018L8.66406 8.00099C8.66406 3.58221 12.2462 -1.93151e-07 16.665 0V8.00086Z" fill="#6951FF"></path><path d="M32.6689 16C32.6689 20.4188 29.0867 24.001 24.668 24.001L24.668 16L32.6689 16Z" fill="#A822BD"></path><path d="M16.6641 0.00561523C21.0828 0.00561543 24.6651 3.58774 24.6651 8.00651L16.6641 8.00651L16.6641 0.00561523Z" fill="#5540D6"></path><path d="M16.6729 31.9943C12.2541 31.9943 8.67187 28.4122 8.67188 23.9934L16.6729 23.9934L16.6729 31.9943Z" fill="#43B9D3"></path><path d="M0.671875 16.0093C0.671876 11.5905 4.254 8.0083 8.67277 8.0083L8.67277 16.0093L0.671875 16.0093Z" fill="#CE8D00"></path></svg>