<svg width="460" height="460" viewBox="0 0 460 460" fill="none" xmlns="http://www.w3.org/2000/svg">
<path d="M356.735 454.063C408.147 448.882 448.706 408.289 453.884 356.836C457.141 324.436 459.744 282.826 460 229.999C459.737 177.171 457.141 135.561 453.877 103.162C448.699 51.7079 408.14 11.1158 356.728 5.93414C276.562 -2.14443 180.11 -1.8099 103.258 5.93414C51.8602 11.1158 11.2938 51.7079 6.11626 103.162C2.859 135.561 0.263142 177.171 0 229.999C0.263142 282.826 2.859 324.436 6.11626 356.836C11.2938 408.289 51.8531 448.882 103.265 454.063C183.424 462.149 279.89 461.807 356.735 454.063Z" fill="#FFE84C"/>
<path d="M364.019 205.568C362.788 207.647 362.248 211.07 361.586 213.17C359.261 220.558 357.177 228.017 354.858 235.412C349.816 251.498 342.462 266.922 333.032 280.893C309.947 315.086 274.145 337.713 232.519 339.848C230.094 339.969 227.669 340.033 225.243 340.033C207.037 340.033 188.894 336.254 172.487 328.282C127.077 306.218 100.984 257.099 107.484 242.352C109.205 238.444 113.579 235.91 117.839 236.16C129.623 236.857 134.588 251.683 140.028 259.968C146.607 269.982 154.231 279.264 163.988 286.338C179.4 297.513 198.033 302.794 216.972 302.794C246.842 302.794 273.526 289.413 291.413 265.534C304.193 248.466 312.293 227.967 316.831 207.227C317.642 203.511 320.451 197.226 316.369 194.579C310.793 190.956 303.197 195.127 296.981 193.767C291.918 192.657 287.089 188.714 286.691 183.547C286.427 180.087 288.191 176.707 290.687 174.301C296.562 168.664 305.523 167.219 313.282 166.286C326.624 164.678 340.4 164.35 353.564 167.447C365.825 170.329 378.662 176.885 386.571 186.963C389.024 190.088 391.072 193.746 391.229 197.718C391.385 201.689 389.195 205.946 385.418 207.17C381.905 208.309 378.164 206.672 374.758 205.248C371.984 204.088 366.863 202.017 364.502 204.878C364.331 205.084 364.175 205.319 364.026 205.568H364.019Z" fill="#1D180A"/>
<path d="M78.3406 195.539C77.8926 205.682 89.5917 207.07 99.8329 203.852C112.485 199.874 125.983 198.593 139.148 200.173C144.503 200.82 150.192 201.881 155.107 199.66C169.26 193.262 159.758 180.827 151.793 174.635C142.056 167.069 129.355 163.197 117.058 164.478C103.218 165.923 85.0756 175.539 79.763 189.368C78.8669 191.71 78.4117 193.753 78.3335 195.532L78.3406 195.539Z" fill="#1D180A"/>
</svg>
