<svg width="465" height="77" viewBox="0 0 465 77" fill="none" xmlns="http://www.w3.org/2000/svg">
<g clip-path="url(#clip0_1240_7861)">
<path d="M24.8541 59.1552C32.2964 50.203 38.0803 39.8036 41.6037 28.7211C40.8847 27.2021 40.1971 25.6651 39.5634 24.1101C37.9725 20.1553 36.6602 16.0432 35.6984 11.8007C33.8334 20.1283 30.3909 28.1279 25.8878 35.3184C19.5061 45.4527 10.6752 54.4274 0.19043 59.9417L8.55398 73.86C14.7918 69.7074 20.2117 64.6785 24.8586 59.1507L24.8541 59.1552ZM59.742 51.6051C61.4183 51.7399 63.0901 51.9152 64.7529 52.1444C68.9729 52.7421 73.1929 53.6634 77.3454 54.9532C71.0626 49.1738 65.8585 42.1944 61.8857 34.6983C56.2995 24.1056 52.9424 11.967 53.4098 0.129517L37.177 0.412646C37.6534 7.89086 39.3027 15.0994 41.761 21.8855C45.7922 32.8062 51.9087 43.0169 59.742 51.6051ZM65.5843 55.16C54.1108 53.1915 42.2104 53.3803 30.8538 55.87C29.8965 57.2542 28.9078 58.616 27.8832 59.9417C25.2496 63.3033 22.3374 66.4941 19.1421 69.4468C27.29 66.8941 35.9456 65.8739 44.4305 66.1795C56.3983 66.6379 68.5864 69.8018 78.6038 76.1205L86.4775 61.9191C79.7633 58.5935 72.6985 56.4183 65.5888 55.151L65.5843 55.16Z" fill="url(#paint0_linear_1240_7861)"/>
<path d="M136.048 36.5857L146.892 27.1211L154.244 22.9686V22.0158H137.459L137.374 22.9686L138.758 26.9504L123.271 40.9136V3.07312L108.045 6.53359V7.48634L112.027 11.2929V62.0764L108.045 66.0582V66.9255H127.253V66.0582L123.271 62.0764V47.7401L127.81 43.7808L139.018 62.2516L136.511 66.0582L136.596 66.9255H157.705V66.0582L152.083 62.0764L136.048 36.5857ZM194.215 38.0239C194.215 34.4465 193.465 31.404 191.964 28.8963C190.463 26.3886 188.287 24.4696 185.434 23.1438C182.58 21.8181 179.191 21.1529 175.268 21.1529C171.691 21.1529 168.491 21.7597 165.664 22.9686C162.837 24.182 160.604 25.8673 158.959 28.0289C157.314 30.1906 156.321 32.5725 155.975 35.1656L167.048 37.1565C166.877 34.5589 167.134 32.3837 167.826 30.6265C168.518 28.8693 169.497 27.5705 170.769 26.7346C172.037 25.8987 173.506 25.4808 175.183 25.4808C176.737 25.4808 178.108 25.8268 179.29 26.5189C180.472 27.211 181.38 28.2357 182.014 29.5884C182.647 30.9456 182.966 32.5725 182.966 34.478C182.966 37.152 181.101 39.4665 178.486 40.0327L171.376 41.5697C167.857 42.3787 164.913 43.4303 162.55 44.7291C160.186 46.0279 158.397 47.6008 157.184 49.4434C155.97 51.2905 155.368 53.4522 155.368 55.9329C155.368 58.2384 155.93 60.2877 157.053 62.0764C158.177 63.865 159.808 65.2627 161.943 66.2739C164.078 67.2806 166.558 67.7884 169.385 67.7884C173.192 67.7884 176.333 66.7503 178.814 64.674C180.49 63.2718 181.87 61.5416 182.966 59.5057V66.921H198.192V66.0537L194.211 61.7258V38.0194L194.215 38.0239ZM182.971 53.6184C182.593 54.7959 182.103 55.87 181.501 56.8407C180.692 58.1395 179.6 59.1777 178.212 59.9551C176.827 60.7326 175.272 61.1236 173.538 61.1236C171.52 61.1236 169.902 60.5034 168.693 59.2631C167.48 58.0227 166.877 56.4228 166.877 54.4633C166.877 51.9826 167.614 49.9378 169.084 48.3199C170.554 46.7065 172.877 45.4661 176.05 44.5988L182.971 43.0393V53.6184ZM214.807 21.4136L199.581 24.8741V25.8268L203.563 29.6333V62.0764L199.581 65.9683V66.921H218.789V65.9683L214.807 62.0764V21.4136ZM209.095 16.569C211.055 16.569 212.699 15.9218 214.025 14.623C215.351 13.3242 216.016 11.7827 216.016 9.99406C216.016 8.2054 215.351 6.57853 214.025 5.27973C212.699 3.98093 211.055 3.33378 209.095 3.33378C207.136 3.33378 205.491 3.96745 204.165 5.23928C202.839 6.50662 202.174 8.06608 202.174 9.91317C202.174 11.7602 202.853 13.2568 204.206 14.587C205.558 15.9128 207.19 16.5779 209.095 16.5779V16.569ZM275.28 36.5543C275.28 33.4399 274.646 30.7164 273.374 28.3795C272.107 26.0425 270.345 24.2584 268.098 23.0135C265.851 21.7731 263.281 21.1529 260.4 21.1529C257.344 21.1529 254.647 22.0338 252.311 23.791C249.974 25.5527 248.203 27.8717 246.99 30.7569V3.07312L231.763 6.53359V7.48634L235.741 11.2929V62.0764L231.763 66.0582V66.9255H250.971V66.0582L246.994 62.0764V38.4553C247.34 36.5498 248.001 34.9094 248.985 33.5253C249.965 32.1411 251.088 31.0445 252.36 30.2356C253.627 29.4266 255.043 29.0221 256.598 29.0221C258.041 29.0221 259.335 29.3412 260.49 29.9749C261.645 30.6086 262.521 31.5478 263.128 32.7882C263.735 34.0286 264.036 35.5701 264.036 37.4172V62.0764L260.058 66.0582V66.9255H279.352V66.0582L275.284 62.0764V36.5543H275.28ZM311.574 56.9711C309.413 58.7597 306.829 59.654 303.831 59.654C301.121 59.654 298.726 58.9619 296.649 57.5778C294.573 56.1936 292.942 54.1892 291.76 51.5646C290.668 49.1378 290.084 46.32 290.003 43.1292H320.787C320.846 39.035 320.154 35.3274 318.711 32.0107C317.269 28.6941 314.977 26.056 311.835 24.0966C308.689 22.1372 304.752 21.1529 300.025 21.1529C295.584 21.1529 291.719 22.2225 288.43 24.3528C285.145 26.4875 282.691 29.3412 281.077 32.9185C279.46 36.4959 278.655 40.3293 278.655 44.4235C278.655 48.5176 279.536 52.4994 281.293 56.0183C283.05 59.5372 285.634 62.3775 289.036 64.5391C292.439 66.7008 296.447 67.7839 301.063 67.7839C306.424 67.7839 310.851 66.2559 314.343 63.1999C317.83 60.1439 320.01 56.1037 320.873 51.0883L316.374 49.7895C315.336 52.787 313.736 55.1824 311.574 56.9711ZM291.113 33.9162C291.863 31.3501 293 29.3008 294.528 27.7728C296.056 26.2448 297.89 25.4808 300.02 25.4808C301.809 25.4808 303.364 26.0875 304.694 27.2964C306.02 28.5098 307.071 30.1367 307.853 32.186C308.631 34.2353 309.076 36.5004 309.193 38.9766H290.164C290.34 37.2014 290.645 35.5027 291.108 33.9162H291.113ZM362.228 38.0239C362.228 34.4465 361.477 31.404 359.976 28.8963C358.475 26.3886 356.3 24.4696 353.446 23.1438C350.592 21.8181 347.204 21.1529 343.28 21.1529C339.703 21.1529 336.503 21.7597 333.677 22.9686C330.85 24.182 328.616 25.8673 326.971 28.0289C325.326 30.1906 324.333 32.5725 323.987 35.1656L335.061 37.1565C334.885 34.5589 335.146 32.3837 335.838 30.6265C336.53 28.8693 337.51 27.5705 338.782 26.7346C340.049 25.8987 341.519 25.4808 343.195 25.4808C344.75 25.4808 346.121 25.8268 347.303 26.5189C348.485 27.211 349.392 28.2357 350.026 29.5884C350.66 30.9456 350.979 32.5725 350.979 34.478C350.979 37.152 349.114 39.4665 346.498 40.0327L339.389 41.5697C335.87 42.3787 332.926 43.4303 330.562 44.7291C328.198 46.0279 326.41 47.6008 325.201 49.4434C323.987 51.2905 323.385 53.4522 323.385 55.9329C323.385 58.2384 323.947 60.2877 325.07 62.0764C326.194 63.865 327.825 65.2627 329.96 66.2739C332.095 67.2806 334.575 67.7884 337.402 67.7884C341.209 67.7884 344.35 66.7503 346.831 64.674C348.507 63.2718 349.887 61.5416 350.983 59.5057V66.921H366.209V66.0537L362.228 61.7258V38.0194V38.0239ZM350.983 53.6184C350.606 54.7959 350.116 55.87 349.514 56.8407C348.705 58.1395 347.613 59.1777 346.224 59.9551C344.84 60.7326 343.285 61.1236 341.555 61.1236C339.537 61.1236 337.919 60.5034 336.71 59.2631C335.497 58.0227 334.894 56.4228 334.894 54.4633C334.894 51.9826 335.631 49.9378 337.101 48.3199C338.571 46.7065 340.894 45.4661 344.067 44.5988L350.988 43.0393V53.6184H350.983ZM382.649 3.07312L367.423 6.53359V7.48634L371.405 11.2929V62.0764L367.423 66.0582V66.9255H386.631V66.0582L382.649 62.0764V3.07312ZM413.056 61.2539C412.279 61.4562 411.456 61.5551 410.589 61.5551C408.8 61.5551 407.331 61.0068 406.176 59.9102C405.021 58.8136 404.445 57.1418 404.445 54.8903V27.3773H415.002L414.485 20.9732L404.45 22.0113V10.8524H400.122C399.372 13.504 398.378 15.6971 397.138 17.4273C395.898 19.1576 394.383 20.5148 392.594 21.4945C390.806 22.4742 388.644 23.1393 386.105 23.4854V27.3773H393.201V54.2836C393.201 58.9575 394.441 62.373 396.922 64.5347C399.403 66.6963 402.688 67.7794 406.787 67.7794C408.634 67.7794 410.306 67.4334 411.807 66.7413C413.308 66.0492 414.602 65.1863 415.699 64.1482L415.267 60.2563C414.575 60.7191 413.838 61.0517 413.061 61.2495L413.056 61.2539ZM460.424 62.0764V36.5543C460.424 33.4399 459.79 30.7164 458.519 28.3795C457.251 26.0425 455.49 24.2584 453.242 23.0135C450.995 21.7731 448.425 21.1529 445.544 21.1529C442.488 21.1529 439.792 22.0338 437.455 23.791C435.118 25.5527 433.347 27.8717 432.134 30.7569V3.07312L416.908 6.53359V7.48634L420.885 11.2929V62.0764L416.908 66.0582V66.9255H436.115V66.0582L432.138 62.0764V38.4553C432.484 36.5498 433.145 34.9094 434.129 33.5253C435.109 32.1411 436.232 31.0445 437.504 30.2356C438.771 29.4266 440.187 29.0221 441.742 29.0221C443.185 29.0221 444.479 29.3412 445.634 29.9749C446.789 30.6086 447.665 31.5478 448.272 32.7882C448.879 34.0286 449.18 35.5701 449.18 37.4172V62.0764L445.203 66.0582V66.9255H464.496V66.0582L460.429 62.0764H460.424Z" fill="#124C5C"/>
</g>
<defs>
<linearGradient id="paint0_linear_1240_7861" x1="59.706" y1="87.0367" x2="16.5625" y2="12.3086" gradientUnits="userSpaceOnUse">
<stop offset="0.12" stop-color="#235E6E"/>
<stop offset="0.5" stop-color="#30858E"/>
<stop offset="0.88" stop-color="#B0CCC9"/>
</linearGradient>
<clipPath id="clip0_1240_7861">
<rect width="464.305" height="76" fill="white" transform="translate(0.186523 0.125)"/>
</clipPath>
</defs>
</svg>
