<svg width="139" height="30" viewBox="0 0 139 30" fill="none" xmlns="http://www.w3.org/2000/svg"><path d="M11.895.567a14.867 14.867 0 0 1 10.32 1.643 1.037 1.037 0 0 1-1.025 1.803 12.793 12.793 0 1 0 4.797 4.797 1.037 1.037 0 0 1 1.803-1.025A14.866 14.866 0 1 1 11.895.567z" fill="url(#a)"/><path d="M14.787 22.127a6.915 6.915 0 1 0 0-13.83 6.915 6.915 0 0 0 0 13.83z" fill="url(#b)"/><path d="M26.888 0l1.383 3.457-1.383 3.458-1.383-3.458L26.888 0z" fill="#A8B5D1"/><path d="M23.43 3.457l3.458-1.383 3.457 1.383-3.457 1.383-3.457-1.383z" fill="#A8B5D1"/><path d="M125.088 20.95l1.917-2.689a7.28 7.28 0 0 0 5.277 2.24c1.942 0 2.888-.896 2.888-1.842 0-1.22-1.543-1.568-3.361-2.016-2.713-.622-6.198-1.369-6.198-5.153 0-2.763 2.39-5.053 6.298-5.053 2.639 0 4.829.797 6.472 2.315l-1.966 2.589c-1.345-1.245-3.137-1.817-4.83-1.817-1.518 0-2.364.672-2.364 1.668 0 1.07 1.518 1.418 3.31 1.842 2.739.647 6.224 1.468 6.224 5.227 0 3.037-2.166 5.327-6.647 5.327-3.186 0-5.476-1.07-7.02-2.638zM106.378 15c0-5.003 3.659-8.588 8.663-8.588 5.028 0 8.687 3.585 8.687 8.588 0 5.004-3.659 8.588-8.687 8.588-5.004 0-8.663-3.584-8.663-8.588zm13.716 0c0-3.111-1.992-5.451-5.053-5.451-3.062 0-5.029 2.34-5.029 5.451 0 3.087 1.967 5.452 5.029 5.452 3.061 0 5.053-2.365 5.053-5.452zm-19.777 8.29V11.665l-4.68 11.625h-1.543l-4.68-11.625V23.29H85.88V6.686h4.954l4.033 10.032 4.032-10.032h4.979V23.29h-3.56zm-30.484-2.34l1.917-2.689a7.28 7.28 0 0 0 5.277 2.24c1.942 0 2.888-.896 2.888-1.842 0-1.22-1.544-1.568-3.36-2.016-2.714-.622-6.2-1.369-6.2-5.153 0-2.763 2.39-5.053 6.299-5.053 2.638 0 4.829.797 6.472 2.315l-1.967 2.589c-1.344-1.245-3.136-1.817-4.829-1.817-1.518 0-2.365.672-2.365 1.668 0 1.07 1.519 1.418 3.311 1.842 2.738.647 6.223 1.468 6.223 5.227 0 3.037-2.165 5.327-6.646 5.327-3.186 0-5.477-1.07-7.02-2.638zM51.123 15c0-5.003 3.659-8.588 8.662-8.588 5.029 0 8.688 3.585 8.688 8.588 0 5.004-3.66 8.588-8.688 8.588-5.003 0-8.662-3.584-8.662-8.588zm13.715 0c0-3.111-1.99-5.451-5.053-5.451-3.061 0-5.028 2.34-5.028 5.451 0 3.087 1.967 5.452 5.028 5.452 3.062 0 5.053-2.365 5.053-5.452z" fill="#E2E4E9"/><path d="M47.117 23.29l-5.028-6.647-1.294 1.543v5.104H37.26V6.686h3.535v7.418l5.874-7.418h4.357l-6.597 7.791 7.045 8.813h-4.357z" fill="#E2E4E9"/><defs><linearGradient id="a" x1="14.867" y1=".267" x2="14.867" y2="30" gradientUnits="userSpaceOnUse"><stop stop-color="#8B59C7"/><stop offset="1" stop-color="#C89BFF"/></linearGradient><linearGradient id="b" x1="14.787" y1="8.298" x2="14.787" y2="22.127" gradientUnits="userSpaceOnUse"><stop stop-color="#8B59C7"/><stop offset="1" stop-color="#C89BFF"/></linearGradient></defs></svg>