<svg width="16" height="16" viewBox="0 0 16 16" fill="none" xmlns="http://www.w3.org/2000/svg">
<rect width="16" height="16" rx="3" fill="#F9F8F5"/>
<path d="M9.37816 7.86224C11.1334 6.30493 11.8677 5.11031 12.0199 4.12086C12.2404 2.68995 11.9094 2.21343 11.5479 1.88052C10.0575 0.509188 7.09193 3.87068 6.7046 5.48756C6.99195 -0.0315361 -0.251423 1.57674 3.04848 7.30365C3.58743 8.23949 4.21246 8.4804 4.42433 8.60946C-1.10487 5.9899 0.562297 16.0664 6.08421 11.9451C5.12284 16.6528 13.4686 14.21 9.95088 10.8233C17.5591 12.4826 16.2037 2.36433 9.37816 7.86224ZM8.51015 10.1992L8.56841 10.2614L8.49293 10.2217C7.8593 9.8888 7.07604 10.1231 6.73042 10.7499L6.68937 10.8246L6.70394 10.7406C6.8251 10.0357 6.35965 9.3633 5.65716 9.22829L5.57307 9.2124L5.65782 9.19983C6.36627 9.09724 6.86218 8.44731 6.77346 7.73716L6.76286 7.65244L6.80061 7.72921C7.11709 8.37054 7.8891 8.64123 8.53729 8.33745L8.61475 8.30104L8.55318 8.36061C8.04072 8.85964 8.02152 9.67701 8.51081 10.1992H8.51015Z" fill="#120C08"/>
</svg>
