<svg width="216" height="34" viewBox="0 0 216 34" fill="none" xmlns="http://www.w3.org/2000/svg">
<rect y="27.7845" width="40.9987" height="5.8292" fill="white"/>
<rect x="12.8228" y="9.32303" width="28.1745" height="5.8292" fill="white"/>
<rect x="7.38379" y="18.4593" width="33.6151" height="5.8292" fill="white"/>
<rect x="17.8755" width="23.1225" height="5.8292" fill="white"/>
<path d="M91.8204 32.9352H84.4072L95.7027 0.215225H104.618L115.897 32.9352H108.484L100.288 7.69226H100.032L91.8204 32.9352ZM91.357 20.0741H108.867V25.4742H91.357V20.0741Z" fill="white"/>
<path d="M117.728 0.215225H125.477L132.938 14.3066H133.257L140.719 0.215225H148.467L136.533 21.3682V32.9352H129.663V21.3682L117.728 0.215225Z" fill="white"/>
<path d="M175.605 0.215225H182.523V21.4641C182.523 23.8499 181.953 25.9375 180.814 27.7269C179.685 29.5162 178.103 30.9115 176.069 31.9127C174.034 32.9033 171.664 33.3985 168.959 33.3985C166.243 33.3985 163.868 32.9033 161.833 31.9127C159.799 30.9115 158.217 29.5162 157.088 27.7269C155.959 25.9375 155.395 23.8499 155.395 21.4641V0.215225H162.313V20.8729C162.313 22.1191 162.584 23.2268 163.128 24.196C163.681 25.1653 164.459 25.9268 165.46 26.4807C166.461 27.0345 167.628 27.3115 168.959 27.3115C170.301 27.3115 171.467 27.0345 172.458 26.4807C173.459 25.9268 174.231 25.1653 174.775 24.196C175.328 23.2268 175.605 22.1191 175.605 20.8729V0.215225Z" fill="white"/>
<path d="M191.364 32.9352V0.215225H204.273C206.755 0.215225 208.869 0.689197 210.616 1.63714C212.363 2.57443 213.694 3.87918 214.61 5.5514C215.537 7.21296 216 9.13015 216 11.303C216 13.4758 215.531 15.393 214.594 17.0545C213.657 18.7161 212.299 20.0102 210.52 20.9368C208.752 21.8635 206.611 22.3268 204.097 22.3268H195.869V16.7829H202.979C204.31 16.7829 205.407 16.5539 206.27 16.0959C207.144 15.6273 207.793 14.9829 208.219 14.1628C208.656 13.332 208.874 12.3787 208.874 11.303C208.874 10.2166 208.656 9.26861 208.219 8.45913C207.793 7.639 207.144 7.00526 206.27 6.55792C205.397 6.09993 204.289 5.87093 202.947 5.87093H198.282V32.9352H191.364Z" fill="white"/>
<rect x="56" y="3.05176e-05" width="7" height="24" fill="white"/>
<g clip-path="url(#clip0_3229_105)">
<rect width="22" height="6" transform="translate(56 27)" fill="white"/>
<rect width="22" height="6" transform="translate(56 27)" fill="white"/>
</g>
<defs>
<clipPath id="clip0_3229_105">
<rect width="22" height="6" fill="white" transform="translate(56 27)"/>
</clipPath>
</defs>
</svg>
