<svg width="256" height="256" viewBox="0 0 256 256" fill="none" xmlns="http://www.w3.org/2000/svg">
<rect x="0.5" y="0.5" width="255" height="255" rx="59.7656" fill="white"/>
<path d="M136.565 39.1364L120.734 39.1364L120.734 108.926L71.3846 59.5774L60.19 70.772L108.93 119.512L39.1399 119.512L39.1399 136.562L108.93 136.562L60.19 185.302L71.3847 196.497L120.734 147.148L120.734 216.938L136.565 216.938L136.565 147.147L185.914 196.496L197.109 185.302L148.369 136.562L201.109 136.562L201.109 119.512L148.375 119.512L139.848 128.04L136.565 131.322L136.565 124.758L136.565 119.512L136.565 103.312L136.565 39.1364Z" fill="#0A0A0A"/>
</svg>
