<svg width="256" height="256" viewBox="0 0 256 256" fill="none" xmlns="http://www.w3.org/2000/svg">
<rect width="256" height="256" fill="white"/>
<path d="M51.1094 113.898H57.5742L66.207 134.973H66.5391L75.1914 113.898H81.7344V143H76.5586V123H76.3242L68.2383 142.902H64.4492L56.4609 122.961H56.1875V143H51.1094V113.898ZM95.25 143.43C93.1146 143.43 91.2656 142.961 89.7031 142.023C88.1406 141.086 86.9297 139.771 86.0703 138.078C85.224 136.385 84.8008 134.419 84.8008 132.18C84.8008 129.927 85.224 127.954 86.0703 126.262C86.9297 124.556 88.1406 123.234 89.7031 122.297C91.2656 121.359 93.1146 120.891 95.25 120.891C97.3854 120.891 99.2344 121.359 100.797 122.297C102.359 123.234 103.57 124.556 104.43 126.262C105.289 127.954 105.719 129.927 105.719 132.18C105.719 134.419 105.289 136.385 104.43 138.078C103.57 139.771 102.359 141.086 100.797 142.023C99.2344 142.961 97.3854 143.43 95.25 143.43ZM95.25 139.289C96.4349 139.289 97.4115 138.977 98.1797 138.352C98.9479 137.714 99.5208 136.854 99.8984 135.773C100.289 134.693 100.484 133.495 100.484 132.18C100.484 130.839 100.289 129.628 99.8984 128.547C99.5208 127.466 98.9479 126.613 98.1797 125.988C97.4115 125.35 96.4349 125.031 95.25 125.031C94.0911 125.031 93.1211 125.35 92.3398 125.988C91.5586 126.613 90.9727 127.466 90.582 128.547C90.2044 129.628 90.0156 130.839 90.0156 132.18C90.0156 133.495 90.2044 134.693 90.582 135.773C90.9727 136.854 91.5586 137.714 92.3398 138.352C93.1211 138.977 94.0911 139.289 95.25 139.289ZM113.688 130.227V143H108.551V121.164H113.59V124.895H113.844C114.339 123.671 115.113 122.701 116.168 121.984C117.236 121.255 118.59 120.891 120.23 120.891C121.741 120.891 123.056 121.21 124.176 121.848C125.296 122.486 126.161 123.423 126.773 124.66C127.398 125.884 127.711 127.368 127.711 129.113V143H122.574V129.914C122.574 128.456 122.197 127.316 121.441 126.496C120.686 125.663 119.645 125.246 118.316 125.246C117.418 125.246 116.617 125.441 115.914 125.832C115.224 126.223 114.677 126.789 114.273 127.531C113.883 128.26 113.688 129.159 113.688 130.227ZM141.188 143.43C139 143.43 137.112 142.974 135.523 142.062C133.935 141.138 132.711 139.836 131.852 138.156C131.005 136.477 130.582 134.497 130.582 132.219C130.582 129.966 131.005 127.993 131.852 126.301C132.698 124.595 133.889 123.267 135.426 122.316C136.962 121.366 138.772 120.891 140.855 120.891C142.197 120.891 143.466 121.105 144.664 121.535C145.875 121.965 146.943 122.629 147.867 123.527C148.805 124.426 149.54 125.572 150.074 126.965C150.608 128.345 150.875 129.992 150.875 131.906V133.508H132.984V130.051H148.316L145.914 131.066C145.914 129.829 145.725 128.755 145.348 127.844C144.97 126.919 144.41 126.197 143.668 125.676C142.926 125.155 142.001 124.895 140.895 124.895C139.788 124.895 138.844 125.155 138.062 125.676C137.281 126.197 136.689 126.9 136.285 127.785C135.882 128.658 135.68 129.634 135.68 130.715V133.117C135.68 134.445 135.908 135.585 136.363 136.535C136.832 137.473 137.483 138.189 138.316 138.684C139.163 139.178 140.146 139.426 141.266 139.426C141.995 139.426 142.659 139.322 143.258 139.113C143.87 138.905 144.391 138.592 144.82 138.176C145.263 137.746 145.602 137.219 145.836 136.594L150.641 137.16C150.328 138.423 149.749 139.53 148.902 140.48C148.069 141.418 146.995 142.147 145.68 142.668C144.378 143.176 142.88 143.43 141.188 143.43ZM156.129 151.164C155.426 151.177 154.775 151.125 154.176 151.008C153.59 150.904 153.115 150.78 152.75 150.637L153.961 146.633L154.215 146.711C155.257 146.984 156.142 147.004 156.871 146.77C157.613 146.535 158.206 145.826 158.648 144.641L159.078 143.469L151.188 121.164H156.637L161.656 137.668H161.891L166.93 121.164H172.418L163.668 145.637C163.264 146.796 162.73 147.785 162.066 148.605C161.402 149.439 160.582 150.07 159.605 150.5C158.629 150.943 157.47 151.164 156.129 151.164ZM185.582 121.164V125.148H172.711V121.164H185.582ZM175.914 143V119.113C175.914 117.642 176.22 116.418 176.832 115.441C177.444 114.465 178.264 113.736 179.293 113.254C180.335 112.772 181.48 112.531 182.73 112.531C183.629 112.531 184.423 112.603 185.113 112.746C185.816 112.889 186.331 113.02 186.656 113.137L185.602 117.121C185.393 117.043 185.126 116.971 184.801 116.906C184.475 116.828 184.104 116.789 183.688 116.789C182.737 116.789 182.053 117.023 181.637 117.492C181.233 117.961 181.031 118.625 181.031 119.484V143H175.914ZM191.363 151.164C190.66 151.177 190.009 151.125 189.41 151.008C188.824 150.904 188.349 150.78 187.984 150.637L189.195 146.633L189.449 146.711C190.491 146.984 191.376 147.004 192.105 146.77C192.848 146.535 193.44 145.826 193.883 144.641L194.312 143.469L186.422 121.164H191.871L196.891 137.668H197.125L202.164 121.164H207.652L198.902 145.637C198.499 146.796 197.965 147.785 197.301 148.605C196.637 149.439 195.816 150.07 194.84 150.5C193.863 150.943 192.704 151.164 191.363 151.164Z" fill="black"/>
</svg>
