<?xml version="1.0" encoding="utf-8"?>
<!-- Generator: Adobe Illustrator 26.0.2, SVG Export Plug-In . SVG Version: 6.00 Build 0)  -->
<svg version="1.1" xmlns="http://www.w3.org/2000/svg" xmlns:xlink="http://www.w3.org/1999/xlink" x="0px" y="0px"
	 viewBox="0 0 1111.45 245.74" style="enable-background:new 0 0 1111.45 245.74;" xml:space="preserve">
<style type="text/css">
	.st0{display:none;fill:none;}
	.st1{fill:#48B8E7;}
	.st2{fill:#465062;}
</style>
<g id="Layer_1">
	<rect x="-4.05" y="-4.97" class="st0" width="1317.6" height="452.78"/>
</g>
<g id="Layer_2">
	<g>
		<path class="st1" d="M203.25,13.37c5.01,0,9.06-2.99,9.06-6.69c0-3.69-4.06-6.69-9.06-6.69c-5,0-9.06,2.99-9.06,6.69
			C194.19,10.38,198.24,13.37,203.25,13.37z"/>
		<g>
			<path class="st1" d="M208.03,62.16c-2.21-19.66-4.78-17.55-4.78-17.55s-2.65-2.44-4.49,17.49c-2.22,24-4.37,72.55-14.11,92.97
				c-16.38,34.34-49.93,33.12-49.93,35.51c0,10.05,30.68,18.2,68.53,18.2c37.85,0,68.53-8.15,68.53-18.2
				c0-2.47-31.43-0.46-48.16-35.51C213.95,134.83,210.75,86.36,208.03,62.16z"/>
		</g>
		<path class="st1" d="M134.72,190.59c0,10.05,30.68,18.2,68.53,18.2c37.85,0,68.53-8.15,68.53-18.2c0-2.47-31.43-0.46-48.16-35.51
			c-9.67-20.25-12.87-68.71-15.59-92.91c-1.82-16.19-3.88-17.62-4.56-17.62c-0.14,0-0.22,0.07-0.22,0.07s-0.1-0.09-0.28-0.09
			c-0.73,0-2.73,1.57-4.21,17.59c-2.22,24-4.37,72.55-14.11,92.97C168.27,189.42,134.72,188.2,134.72,190.59z"/>
		<path class="st1" d="M96.3,193.14c0,15.27,47.97,27.68,106.94,27.68c58.99,0,106.96-12.42,106.96-27.68
			c0-12.62-32.85-23.29-77.6-26.6c1.87,2.4,3.81,4.52,5.78,6.39c29.76,3.48,50.55,11.23,50.55,20.21
			c0,12.23-38.45,22.18-85.69,22.18c-47.22,0-85.67-9.95-85.67-22.18c0-9.14,21.51-17.01,52.1-20.39c2.04-1.86,4.03-3.96,5.94-6.34
			C130,169.56,96.3,180.35,96.3,193.14z"/>
		<path class="st1" d="M220.49,140.74c0.5,1.94,1.03,3.8,1.58,5.55c91.54,2.45,163.16,22.52,163.16,46.84
			c0,25.97-81.64,47.1-181.99,47.1c-100.33,0-181.97-21.13-181.97-47.1c0-24.47,72.54-44.64,164.89-46.88
			c0.54-1.76,1.04-3.61,1.52-5.55C82.86,142.77,0,165.49,0,193.14c0,29.01,91.17,52.6,203.24,52.6c112.09,0,203.26-23.6,203.26-52.6
			C406.5,165.64,324.53,143.02,220.49,140.74z"/>
		<path class="st1" d="M48.16,193.14c0,22.13,69.57,40.14,155.08,40.14c85.53,0,155.1-18.01,155.1-40.14
			c0-20.24-58.23-37.02-133.62-39.74c0.14,0.32,0.28,0.64,0.43,0.95c0.8,1.67,1.63,3.25,2.48,4.75
			c62.19,2.98,109.44,17.1,109.44,34.04c0,19.1-60.02,34.64-133.83,34.64c-73.79,0-133.81-15.53-133.81-34.64
			c0-17.1,48.16-31.34,111.23-34.13c0.85-1.47,1.67-3.03,2.45-4.66c0.15-0.32,0.3-0.67,0.45-1.01
			C107.32,155.85,48.16,172.73,48.16,193.14z"/>
	</g>
	<g>
		<path class="st2" d="M460.98,97.63V23.84h11.64v63.5h39.6v10.29H460.98z"/>
		<path class="st2" d="M584.03,97.63V23.84h11.64v73.79H584.03z"/>
		<path class="st2" d="M724.55,92.22c-2.77,1.87-5.77,3.32-8.99,4.37c-3.22,1.04-6.64,1.56-10.24,1.56
			c-5.27,0-10.06-1.07-14.39-3.22c-4.33-2.15-8.05-4.95-11.17-8.42c-3.12-3.46-5.53-7.45-7.22-11.95c-1.7-4.5-2.55-9.11-2.55-13.82
			c0-4.92,0.9-9.63,2.7-14.13c1.8-4.5,4.28-8.49,7.43-11.95c3.15-3.46,6.89-6.22,11.22-8.26c4.33-2.04,9.06-3.07,14.19-3.07
			c5.27,0,10.06,1.09,14.39,3.27c4.33,2.18,8.04,5.04,11.12,8.58c3.08,3.53,5.47,7.53,7.17,12c1.7,4.47,2.55,9.03,2.55,13.67
			c0,4.92-0.87,9.58-2.6,13.98c-1.73,4.4-4.16,8.33-7.28,11.8l9.67,11.02h-11.22L724.55,92.22z M705.42,87.65
			c2.29,0,4.43-0.31,6.44-0.93c2.01-0.62,3.85-1.49,5.51-2.6l-10.5-12.16h11.22l5.3,6.13c1.8-2.42,3.15-5.14,4.05-8.16
			c0.9-3.01,1.35-6.08,1.35-9.2c0-3.53-0.56-6.91-1.66-10.13c-1.11-3.22-2.69-6.08-4.73-8.57c-2.04-2.5-4.51-4.49-7.38-5.98
			c-2.88-1.49-6.08-2.23-9.61-2.23c-3.74,0-7.07,0.78-9.98,2.34c-2.91,1.56-5.37,3.6-7.38,6.13c-2.01,2.53-3.55,5.4-4.62,8.63
			c-1.08,3.22-1.61,6.5-1.61,9.82c0,3.47,0.55,6.83,1.66,10.08c1.11,3.26,2.68,6.13,4.73,8.63c2.04,2.49,4.52,4.49,7.43,5.98
			C698.56,86.9,701.82,87.65,705.42,87.65z"/>
		<path class="st2" d="M845.73,87.65c3.88,0,7.1-0.76,9.67-2.29c2.56-1.52,4.62-3.52,6.18-5.98c1.56-2.46,2.67-5.27,3.33-8.42
			c0.66-3.15,0.99-6.39,0.99-9.72V23.84h11.74v37.41c0,5.06-0.59,9.82-1.77,14.29c-1.18,4.47-3.05,8.38-5.61,11.74
			c-2.57,3.36-5.87,6.01-9.93,7.95c-4.05,1.94-8.92,2.91-14.6,2.91c-5.89,0-10.86-1.02-14.91-3.07c-4.05-2.04-7.33-4.78-9.82-8.21
			c-2.49-3.43-4.3-7.36-5.4-11.8c-1.11-4.43-1.66-9.04-1.66-13.82V23.84h11.64v37.41c0,3.4,0.33,6.67,0.99,9.82
			c0.66,3.15,1.77,5.96,3.33,8.42c1.56,2.46,3.64,4.44,6.23,5.92C838.71,86.9,841.92,87.65,845.73,87.65z"/>
		<path class="st2" d="M955.48,97.63V23.84h11.64v73.79H955.48z"/>
		<path class="st2" d="M1046.1,97.63V23.84h26.19c5.96,0,11.17,0.97,15.64,2.91s8.21,4.57,11.22,7.9c3.01,3.33,5.28,7.22,6.81,11.69
			c1.52,4.47,2.29,9.23,2.29,14.29c0,5.61-0.85,10.69-2.55,15.23c-1.7,4.54-4.1,8.42-7.22,11.64c-3.12,3.22-6.89,5.72-11.33,7.48
			c-4.44,1.77-9.39,2.65-14.86,2.65H1046.1z M1096.4,60.63c0-3.88-0.54-7.45-1.61-10.7c-1.07-3.26-2.65-6.04-4.73-8.37
			c-2.08-2.32-4.61-4.14-7.59-5.46c-2.98-1.32-6.37-1.98-10.19-1.98h-14.55v53.21h14.55c3.88,0,7.33-0.68,10.34-2.03
			c3.01-1.35,5.54-3.22,7.59-5.61c2.04-2.39,3.59-5.21,4.62-8.47C1095.88,67.97,1096.4,64.44,1096.4,60.63z"/>
		<g>
			<path class="st2" d="M460.98,216.73v-63.27h3.12v63.27H460.98z"/>
			<path class="st2" d="M487.45,159.35v57.38h-3.12v-63.27h2.32l46.51,58.36v-58.36h3.12v63.27h-3.03L487.45,159.35z"/>
			<path class="st2" d="M593.21,162.82c-2.32-2.55-4.87-4.35-7.66-5.39c-2.79-1.04-6.06-1.56-9.8-1.56
				c-6.71,0-11.58,1.28-14.61,3.83c-3.03,2.56-4.54,5.97-4.54,10.25c0,2.14,0.37,3.94,1.11,5.39c0.74,1.46,1.88,2.69,3.43,3.7
				c1.54,1.01,3.53,1.86,5.97,2.54c2.43,0.68,5.35,1.38,8.73,2.09c3.45,0.71,6.56,1.49,9.36,2.32c2.79,0.83,5.17,1.89,7.13,3.16
				c1.96,1.28,3.48,2.87,4.54,4.77c1.07,1.9,1.6,4.25,1.6,7.04c0,2.67-0.52,5.02-1.56,7.04c-1.04,2.02-2.54,3.71-4.5,5.08
				c-1.96,1.37-4.32,2.39-7.08,3.07c-2.76,0.68-5.84,1.02-9.22,1.02c-5.05,0-9.59-0.79-13.63-2.36c-4.04-1.57-7.78-3.99-11.23-7.26
				l1.87-2.23c2.97,3.03,6.36,5.32,10.16,6.86c3.8,1.55,8.11,2.32,12.92,2.32c5.94,0,10.62-1.08,14.03-3.25
				c3.41-2.17,5.12-5.48,5.12-9.94c0-2.26-0.42-4.17-1.25-5.75c-0.83-1.57-2.09-2.91-3.79-4.01c-1.69-1.1-3.83-2.05-6.42-2.85
				c-2.58-0.8-5.63-1.56-9.13-2.27c-3.45-0.71-6.49-1.46-9.13-2.23c-2.64-0.77-4.87-1.75-6.68-2.94c-1.81-1.19-3.18-2.64-4.1-4.37
				c-0.92-1.72-1.38-3.89-1.38-6.5c0-2.79,0.53-5.27,1.6-7.44s2.57-3.98,4.5-5.44c1.93-1.46,4.26-2.57,6.99-3.34
				c2.73-0.77,5.76-1.16,9.09-1.16c4.1,0,7.69,0.59,10.78,1.78c3.09,1.19,5.91,3.09,8.47,5.7L593.21,162.82z"/>
			<path class="st2" d="M656.48,156.32h-23.7v60.41h-3.12v-60.41h-23.7v-2.85h50.52V156.32z"/>
			<path class="st2" d="M669.76,216.73v-63.27h26.02c2.61,0,5.03,0.57,7.26,1.69c2.23,1.13,4.14,2.6,5.75,4.41
				c1.6,1.81,2.85,3.88,3.74,6.19c0.89,2.32,1.34,4.66,1.34,7.04c0,2.44-0.37,4.75-1.11,6.95c-0.74,2.2-1.8,4.16-3.16,5.88
				c-1.37,1.72-3,3.15-4.9,4.28c-1.9,1.13-4.01,1.81-6.33,2.05l15.86,24.77h-3.56l-15.68-24.42h-22.1v24.42H669.76z M672.88,189.47
				h23.44c2.2,0,4.2-0.47,6.01-1.42c1.81-0.95,3.34-2.2,4.59-3.74c1.25-1.54,2.21-3.33,2.9-5.35c0.68-2.02,1.02-4.07,1.02-6.15
				c0-2.14-0.4-4.2-1.2-6.19c-0.8-1.99-1.89-3.74-3.25-5.26c-1.37-1.52-2.97-2.73-4.81-3.65c-1.84-0.92-3.8-1.38-5.88-1.38h-22.81
				V189.47z"/>
			<path class="st2" d="M755.48,214.24c4.51,0,8.27-0.85,11.27-2.54c3-1.69,5.36-3.91,7.08-6.64c1.72-2.73,2.94-5.84,3.65-9.31
				c0.71-3.48,1.07-6.99,1.07-10.56v-31.72h3.03v31.72c0,4.22-0.45,8.26-1.34,12.12c-0.89,3.86-2.36,7.26-4.41,10.2
				c-2.05,2.94-4.72,5.29-8.02,7.04c-3.3,1.75-7.38,2.63-12.25,2.63c-4.99,0-9.16-0.92-12.52-2.76c-3.36-1.84-6.05-4.26-8.06-7.26
				c-2.02-3-3.46-6.42-4.32-10.25c-0.86-3.83-1.29-7.74-1.29-11.72v-31.72h3.12v31.72c0,3.68,0.36,7.26,1.07,10.74
				c0.71,3.48,1.96,6.57,3.74,9.27c1.78,2.7,4.14,4.89,7.08,6.55C747.32,213.41,751.02,214.24,755.48,214.24z"/>
			<path class="st2" d="M859.2,216.73v-57.21l-26.55,44.91h-2.14l-26.55-44.91v57.21h-3.12v-63.27h2.85l27.89,47.14l27.89-47.14
				h2.85v63.27H859.2z"/>
			<path class="st2" d="M924.33,213.88v2.85h-41.79v-63.27h40.99v2.85h-37.87v26.64h33.15v2.85h-33.15v28.07H924.33z"/>
			<path class="st2" d="M943.58,159.35v57.38h-3.12v-63.27h2.32l46.51,58.36v-58.36h3.12v63.27h-3.03L943.58,159.35z"/>
			<path class="st2" d="M1056.2,156.32h-23.7v60.41h-3.12v-60.41h-23.7v-2.85h50.52V156.32z"/>
			<path class="st2" d="M1106.19,162.82c-2.32-2.55-4.87-4.35-7.66-5.39c-2.79-1.04-6.06-1.56-9.8-1.56
				c-6.71,0-11.58,1.28-14.61,3.83c-3.03,2.56-4.54,5.97-4.54,10.25c0,2.14,0.37,3.94,1.11,5.39c0.74,1.46,1.88,2.69,3.43,3.7
				c1.54,1.01,3.53,1.86,5.97,2.54c2.43,0.68,5.35,1.38,8.73,2.09c3.44,0.71,6.56,1.49,9.36,2.32c2.79,0.83,5.17,1.89,7.13,3.16
				c1.96,1.28,3.48,2.87,4.55,4.77c1.07,1.9,1.6,4.25,1.6,7.04c0,2.67-0.52,5.02-1.56,7.04c-1.04,2.02-2.54,3.71-4.5,5.08
				c-1.96,1.37-4.32,2.39-7.08,3.07c-2.76,0.68-5.84,1.02-9.22,1.02c-5.05,0-9.59-0.79-13.63-2.36c-4.04-1.57-7.78-3.99-11.23-7.26
				l1.87-2.23c2.97,3.03,6.36,5.32,10.16,6.86c3.8,1.55,8.11,2.32,12.92,2.32c5.94,0,10.62-1.08,14.03-3.25
				c3.42-2.17,5.12-5.48,5.12-9.94c0-2.26-0.42-4.17-1.25-5.75c-0.83-1.57-2.09-2.91-3.79-4.01c-1.69-1.1-3.83-2.05-6.42-2.85
				c-2.58-0.8-5.63-1.56-9.13-2.27c-3.45-0.71-6.49-1.46-9.13-2.23c-2.64-0.77-4.87-1.75-6.68-2.94c-1.81-1.19-3.18-2.64-4.1-4.37
				c-0.92-1.72-1.38-3.89-1.38-6.5c0-2.79,0.53-5.27,1.6-7.44c1.07-2.17,2.57-3.98,4.5-5.44c1.93-1.46,4.26-2.57,7-3.34
				c2.73-0.77,5.76-1.16,9.09-1.16c4.1,0,7.69,0.59,10.78,1.78c3.09,1.19,5.91,3.09,8.47,5.7L1106.19,162.82z"/>
		</g>
	</g>
</g>
</svg>
