<svg xmlns="http://www.w3.org/2000/svg" width="105" height="18" viewBox="0 0 105 18" fill="none">
  <path d="M93.6445 15.3633C91.4297 15.3633 90.1992 13.7109 90.1992 11.4609C90.1992 9.21094 91.4648 7.55859 93.6445 7.55859C95.8242 7.55859 97.1953 9.17578 97.1953 11.4609C97.1953 13.7461 95.8594 15.3633 93.6445 15.3633ZM92.7656 18C94.3125 18 95.6836 17.4023 96.2812 16.3477C96.5977 15.8203 96.9492 15.9258 96.9492 16.3477V17.2969C96.9492 17.6133 97.125 17.7891 97.4766 17.7891H99.5156C99.832 17.7891 100.043 17.6133 100.043 17.2969V5.625C100.043 5.27344 99.832 5.09766 99.5156 5.09766H97.4766C97.125 5.09766 96.9492 5.27344 96.9492 5.625V6.39844C96.9492 6.82031 96.5625 6.85547 96.3516 6.50391C95.6836 5.44922 94.3477 4.88672 92.8359 4.88672C89.25 4.88672 87.1055 7.66406 87.1055 11.4609C87.1055 15.2578 89.1094 18 92.7656 18ZM0.773438 17.7891H16.6289C17.1211 17.7891 17.4023 17.543 17.4023 17.0156V0.914062C17.4023 0.421875 17.1211 0.140625 16.6289 0.140625H0.773438C0.246094 0.140625 0 0.421875 0 0.914062V17.0156C0 17.543 0.246094 17.7891 0.773438 17.7891ZM102.434 17.7891H104.473C104.824 17.7891 105 17.6133 105 17.2617V0.492188C105 0.175781 104.824 0 104.508 0H102.469C102.117 0 101.906 0.175781 101.906 0.492188V17.2617C101.906 17.6133 102.117 17.7891 102.434 17.7891ZM79.5117 17.7891H81.5859C81.9375 17.7891 82.1133 17.6133 82.1133 17.2969V11.25C82.1133 8.64844 83.0977 8.15625 84.9609 8.15625H86.1914C86.543 8.15625 86.7188 7.98047 86.7188 7.62891V5.625C86.7188 5.27344 86.543 5.09766 86.1914 5.09766H85.0664C83.8711 5.09766 83.0977 5.58984 82.6055 6.50391C82.5 6.71484 82.4297 6.82031 82.3242 6.82031C82.1836 6.82031 82.1133 6.64453 82.1133 6.39844V5.625C82.1133 5.27344 81.9375 5.09766 81.5859 5.09766H79.5117C79.1953 5.09766 79.0195 5.27344 79.0195 5.625V17.2969C79.0195 17.6133 79.1953 17.7891 79.5117 17.7891ZM69.8438 18C71.5312 18 72.5859 17.2969 73.3945 16.3125C73.5703 16.1367 73.6406 16.0312 73.7812 16.0312C73.8867 16.0312 73.9922 16.1367 73.9922 16.3477V17.2969C73.9922 17.6133 74.168 17.7891 74.4844 17.7891H76.5586C76.875 17.7891 77.0859 17.6133 77.0859 17.2969V5.625C77.0859 5.27344 76.875 5.09766 76.5586 5.09766H74.4844C74.168 5.09766 73.9922 5.27344 73.9922 5.625V12.0234C73.9922 13.9219 72.7617 15.2578 71.0039 15.2578C69.3867 15.2578 68.4023 14.1328 68.4023 12.3047V5.625C68.4023 5.27344 68.1914 5.09766 67.875 5.09766H65.8008C65.4844 5.09766 65.3086 5.27344 65.3086 5.625V12.9727C65.3086 16.1367 67.1719 18 69.8438 18ZM61.4414 17.7891H62.8828C63.2344 17.7891 63.4102 17.6133 63.4102 17.2969V15.6094C63.4102 15.293 63.2344 15.1172 62.8828 15.1172H61.6875C60.4922 15.1172 60.2109 14.5195 60.2109 13.2891V8.08594C60.2109 7.73438 60.3516 7.69922 60.7031 7.69922H62.918C63.2695 7.69922 63.4453 7.52344 63.4453 7.17188V5.625C63.4453 5.27344 63.2695 5.09766 62.918 5.09766H60.7031C60.3516 5.09766 60.2109 5.02734 60.2109 4.71094V2.10938C60.2109 1.79297 60 1.58203 59.6836 1.58203H57.6094C57.2578 1.58203 57.082 1.79297 57.082 2.10938V4.71094C57.082 5.02734 56.9062 5.09766 56.5898 5.09766H55.1133C54.7617 5.09766 54.5859 5.27344 54.5859 5.625V7.17188C54.5859 7.52344 54.7617 7.69922 55.1133 7.69922H56.5898C56.9062 7.69922 57.082 7.73438 57.082 8.08594V13.5C57.082 16.3477 58.2422 17.7891 61.4414 17.7891ZM46.8164 15.3633C44.6016 15.3633 43.3711 13.7109 43.3711 11.4609C43.3711 9.21094 44.6367 7.55859 46.8164 7.55859C48.9961 7.55859 50.3672 9.17578 50.3672 11.4609C50.3672 13.7461 49.0312 15.3633 46.8164 15.3633ZM45.9375 18C47.5195 18 48.6797 17.3672 49.4531 16.418C49.6641 16.1719 49.7695 16.0312 49.9102 16.0312C50.0859 16.0312 50.1211 16.1719 50.1211 16.418V17.2969C50.1211 17.6133 50.332 17.7891 50.6484 17.7891H52.6875C53.0391 17.7891 53.2148 17.6133 53.2148 17.2969V5.625C53.2148 5.27344 53.0391 5.09766 52.6875 5.09766H50.6484C50.332 5.09766 50.1211 5.27344 50.1211 5.625V6.46875C50.1211 6.71484 50.0859 6.85547 49.9102 6.85547C49.7695 6.85547 49.6289 6.71484 49.5234 6.53906C48.75 5.48438 47.5195 4.88672 46.0078 4.88672C42.4219 4.88672 40.2773 7.66406 40.2773 11.4609C40.2773 15.2578 42.4922 18 45.9375 18ZM24.5625 17.7891H26.8477C27.1641 17.7891 27.3398 17.6133 27.3398 17.2969V6.57422C27.3398 6.04688 27.7266 5.94141 28.0781 6.50391L34.8281 17.4375C34.9688 17.6836 35.1797 17.7891 35.4609 17.7891H38.0977C38.4492 17.7891 38.625 17.6133 38.625 17.2969V0.667969C38.625 0.351562 38.4492 0.140625 38.0977 0.140625H35.8477C35.4961 0.140625 35.3203 0.351562 35.3203 0.667969V11.4258C35.3203 11.918 34.9688 12.0234 34.6172 11.4961L27.8672 0.492188C27.7266 0.246094 27.5508 0.140625 27.2344 0.140625H24.5625C24.2461 0.140625 24.0352 0.351562 24.0352 0.667969V17.2969C24.0352 17.6133 24.2461 17.7891 24.5625 17.7891Z" fill="#111400"/>
</svg>
