<svg width="130" height="35" viewBox="0 0 130 35" fill="none" xmlns="http://www.w3.org/2000/svg">
<path d="M34.6435 17.0238C34.6435 26.4258 26.8883 34.0476 17.3218 34.0476C7.75522 34.0476 0 26.4258 0 17.0238C0 14.7548 0.451677 12.5895 1.27149 10.6099C0.876241 11.8368 0.663037 13.1433 0.663037 14.4988C0.663037 21.6065 6.52583 27.3684 13.758 27.3684C20.9901 27.3684 26.8529 21.6065 26.8529 14.4988C26.8529 7.39103 20.9901 1.62907 13.758 1.62907C10.8883 1.62907 8.23431 2.53624 6.07658 4.07469C9.10259 1.53406 13.0299 0 17.3218 0C26.8883 0 34.6435 7.62182 34.6435 17.0238Z" fill="#1147EA"/>
<path fill-rule="evenodd" clip-rule="evenodd" d="M49.5108 14.7582C48.2373 14.7582 47.0753 14.4679 46.025 13.8872C44.9747 13.2937 44.141 12.4743 43.5239 11.4292C42.92 10.3711 42.618 9.18397 42.618 7.86783C42.618 6.55169 42.92 5.37103 43.5239 4.32586C44.141 3.26779 44.9747 2.44842 46.025 1.86777C47.0753 1.27422 48.2373 0.977444 49.5108 0.977444C50.7975 0.977444 51.966 1.27422 53.0163 1.86777C54.0666 2.44842 54.8938 3.26134 55.4977 4.30651C56.1017 5.35168 56.4036 6.53878 56.4036 7.86783C56.4036 9.19687 56.1017 10.384 55.4977 11.4292C54.8938 12.4743 54.0666 13.2937 53.0163 13.8872C51.966 14.4679 50.7975 14.7582 49.5108 14.7582ZM49.5108 13.2292C50.4692 13.2292 51.3292 13.0098 52.0907 12.5711C52.8653 12.1324 53.4692 11.5066 53.9025 10.6937C54.3489 9.88075 54.5721 8.93881 54.5721 7.86783C54.5721 6.78395 54.3489 5.842 53.9025 5.042C53.4692 4.22909 52.8719 3.60327 52.1104 3.16456C51.3489 2.72585 50.4824 2.50649 49.5108 2.50649C48.5392 2.50649 47.6727 2.72585 46.9112 3.16456C46.1497 3.60327 45.5458 4.22909 45.0994 5.042C44.6661 5.842 44.4495 6.78395 44.4495 7.86783C44.4495 8.93881 44.6661 9.88075 45.0994 10.6937C45.5458 11.5066 46.1497 12.1324 46.9112 12.5711C47.6858 13.0098 48.5524 13.2292 49.5108 13.2292Z" fill="#1147EA"/>
<path d="M69.1678 5.042C68.7871 4.25489 68.2356 3.64844 67.5135 3.22263C66.7914 2.78391 65.9512 2.56456 64.9927 2.56456C64.0343 2.56456 63.1678 2.78391 62.3931 3.22263C61.6317 3.64844 61.0277 4.2678 60.5813 5.08071C60.1481 5.88071 59.9314 6.80975 59.9314 7.86783C59.9314 8.9259 60.1481 9.85494 60.5813 10.6549C61.0277 11.455 61.6317 12.0743 62.3931 12.513C63.1678 12.9388 64.0343 13.1517 64.9927 13.1517C66.3319 13.1517 67.4347 12.7582 68.3013 11.9711C69.1678 11.184 69.6733 10.1195 69.8177 8.77751H64.3428V7.34524H71.728V8.70009C71.623 9.80978 71.2685 10.8291 70.6645 11.7582C70.0606 12.6743 69.2663 13.4034 68.2816 13.9453C67.2969 14.4743 66.2006 14.7389 64.9927 14.7389C63.7192 14.7389 62.5573 14.4485 61.5069 13.8679C60.4566 13.2743 59.6229 12.455 59.0058 11.4098C58.4019 10.3646 58.0999 9.18397 58.0999 7.86783C58.0999 6.55169 58.4019 5.37103 59.0058 4.32586C59.6229 3.26779 60.4566 2.44842 61.5069 1.86777C62.5573 1.27422 63.7192 0.977444 64.9927 0.977444C66.4501 0.977444 67.7367 1.33229 68.8527 2.04197C69.9818 2.75165 70.8024 3.75166 71.3144 5.042H69.1678Z" fill="#1147EA"/>
<path d="M83.0976 14.6227H84.8897V1.11293H83.0976V11.8356L75.8897 1.11293H74.0976V14.6227H75.8897V3.8807L83.0976 14.6227Z" fill="#1147EA"/>
<path fill-rule="evenodd" clip-rule="evenodd" d="M94.168 14.7582C92.8944 14.7582 91.7325 14.4679 90.6822 13.8872C89.6318 13.2937 88.7981 12.4743 88.1811 11.4292C87.5771 10.3711 87.2751 9.18397 87.2751 7.86783C87.2751 6.55169 87.5771 5.37103 88.1811 4.32586C88.7981 3.26779 89.6318 2.44842 90.6822 1.86777C91.7325 1.27422 92.8944 0.977444 94.168 0.977444C95.4546 0.977444 96.6231 1.27422 97.6735 1.86777C98.7238 2.44842 99.5509 3.26134 100.155 4.30651C100.759 5.35168 101.061 6.53878 101.061 7.86783C101.061 9.19687 100.759 10.384 100.155 11.4292C99.5509 12.4743 98.7238 13.2937 97.6735 13.8872C96.6231 14.4679 95.4546 14.7582 94.168 14.7582ZM94.168 13.2292C95.1264 13.2292 95.9864 13.0098 96.7478 12.5711C97.5225 12.1324 98.1264 11.5066 98.5597 10.6937C99.0061 9.88075 99.2293 8.93881 99.2293 7.86783C99.2293 6.78395 99.0061 5.842 98.5597 5.042C98.1264 4.22909 97.529 3.60327 96.7675 3.16456C96.006 2.72585 95.1395 2.50649 94.168 2.50649C93.1964 2.50649 92.3299 2.72585 91.5684 3.16456C90.8069 3.60327 90.2029 4.22909 89.7566 5.042C89.3233 5.842 89.1067 6.78395 89.1067 7.86783C89.1067 8.93881 89.3233 9.88075 89.7566 10.6937C90.2029 11.5066 90.8069 12.1324 91.5684 12.5711C92.343 13.0098 93.2095 13.2292 94.168 13.2292Z" fill="#1147EA"/>
<path d="M117.35 14.6227V1.22906H115.44L110.398 12.3001L105.357 1.22906H103.427V14.6227H105.219V4.61619L109.768 14.6227H111.028L115.558 4.63554V14.6227H117.35Z" fill="#1147EA"/>
<path d="M130 1.13228L125.53 9.53236V14.6227H123.737V9.53236L119.247 1.13228H121.236L124.624 7.9646L128.011 1.13228H130Z" fill="#1147EA"/>
<path d="M45.1979 32.5393C45.92 32.849 46.734 33.0038 47.6399 33.0038C48.5852 33.0038 49.4058 32.8232 50.1016 32.4619C50.7975 32.1006 51.3226 31.6296 51.6771 31.049C52.0316 30.4683 52.2089 29.849 52.2089 29.1909C52.2089 28.3393 52.0119 27.6683 51.618 27.178C51.2242 26.6747 50.7515 26.307 50.2001 26.0747C49.6487 25.8296 48.92 25.5844 48.0141 25.3392C47.2657 25.1328 46.6815 24.9521 46.2613 24.7973C45.8543 24.6296 45.5064 24.3908 45.2176 24.0812C44.9419 23.7715 44.804 23.3715 44.804 22.8812C44.804 22.1973 45.0403 21.6682 45.513 21.294C45.9856 20.9069 46.5961 20.7134 47.3445 20.7134C48.1454 20.7134 48.7887 20.9134 49.2745 21.3134C49.7603 21.7005 50.036 22.1521 50.1016 22.6683H52.071C51.966 21.6231 51.4999 20.7844 50.6727 20.1521C49.8587 19.5198 48.8084 19.2037 47.5217 19.2037C46.6289 19.2037 45.8346 19.3585 45.1388 19.6682C44.4561 19.9779 43.9243 20.4166 43.5436 20.9844C43.1628 21.5521 42.9725 22.2037 42.9725 22.9392C42.9725 23.7779 43.1628 24.4489 43.5436 24.9521C43.9375 25.4425 44.4036 25.8038 44.9419 26.036C45.4933 26.2683 46.2219 26.5005 47.1279 26.7328C47.8631 26.9264 48.4473 27.107 48.8806 27.2747C49.3139 27.4425 49.6749 27.6877 49.9638 28.0102C50.2526 28.3328 50.397 28.7522 50.397 29.2683C50.397 29.9264 50.1476 30.4683 49.6487 30.8941C49.1629 31.307 48.4933 31.5135 47.6399 31.5135C46.7471 31.5135 46.0644 31.3006 45.5917 30.8748C45.1322 30.4361 44.8696 29.9006 44.804 29.2683H42.8937C42.9068 30.0038 43.1169 30.6554 43.5239 31.2232C43.9309 31.778 44.4889 32.2167 45.1979 32.5393Z" fill="#1147EA"/>
<path d="M56.4413 31.4361H61.2466V32.8683H54.6492V19.3779H56.4413V31.4361Z" fill="#1147EA"/>
<path d="M64.745 25.3199V20.8102H70.338V19.3585H62.9529V32.8683H70.338V31.4167H64.745V26.7715H69.7472V25.3199H64.745Z" fill="#1147EA"/>
<path d="M74.645 20.8102V25.3199H79.6472V26.7715H74.645V31.4167H80.238V32.8683H72.8528V19.3585H80.238V20.8102H74.645Z" fill="#1147EA"/>
<path fill-rule="evenodd" clip-rule="evenodd" d="M90.7485 26.1328C91.5362 25.3844 91.9301 24.4489 91.9301 23.3263C91.9301 22.165 91.5231 21.2166 90.7091 20.4811C89.9082 19.7456 88.7331 19.3779 87.1839 19.3779H82.7528V32.8683H84.5449V27.236H87.1839C88.7857 27.236 89.9739 26.8683 90.7485 26.1328ZM89.3896 25.1457C88.917 25.5715 88.1817 25.7844 87.1839 25.7844H84.5449V20.8295H87.1839C89.127 20.8295 90.0986 21.6618 90.0986 23.3263C90.0986 24.1134 89.8623 24.7199 89.3896 25.1457Z" fill="#1147EA"/>
</svg>
