<svg width="180" height="180" viewBox="0 0 180 180" fill="none" xmlns="http://www.w3.org/2000/svg">
<rect width="180" height="180" rx="36" fill="black"/>
<path fill-rule="evenodd" clip-rule="evenodd" d="M60.4493 49C77.4421 49 87.5057 58.8265 87.5057 75.8893C87.5057 92.952 74.7405 103.477 60.4286 103.477H36.2593V132H27V49H60.4493ZM36.28 95.0488H59.975C70.0592 95.0488 77.6895 87.3398 77.9163 75.8893C77.9163 64.3154 71.8327 57.4287 59.8718 57.4287H36.28V95.0488Z" fill="white"/>
<path d="M104.394 132H95.543V68.7125H104.394V132Z" fill="white"/>
<path d="M133.774 68.7619H154V76.1882H133.774V115.795C133.774 122.431 136.483 124.553 142.005 124.553H154V132H139.771C131.313 132 124.963 129.046 124.963 117.106V76.1882H112.493V68.7411H124.963V49H133.774V68.7619Z" fill="white"/>
<path d="M104.377 49V56.4396H95.5799V49H104.377Z" fill="white"/>
</svg>
