<svg width="1102" height="284" viewBox="0 0 1102 284" fill="none" xmlns="http://www.w3.org/2000/svg">
<g clip-path="url(#clip0_12319_874)">
<path d="M381.985 112.431C381.985 94.9969 369.659 81.261 352.399 81.261C339.719 81.261 329.682 87.2475 324.748 95.5255V129.338C329.682 137.616 339.719 143.602 352.399 143.602C369.659 143.602 381.985 129.866 381.985 112.431ZM324.748 68.4062V77.2092C331.97 70.5161 341.833 66.9966 352.753 66.9966C378.64 66.9966 397.659 86.8941 397.659 112.431C397.659 137.966 378.64 157.867 352.753 157.867C341.833 157.867 331.97 154.343 324.748 147.653V188.862H309.605V68.4062H324.748Z" fill="#D6FFF6"/>
<path d="M487.985 112.431C487.985 94.9969 476.01 81.261 458.047 81.261C440.084 81.261 427.933 94.9969 427.933 112.431C427.933 129.866 440.084 143.602 458.047 143.602C476.01 143.602 487.985 129.866 487.985 112.431ZM412.258 112.431C412.258 87.0722 431.456 66.9966 458.047 66.9966C484.462 66.9966 503.66 87.0722 503.66 112.431C503.66 137.79 484.462 157.867 458.047 157.867C431.456 157.867 412.258 137.79 412.258 112.431Z" fill="#D6FFF6"/>
<path d="M510.529 142.716H535.006V45.1533H517.572V31.4165H550.153V142.716H574.634V156.452H510.529V142.716Z" fill="#D6FFF6"/>
<path d="M571.449 175.125H585.01C591.35 175.125 594.869 173.011 596.633 168.96L605.435 149.059L569.689 68.4053H586.067L613.186 131.45L641.186 68.4053H657.564L609.666 175.125C605.964 183.403 597.515 188.861 585.185 188.861H571.449V175.125Z" fill="#D6FFF6"/>
<path d="M662.148 140.257L674.124 132.158C678.701 139.904 684.338 144.309 693.672 144.309C702.3 144.309 709.347 139.904 709.347 133.214C709.347 126.521 704.767 122.823 694.375 119.125L687.508 116.483C672.011 110.672 666.549 100.987 666.549 90.4173C666.549 77.2092 677.998 66.9966 694.022 66.9966C705.295 66.9966 714.979 72.1048 720.442 82.846L708.639 89.7144C705.823 83.9023 700.89 80.5581 694.022 80.5581C687.332 80.5581 681.521 84.0776 681.521 90.2421C681.521 95.7008 684.162 99.927 694.375 103.625L701.597 106.27C716.564 111.728 724.489 119.653 724.489 132.686C724.489 146.772 712.517 157.867 693.319 157.867C680.286 157.867 669.191 152.055 662.148 140.257Z" fill="#D6FFF6"/>
<path d="M754.603 102.922H808.138C806.028 88.4819 794.754 80.7324 781.372 80.9068C770.453 80.9068 758.126 87.4255 754.603 102.922ZM738.051 112.431C738.051 86.8969 757.598 66.9966 782.25 66.9966C808.669 66.9966 825.223 87.2465 825.223 116.13H753.721C755.306 133.035 768.339 143.601 783.306 143.601C794.405 143.601 803.383 138.672 809.019 133.035L818.708 143.601C811.132 151.526 798.628 157.866 783.306 157.866C757.244 157.866 738.051 137.79 738.051 112.431Z" fill="#D6FFF6"/>
<path d="M844.234 68.4062H859.381V78.4445C866.07 69.9912 876.461 66.9966 886.674 66.9966C906.575 66.9966 920.665 80.9114 920.665 102.747V156.46H905.518V103.629C905.518 90.7707 897.065 81.261 883.329 81.261C871.003 81.261 862.551 88.1294 859.381 99.5774V156.46H844.234V68.4062Z" fill="#D6FFF6"/>
<path d="M938.094 140.257L950.07 132.158C954.646 139.904 960.283 144.309 969.617 144.309C978.246 144.309 985.292 139.904 985.292 133.214C985.292 126.521 980.712 122.823 970.321 119.125L963.453 116.483C947.957 110.672 942.495 100.987 942.495 90.4173C942.495 77.2092 953.943 66.9966 969.967 66.9966C981.24 66.9966 990.925 72.1048 996.387 82.846L984.586 89.7144C981.769 83.9023 976.835 80.5581 969.967 80.5581C963.277 80.5581 957.466 84.0776 957.466 90.2421C957.466 95.7008 960.108 99.927 970.321 103.625L977.542 106.27C992.51 111.728 1000.44 119.653 1000.44 132.686C1000.44 146.772 988.462 157.867 969.264 157.867C956.231 157.867 945.136 152.055 938.094 140.257Z" fill="#D6FFF6"/>
<path d="M1030.54 102.922H1084.08C1081.97 88.4819 1070.69 80.7324 1057.31 80.9068C1046.39 80.9068 1034.07 87.4255 1030.54 102.922ZM1013.99 112.431C1013.99 86.8969 1033.54 66.9966 1058.19 66.9966C1084.61 66.9966 1101.16 87.2465 1101.16 116.13H1029.66C1031.25 133.035 1044.28 143.601 1059.25 143.601C1070.34 143.601 1079.33 138.672 1084.96 133.035L1094.65 143.601C1087.07 151.526 1074.57 157.866 1059.25 157.866C1033.18 157.866 1013.99 137.79 1013.99 112.431Z" fill="#D6FFF6"/>
<path d="M102.043 -0.00439453C96.4954 -0.00439453 90.9519 1.43324 86.0068 4.30758L2.87109 52.6212L60.617 86.1306C94.8014 105.865 122.53 153.891 122.421 193.172C122.387 203.785 120.37 212.969 116.564 220.279L205.281 168.722C215.723 162.651 221.503 149.707 221.555 132.28C221.659 94.7891 195.197 48.9582 162.558 30.1179V30.1141L118.063 4.29639C113.121 1.42951 107.583 -0.00439453 102.043 -0.00439453Z" fill="#D6FFF6"/>
<path d="M0.0773905 197.147L8.1143e-06 276.141C-0.00372116 278.617 1.27822 280.831 3.41882 282.066C5.56688 283.302 8.12329 283.297 10.263 282.054L84.4643 238.931C76.0464 238.616 66.8593 235.702 57.4075 230.244L0.0773905 197.147Z" fill="#D6FFF6"/>
</g>
<defs>
<clipPath id="clip0_12319_874">
<rect width="1102" height="283.425" fill="white"/>
</clipPath>
</defs>
</svg>
