<svg width="128" height="128" viewBox="0 0 128 128" fill="none" xmlns="http://www.w3.org/2000/svg">
<rect width="128" height="128" rx="64" fill="url(#paint0_linear_66366_79)" style=""/>
<path d="M89.3733 48.4384C91.6895 53.0726 96.085 61.8664 101.107 61.4326C100.303 63.7506 97.4391 68.2266 92.4231 67.5871C92.4267 69.693 93.4298 74.2756 97.4135 75.759C95.4443 76.2683 90.4645 76.5363 86.2981 73.5334C85.6211 75.9728 85.6071 81.5259 90.9674 84.2231C86.9026 84.2002 78.3877 83.1031 76.8466 78.8977C75.6539 81.5874 74.3018 87.3372 78.4356 88.8192C76.4191 89.317 65.6586 91.3384 60.3878 86.2468C42.8198 107 23.1374 125.632 29.5811 95.9043C31.5023 89.3947 33.7627 85.5226 36.8604 82.3017C37.1411 82.0098 37.5518 82.4148 37.3987 82.7899C20.3809 124.488 58.8658 84.1145 76.3916 64.603C81.2724 58.456 85.8689 51.9909 88.51 46.742C88.7522 47.1958 89.0414 47.7744 89.3733 48.4384Z" fill="url(#paint1_linear_66366_79)" style=""/>
<path d="M76.7772 59.2224C94.2692 27.1856 93.0407 24.3343 82.6885 28.5024C82.2758 28.6685 81.9578 28.0937 82.3145 27.8279C111.784 5.86561 99.1046 27.4296 76.7772 59.2224Z" fill="url(#paint2_linear_66366_79)" style=""/>
<path fill-rule="evenodd" clip-rule="evenodd" d="M46.0508 92.6689C60.2168 80.9001 76.9423 61.2264 84.1415 34.704C79.4234 25.6087 67.0377 15.0407 43.3916 25.21C36.2539 29.512 24.8799 41.697 36.4851 56.021C36.4505 57.2343 35.6237 59.6668 32.6328 60.0418C31.4212 60.1938 31.1069 62.8543 31.6989 64.2081C32.2909 65.5619 35.4568 72.411 36.9658 75.6663C37.2799 76.6865 38.6664 78.6118 41.7 78.1522C45.4921 77.5776 49.8442 77.1703 49.9895 80.1539C50.1348 83.1374 39.3547 89.3598 39.3547 89.3598C39.3547 89.3598 35.6642 93.5486 42.9543 92.9848C43.9384 92.9087 44.9781 92.8011 46.0508 92.6689ZM58.5177 32.6934C58.9958 35.3236 60.0285 40.1762 61.4509 42.2701C62.9789 44.5194 66.6796 46.1543 68.6087 46.8862C68.8868 46.9918 68.8837 47.62 68.6047 47.7208C66.7511 48.3906 63.2823 49.8551 61.7909 51.877C60.1862 54.0523 59.0233 59.3448 58.5112 62.0515C58.4374 62.4414 58.0004 62.4429 57.9256 62.0534C57.3993 59.3141 56.1964 53.9165 54.5387 51.7277C53.0637 49.7801 49.6792 48.3699 47.8479 47.718C47.5681 47.6184 47.5653 46.9877 47.8439 46.8819C49.7761 46.1479 53.4652 44.515 54.9902 42.2701C56.4127 40.1762 57.4454 35.3236 57.9235 32.6934C57.9955 32.2971 58.4456 32.2971 58.5177 32.6934Z" fill="url(#paint3_linear_66366_79)" style=""/>
<defs>
<linearGradient id="paint0_linear_66366_79" x1="122.392" y1="99.6109" x2="-0.673749" y2="-5.77091" gradientUnits="userSpaceOnUse">
<stop offset="0.140052" style="stop-color:black;stop-opacity:1;"/>
<stop offset="0.41049" stop-color="#454545" style="stop-color:#454545;stop-color:color(display-p3 0.2691 0.2691 0.2691);stop-opacity:1;"/>
<stop offset="0.746962" style="stop-color:black;stop-opacity:1;"/>
</linearGradient>
<linearGradient id="paint1_linear_66366_79" x1="37.6708" y1="18.9371" x2="91.1442" y2="96.8896" gradientUnits="userSpaceOnUse">
<stop stop-color="#05F0FF" style="stop-color:#05F0FF;stop-color:color(display-p3 0.0196 0.9412 1.0000);stop-opacity:1;"/>
<stop offset="1" stop-color="#FFE86E" style="stop-color:#FFE86E;stop-color:color(display-p3 1.0000 0.9098 0.4314);stop-opacity:1;"/>
</linearGradient>
<linearGradient id="paint2_linear_66366_79" x1="37.6708" y1="18.9371" x2="91.1442" y2="96.8896" gradientUnits="userSpaceOnUse">
<stop stop-color="#05F0FF" style="stop-color:#05F0FF;stop-color:color(display-p3 0.0196 0.9412 1.0000);stop-opacity:1;"/>
<stop offset="1" stop-color="#FFE86E" style="stop-color:#FFE86E;stop-color:color(display-p3 1.0000 0.9098 0.4314);stop-opacity:1;"/>
</linearGradient>
<linearGradient id="paint3_linear_66366_79" x1="37.6708" y1="18.9371" x2="91.1442" y2="96.8896" gradientUnits="userSpaceOnUse">
<stop stop-color="#05F0FF" style="stop-color:#05F0FF;stop-color:color(display-p3 0.0196 0.9412 1.0000);stop-opacity:1;"/>
<stop offset="1" stop-color="#FFE86E" style="stop-color:#FFE86E;stop-color:color(display-p3 1.0000 0.9098 0.4314);stop-opacity:1;"/>
</linearGradient>
</defs>
</svg>
