<svg width="48" height="48" viewBox="0 0 48 48" fill="none" xmlns="http://www.w3.org/2000/svg">
<rect width="48" height="48" rx="9" fill="#04070B"/>
<path fill-rule="evenodd" clip-rule="evenodd" d="M31.0642 39.4253C30.9665 39.7898 30.9177 39.972 30.8457 40.0829C30.613 40.4412 30.1473 40.566 29.7666 40.372C29.6488 40.312 29.5154 40.1786 29.2486 39.9118L20.9758 31.639C20.7972 31.4604 20.7079 31.3711 20.6384 31.2754C20.4199 30.9746 20.3207 30.6037 20.3599 30.2341C20.3723 30.1164 20.4051 29.9944 20.4708 29.7505L21.1915 27.0709C21.2136 26.9887 21.2246 26.9477 21.2231 26.9179C21.2181 26.8218 21.1413 26.745 21.0452 26.7401C21.0155 26.7385 20.9744 26.7496 20.8923 26.7717L18.2127 27.4924C17.9687 27.558 17.8468 27.5908 17.7291 27.6033C17.3595 27.6424 16.9885 27.5432 16.6878 27.3248C16.592 27.2552 16.5027 27.1659 16.3241 26.9873L8.05131 18.7145C7.78451 18.4477 7.65111 18.3143 7.59109 18.1965C7.39712 17.8158 7.5219 17.3501 7.88022 17.1174C7.99111 17.0454 8.17334 16.9966 8.53779 16.8989L37.4938 9.14021C37.8583 9.04255 38.0405 8.99373 38.1726 9.00065C38.5992 9.02301 38.9401 9.36392 38.9625 9.79058C38.9694 9.92261 38.9206 10.1048 38.8229 10.4693L31.0642 39.4253ZM13.9893 18.895C13.8255 18.9391 13.7436 18.9611 13.6937 18.9935C13.5327 19.0983 13.4766 19.3078 13.5639 19.479C13.5909 19.532 13.6509 19.5919 13.7708 19.7119L17.8213 23.7623C17.8883 23.8293 17.9218 23.8628 17.9577 23.8889C18.0704 23.9708 18.2095 24.008 18.3481 23.9933C18.3923 23.9886 18.438 23.9763 18.5295 23.9517L25.2097 22.155C25.374 22.1108 25.4562 22.0887 25.5156 22.0918C25.7078 22.1017 25.8614 22.2553 25.8714 22.4475C25.8744 22.507 25.8523 22.5891 25.8082 22.7534L24.0114 29.4336C23.9868 29.5251 23.9745 29.5708 23.9698 29.615C23.9551 29.7536 23.9923 29.8927 24.0742 30.0055C24.1003 30.0414 24.1338 30.0749 24.2008 30.1419L28.2513 34.1923C28.3712 34.3122 28.4312 34.3722 28.4842 34.3992C28.6554 34.4865 28.8648 34.4305 28.9696 34.2694C29.0021 34.2195 29.0241 34.1376 29.0681 33.9738L34.3959 14.1657C34.4401 14.0014 34.4622 13.9192 34.4591 13.8598C34.4491 13.6676 34.2956 13.514 34.1034 13.504C34.0439 13.501 33.9617 13.5231 33.7975 13.5672L13.9893 18.895Z" fill="white"/>
</svg>
