<svg width="294" height="86" viewBox="0 0 294 86" fill="none" xmlns="http://www.w3.org/2000/svg">
<path d="M107.018 34.7648C108.531 34.7648 109.859 35.0253 111.002 35.5464C112.144 36.0674 113.119 36.8405 113.926 37.8657L111.985 40.1095C111.296 39.2355 110.539 38.5969 109.716 38.1935C108.909 37.7733 107.968 37.5632 106.892 37.5632C106.186 37.5632 105.598 37.6557 105.128 37.8405C104.674 38.0254 104.338 38.2691 104.119 38.5716C103.917 38.8742 103.817 39.2103 103.817 39.5801C103.817 40.0339 103.993 40.4204 104.346 40.7398C104.699 41.0423 105.304 41.2944 106.161 41.4961L109.262 42.202C110.909 42.5717 112.086 43.1264 112.792 43.8659C113.514 44.5886 113.876 45.5298 113.876 46.6895C113.876 47.782 113.59 48.7232 113.018 49.5131C112.447 50.2862 111.649 50.8829 110.623 51.3031C109.598 51.7064 108.422 51.9081 107.094 51.9081C105.934 51.9081 104.867 51.7737 103.892 51.5047C102.934 51.219 102.077 50.8325 101.321 50.345C100.564 49.8576 99.9341 49.2946 99.4299 48.6559L101.396 46.3113C101.783 46.8492 102.262 47.3282 102.833 47.7483C103.405 48.1685 104.052 48.5047 104.775 48.7568C105.514 48.9921 106.287 49.1097 107.094 49.1097C107.783 49.1097 108.363 49.0341 108.833 48.8828C109.321 48.7148 109.682 48.4879 109.918 48.2021C110.17 47.8996 110.296 47.5383 110.296 47.1181C110.296 46.6811 110.144 46.3113 109.842 46.0088C109.556 45.6895 109.018 45.4458 108.228 45.2777L104.85 44.5214C103.875 44.2861 103.035 43.9835 102.329 43.6138C101.64 43.2272 101.111 42.7398 100.741 42.1516C100.388 41.5465 100.211 40.8322 100.211 40.0087C100.211 39.017 100.48 38.1263 101.018 37.3363C101.556 36.5464 102.329 35.9245 103.338 35.4707C104.363 35.0001 105.59 34.7648 107.018 34.7648ZM132.128 35.0169V37.8153H126.557V51.656H123.078V37.8153H117.481V35.0169H132.128ZM144.576 35.0169C146.459 35.0169 147.938 35.4707 149.013 36.3783C150.089 37.2859 150.627 38.5044 150.627 40.0339C150.627 41.6642 150.089 42.9163 149.013 43.7903C147.938 44.6474 146.467 45.076 144.602 45.076L144.249 45.2777H140.669V51.656H137.24V35.0169H144.576ZM144.173 42.6306C145.148 42.6306 145.871 42.4373 146.341 42.0507C146.829 41.6474 147.072 41.0339 147.072 40.2103C147.072 39.3868 146.829 38.7817 146.341 38.3952C145.871 37.9918 145.148 37.7901 144.173 37.7901H140.669V42.6306H144.173ZM146.215 43.3617L151.61 51.656H147.702L143.24 44.3701L146.215 43.3617ZM171.09 51.656H167.485L166.098 47.5971H159.72L158.334 51.656H154.779L160.855 35.0169H165.014L171.09 51.656ZM160.502 45.0256H165.317L162.897 37.7649L160.502 45.0256ZM186.845 35.0169V37.8153H181.274V51.656H177.795V37.8153H172.198V35.0169H186.845ZM205.848 35.0169V45.1012C205.848 47.3702 205.243 49.0761 204.033 50.219C202.823 51.3451 201.058 51.9081 198.739 51.9081C196.419 51.9081 194.655 51.3451 193.445 50.219C192.234 49.0761 191.629 47.3702 191.629 45.1012V35.0169H195.108V44.95C195.108 46.3449 195.403 47.3786 195.991 48.0509C196.596 48.7232 197.512 49.0593 198.739 49.0593C199.966 49.0593 200.873 48.7232 201.462 48.0509C202.05 47.3786 202.344 46.3449 202.344 44.95V35.0169H205.848ZM218.2 34.7648C219.713 34.7648 221.041 35.0253 222.184 35.5464C223.327 36.0674 224.301 36.8405 225.108 37.8657L223.167 40.1095C222.478 39.2355 221.722 38.5969 220.898 38.1935C220.091 37.7733 219.15 37.5632 218.074 37.5632C217.369 37.5632 216.78 37.6557 216.31 37.8405C215.856 38.0254 215.52 38.2691 215.301 38.5716C215.1 38.8742 214.999 39.2103 214.999 39.5801C214.999 40.0339 215.175 40.4204 215.528 40.7398C215.881 41.0423 216.486 41.2944 217.343 41.4961L220.444 42.202C222.091 42.5717 223.268 43.1264 223.974 43.8659C224.696 44.5886 225.058 45.5298 225.058 46.6895C225.058 47.782 224.772 48.7232 224.201 49.5131C223.629 50.2862 222.831 50.8829 221.806 51.3031C220.78 51.7064 219.604 51.9081 218.276 51.9081C217.116 51.9081 216.049 51.7737 215.074 51.5047C214.116 51.219 213.259 50.8325 212.503 50.345C211.747 49.8576 211.116 49.2946 210.612 48.6559L212.579 46.3113C212.965 46.8492 213.444 47.3282 214.016 47.7483C214.587 48.1685 215.234 48.5047 215.957 48.7568C216.696 48.9921 217.469 49.1097 218.276 49.1097C218.965 49.1097 219.545 49.0341 220.016 48.8828C220.503 48.7148 220.864 48.4879 221.1 48.2021C221.352 47.8996 221.478 47.5383 221.478 47.1181C221.478 46.6811 221.327 46.3113 221.024 46.0088C220.738 45.6895 220.201 45.4458 219.411 45.2777L216.032 44.5214C215.058 44.2861 214.217 43.9835 213.511 43.6138C212.822 43.2272 212.293 42.7398 211.923 42.1516C211.57 41.5465 211.394 40.8322 211.394 40.0087C211.394 39.017 211.663 38.1263 212.2 37.3363C212.738 36.5464 213.511 35.9245 214.52 35.4707C215.545 35.0001 216.772 34.7648 218.2 34.7648ZM237.652 51.9081C236.089 51.9081 234.736 51.5636 233.593 50.8745C232.45 50.1686 231.568 49.177 230.946 47.8996C230.324 46.6223 230.013 45.1012 230.013 43.3365C230.013 41.5717 230.332 40.0507 230.971 38.7733C231.627 37.496 232.526 36.5128 233.669 35.8237C234.828 35.1178 236.165 34.7648 237.677 34.7648C239.375 34.7648 240.744 35.101 241.786 35.7733C242.845 36.4455 243.644 37.4708 244.182 38.849L243.022 39.454C242.635 38.2943 241.997 37.4204 241.106 36.8321C240.215 36.2271 239.072 35.9245 237.677 35.9245C236.417 35.9245 235.307 36.2271 234.349 36.8321C233.408 37.4204 232.669 38.2691 232.131 39.3784C231.593 40.4877 231.324 41.807 231.324 43.3365C231.324 44.8659 231.576 46.1853 232.08 47.2946C232.585 48.4038 233.307 49.261 234.248 49.866C235.206 50.4543 236.358 50.7484 237.702 50.7484C238.627 50.7484 239.425 50.6056 240.097 50.3198C240.786 50.0173 241.35 49.6307 241.786 49.1601C242.24 48.6727 242.576 48.1265 242.795 47.5214C243.013 46.8996 243.123 46.2693 243.123 45.6306V44.6978H237.475V43.5129H244.308V51.656H243.274L243.224 48.0509L243.45 48.1013C243.047 49.2778 242.35 50.2106 241.358 50.8997C240.383 51.572 239.148 51.9081 237.652 51.9081ZM257.195 35.0169C258.858 35.0169 260.178 35.4371 261.153 36.2775C262.144 37.1178 262.64 38.2691 262.64 39.7313C262.64 41.1936 262.144 42.3364 261.153 43.16C260.161 43.9667 258.833 44.3701 257.169 44.3701L257.043 44.4457H252.278V51.656H251.018V35.0169H257.195ZM257.169 43.2608C258.514 43.2608 259.539 42.9583 260.245 42.3533C260.968 41.7482 261.329 40.8742 261.329 39.7313C261.329 38.5885 260.968 37.7145 260.245 37.1094C259.539 36.4876 258.514 36.1766 257.169 36.1766H252.278V43.2608H257.169ZM258.153 43.4877L263.522 51.656H262.035L257.094 44.1936L258.153 43.4877ZM270.673 35.0169V51.656H269.413V35.0169H270.673ZM283.425 35.0169C286.081 35.0169 288.123 35.7228 289.552 37.1346C290.997 38.5296 291.72 40.5549 291.72 43.2104C291.72 45.95 290.997 48.0425 289.552 49.4879C288.123 50.9333 286.081 51.656 283.425 51.656H278.181V35.0169H283.425ZM283.526 50.4963C285.745 50.4963 287.442 49.866 288.619 48.6055C289.812 47.345 290.409 45.5466 290.409 43.2104C290.409 40.9583 289.812 39.2271 288.619 38.017C287.442 36.7901 285.745 36.1766 283.526 36.1766H279.442V50.4963H283.526Z" fill="white"/>
<path d="M28.2156 70.4356L83.1088 44.1613C84.179 43.6491 84.1797 42.1258 83.1099 41.6127L28.5585 15.4446L42.1108 29.1784L55.4392 42.1777C56.0124 42.7367 56.0071 43.6599 55.4275 44.2122L41.7744 57.2238L28.2156 70.4356Z" fill="white"/>
<path d="M28.6246 70.1597C28.1404 70.6336 27.3636 70.6253 26.8897 70.141L13.8735 56.8416L28.0497 42.9674L41.924 57.1436L28.6246 70.1597Z" fill="#EEB312"/>
<path d="M13.8743 56.8396L0.85814 43.5402C0.384208 43.056 0.392569 42.2792 0.876817 41.8053L14.1762 28.7891L28.0505 42.9653L13.8743 56.8396Z" fill="#FBCA45"/>
<path d="M28.0513 42.9653L14.177 28.7891L27.4764 15.773C27.9607 15.2991 28.7374 15.3074 29.2113 15.7917L42.2275 29.0911L28.0513 42.9653Z" fill="#FFE499"/>
</svg>
