<svg width="278" height="67" viewBox="0 0 278 67" fill="none" xmlns="http://www.w3.org/2000/svg">
<mask id="mask0_2601_701" style="mask-type:luminance" maskUnits="userSpaceOnUse" x="0" y="0" width="77" height="67">
<path fill-rule="evenodd" clip-rule="evenodd" d="M27.5115 0.833528C24.7552 1.40181 22.0977 2.25813 19.6144 3.60459C17.8423 4.56556 16.2294 5.73868 14.8805 7.24862C14.4771 7.70004 14.1075 8.18176 13.7104 8.66429C12.9156 8.55195 12.1803 8.69541 11.5616 9.25167C10.9484 9.8027 10.715 10.5139 10.7299 11.3053C10.6077 11.3715 10.518 11.4232 10.4258 11.4698C8.30866 12.5354 6.43941 13.9346 4.8888 15.7257C1.17854 20.0113 -0.548996 24.954 0.153808 30.6331C0.621968 34.4165 2.33102 37.5869 5.17212 40.1319C7.07803 41.8393 9.29376 43.0096 11.7121 43.8141C11.9051 43.8782 12.0951 43.9522 12.2664 44.0143C12.6142 45.6704 13.2657 46.2154 15.0839 46.3974C15.3687 46.8241 15.6404 47.2666 15.9467 47.6835C17.8386 50.2588 20.382 51.933 23.3726 52.9485C26.1376 53.8875 28.9829 54.1364 31.8833 53.8022C34.4003 53.5124 36.7794 52.7919 39.0059 51.5775C39.0681 51.5435 39.1354 51.5192 39.182 51.4987C40.5199 52.2723 41.3332 52.2079 42.6533 51.2328C42.7926 51.2922 42.942 51.3543 43.0901 51.419C45.1283 52.3095 47.1976 53.1199 49.3495 53.6893C49.8885 53.8319 50.2218 54.0413 50.2385 54.62C50.2393 54.6488 50.2314 54.6777 50.2239 54.734C50.0955 54.8464 49.9477 54.9685 49.8081 55.0993C48.7475 56.0919 47.6639 57.0613 46.6362 58.0867C45.6062 59.1147 44.682 60.2375 43.9763 61.5227C43.6675 62.0852 43.4361 62.6758 43.3469 63.3159C43.2057 64.3289 43.5215 65.1629 44.3498 65.7721C44.6092 65.9628 44.9053 66.1152 45.2039 66.2386C45.9379 66.5418 46.7148 66.6503 47.504 66.6859C48.9175 66.7498 50.32 66.6335 51.7089 66.3848C55.8681 65.6402 59.8218 64.2994 63.5186 62.2379C65.6657 61.0407 67.6599 59.6342 69.3547 57.8364C70.6294 56.4841 71.6598 54.9762 72.2493 53.1951C72.3279 52.9575 72.3984 52.7172 72.4716 52.4817C73.2771 52.2672 73.8746 51.82 74.2188 51.0675C74.5702 50.2991 74.489 49.5414 74.1211 48.7908C75.7323 46.7119 76.6598 44.371 76.9027 41.7678C77.1441 39.1802 76.6975 36.6895 75.7805 34.285C77.0419 32.917 76.7731 31.2761 75.5135 30.2818C75.5244 30.1974 75.528 30.1382 75.5401 30.0807C76.2078 26.8937 75.9661 23.7719 74.848 20.7189C73.6317 17.3977 71.6314 14.5957 69.119 12.1383C66.4776 9.55492 63.4513 7.51181 60.1785 5.82689C53.3279 2.30034 46.0304 0.434272 38.3489 0.0589436C37.5533 0.0201271 36.7592 0 35.9656 0C33.1292 0 30.3069 0.257134 27.5115 0.833528ZM15.0346 9.37712C15.1949 9.1628 15.3456 8.94562 15.5118 8.74096C16.8512 7.09218 18.5138 5.8442 20.3729 4.84411C22.7021 3.59089 25.1917 2.79177 27.7727 2.26014C31.0707 1.58106 34.4081 1.34467 37.7667 1.47827C45.3805 1.7812 52.6158 3.58083 59.4132 7.05891C62.7347 8.75841 65.7815 10.8493 68.4129 13.5095C70.3883 15.5065 72.0442 17.7328 73.1581 20.3334C74.1559 22.6629 74.6021 25.0895 74.4419 27.6212C74.3942 28.3742 74.2894 29.121 74.1061 29.8912C73.8963 29.9111 73.7358 29.9263 73.5765 29.9414C69.4914 24.1059 64.2169 19.7303 57.6803 16.9211C51.1621 14.1196 44.3712 13.2972 37.3418 14.307C36.925 13.6333 36.3677 13.1647 35.589 13.0332C34.839 12.9064 34.145 13.0653 33.5409 13.5464C27.8783 10.3222 21.8901 8.74281 15.3348 9.77658C15.249 9.66218 15.1527 9.53413 15.0346 9.37712ZM15.8213 26.1822C14.5955 23.8805 13.6434 21.4786 13.1862 18.8992C12.8837 17.1933 12.8149 15.4836 13.1471 13.7719C13.1554 13.7286 13.1728 13.6872 13.1982 13.6052C14.6527 13.4774 15.4827 12.6973 15.7231 11.2328C15.8298 11.2074 15.953 11.1704 16.0789 11.1493C19.1108 10.6405 22.1047 10.9063 25.0694 11.6235C27.6489 12.2475 30.08 13.252 32.3812 14.5718C32.4833 14.6304 32.5828 14.6936 32.7189 14.7761C32.6921 14.9549 32.6643 15.1398 32.6326 15.3528C32.4774 15.4047 32.327 15.4582 32.1748 15.5056C29.3003 16.4 26.5914 17.648 24.067 19.2927C21.3689 21.0507 19.1667 23.304 17.3888 25.9786C17.2021 26.2595 17.0322 26.4597 16.6499 26.3717C16.4398 26.3232 16.2092 26.363 15.9465 26.363C15.9191 26.324 15.8614 26.2578 15.8213 26.1822ZM12.4595 42.5392C9.75313 41.6637 7.31323 40.3385 5.32528 38.2673C3.21347 36.067 1.94074 33.4433 1.57897 30.4219C0.938499 25.073 2.61326 20.4515 6.17102 16.4817C7.66761 14.8119 9.52269 13.4865 11.2747 12.6832C11.4491 12.8455 11.61 12.9952 11.7636 13.1381C11.6874 13.6992 11.5924 14.2388 11.5439 14.7824C11.272 17.8345 11.9165 20.7404 13.0252 23.555C13.4696 24.683 14.0335 25.7638 14.5437 26.8659C14.5864 26.9583 14.6338 27.0486 14.6738 27.1292C13.7962 28.644 13.8351 29.3828 14.872 30.7371C13.5082 34.2744 12.8636 37.928 13.4492 41.621C13.1133 41.9472 12.8389 42.2135 12.5646 42.48C12.5869 42.5069 12.6094 42.5337 12.6318 42.5606C12.5742 42.5539 12.5135 42.5568 12.4595 42.5392ZM47.3611 39.0357C47.7526 34.7417 46.9804 30.5598 45.2132 26.5519C43.4465 22.5455 40.8157 19.1895 37.4625 16.3475C37.5181 16.1247 37.564 15.9404 37.6069 15.7682C50.3138 13.6102 64.5916 19.3045 72.2779 30.6757C71.3949 31.9025 71.4198 33.1016 72.4927 34.2745C71.2902 36.6168 69.6275 38.6299 67.8396 40.5675C66.7123 40.1216 65.7004 40.2367 64.8077 41.1172C64.6938 41.0842 64.5673 41.0545 64.4452 41.0113C62.335 40.2676 60.158 39.8615 57.9297 39.7007C55.6449 39.5359 53.3671 39.5963 51.0945 39.8765C50.214 39.9851 49.3341 40.0983 48.4999 40.2037C48.1249 39.8191 47.7674 39.4524 47.3611 39.0357ZM18.4932 30.4252C19.2274 29.3081 19.2162 28.2072 18.3744 27.1348C18.4576 27.0013 18.5319 26.8753 18.6127 26.7533C20.7101 23.5852 23.4616 21.1416 26.7991 19.34C28.656 18.3376 30.5859 17.514 32.6007 16.888C32.7263 16.8489 32.8536 16.8148 32.9722 16.7806C34.038 18.1527 35.4147 18.1786 36.5536 17.5315C36.6261 17.5774 36.719 17.6213 36.7939 17.6862C40.4762 20.88 43.2096 24.7236 44.7519 29.3719C45.6747 32.1534 46.1271 35.0074 45.9725 37.9447C45.957 38.2394 45.9203 38.533 45.8923 38.8388C44.5506 39.2158 44.0522 39.7104 43.7044 40.9681C43.1622 41.1559 34.6891 42.4898 33.3343 42.5983C32.9621 41.9437 32.4327 41.4485 31.6709 41.2545C30.9256 41.0647 30.2348 41.2301 29.5707 41.641C25.3967 38.3742 21.634 34.7258 18.4932 30.4252ZM17.2441 43.5361C17.1199 42.9752 16.8871 42.4553 16.4456 42.0536C16.0133 41.6605 15.4957 41.4622 14.9332 41.3993C14.2462 39.4023 14.9874 33.7161 16.2347 31.3541C16.5688 31.3208 16.9052 31.2873 17.2943 31.2486C20.5065 35.6506 24.3918 39.4315 28.7044 42.8058C28.6639 42.9475 28.6286 43.0711 28.5865 43.2186C26.0812 43.5032 23.5817 43.7791 21.0616 43.7791C19.7955 43.779 18.5236 43.7093 17.2441 43.5361ZM72.3337 47.5914C72.2343 47.558 72.1139 47.477 72.0759 47.3868C71.4273 45.8471 70.3848 44.6145 69.1181 43.5532C69.0969 43.5353 69.0863 43.5048 69.0596 43.4629C69.1806 42.8401 69.1558 42.2143 68.85 41.6028C70.7583 39.5333 72.5261 37.3698 73.8216 34.8552H74.4071C76.1095 38.7549 76.0526 44.0604 73.0489 47.778C72.8137 47.7189 72.5685 47.6708 72.3337 47.5914ZM43.2591 49.9186C43.2451 49.6389 43.2493 49.4007 43.2168 49.1675C43.1863 48.9497 43.1166 48.7373 43.0682 48.5385C43.6411 47.7986 44.2536 47.0917 44.7681 46.3195C45.2833 45.5464 45.7005 44.7081 46.1877 43.8508C47.4899 43.777 48.3295 43.0543 48.6769 41.6758C49.409 41.5627 50.1641 41.4287 50.9239 41.3321C52.8966 41.0813 54.8786 40.9759 56.866 41.0639C59.2133 41.1678 61.5198 41.5188 63.7494 42.2905C63.8874 42.3382 64.0225 42.3944 64.1331 42.4367C64.2064 42.9186 64.2747 43.3675 64.3548 43.8942C61.1354 46.7023 57.5221 49.1113 54.0333 51.7281C53.416 51.3629 52.7626 51.1786 52.0433 51.3404C51.3417 51.498 50.8168 51.9033 50.4154 52.5074C47.9447 51.8557 45.5837 50.9605 43.2591 49.9186ZM33.4651 44.4422C33.415 44.0772 33.648 44.0478 33.8722 44.0153C34.752 43.8881 35.6335 43.7723 36.5117 43.6357C38.6777 43.2983 40.8424 42.9518 43.0076 42.6089C43.3129 42.5605 43.6179 42.5114 43.8985 42.4666C44.1672 42.7883 44.412 43.0812 44.6858 43.4091C44.058 44.8671 43.182 46.1885 42.0621 47.3846C40.9278 46.8594 39.918 46.9775 38.9865 47.7853C37.0799 46.7556 35.2339 45.6384 33.4651 44.4422ZM28.7304 44.6577C29.6278 46.2158 31.1908 46.543 32.5699 45.6756C34.478 46.832 36.3762 47.9823 38.3209 49.161V50.2563C38.2623 50.2926 38.1679 50.3588 38.0668 50.4123C36.0538 51.4789 33.9077 52.1059 31.6476 52.3623C29.05 52.657 26.5002 52.4323 24.0133 51.6269C21.0042 50.6523 18.5197 48.948 16.7507 46.2808C16.6607 46.1451 16.5785 46.0042 16.4966 45.8635C16.475 45.8267 16.4677 45.7816 16.4566 45.7484C16.6491 45.4948 16.8359 45.2487 17.0492 44.9679C18.3787 45.1483 19.7082 45.2211 21.0373 45.2211C23.6074 45.221 26.1748 44.949 28.7304 44.6577ZM67.933 44.9046C68.0223 44.8529 68.1083 44.7958 68.2204 44.7262C69.2082 45.4294 70.2378 46.7376 70.6994 47.8774C69.6529 48.62 69.261 49.6245 69.6219 50.9094C69.371 51.0621 69.1373 51.2153 68.8937 51.3508C66.9563 52.4286 64.8758 53.0783 62.692 53.4203C60.274 53.7991 57.8519 53.77 55.4274 53.4962C55.311 53.483 55.1964 53.4536 55.0484 53.4257C55.0045 53.2607 54.9598 53.0936 54.9053 52.8896C55.0416 52.7833 55.1763 52.673 55.3163 52.57C57.4774 50.9827 59.6512 49.4121 61.7958 47.8029C62.9209 46.9588 63.9995 46.0522 65.0891 45.1616C65.2942 44.9939 65.4513 44.9487 65.7147 45.059C66.0369 45.1941 66.3581 45.2607 66.6759 45.2607C67.1028 45.2607 67.5237 45.1406 67.933 44.9046ZM68.6987 53.0736C69.3112 52.7782 69.8985 52.4306 70.537 52.0859C70.6815 52.1693 70.8209 52.2498 70.9981 52.3522C70.9463 52.5229 70.9017 52.6906 70.8448 52.854C70.3178 54.3649 69.4321 55.6505 68.3478 56.8089C66.8137 58.4481 65.0096 59.738 63.0671 60.8407C59.292 62.9839 55.2464 64.3626 50.9665 65.0564C49.7941 65.2465 48.6092 65.3337 47.4221 65.2415C46.9383 65.2039 46.4593 65.0897 45.9816 64.9935C45.8249 64.9619 45.6736 64.8877 45.529 64.8149C44.8797 64.4877 44.6316 64.0301 44.8211 63.3228C44.9497 62.8429 45.1526 62.3712 45.3943 61.9357C45.9298 60.9711 46.6561 60.1443 47.4066 59.3427C48.5325 58.1399 49.752 57.0358 51.0061 55.9692C51.0618 55.9218 51.1249 55.8831 51.1803 55.8436C52.6227 56.6384 54.0425 56.1686 54.8117 54.8787C55.4628 54.9393 56.1223 55.0161 56.784 55.0594C57.5126 55.1071 58.2372 55.1328 58.9579 55.1327C62.3192 55.1327 65.5889 54.5734 68.6987 53.0736Z" fill="white"/>
</mask>
<g mask="url(#mask0_2601_701)">
<path fill-rule="evenodd" clip-rule="evenodd" d="M27.5115 0.833528C24.7552 1.40181 22.0977 2.25813 19.6144 3.60459C17.8423 4.56556 16.2294 5.73868 14.8805 7.24862C14.4771 7.70004 14.1075 8.18176 13.7104 8.66429C12.9156 8.55195 12.1803 8.69541 11.5616 9.25167C10.9484 9.8027 10.715 10.5139 10.7299 11.3053C10.6077 11.3715 10.518 11.4232 10.4258 11.4698C8.30866 12.5354 6.43941 13.9346 4.8888 15.7257C1.17854 20.0113 -0.548996 24.954 0.153808 30.6331C0.621968 34.4165 2.33102 37.5869 5.17212 40.1319C7.07803 41.8393 9.29376 43.0096 11.7121 43.8141C11.9051 43.8782 12.0951 43.9522 12.2664 44.0143C12.6142 45.6704 13.2657 46.2154 15.0839 46.3974C15.3687 46.8241 15.6404 47.2666 15.9467 47.6835C17.8386 50.2588 20.382 51.933 23.3726 52.9485C26.1376 53.8875 28.9829 54.1364 31.8833 53.8022C34.4003 53.5124 36.7794 52.7919 39.0059 51.5775C39.0681 51.5435 39.1354 51.5192 39.182 51.4987C40.5199 52.2723 41.3332 52.2079 42.6533 51.2328C42.7926 51.2922 42.942 51.3543 43.0901 51.419C45.1283 52.3095 47.1976 53.1199 49.3495 53.6893C49.8885 53.8319 50.2218 54.0413 50.2385 54.62C50.2393 54.6488 50.2314 54.6777 50.2239 54.734C50.0955 54.8464 49.9477 54.9685 49.8081 55.0993C48.7475 56.0919 47.6639 57.0613 46.6362 58.0867C45.6062 59.1147 44.682 60.2375 43.9763 61.5227C43.6675 62.0852 43.4361 62.6758 43.3469 63.3159C43.2057 64.3289 43.5215 65.1629 44.3498 65.7721C44.6092 65.9628 44.9053 66.1152 45.2039 66.2386C45.9379 66.5418 46.7148 66.6503 47.504 66.6859C48.9175 66.7498 50.32 66.6335 51.7089 66.3848C55.8681 65.6402 59.8218 64.2994 63.5186 62.2379C65.6657 61.0407 67.6599 59.6342 69.3547 57.8364C70.6294 56.4841 71.6598 54.9762 72.2493 53.1951C72.3279 52.9575 72.3984 52.7172 72.4716 52.4817C73.2771 52.2672 73.8746 51.82 74.2188 51.0675C74.5702 50.2991 74.489 49.5414 74.1211 48.7908C75.7323 46.7119 76.6598 44.371 76.9027 41.7678C77.1441 39.1802 76.6975 36.6895 75.7805 34.285C77.0419 32.917 76.7731 31.2761 75.5135 30.2818C75.5244 30.1974 75.528 30.1382 75.5401 30.0807C76.2078 26.8937 75.9661 23.7719 74.848 20.7189C73.6317 17.3977 71.6314 14.5957 69.119 12.1383C66.4776 9.55492 63.4513 7.51181 60.1785 5.82689C53.3279 2.30034 46.0304 0.434272 38.3489 0.0589436C37.5533 0.0201271 36.7592 0 35.9656 0C33.1292 0 30.3069 0.257134 27.5115 0.833528ZM15.0346 9.37712C15.1949 9.1628 15.3456 8.94562 15.5118 8.74096C16.8512 7.09218 18.5138 5.8442 20.3729 4.84411C22.7021 3.59089 25.1917 2.79177 27.7727 2.26014C31.0707 1.58106 34.4081 1.34467 37.7667 1.47827C45.3805 1.7812 52.6158 3.58083 59.4132 7.05891C62.7347 8.75841 65.7815 10.8493 68.4129 13.5095C70.3883 15.5065 72.0442 17.7328 73.1581 20.3334C74.1559 22.6629 74.6021 25.0895 74.4419 27.6212C74.3942 28.3742 74.2894 29.121 74.1061 29.8912C73.8963 29.9111 73.7358 29.9263 73.5765 29.9414C69.4914 24.1059 64.2169 19.7303 57.6803 16.9211C51.1621 14.1196 44.3712 13.2972 37.3418 14.307C36.925 13.6333 36.3677 13.1647 35.589 13.0332C34.839 12.9064 34.145 13.0653 33.5409 13.5464C27.8783 10.3222 21.8901 8.74281 15.3348 9.77658C15.249 9.66218 15.1527 9.53413 15.0346 9.37712ZM15.8213 26.1822C14.5955 23.8805 13.6434 21.4786 13.1862 18.8992C12.8837 17.1933 12.8149 15.4836 13.1471 13.7719C13.1554 13.7286 13.1728 13.6872 13.1982 13.6052C14.6527 13.4774 15.4827 12.6973 15.7231 11.2328C15.8298 11.2074 15.953 11.1704 16.0789 11.1493C19.1108 10.6405 22.1047 10.9063 25.0694 11.6235C27.6489 12.2475 30.08 13.252 32.3812 14.5718C32.4833 14.6304 32.5828 14.6936 32.7189 14.7761C32.6921 14.9549 32.6643 15.1398 32.6326 15.3528C32.4774 15.4047 32.327 15.4582 32.1748 15.5056C29.3003 16.4 26.5914 17.648 24.067 19.2927C21.3689 21.0507 19.1667 23.304 17.3888 25.9786C17.2021 26.2595 17.0322 26.4597 16.6499 26.3717C16.4398 26.3232 16.2092 26.363 15.9465 26.363C15.9191 26.324 15.8614 26.2578 15.8213 26.1822ZM12.4595 42.5392C9.75313 41.6637 7.31323 40.3385 5.32528 38.2673C3.21347 36.067 1.94074 33.4433 1.57897 30.4219C0.938499 25.073 2.61326 20.4515 6.17102 16.4817C7.66761 14.8119 9.52269 13.4865 11.2747 12.6832C11.4491 12.8455 11.61 12.9952 11.7636 13.1381C11.6874 13.6992 11.5924 14.2388 11.5439 14.7824C11.272 17.8345 11.9165 20.7404 13.0252 23.555C13.4696 24.683 14.0335 25.7638 14.5437 26.8659C14.5864 26.9583 14.6338 27.0486 14.6738 27.1292C13.7962 28.644 13.8351 29.3828 14.872 30.7371C13.5082 34.2744 12.8636 37.928 13.4492 41.621C13.1133 41.9472 12.8389 42.2135 12.5646 42.48C12.5869 42.5069 12.6094 42.5337 12.6318 42.5606C12.5742 42.5539 12.5135 42.5568 12.4595 42.5392ZM47.3611 39.0357C47.7526 34.7417 46.9804 30.5598 45.2132 26.5519C43.4465 22.5455 40.8157 19.1895 37.4625 16.3475C37.5181 16.1247 37.564 15.9404 37.6069 15.7682C50.3138 13.6102 64.5916 19.3045 72.2779 30.6757C71.3949 31.9025 71.4198 33.1016 72.4927 34.2745C71.2902 36.6168 69.6275 38.6299 67.8396 40.5675C66.7123 40.1216 65.7004 40.2367 64.8077 41.1172C64.6938 41.0842 64.5673 41.0545 64.4452 41.0113C62.335 40.2676 60.158 39.8615 57.9297 39.7007C55.6449 39.5359 53.3671 39.5963 51.0945 39.8765C50.214 39.9851 49.3341 40.0983 48.4999 40.2037C48.1249 39.8191 47.7674 39.4524 47.3611 39.0357ZM18.4932 30.4252C19.2274 29.3081 19.2162 28.2072 18.3744 27.1348C18.4576 27.0013 18.5319 26.8753 18.6127 26.7533C20.7101 23.5852 23.4616 21.1416 26.7991 19.34C28.656 18.3376 30.5859 17.514 32.6007 16.888C32.7263 16.8489 32.8536 16.8148 32.9722 16.7806C34.038 18.1527 35.4147 18.1786 36.5536 17.5315C36.6261 17.5774 36.719 17.6213 36.7939 17.6862C40.4762 20.88 43.2096 24.7236 44.7519 29.3719C45.6747 32.1534 46.1271 35.0074 45.9725 37.9447C45.957 38.2394 45.9203 38.533 45.8923 38.8388C44.5506 39.2158 44.0522 39.7104 43.7044 40.9681C43.1622 41.1559 34.6891 42.4898 33.3343 42.5983C32.9621 41.9437 32.4327 41.4485 31.6709 41.2545C30.9256 41.0647 30.2348 41.2301 29.5707 41.641C25.3967 38.3742 21.634 34.7258 18.4932 30.4252ZM17.2441 43.5361C17.1199 42.9752 16.8871 42.4553 16.4456 42.0536C16.0133 41.6605 15.4957 41.4622 14.9332 41.3993C14.2462 39.4023 14.9874 33.7161 16.2347 31.3541C16.5688 31.3208 16.9052 31.2873 17.2943 31.2486C20.5065 35.6506 24.3918 39.4315 28.7044 42.8058C28.6639 42.9475 28.6286 43.0711 28.5865 43.2186C26.0812 43.5032 23.5817 43.7791 21.0616 43.7791C19.7955 43.779 18.5236 43.7093 17.2441 43.5361ZM72.3337 47.5914C72.2343 47.558 72.1139 47.477 72.0759 47.3868C71.4273 45.8471 70.3848 44.6145 69.1181 43.5532C69.0969 43.5353 69.0863 43.5048 69.0596 43.4629C69.1806 42.8401 69.1558 42.2143 68.85 41.6028C70.7583 39.5333 72.5261 37.3698 73.8216 34.8552H74.4071C76.1095 38.7549 76.0526 44.0604 73.0489 47.778C72.8137 47.7189 72.5685 47.6708 72.3337 47.5914ZM43.2591 49.9186C43.2451 49.6389 43.2493 49.4007 43.2168 49.1675C43.1863 48.9497 43.1166 48.7373 43.0682 48.5385C43.6411 47.7986 44.2536 47.0917 44.7681 46.3195C45.2833 45.5464 45.7005 44.7081 46.1877 43.8508C47.4899 43.777 48.3295 43.0543 48.6769 41.6758C49.409 41.5627 50.1641 41.4287 50.9239 41.3321C52.8966 41.0813 54.8786 40.9759 56.866 41.0639C59.2133 41.1678 61.5198 41.5188 63.7494 42.2905C63.8874 42.3382 64.0225 42.3944 64.1331 42.4367C64.2064 42.9186 64.2747 43.3675 64.3548 43.8942C61.1354 46.7023 57.5221 49.1113 54.0333 51.7281C53.416 51.3629 52.7626 51.1786 52.0433 51.3404C51.3417 51.498 50.8168 51.9033 50.4154 52.5074C47.9447 51.8557 45.5837 50.9605 43.2591 49.9186ZM33.4651 44.4422C33.415 44.0772 33.648 44.0478 33.8722 44.0153C34.752 43.8881 35.6335 43.7723 36.5117 43.6357C38.6777 43.2983 40.8424 42.9518 43.0076 42.6089C43.3129 42.5605 43.6179 42.5114 43.8985 42.4666C44.1672 42.7883 44.412 43.0812 44.6858 43.4091C44.058 44.8671 43.182 46.1885 42.0621 47.3846C40.9278 46.8594 39.918 46.9775 38.9865 47.7853C37.0799 46.7556 35.2339 45.6384 33.4651 44.4422ZM28.7304 44.6577C29.6278 46.2158 31.1908 46.543 32.5699 45.6756C34.478 46.832 36.3762 47.9823 38.3209 49.161V50.2563C38.2623 50.2926 38.1679 50.3588 38.0668 50.4123C36.0538 51.4789 33.9077 52.1059 31.6476 52.3623C29.05 52.657 26.5002 52.4323 24.0133 51.6269C21.0042 50.6523 18.5197 48.948 16.7507 46.2808C16.6607 46.1451 16.5785 46.0042 16.4966 45.8635C16.475 45.8267 16.4677 45.7816 16.4566 45.7484C16.6491 45.4948 16.8359 45.2487 17.0492 44.9679C18.3787 45.1483 19.7082 45.2211 21.0373 45.2211C23.6074 45.221 26.1748 44.949 28.7304 44.6577ZM67.933 44.9046C68.0223 44.8529 68.1083 44.7958 68.2204 44.7262C69.2082 45.4294 70.2378 46.7376 70.6994 47.8774C69.6529 48.62 69.261 49.6245 69.6219 50.9094C69.371 51.0621 69.1373 51.2153 68.8937 51.3508C66.9563 52.4286 64.8758 53.0783 62.692 53.4203C60.274 53.7991 57.8519 53.77 55.4274 53.4962C55.311 53.483 55.1964 53.4536 55.0484 53.4257C55.0045 53.2607 54.9598 53.0936 54.9053 52.8896C55.0416 52.7833 55.1763 52.673 55.3163 52.57C57.4774 50.9827 59.6512 49.4121 61.7958 47.8029C62.9209 46.9588 63.9995 46.0522 65.0891 45.1616C65.2942 44.9939 65.4513 44.9487 65.7147 45.059C66.0369 45.1941 66.3581 45.2607 66.6759 45.2607C67.1028 45.2607 67.5237 45.1406 67.933 44.9046ZM68.6987 53.0736C69.3112 52.7782 69.8985 52.4306 70.537 52.0859C70.6815 52.1693 70.8209 52.2498 70.9981 52.3522C70.9463 52.5229 70.9017 52.6906 70.8448 52.854C70.3178 54.3649 69.4321 55.6505 68.3478 56.8089C66.8137 58.4481 65.0096 59.738 63.0671 60.8407C59.292 62.9839 55.2464 64.3626 50.9665 65.0564C49.7941 65.2465 48.6092 65.3337 47.4221 65.2415C46.9383 65.2039 46.4593 65.0897 45.9816 64.9935C45.8249 64.9619 45.6736 64.8877 45.529 64.8149C44.8797 64.4877 44.6316 64.0301 44.8211 63.3228C44.9497 62.8429 45.1526 62.3712 45.3943 61.9357C45.9298 60.9711 46.6561 60.1443 47.4066 59.3427C48.5325 58.1399 49.752 57.0358 51.0061 55.9692C51.0618 55.9218 51.1249 55.8831 51.1803 55.8436C52.6227 56.6384 54.0425 56.1686 54.8117 54.8787C55.4628 54.9393 56.1223 55.0161 56.784 55.0594C57.5126 55.1071 58.2372 55.1328 58.9579 55.1327C62.3192 55.1327 65.5889 54.5734 68.6987 53.0736Z" fill="url(#paint0_linear_2601_701)"/>
</g>
<path fill-rule="evenodd" clip-rule="evenodd" d="M270.531 37.8982V26.8394H268.208V40.0051H277.484V37.8982H270.531ZM255.335 34.7763L257.603 29.5101L259.889 34.7763H255.335ZM256.561 26.7448L250.742 40.005H253.123L254.483 36.826H260.738L262.079 40.005H264.535L258.715 26.7448H256.561ZM242.745 38.1054C240.213 38.1054 238.38 35.9989 238.38 33.4034C238.38 30.808 240.213 28.7385 242.745 28.7385C244.257 28.7385 245.39 29.3973 246.448 30.375L247.941 28.6637C246.675 27.4597 245.201 26.614 242.764 26.614C238.758 26.614 235.943 29.6793 235.943 33.4408C235.943 37.2398 238.815 40.2304 242.669 40.2304C245.145 40.2304 246.656 39.3275 248.035 37.8982L246.543 36.393C245.409 37.447 244.37 38.1054 242.745 38.1054ZM229.267 40.0051H231.591V26.8393H229.267V40.0051ZM217.887 37.8982H215.28V28.9461H217.887C220.665 28.9461 222.479 30.8454 222.479 33.4408C222.479 36.0363 220.665 37.8982 217.887 37.8982ZM217.887 26.8394H212.956V40.0051H217.887C222.044 40.0051 224.916 37.1272 224.916 33.4035C224.916 29.6794 222.044 26.8394 217.887 26.8394ZM201.216 34.3999H207.848V32.3309H201.216V28.9083H208.698V26.8394H198.892V40.0051H208.793V37.9356H201.216V34.3999ZM187.586 33.0645L183.562 26.8394H181.087V40.0051H183.373V30.6004L187.511 36.7694H187.586L191.762 30.563V40.0051H194.086V26.8394H191.611L187.586 33.0645Z" fill="white"/>
<path fill-rule="evenodd" clip-rule="evenodd" d="M94.2238 32.388C91.692 31.7863 91.0875 31.3346 91.0875 30.3003C91.0875 29.4167 91.8809 28.721 93.2412 28.721C94.4501 28.721 95.6409 29.1908 96.8307 30.0745L98.0783 28.3253C96.7367 27.2537 95.2065 26.6706 93.2792 26.6706C90.653 26.6706 88.7633 28.2132 88.7633 30.5071C88.7633 32.9524 90.3505 33.78 93.166 34.457C95.6216 35.0215 96.151 35.5292 96.151 36.4881C96.151 37.5042 95.244 38.162 93.8076 38.162C92.1641 38.162 90.8987 37.5416 89.6328 36.4507L88.2344 38.1054C89.8211 39.5161 91.7296 40.2118 93.7518 40.2118C96.5287 40.2118 98.4753 38.7451 98.4753 36.2623C98.4753 34.0625 97.0199 33.065 94.2238 32.388ZM162.2 37.9549V34.4192H168.831V32.3502H162.2V28.9277H169.682V26.8587H159.876V40.0245H169.776V37.9549H162.2ZM149.1 26.8587H146.777V40.0245H156.053V37.9175H149.1V26.8587ZM132.181 29.0024H136.376V40.0245H138.718V29.0024H142.913V26.8587H132.181V29.0024ZM124.466 37.9736H120.612V34.3626H124.296C126.128 34.3626 127.017 35.0215 127.017 36.1497C127.017 37.3537 126.053 37.9736 124.466 37.9736ZM120.612 28.9084H123.956C125.448 28.9084 126.28 29.5294 126.28 30.6015C126.28 31.8242 125.278 32.4072 123.786 32.4072H120.612V28.9084ZM126.715 33.1779C127.698 32.67 128.605 31.8429 128.605 30.2251C128.605 28.1562 126.924 26.8587 124.259 26.8587H118.326V40.0245H124.448C127.396 40.0245 129.342 38.7638 129.342 36.3942C129.342 34.589 128.265 33.7048 126.715 33.1779ZM111.404 34.4384C111.404 36.8646 110.138 38.1055 108.079 38.1055C106.001 38.1055 104.735 36.7887 104.735 34.3439V26.8587H102.411V34.4384C102.411 38.256 104.603 40.2305 108.041 40.2305C111.499 40.2305 113.728 38.256 113.728 34.3257V26.8587H111.404V34.4384Z" fill="white"/>
<defs>
<linearGradient id="paint0_linear_2601_701" x1="-20.7539" y1="28.5662" x2="29.4451" y2="95.4031" gradientUnits="userSpaceOnUse">
<stop stop-color="#235E7E"/>
<stop offset="1" stop-color="#05AF7E"/>
</linearGradient>
</defs>
</svg>
