<svg xmlns="http://www.w3.org/2000/svg" width="25" height="25" fill="none"><path fill="#253241" d="M22.996 15.142c-.521-1.216-1.268-2.336-1.743-3.566a8.51 8.51 0 0 1 .79-7.662.7.7 0 0 0 .137-.415.72.72 0 0 0-.214-.51.72.72 0 0 0-.513-.214.7.7 0 0 0-.415.137 8.5 8.5 0 0 1-4.617 1.353 8.6 8.6 0 0 1-3.063-.567c-1.234-.474-2.355-1.219-3.574-1.738A25 25 0 0 0 1.17 0 1.12 1.12 0 0 0 0 1.113v22.636c0 .317.135.596.347.808.212.211.49.346.81.346h22.688a1.12 1.12 0 0 0 1.115-1.17 24.8 24.8 0 0 0-1.964-8.591M1.746 5.018a2.64 2.64 0 0 1 2.535-2.51C7.166 2.394 11.153 4.393 11.768 9a4.89 4.89 0 0 1-1.413 4.066l-8.61 8.583zM22.449 20.63a2.64 2.64 0 0 1-2.516 2.53H3.262l8.603-8.59c1.112-1.11 2.595-1.576 4.075-1.408 4.618.614 6.62 4.59 6.508 7.468"/></svg>