<svg id="Grupo_1" data-name="Grupo 1" xmlns="http://www.w3.org/2000/svg" xmlns:xlink="http://www.w3.org/1999/xlink" width="175" height="24.853" viewBox="0 0 175 24.853">
  <defs>
    <clipPath id="clip-path">
      <rect id="Retângulo_64" data-name="Retângulo 64" width="175" height="24.853" fill="#41464f"/>
    </clipPath>
  </defs>
  <g id="Grupo_4" data-name="Grupo 4" clip-path="url(#clip-path)">
    <g id="Grupo_3" data-name="Grupo 3" transform="translate(-0.007 -0.012)">
      <path id="Caminho_15" data-name="Caminho 15" d="M99.349-111.65V-135.4a.554.554,0,0,1,.037-.217.538.538,0,0,1,.122-.186.536.536,0,0,1,.185-.122.55.55,0,0,1,.217-.037h3.417a.55.55,0,0,1,.217.037.536.536,0,0,1,.185.122.579.579,0,0,1,.122.186.554.554,0,0,1,.037.217v23.749a.554.554,0,0,1-.037.217.538.538,0,0,1-.122.186.536.536,0,0,1-.185.122.55.55,0,0,1-.217.037h-3.4a.534.534,0,0,1-.222-.034.554.554,0,0,1-.188-.119.569.569,0,0,1-.124-.188A.524.524,0,0,1,99.349-111.65Zm16.939,0v-18.382a1.3,1.3,0,0,0-.069-.559,1.273,1.273,0,0,0-.3-.477,1.28,1.28,0,0,0-.473-.3,1.281,1.281,0,0,0-.558-.069h-9.52c-.748,0-1.028-.7-.468-1.251l2.894-2.907a1.209,1.209,0,0,1,.426-.292,1.226,1.226,0,0,1,.507-.085h4.979a1.226,1.226,0,0,1,.507.085,1.175,1.175,0,0,1,.426.292l5.786,5.812a1.172,1.172,0,0,1,.288.427,1.243,1.243,0,0,1,.085.509v17.195a.554.554,0,0,1-.037.217.538.538,0,0,1-.122.186.536.536,0,0,1-.185.122.549.549,0,0,1-.217.037h-3.409a.52.52,0,0,1-.211-.042.528.528,0,0,1-.18-.122.553.553,0,0,1-.116-.183A.552.552,0,0,1,116.288-111.65Z" transform="translate(-73.084 135.993)" fill="#41464f"/>
      <path id="Caminho_16" data-name="Caminho 16" d="M206.282-111.459l-5.936-5.95a1.176,1.176,0,0,1-.315-.421,1.2,1.2,0,0,1-.1-.517v-10.524a1.161,1.161,0,0,1,.077-.511,1.129,1.129,0,0,1,.3-.424l5.78-5.812a1.21,1.21,0,0,1,.426-.292,1.185,1.185,0,0,1,.507-.085H214.2a.853.853,0,0,1,.381.061.855.855,0,0,1,.317.22l5.738,5.669a.938.938,0,0,1,.211.323.994.994,0,0,1,.069.382v1.638a.554.554,0,0,1-.037.217.538.538,0,0,1-.122.186.536.536,0,0,1-.185.122.549.549,0,0,1-.217.037l-3.4.045a.548.548,0,0,1-.217-.034.529.529,0,0,1-.185-.119.528.528,0,0,1-.122-.183.554.554,0,0,1-.037-.217v-3.281a.554.554,0,0,0-.037-.217.539.539,0,0,0-.122-.186.536.536,0,0,0-.185-.122.55.55,0,0,0-.217-.037l-9.956.045a1.289,1.289,0,0,0-.558.066,1.268,1.268,0,0,0-.476.3,1.273,1.273,0,0,0-.3.477,1.26,1.26,0,0,0-.066.559v10.431l3.869,3.989h7.511a.55.55,0,0,0,.217-.037.537.537,0,0,0,.185-.122.578.578,0,0,0,.122-.186.51.51,0,0,0,.037-.217v-3.382a.571.571,0,0,1,.034-.22.538.538,0,0,1,.122-.186.537.537,0,0,1,.185-.122.509.509,0,0,1,.219-.034h3.4a.568.568,0,0,1,.219.034.536.536,0,0,1,.185.122.538.538,0,0,1,.122.186.52.52,0,0,1,.034.22v1.731a.948.948,0,0,1-.069.382.978.978,0,0,1-.211.323l-5.738,5.762a.826.826,0,0,1-.317.22.891.891,0,0,1-.381.061h-7.038a1.213,1.213,0,0,1-.494-.09A1.178,1.178,0,0,1,206.282-111.459Z" transform="translate(-147.08 136.009)" fill="#41464f"/>
      <path id="Caminho_17" data-name="Caminho 17" d="M303.487-111.45l-5.788-5.812a1.173,1.173,0,0,1-.288-.427,1.243,1.243,0,0,1-.085-.509V-128.86a1.194,1.194,0,0,1,.085-.509,1.207,1.207,0,0,1,.288-.427l5.788-5.812a1.209,1.209,0,0,1,.426-.292,1.226,1.226,0,0,1,.507-.085H312.4a1.226,1.226,0,0,1,.507.085,1.176,1.176,0,0,1,.426.292l5.78,5.812a1.161,1.161,0,0,1,.3.424,1.129,1.129,0,0,1,.077.511v10.524a1.16,1.16,0,0,1-.1.517,1.177,1.177,0,0,1-.315.421l-5.923,5.95a1.209,1.209,0,0,1-.426.292,1.234,1.234,0,0,1-.507.085h-7.792a1.233,1.233,0,0,1-.507-.085A1.307,1.307,0,0,1,303.487-111.45Zm7.6-4.169,3.869-3.989v-10.431a1.3,1.3,0,0,0-.066-.559,1.273,1.273,0,0,0-.3-.477,1.268,1.268,0,0,0-.476-.3,1.25,1.25,0,0,0-.558-.066h-10.31a1.264,1.264,0,0,0-.563.056,1.244,1.244,0,0,0-.481.3,1.287,1.287,0,0,0-.3.482,1.244,1.244,0,0,0-.053.565v13.013a1.237,1.237,0,0,0,.053.564,1.236,1.236,0,0,0,.3.482,1.268,1.268,0,0,0,.481.3,1.2,1.2,0,0,0,.563.056h7.842Z" transform="translate(-218.735 136.001)" fill="#41464f"/>
      <path id="Caminho_18" data-name="Caminho 18" d="M404.44-111.42l-5.78-5.812a1.165,1.165,0,0,1-.322-.419,1.127,1.127,0,0,1-.1-.519v-17.205a.582.582,0,0,1,.167-.395.581.581,0,0,1,.394-.17h3.446a.559.559,0,0,1,.391.17.582.582,0,0,1,.167.395l-.05,18.4a1.3,1.3,0,0,0,.069.559,1.273,1.273,0,0,0,.3.477,1.281,1.281,0,0,0,.473.3,1.281,1.281,0,0,0,.558.069h5.556l4.8-4.919v-14.886a.554.554,0,0,1,.037-.217.538.538,0,0,1,.122-.186.536.536,0,0,1,.185-.122.549.549,0,0,1,.217-.037h3.409a.55.55,0,0,1,.217.037.535.535,0,0,1,.185.122.579.579,0,0,1,.122.186.51.51,0,0,1,.037.217v16.15a1.2,1.2,0,0,1-.106.517,1.239,1.239,0,0,1-.317.421l-6.845,6.875a1.21,1.21,0,0,1-.426.292,1.227,1.227,0,0,1-.507.085h-5.49a1.106,1.106,0,0,1-.5-.085A1.223,1.223,0,0,1,404.44-111.42Z" transform="translate(-292.975 135.968)" fill="#41464f"/>
      <path id="Caminho_19" data-name="Caminho 19" d="M592.989-111.7V-135.45a.552.552,0,0,1,.037-.217.536.536,0,0,1,.122-.186.536.536,0,0,1,.185-.122.55.55,0,0,1,.217-.037h3.4a.55.55,0,0,1,.217.037.537.537,0,0,1,.185.122.577.577,0,0,1,.122.186.554.554,0,0,1,.037.217V-111.7a.554.554,0,0,1-.037.217.537.537,0,0,1-.122.186.537.537,0,0,1-.185.122.551.551,0,0,1-.217.037h-3.4a.55.55,0,0,1-.217-.037.536.536,0,0,1-.185-.122.536.536,0,0,1-.122-.186A.552.552,0,0,1,592.989-111.7Zm13.691-12.732V-130.1a1.3,1.3,0,0,0-.069-.559,1.273,1.273,0,0,0-.3-.477,1.279,1.279,0,0,0-.473-.3,1.28,1.28,0,0,0-.558-.069h-6.24c-.748,0-1.025-.7-.468-1.251l2.894-2.907a1.2,1.2,0,0,1,.423-.292,1.221,1.221,0,0,1,.5-.085h1.773a1.226,1.226,0,0,1,.507.085,1.177,1.177,0,0,1,.426.292l5.788,5.812a1.172,1.172,0,0,1,.288.427,1.244,1.244,0,0,1,.085.509v4.495a.555.555,0,0,1-.037.217.539.539,0,0,1-.122.186.537.537,0,0,1-.185.122.55.55,0,0,1-.217.037h-3.4a.552.552,0,0,1-.227-.024.507.507,0,0,1-.2-.117.545.545,0,0,1-.13-.188.548.548,0,0,1-.04-.225Z" transform="translate(-436.255 136.045)" fill="#41464f"/>
      <path id="Caminho_20" data-name="Caminho 20" d="M496.892-124.826h-3.359a.59.59,0,0,1-.412-.17.6.6,0,0,1-.174-.411v-3.557a1.137,1.137,0,0,1,.085-.488,1.086,1.086,0,0,1,.288-.4l5.788-5.812a1.209,1.209,0,0,1,.426-.292,1.233,1.233,0,0,1,.507-.085h7.792a1.117,1.117,0,0,1,.51.079,1.156,1.156,0,0,1,.423.3l5.78,5.812a1.164,1.164,0,0,1,.322.419,1.126,1.126,0,0,1,.1.519v1.219a.563.563,0,0,1-.164.4.56.56,0,0,1-.4.164H511a.54.54,0,0,1-.214-.042.566.566,0,0,1-.182-.122.568.568,0,0,1-.122-.183.547.547,0,0,1-.042-.215v-2.393a1.408,1.408,0,0,0-.41-.994,1.389,1.389,0,0,0-.991-.411H498.875a1.4,1.4,0,0,0-.989.411,1.413,1.413,0,0,0-.41.994v4.68a.588.588,0,0,1-.174.411A.575.575,0,0,1,496.892-124.826Z" transform="translate(-362.653 136.043)" fill="#41464f"/>
      <path id="Caminho_21" data-name="Caminho 21" d="M506.925-93.939h-5.556l-3.883,3.906v.562a1.431,1.431,0,0,0,.1.538,1.385,1.385,0,0,0,.3.456,1.418,1.418,0,0,0,.452.3,1.37,1.37,0,0,0,.534.106h10.31a1.41,1.41,0,0,0,.991-.411,1.413,1.413,0,0,0,.41-.994v-2.361a.594.594,0,0,1,.169-.413.585.585,0,0,1,.41-.175h3.367a.572.572,0,0,1,.222.045.573.573,0,0,1,.188.127.608.608,0,0,1,.124.191.6.6,0,0,1,.042.225v1.187a1.194,1.194,0,0,1-.1.517,1.122,1.122,0,0,1-.317.419L508.9-83.9a1.128,1.128,0,0,1-.423.3,1.082,1.082,0,0,1-.51.077H500.05a1.227,1.227,0,0,1-.508-.085,1.176,1.176,0,0,1-.425-.292l-5.788-5.812a1.086,1.086,0,0,1-.288-.4,1.137,1.137,0,0,1-.085-.488v-.143a1.158,1.158,0,0,1,.1-.517,1.155,1.155,0,0,1,.323-.416l6.4-6.437a1.157,1.157,0,0,1,.423-.3,1.118,1.118,0,0,1,.51-.079h6.222a.622.622,0,0,1,.439.183.627.627,0,0,1,.182.443v3.294a.631.631,0,0,1-.048.241.632.632,0,0,1-.137.2.632.632,0,0,1-.206.135A.556.556,0,0,1,506.925-93.939Z" transform="translate(-362.66 108.445)" fill="#41464f"/>
      <path id="Caminho_22" data-name="Caminho 22" d="M6.143-111.406l-5.793-5.83a1.172,1.172,0,0,1-.288-.427,1.243,1.243,0,0,1-.085-.509v-17.187a.554.554,0,0,1,.037-.217.538.538,0,0,1,.122-.186.536.536,0,0,1,.185-.122.549.549,0,0,1,.217-.037h3.4a.549.549,0,0,1,.217.037.536.536,0,0,1,.185.122.579.579,0,0,1,.122.186.51.51,0,0,1,.037.217v18.4a1.3,1.3,0,0,0,.069.559,1.273,1.273,0,0,0,.3.477,1.28,1.28,0,0,0,.473.3,1.281,1.281,0,0,0,.558.069h9.01c.748,0,1.025.7.468,1.251l-2.9,2.9a1.209,1.209,0,0,1-.426.292,1.226,1.226,0,0,1-.507.085H7.076a1.187,1.187,0,0,1-.507-.087A1.223,1.223,0,0,1,6.143-111.406Zm10.305-.186v-23.767a.554.554,0,0,1,.037-.217.538.538,0,0,1,.122-.186.536.536,0,0,1,.185-.122.549.549,0,0,1,.217-.037h3.409a.549.549,0,0,1,.217.037.536.536,0,0,1,.185.122.579.579,0,0,1,.122.186.554.554,0,0,1,.037.217v23.749a.554.554,0,0,1-.037.217.538.538,0,0,1-.122.186.536.536,0,0,1-.185.122.549.549,0,0,1-.217.037H17.008a.549.549,0,0,1-.217-.037.536.536,0,0,1-.185-.122.578.578,0,0,1-.122-.186.554.554,0,0,1-.037-.217Z" transform="translate(0.025 135.954)" fill="#41464f"/>
    </g>
  </g>
</svg>
