<svg width="76" height="12" viewBox="0 0 76 12" fill="none" xmlns="http://www.w3.org/2000/svg">
<path d="M9.34379 0C9.40971 0 9.44907 0.0742086 9.41266 0.129618L7.00298 3.74307C6.97051 3.79255 6.8977 3.79255 6.86621 3.74307L4.45652 0.129618C4.42012 0.0742086 4.45948 0 4.5254 0H9.34477H9.34379Z" fill="#EBE6E1"/>
<path d="M11.0312 8.26893C11.0135 8.28674 10.9889 8.29663 10.9643 8.29663H2.90478C2.87919 8.29663 2.85558 8.28674 2.83787 8.26893L0.0277178 5.43911C-0.031319 5.37974 0.0100068 5.27783 0.0946262 5.27783H13.7744C13.8581 5.27783 13.9004 5.37974 13.8413 5.43911L11.0312 8.26893Z" fill="#EBE6E1"/>
<path d="M11.0312 11.9723C11.0135 11.9901 10.9889 12 10.9643 12H2.90478C2.87919 12 2.85558 11.9901 2.83787 11.9723L0.0277178 9.14346C-0.031319 9.08409 0.0100068 8.98218 0.0946262 8.98218H13.7744C13.8581 8.98218 13.9004 9.08409 13.8413 9.14346L11.0312 11.9723Z" fill="#EBE6E1"/>
<path d="M31.903 6.79693C31.8686 6.79693 31.84 6.82661 31.84 6.86124C31.8489 7.33416 31.9561 7.77047 32.1617 8.17017C32.3928 8.57185 32.6909 8.91714 33.0548 9.20604C33.4187 9.49493 33.8397 9.7205 34.3197 9.88078C34.7987 10.042 35.2955 10.1222 35.8079 10.1222C36.5023 10.1222 37.1053 9.96883 37.6177 9.66411C38.1233 9.34751 38.5886 8.93693 39.0135 8.43235C39.0253 8.4185 39.041 8.41059 39.0587 8.41059H41.1705C41.2138 8.41059 41.2443 8.45709 41.2276 8.49765C40.0738 11.3243 37.7191 12 35.5099 12C34.5843 12 33.7414 11.8466 32.981 11.5419C32.2374 11.2372 31.601 10.8187 31.0718 10.2894C30.5594 9.74326 30.163 9.10809 29.8817 8.38585C29.6004 7.6468 29.4597 6.85234 29.4597 6.00049C29.4597 5.14865 29.6082 4.36211 29.9063 3.63888C30.22 2.89983 30.642 2.26465 31.1712 1.73534C31.7171 1.18922 32.3614 0.763789 33.105 0.458075C33.8486 0.153351 34.6591 0 35.5355 0C36.5771 0 37.4535 0.177096 38.1636 0.530299C38.8905 0.883502 39.4866 1.34949 39.9489 1.92827C40.4122 2.49023 40.7427 3.13332 40.9404 3.85654C41.1558 4.56394 41.263 5.28617 41.263 6.02523V6.7346C41.263 6.76824 41.2355 6.79594 41.202 6.79594H31.903V6.79693ZM38.8168 5.06159C38.8522 5.06159 38.8807 5.03092 38.8787 4.9953C38.8571 4.5392 38.7755 4.11872 38.6338 3.73683C38.502 3.33515 38.2945 2.98986 38.0141 2.70096C37.7328 2.39624 37.3777 2.16275 36.9479 2.00247C36.5348 1.82538 36.0469 1.73732 35.4853 1.73732C34.9236 1.73732 34.4358 1.84121 33.9725 2.04996C33.5259 2.24289 33.1463 2.50012 32.8315 2.82068C32.5177 3.14123 32.2699 3.50334 32.0879 3.90502C31.9315 4.26911 31.8499 4.63319 31.841 4.99728C31.841 5.03191 31.8696 5.06159 31.904 5.06159H38.8177H38.8168Z" fill="#EBE6E1"/>
<path d="M44.2199 0.296785H46.3281C46.3616 0.296785 46.3891 0.325474 46.3891 0.360099V2.09926H46.4382C46.5866 1.78664 46.7852 1.50668 47.0329 1.25936C47.2805 0.996208 47.5528 0.773619 47.8506 0.592581C48.1641 0.411542 48.5032 0.272053 48.8669 0.173124C49.2306 0.0583677 49.5932 0 49.9569 0C50.3206 0 50.6164 0.044518 50.9024 0.133553C50.9299 0.141468 50.9476 0.169168 50.9457 0.198846L50.8523 2.46529C50.8503 2.50585 50.814 2.53355 50.7756 2.52465C50.6243 2.48508 50.4719 2.45144 50.3206 2.42374C50.1279 2.38813 49.9333 2.37131 49.7377 2.3723C48.6575 2.37626 47.8309 2.68096 47.256 3.28541C46.678 3.89382 46.3891 4.84056 46.3891 6.12465V11.9367C46.3891 11.9713 46.3616 12 46.3281 12H44.2199C44.1865 12 44.1589 11.9713 44.1589 11.9367V0.361088C44.1589 0.326463 44.1865 0.297774 44.2199 0.297774V0.296785Z" fill="#EBE6E1"/>
<path d="M66.2192 6.79693C66.1847 6.79693 66.1562 6.82661 66.1562 6.86124C66.1651 7.33416 66.2723 7.77047 66.4778 8.17017C66.709 8.57185 67.007 8.91714 67.371 9.20604C67.7349 9.49493 68.1559 9.7205 68.6359 9.88078C69.1149 10.042 69.6116 10.1222 70.1241 10.1222C70.8185 10.1222 71.4215 9.96883 71.9339 9.66411C72.4395 9.34751 72.9047 8.93693 73.3296 8.43235C73.3415 8.4185 73.3572 8.41059 73.3749 8.41059H75.4867C75.53 8.41059 75.5605 8.45709 75.5437 8.49765C74.39 11.3243 72.0352 12 69.826 12C68.9005 12 68.0575 11.8466 67.2972 11.5419C66.5536 11.2372 65.9172 10.8187 65.388 10.2894C64.8755 9.74326 64.4792 9.10809 64.1978 8.38585C63.9165 7.6468 63.7759 6.85234 63.7759 6.00049C63.7759 5.14865 63.9244 4.36211 64.2224 3.63888C64.5362 2.89983 64.9582 2.26465 65.4874 1.73534C66.0333 1.18922 66.6775 0.763789 67.4211 0.458075C68.1647 0.153351 68.9752 0 69.8516 0C70.8933 0 71.7696 0.177096 72.4798 0.530299C73.2067 0.883502 73.8028 1.34949 74.2651 1.92827C74.7283 2.49023 75.0588 3.13332 75.2565 3.85654C75.4719 4.56394 75.5792 5.28617 75.5792 6.02523V6.7346C75.5792 6.76824 75.5516 6.79594 75.5182 6.79594H66.2192V6.79693ZM73.1329 5.06159C73.1683 5.06159 73.1969 5.03092 73.1949 4.9953C73.1733 4.5392 73.0916 4.11872 72.95 3.73683C72.8182 3.33515 72.6106 2.98986 72.3303 2.70096C72.049 2.39624 71.6939 2.16275 71.2641 2.00247C70.851 1.82538 70.3631 1.73732 69.8015 1.73732C69.2398 1.73732 68.7519 1.84121 68.2887 2.04996C67.8421 2.24289 67.4624 2.50012 67.1477 2.82068C66.8339 3.14123 66.586 3.50334 66.4041 3.90502C66.2477 4.26911 66.166 4.63319 66.1572 4.99728C66.1572 5.03191 66.1857 5.06159 66.2201 5.06159H73.1339H73.1329Z" fill="#EBE6E1"/>
<path d="M57.1682 11.999C55.8714 11.999 54.7737 11.6863 53.876 11.061C53.002 10.4525 52.4423 9.66491 52.1979 8.69921C52.1881 8.65963 52.2186 8.62104 52.259 8.62104H54.5697C54.5954 8.62104 54.617 8.63786 54.6249 8.66161C54.9452 9.57981 55.7926 10.0389 57.1682 10.0389C58.0511 10.0389 58.7143 9.90435 59.1597 9.63423C59.6051 9.36411 59.8268 9.02671 59.8268 8.62203C59.8268 8.21735 59.6494 7.91853 59.2947 7.68404C58.9399 7.44954 58.4955 7.28628 57.9595 7.19426C57.4313 7.10224 56.8588 6.97757 56.24 6.82124C55.6212 6.65798 55.0447 6.47295 54.5086 6.26715C53.9736 6.06135 53.5282 5.71306 53.1734 5.22229C52.8187 4.7246 52.6413 4.11412 52.6413 3.38885C52.6413 2.43008 53.0375 1.62665 53.8287 0.980541C54.6279 0.326517 55.699 0 57.0421 0C58.2945 0 59.3617 0.290897 60.2436 0.873681C61.1009 1.43964 61.6488 2.17777 61.8873 3.08608C61.8971 3.12566 61.8666 3.16524 61.8262 3.16524H59.5085C59.4868 3.16524 59.4681 3.15336 59.4573 3.13456C59.0237 2.35191 58.2177 1.96108 57.0421 1.96108C55.5709 1.96108 54.8397 2.437 54.8476 3.38885C54.8476 3.77968 55.025 4.09532 55.3797 4.33773C55.7345 4.57223 56.1749 4.73945 56.7031 4.83839C57.2382 4.93041 57.8156 5.062 58.4344 5.23318C59.0533 5.39644 59.6258 5.58146 60.154 5.78727C60.689 5.98615 61.1344 6.33047 61.4892 6.82124C61.8508 7.31101 62.0321 7.91161 62.0321 8.62203C62.0321 9.5808 61.5985 10.3842 60.7314 11.0303C59.8711 11.6764 58.6838 12 57.1672 12H57.1682V11.999Z" fill="#EBE6E1"/>
<path d="M16.5854 0H19.0316C19.0572 0 19.0809 0.0160495 19.0907 0.0411268L22.54 9.03586C22.5607 9.09003 22.6355 9.08902 22.6552 9.03586L25.9588 0.0421297C25.9676 0.0170524 25.9913 0.00100292 26.0169 0.00100292H28.2662C28.3095 0.00100292 28.34 0.0461422 28.3233 0.087269L23.7557 11.9599C23.7469 11.984 23.7232 12 23.6986 12H21.3253C21.2997 12 21.277 11.985 21.2682 11.9609L16.5293 0.0882723C16.5126 0.0471455 16.5431 0.00100292 16.5864 0.00100292H16.5854V0Z" fill="#EBE6E1"/>
</svg>
