<?xml version="1.0" encoding="UTF-8"?>
<svg id="Layer_1" xmlns="http://www.w3.org/2000/svg" version="1.1" viewBox="0 0 32 32.1">
  <defs>
    <style>
      .st0 {
        fill: #44403b;
      }
    </style>
  </defs>
  <path class="st0" d="M4.3,2.5c0,.1,0,.2,0,.3,0,.1,0,.2.2.3,0,0,.2.1.3.2.1,0,.2,0,.4,0,0,0,0,0,.2,0,0,0,.1,0,.2,0,0,0,.2,0,.3,0,.1,0,.2,0,.4,0,0,0,.1,0,.2,0,0,0,.1,0,.2,0,0,0,.2,0,.2,0,0,0,.2,0,.2,0,0,0,.2,0,.2,0,0,0,.2,0,.2,0,0,0,.2,0,.2,0,0,0,.2,0,.2,0,0,0,.2,0,.2,0,0,0,.2,0,.2,0,0,0,.2,0,.2,0,0,0,.2,0,.2,0,.1,0,.3,0,.4,0,.1,0,.2,0,.3,0,.1,0,.2,0,.3,0,.2,0,.2,0,.2,0,.2,0,.3,0,.4,0,.1,0,.2.1.3.2,0,0,.2.2.2.3,0,.1,0,.2,0,.4,0,0,0,0,0,.2,0,0,0,.1,0,.2,0,0,0,.2,0,.3,0,.1,0,.2,0,.3,0,.1,0,.2,0,.4,0,.1,0,.3,0,.4,0,0,0,.1,0,.2,0,0,0,.1,0,.2,0,0,0,.1,0,.2,0,0,0,.1,0,.2,0,.1,0,.3,0,.4,0,.1,0,.3,0,.4,0,.1,0,.3,0,.4,0,.1,0,.2,0,.3,0,0,0,.2,0,.2,0,.1,0,.2,0,.2,0,.2,0,.3,0,.4,0,.1.1.3.2.4.1.1.2.2.4.2.1,0,.3,0,.5,0,0,0,.1,0,.3,0,0,0,.2,0,.4,0,.1,0,.3,0,.5,0,0,0,.2,0,.3,0,0,0,.2,0,.3,0,0,0,.2,0,.3,0,.1,0,.2,0,.3,0,.1,0,.2,0,.3,0,.1,0,.2,0,.3,0,.1,0,.2,0,.3,0,.1,0,.2,0,.3,0,.1,0,.2,0,.3,0,.1,0,.2,0,.3,0,.1,0,.2,0,.3,0,.1,0,.2,0,.3,0,.1,0,.2,0,.3,0,.1,0,.2,0,.3,0,0,0,.2,0,.3,0,0,0,.2,0,.3,0,.2,0,.3,0,.5,0,.1,0,.3,0,.4,0,.2,0,.3,0,.3,0,.2,0,.3,0,.5,0,.1,0,.3-.1.4-.2.1-.1.2-.2.2-.4,0-.1,0-.3,0-.4,0,0,0,0,0-.2,0,0,0-.1,0-.2,0,0,0-.2,0-.3,0-.1,0-.2,0-.4,0-.1,0-.3,0-.4,0-.1,0-.3,0-.4,0,0,0-.1,0-.2,0,0,0-.1,0-.2,0,0,0-.1,0-.2,0,0,0-.1,0-.2,0-.1,0-.3,0-.4,0-.1,0-.3,0-.4,0-.1,0-.2,0-.3,0-.1,0-.2,0-.3,0,0,0-.2,0-.2,0-.1,0-.2,0-.2,0-.1,0-.3,0-.4,0-.1.1-.2.2-.3,0,0,.2-.1.3-.2.1,0,.3,0,.4,0,0,0,0,0,.2,0,0,0,.2,0,.3,0,.1,0,.2,0,.4,0,.1,0,.3,0,.4,0,0,0,.1,0,.2,0,0,0,.2,0,.2,0,0,0,.2,0,.2,0,0,0,.2,0,.2,0,0,0,.2,0,.2,0,0,0,.2,0,.2,0,0,0,.2,0,.2,0,0,0,.2,0,.2,0,0,0,.2,0,.2,0s.2,0,.2,0c0,0,.2,0,.2,0,0,0,.1,0,.2,0,.1,0,.3,0,.4,0,.1,0,.2,0,.3,0,0,0,.2,0,.2,0,.1,0,.2,0,.2,0,.1,0,.3,0,.4,0,.1,0,.2,0,.3-.2,0,0,.1-.2.2-.3,0-.1,0-.2,0-.3,0,0,0-.1,0-.3,0,0,0-.2,0-.3,0-.1,0-.2,0-.3,0-.1,0-.2,0-.3,0,0,0-.2,0-.3,0-.2,0-.3,0-.3,0-.1,0-.2,0-.3,0,0,0-.2.2-.2,0,0,.2-.1.3-.1.1,0,.2,0,.3,0,0,0,0,0,.1,0,0,0,.2,0,.3,0,0,0,.1,0,.2,0,0,0,.1,0,.2,0,0,0,.1,0,.2,0,0,0,.1,0,.2,0,0,0,.1,0,.2,0,0,0,.1,0,.2,0,0,0,.1,0,.2,0,0,0,.1,0,.2,0,.1,0,.2,0,.3,0,0,0,0,0,0,0,.1,0,.2,0,.3.1.1,0,.2.1.3.2,0,0,.2.2.2.3,0,.1.1.2.1.3,0,0,0,0,0,0,0,0,0,.2,0,.3,0,0,0,.1,0,.2,0,0,0,.1,0,.2,0,0,0,.1,0,.2,0,0,0,.1,0,.2,0,0,0,.2,0,.2,0,0,0,.1,0,.2,0,0,0,.1,0,.2,0,0,0,.1,0,.2,0,.1,0,.2,0,.3,0,0,0,.1,0,.1,0,.1,0,.2,0,.3,0,.1,0,.2-.1.3,0,0-.1.1-.2.2,0,0-.2,0-.3,0,0,0-.1,0-.3,0,0,0-.2,0-.3,0,0,0-.2,0-.3,0-.1,0-.2,0-.3,0-.1,0-.2,0-.3,0-.2,0-.3,0-.3,0-.1,0-.2,0-.3,0-.1,0-.2,0-.3.2,0,0-.1.2-.2.3,0,.1,0,.2,0,.4,0,0,0,0,0,.2,0,0,0,.2,0,.3,0,0,0,.2,0,.3,0,.1,0,.3,0,.4,0,0,0,.1,0,.2,0,0,0,.1,0,.2,0,0,0,.2,0,.2,0,0,0,.2,0,.2,0,0,0,.2,0,.2,0,0,0,.2,0,.2,0,0,0,.2,0,.3,0,0,0,.2,0,.2,0,0,0,.2,0,.2,0,0,0,.2,0,.2,0,0,0,.2,0,.2,0,0,0,.2,0,.2,0,.1,0,.3,0,.4,0,.1,0,.2,0,.4,0,.1,0,.2,0,.3,0,.2,0,.2,0,.2,0,.2,0,.3,0,.4,0,.1-.1.2-.2.3,0,0-.2.2-.3.2-.1,0-.2,0-.4,0,0,0,0,0-.2,0,0,0-.1,0-.2,0,0,0-.2,0-.3,0-.1,0-.2,0-.3,0-.1,0-.2,0-.4,0-.1,0-.3,0-.4,0,0,0-.1,0-.2,0,0,0-.1,0-.2,0,0,0-.1,0-.2,0,0,0-.1,0-.2,0-.1,0-.3,0-.4,0-.1,0-.3,0-.4,0-.1,0-.2,0-.4,0-.1,0-.2,0-.3,0,0,0-.2,0-.2,0-.1,0-.2,0-.2,0-.2,0-.3,0-.4,0-.1,0-.3.1-.4.2-.1.1-.2.2-.2.4,0,.1,0,.3,0,.5,0,0,0,.1,0,.3,0,0,0,.2,0,.4,0,.1,0,.3,0,.5,0,0,0,.2,0,.3,0,0,0,.2,0,.3,0,0,0,.2,0,.3,0,.1,0,.2,0,.3,0,.1,0,.2,0,.3,0,.1,0,.2,0,.3,0,.1,0,.2,0,.3,0,.1,0,.2,0,.3,0,.1,0,.2,0,.3,0,.1,0,.2,0,.3,0,.1,0,.2,0,.3,0,.1,0,.2,0,.3,0,.1,0,.2,0,.3,0,.1,0,.2,0,.3,0,0,0,.2,0,.3,0,0,0,.2,0,.3,0,.2,0,.3,0,.5,0,.1,0,.3,0,.4,0,.2,0,.3,0,.3,0,.2,0,.3,0,.5,0,.1.1.3.2.4,0,.1.2.2.4.2.1,0,.3,0,.4,0,0,0,0,0,.2,0,0,0,.1,0,.2,0,0,0,.2,0,.3,0,.1,0,.2,0,.4,0,.1,0,.3,0,.4,0,.1,0,.3,0,.4,0,0,0,.1,0,.2,0,0,0,.1,0,.2,0,0,0,.1,0,.2,0,0,0,.1,0,.2,0,.1,0,.3,0,.4,0,.1,0,.3,0,.4,0,.1,0,.2,0,.3,0,.1,0,.2,0,.3,0,0,0,.2,0,.2,0,.1,0,.2,0,.2,0,.1,0,.3,0,.4,0,.1,0,.2.1.3.2,0,0,.1.2.2.3,0,.1,0,.3,0,.4,0,0,0,0,0,.2,0,0,0,.2,0,.3,0,.1,0,.2,0,.3,0,.1,0,.3,0,.4,0,0,0,.1,0,.2,0,0,0,.2,0,.2,0,0,0,.2,0,.2,0,0,0,.2,0,.2,0,0,0,.2,0,.2,0,0,0,.2,0,.2,0,0,0,.2,0,.2,0,0,0,.2,0,.2,0,0,0,.2,0,.2,0,0,0,.2,0,.2,0,0,0,.1,0,.2,0,0,0,.1,0,.2,0,.1,0,.3,0,.4,0,.1,0,.2,0,.3,0,0,0,.2,0,.2,0,.1,0,.2,0,.2,0,.1,0,.3,0,.4,0,.1,0,.2.2.3,0,0,.2.1.3.2.1,0,.2,0,.3,0,0,0,.1,0,.3,0,0,0,.2,0,.3,0,0,0,.2,0,.3,0,.1,0,.2,0,.3,0,0,0,.2,0,.3,0,.2,0,.3,0,.3,0,.1,0,.2,0,.3,0,0,0,.2,0,.2.2,0,0,.1.2.1.3,0,.1,0,.2,0,.3,0,0,0,0,0,.1,0,0,0,.2,0,.3,0,0,0,.1,0,.2,0,0,0,.1,0,.2,0,0,0,.1,0,.2,0,0,0,.1,0,.2,0,0,0,.1,0,.2,0,0,0,.1,0,.2,0,0,0,.1,0,.2,0,0,0,.1,0,.2,0,.1,0,.2,0,.3,0,0,0,0,0,0,0,.1,0,.2-.1.3,0,.1-.1.2-.2.3,0,0-.2.2-.3.2-.1,0-.2.1-.3.1,0,0,0,0,0,0,0,0-.2,0-.3,0,0,0-.1,0-.2,0,0,0-.1,0-.2,0,0,0-.1,0-.2,0,0,0-.1,0-.2,0,0,0-.1,0-.2,0,0,0-.1,0-.2,0,0,0-.1,0-.2,0,0,0-.1,0-.2,0-.1,0-.2,0-.3,0,0,0-.1,0-.1,0-.1,0-.2,0-.3,0-.1,0-.2,0-.3-.1,0,0-.1-.1-.2-.2,0,0,0-.2,0-.3,0,0,0-.1,0-.3,0,0,0-.2,0-.3,0,0,0-.2,0-.3,0-.1,0-.2,0-.3,0,0,0-.2,0-.3,0-.2,0-.3,0-.3,0-.1,0-.2,0-.3,0-.1,0-.2-.2-.3,0,0-.2-.1-.3-.2-.1,0-.2,0-.4,0,0,0,0,0-.2,0,0,0-.2,0-.2,0,0,0-.2,0-.3,0-.1,0-.2,0-.4,0,0,0-.1,0-.2,0,0,0-.1,0-.2,0,0,0-.2,0-.2,0,0,0-.2,0-.2,0,0,0-.2,0-.2,0,0,0-.2,0-.2,0,0,0-.2,0-.2,0,0,0-.2,0-.2,0,0,0-.2,0-.2,0,0,0-.2,0-.2,0,0,0-.2,0-.2,0,0,0-.2,0-.2,0-.1,0-.3,0-.4,0-.1,0-.2,0-.3,0-.1,0-.2,0-.3,0-.2,0-.2,0-.2,0-.2,0-.3,0-.4,0-.1,0-.2-.1-.3-.2,0,0-.2-.2-.2-.3,0-.1,0-.2,0-.4,0,0,0,0,0-.2,0,0,0-.1,0-.2,0,0,0-.2,0-.3,0-.1,0-.2,0-.3,0-.1,0-.2,0-.4,0-.1,0-.3,0-.4,0,0,0-.1,0-.2,0,0,0-.1,0-.2,0,0,0-.1,0-.2,0,0,0-.1,0-.2,0-.1,0-.3,0-.4,0-.1,0-.3,0-.4,0-.1,0-.2,0-.4,0-.1,0-.2,0-.3,0,0,0-.2,0-.2,0-.1,0-.2,0-.2,0-.2,0-.3,0-.4,0-.1-.1-.3-.2-.4-.1,0-.2-.2-.4-.2-.1,0-.3,0-.5,0,0,0-.1,0-.3,0,0,0-.2,0-.4,0-.1,0-.3,0-.5,0,0,0-.2,0-.3,0,0,0-.2,0-.3,0,0,0-.2,0-.3,0-.1,0-.2,0-.3,0-.1,0-.2,0-.3,0-.1,0-.2,0-.3,0-.1,0-.2,0-.3,0-.1,0-.2,0-.3,0-.1,0-.2,0-.3,0-.1,0-.2,0-.3,0-.1,0-.2,0-.3,0-.1,0-.2,0-.3,0-.1,0-.2,0-.3,0-.1,0-.2,0-.3,0,0,0-.2,0-.3,0,0,0-.2,0-.3,0-.2,0-.3,0-.5,0-.1,0-.3,0-.3,0-.2,0-.3,0-.3,0-.2,0-.3,0-.5,0-.1,0-.3.1-.4.2-.1,0-.2.2-.2.3,0,.1,0,.3,0,.4,0,0,0,0,0,.2,0,0,0,.1,0,.2,0,0,0,.2,0,.3,0,.1,0,.2,0,.4,0,.1,0,.3,0,.4,0,.1,0,.3,0,.4,0,0,0,.1,0,.2,0,0,0,.1,0,.2,0,0,0,.1,0,.2,0,0,0,.1,0,.2,0,.1,0,.3,0,.4,0,.1,0,.3,0,.4,0,.1,0,.2,0,.3,0,.1,0,.2,0,.3,0,0,0,.2,0,.2,0,.1,0,.2,0,.2,0,.1,0,.3,0,.4,0,.1-.1.2-.2.3,0,0-.2.1-.3.2-.1,0-.3,0-.4,0,0,0,0,0-.2,0,0,0-.2,0-.3,0-.1,0-.2,0-.3,0-.1,0-.3,0-.4,0,0,0-.1,0-.2,0,0,0-.2,0-.2,0,0,0-.2,0-.2,0,0,0-.2,0-.2,0,0,0-.2,0-.2,0,0,0-.2,0-.2,0,0,0-.2,0-.2,0,0,0-.2,0-.2,0,0,0-.2,0-.2,0,0,0-.2,0-.2,0,0,0-.1,0-.2,0,0,0-.1,0-.2,0-.1,0-.3,0-.4,0-.1,0-.2,0-.3,0,0,0-.2,0-.2,0-.1,0-.2,0-.2,0-.1,0-.3,0-.4,0-.1,0-.2,0-.3.2,0,0-.1.2-.2.3,0,.1,0,.2,0,.3,0,0,0,.1,0,.3,0,0,0,.2,0,.3,0,0,0,.2,0,.3,0,.1,0,.2,0,.3,0,0,0,.2,0,.3,0,.2,0,.3,0,.3,0,.1,0,.2,0,.3,0,0,0,.2-.1.2,0,0-.2.1-.3.1,0,0-.2,0-.3,0,0,0,0,0-.1,0,0,0-.2,0-.3,0,0,0-.1,0-.2,0,0,0-.1,0-.2,0,0,0-.1,0-.2,0,0,0-.1,0-.2,0,0,0-.1,0-.2,0,0,0-.1,0-.2,0,0,0-.1,0-.2,0,0,0-.1,0-.2,0-.1,0-.2,0-.3,0,0,0,0,0,0,0-.1,0-.2,0-.3-.1-.1,0-.2-.1-.3-.2,0,0-.2-.2-.2-.3,0-.1-.1-.2-.1-.3,0,0,0,0,0,0,0,0,0-.2,0-.3,0,0,0-.1,0-.2,0,0,0-.1,0-.2,0,0,0-.1,0-.2,0,0,0-.1,0-.2,0,0,0-.1,0-.2,0,0,0-.1,0-.2,0,0,0-.1,0-.2,0,0,0-.1,0-.2,0-.1,0-.2,0-.3,0,0,0-.1,0-.1,0-.1,0-.2,0-.3,0-.1,0-.2.1-.3,0,0,.1-.1.2-.1,0,0,.2,0,.3,0,0,0,.1,0,.3,0,0,0,.2,0,.3,0,0,0,.2,0,.3,0,.1,0,.2,0,.3,0,0,0,.2,0,.3,0,.2,0,.3,0,.3,0,.1,0,.2,0,.3,0,.1,0,.2,0,.3-.2,0,0,.1-.2.2-.3,0-.1,0-.2,0-.4,0,0,0,0,0-.2,0,0,0-.1,0-.2,0,0,0-.2,0-.3,0-.1,0-.2,0-.4,0,0,0-.1,0-.2,0,0,0-.1,0-.2,0,0,0-.2,0-.2,0,0,0-.2,0-.2,0,0,0-.2,0-.2,0,0,0-.2,0-.2,0,0,0-.2,0-.2,0,0,0-.2,0-.2,0,0,0-.2,0-.2,0,0,0-.2,0-.2,0,0,0-.2,0-.2,0,0,0-.2,0-.2,0-.1,0-.3,0-.4,0-.1,0-.2,0-.3,0-.1,0-.2,0-.3,0-.2,0-.2,0-.2,0-.2,0-.3,0-.4,0-.1.1-.2.2-.3,0,0,.2-.2.3-.2.1,0,.2,0,.4,0,0,0,0,0,.2,0,0,0,.1,0,.2,0,0,0,.2,0,.3,0,.1,0,.2,0,.3,0,.1,0,.2,0,.4,0,.1,0,.3,0,.4,0,0,0,.1,0,.2,0,0,0,.1,0,.2,0,0,0,.1,0,.2,0,0,0,.1,0,.2,0,.1,0,.3,0,.4,0,.1,0,.3,0,.4,0,.1,0,.2,0,.4,0,.1,0,.2,0,.3,0,0,0,.2,0,.2,0,.1,0,.2,0,.2,0,.2,0,.3,0,.4,0,.1,0,.3-.1.3-.2,0-.1.2-.2.2-.4,0-.1,0-.3,0-.5,0,0,0-.1,0-.3,0,0,0-.2,0-.4,0-.1,0-.3,0-.5,0,0,0-.2,0-.3,0,0,0-.2,0-.3,0,0,0-.2,0-.3,0-.1,0-.2,0-.3,0-.1,0-.2,0-.3,0-.1,0-.2,0-.3,0-.1,0-.2,0-.3,0-.1,0-.2,0-.3,0-.1,0-.2,0-.3,0-.1,0-.2,0-.3,0-.1,0-.2,0-.3,0-.1,0-.2,0-.3,0-.1,0-.2,0-.3,0-.1,0-.2,0-.3,0,0,0-.2,0-.3,0,0,0-.2,0-.3,0-.2,0-.3,0-.5,0-.1,0-.3,0-.4,0-.2,0-.3,0-.3,0-.2,0-.3,0-.5,0-.1-.1-.3-.2-.4,0-.1-.2-.2-.4-.2-.1,0-.3,0-.4,0,0,0,0,0-.2,0,0,0-.1,0-.2,0,0,0-.2,0-.3,0-.1,0-.2,0-.4,0-.1,0-.3,0-.4,0-.1,0-.3,0-.4,0,0,0-.1,0-.2,0,0,0-.1,0-.2,0,0,0-.1,0-.2,0,0,0-.1,0-.2,0-.1,0-.3,0-.4,0-.1,0-.3,0-.4,0-.1,0-.2,0-.3,0-.1,0-.2,0-.3,0,0,0-.2,0-.2,0-.1,0-.2,0-.2,0-.1,0-.3,0-.4,0-.1,0-.2-.1-.3-.2,0,0-.1-.2-.2-.3,0-.1,0-.3,0-.4,0,0,0,0,0-.2,0,0,0-.2,0-.3,0-.1,0-.2,0-.4,0-.1,0-.3,0-.4,0,0,0-.1,0-.2,0,0,0-.2,0-.2,0,0,0-.2,0-.2,0,0,0-.2,0-.2,0,0,0-.2,0-.2,0,0,0-.2,0-.3,0,0,0-.2,0-.2,0,0,0-.2,0-.2,0,0,0-.2,0-.2,0,0,0-.2,0-.2,0,0,0-.2,0-.2,0,0,0-.1,0-.2,0-.1,0-.3,0-.4,0-.1,0-.2,0-.3,0,0,0-.2,0-.2,0-.1,0-.2,0-.2,0-.1,0-.3,0-.4,0-.1,0-.2-.2-.3,0,0-.2-.1-.3-.2-.1,0-.2,0-.3,0,0,0-.1,0-.3,0,0,0-.2,0-.3,0,0,0-.2,0-.3,0-.1,0-.2,0-.3,0,0,0-.2,0-.3,0-.2,0-.3,0-.3,0-.1,0-.2,0-.3,0,0,0-.2,0-.2-.2,0,0-.1-.2-.1-.3,0-.1,0-.2,0-.3,0,0,0,0,0-.1,0,0,0-.2,0-.3,0,0,0-.1,0-.2,0,0,0-.1,0-.2,0,0,0-.1,0-.2,0,0,0-.2,0-.2,0,0,0-.2,0-.2,0,0,0-.1,0-.2,0,0,0-.1,0-.2,0,0,0-.1,0-.2,0-.1,0-.2,0-.3,0,0,0,0,0,0,0-.1,0-.2.1-.3,0-.1.1-.2.2-.3,0,0,.2-.2.3-.2.1,0,.2-.1.3-.1,0,0,0,0,0,0,0,0,.2,0,.3,0,0,0,.1,0,.2,0,0,0,.1,0,.2,0,0,0,.1,0,.2,0,0,0,.1,0,.2,0,0,0,.1,0,.2,0,0,0,.1,0,.2,0,0,0,.1,0,.2,0,0,0,.1,0,.2,0,.1,0,.2,0,.3,0,0,0,.1,0,.1,0,.1,0,.2,0,.3,0,.1,0,.2,0,.3.1,0,0,.1.1.2.2,0,0,0,.2,0,.3,0,0,0,.1,0,.3,0,0,0,.2,0,.3,0,0,0,.2,0,.3,0,.1,0,.2,0,.3,0,.1,0,.2,0,.3,0,.2,0,.3,0,.3Z"/>
</svg>