<?xml version="1.0" encoding="utf-8"?>
<svg version="1.1" xmlns="http://www.w3.org/2000/svg" xmlns:xlink="http://www.w3.org/1999/xlink" x="0px" y="0px"
	 viewBox="0 0 686.6 86">
<style type="text/css">
	.st0{fill:#eff0f3;}
</style>
<path class="st0" d="M627.3,32.3l-17.8,14.3c1,12.4,7.8,23.1,17.8,29.5V32.3z"/>
<path class="st0" d="M648,4.9c-20.1,0-36.6,15.4-38.4,35l22.9-18.4v13.2l14.1-11.3l2.6-2.1l2.6,2.1l18,14.5l-3.3,4l-14.8-11.9v51.8
	c19.5-1.9,34.8-18.4,34.8-38.4C686.6,22.2,669.3,4.9,648,4.9"/>
<path class="st0" d="M632.5,78.9c4.4,1.9,9.1,3.1,14.1,3.2v-52l-14.1,11.4V78.9z"/>
<polygon class="st0" points="6.2,59.2 12.9,59.2 12.9,27.8 12.4,27.8 -0.7,32.9 -0.7,39.6 6.2,36.8 "/>
<polygon class="st0" points="35.1,59.2 41.8,59.2 41.8,27.8 41.3,27.8 28.2,32.9 28.2,39.6 35.1,36.8 "/>
<polygon class="st0" points="85.2,59.1 92,59.1 92,34.2 101.1,34.2 101.1,27.9 76.1,27.9 76.1,34.2 85.2,34.2 "/>
<path class="st0" d="M128.6,47.6c5.9-1.5,7.9-5.8,7.9-9.5c0-6.5-4.7-10.1-12.2-10.1h-9.9v31.1h6.8V48.1h0.3l8.3,10.9h8.2L128.6,47.6
	z M121.2,42.9v-8.7h2.9c3.4,0,5.5,1.5,5.5,4.3c0,2.8-2,4.4-5.6,4.4H121.2z"/>
<rect x="151.2" y="27.9" class="st0" width="6.8" height="31.1"/>
<path class="st0" d="M191.8,43.1c2.6-1.1,4.5-3.3,4.5-6.8c0-4.6-3.7-8.3-10.8-8.3h-11.6v31.1h12.1c7.5,0,11.1-4,11.1-8.7
	C197.2,46.9,195.3,44.3,191.8,43.1 M180.7,33.7h4.8c2.9,0,4.5,1.5,4.5,3.5c0,2-1.5,3.6-4.6,3.6h-4.6V33.7z M185.6,53.3h-4.9v-7.6h5
	c2.9,0,4.8,1.5,4.8,3.8C190.5,51.7,188.8,53.3,185.6,53.3"/>
<polygon class="st0" points="211.4,59.1 230.9,59.1 230.9,53 218.2,53 218.2,46.2 229.9,46.2 229.9,40.5 218.2,40.5 218.2,34.1 
	230.9,34.1 230.9,27.9 211.4,27.9 "/>
<path class="st0" d="M255.7,27.3c-6.7,0-11,3.9-11,9.3c0,5.6,4.6,7.6,8.4,9.2c3.4,1.4,5.6,2.4,5.6,4.5c0,2.1-2,3.5-5.1,3.5
	c-3.2,0-6.6-1.5-8.8-3.4v6.6c2.1,1.5,5.6,2.8,9.4,2.8c6.9,0,11.4-3.9,11.4-9.8c0-5.9-4.8-7.9-9.3-9.6c-3.3-1.3-5-2.2-5-4
	c0-2,1.9-3,4.7-3c2.6,0,5.7,0.9,7.7,2.4v-6.3C261.7,28.2,258.9,27.3,255.7,27.3"/>
<polygon class="st0" points="327.2,27.9 320.2,27.9 311.7,51.8 303.1,27.9 296,27.9 308,59.1 315.4,59.1 "/>
<polygon class="st0" points="339.9,59.1 359.4,59.1 359.4,53 346.7,53 346.7,46.2 358.3,46.2 358.3,40.5 346.7,40.5 346.7,34.1 
	359.4,34.1 359.4,27.9 339.9,27.9 "/>
<polygon class="st0" points="401.1,27.9 394.7,27.9 394.7,47.9 394.6,47.9 380.9,27.9 374.3,27.9 374.3,59.1 380.8,59.1 380.8,38.7 
	380.9,38.7 394.7,59.1 401.1,59.1 "/>
<polygon class="st0" points="423.6,59.1 430.4,59.1 430.4,34.2 439.5,34.2 439.5,27.9 414.5,27.9 414.5,34.2 423.6,34.2 "/>
<path class="st0" d="M465.3,59.4c8.1,0,13.1-5.3,13.1-13V27.6h-6.8v18.9c0,4.3-2.4,6.8-6.2,6.8c-3.8,0-6-2.5-6-6.7V27.6h-6.8v18.9
	C452.5,54.1,457.3,59.4,465.3,59.4"/>
<path class="st0" d="M508,47.6c5.9-1.5,7.9-5.8,7.9-9.5c0-6.5-4.7-10.1-12.2-10.1h-9.9v31.1h6.8V48.1h0.3l8.3,10.9h8.2L508,47.6z
	 M500.7,42.9v-8.7h2.9c3.4,0,5.5,1.5,5.5,4.3c0,2.8-2,4.4-5.6,4.4H500.7z"/>
<polygon class="st0" points="530.7,59.1 550.2,59.1 550.2,53 537.5,53 537.5,46.2 549.2,46.2 549.2,40.5 537.5,40.5 537.5,34.1 
	550.2,34.1 550.2,27.9 530.7,27.9 "/>
<path class="st0" d="M575,27.3c-6.7,0-11,3.9-11,9.3c0,5.6,4.6,7.6,8.4,9.2c3.4,1.4,5.6,2.4,5.6,4.5c0,2.1-2,3.5-5.1,3.5
	c-3.2,0-6.6-1.5-8.8-3.4v6.6c2.1,1.5,5.6,2.8,9.4,2.8c6.9,0,11.4-3.9,11.4-9.8c0-5.9-4.8-7.9-9.3-9.6c-3.3-1.3-5-2.2-5-4
	c0-2,1.9-3,4.7-3c2.6,0,5.7,0.9,7.7,2.4v-6.3C581,28.2,578.2,27.3,575,27.3"/>
</svg>
