<svg width="190" height="79" viewBox="0 0 190 79" fill="none" xmlns="http://www.w3.org/2000/svg">
<path d="M23.8421 34.5596C21.2745 35.4801 19.3609 37.3694 18.1013 40.2277H42.7359V51.9273H3.27696V49.5293C3.56764 44.5394 4.89989 39.6948 7.27372 34.9956C9.696 30.2964 13.6928 26.8567 19.264 24.6767L21.5167 23.8047C24.811 22.4966 27.2333 21.3824 28.7835 20.4619C30.3338 19.493 31.1089 18.3546 31.1089 17.0465C31.1089 15.254 30.3338 13.8249 28.7835 12.7591C27.2817 11.6933 25.683 11.1604 23.9874 11.1604C21.3229 11.1604 19.0702 11.6691 17.2293 12.6864C15.4368 13.6553 14.3468 15.2298 13.9592 17.4099L2.33228 16.1745C2.81673 12.8802 4.07631 10.0219 6.11103 7.59965C8.19419 5.12892 10.786 3.26377 13.8865 2.00419C17.0355 0.744601 20.4025 0.114807 23.9874 0.114807C27.1848 0.114807 30.2369 0.793045 33.1436 2.14952C36.0504 3.45755 38.4 5.34693 40.1925 7.81765C41.9849 10.2884 42.8812 13.1467 42.8812 16.3925C42.8812 19.5899 42.0818 22.3029 40.4831 24.5314C38.9329 26.7114 36.8255 28.5523 34.161 30.0542C31.4965 31.5075 28.0569 33.0093 23.8421 34.5596Z" fill="#C1121F"/>
<path d="M73.784 53.0173C69.0363 53.0173 64.652 51.8546 60.631 49.5293C56.61 47.1554 53.4126 43.958 51.0388 39.937C48.7134 35.9161 47.5507 31.5317 47.5507 26.7841C47.5507 22.0364 48.7134 17.6521 51.0388 13.6311C53.4126 9.61014 56.61 6.43695 60.631 4.11156C64.652 1.73773 69.0363 0.55082 73.784 0.55082C78.5316 0.55082 82.9159 1.73773 86.9369 4.11156C90.9579 6.43695 94.1311 9.61014 96.4565 13.6311C98.8303 17.6521 100.017 22.0364 100.017 26.7841C100.017 31.5317 98.8303 35.9161 96.4565 39.937C94.1311 43.958 90.9579 47.1554 86.9369 49.5293C82.9159 51.8546 78.5316 53.0173 73.784 53.0173ZM73.784 40.5911C76.3031 40.5911 78.6043 39.9855 80.6874 38.7743C82.819 37.5148 84.4904 35.8434 85.7016 33.7602C86.9611 31.6286 87.5909 29.3032 87.5909 26.7841C87.5909 24.2649 86.9611 21.9637 85.7016 19.8806C84.4904 17.749 82.819 16.0534 80.6874 14.7938C78.6043 13.5342 76.3031 12.9044 73.784 12.9044C71.2648 12.9044 68.9394 13.5342 66.8078 14.7938C64.7246 16.0534 63.0533 17.749 61.7937 19.8806C60.5341 21.9637 59.9043 24.2649 59.9043 26.7841C59.9043 29.3032 60.5341 31.6286 61.7937 33.7602C63.0533 35.8434 64.7246 37.5148 66.8078 38.7743C68.9394 39.9855 71.2648 40.5911 73.784 40.5911Z" fill="#C1121F"/>
<path d="M140.211 31.6529H144.861V43.3525H140.211V52H127.857V43.3525H104.24V31.6529L118.774 1.13216H132.508L117.902 31.6529H127.857V21.988H140.211V31.6529Z" fill="#C1121F"/>
<path d="M183.758 25.8394C187.44 28.2617 189.281 31.9193 189.281 36.8123C189.281 41.8506 187.488 45.8232 183.903 48.7299C180.367 51.5882 175.498 53.0173 169.297 53.0173C163.096 53.0173 158.203 51.5882 154.618 48.7299C151.081 45.8232 149.313 41.8506 149.313 36.8123C149.313 31.8224 151.154 28.1648 154.836 25.8394C151.832 23.6593 150.33 20.365 150.33 15.9565C150.33 11.0151 152.002 7.13941 155.344 4.32957C158.736 1.51973 163.386 0.114807 169.297 0.114807C175.207 0.114807 179.834 1.51973 183.176 4.32957C186.568 7.13941 188.263 11.0151 188.263 15.9565C188.263 20.365 186.761 23.6593 183.758 25.8394ZM169.297 11.0877C167.117 11.0877 165.397 11.5237 164.137 12.3958C162.926 13.2678 162.321 14.4547 162.321 15.9565C162.321 17.4099 162.926 18.5726 164.137 19.4446C165.397 20.3166 167.117 20.7526 169.297 20.7526C171.477 20.7526 173.172 20.3166 174.384 19.4446C175.643 18.5726 176.273 17.4099 176.273 15.9565C176.273 14.4547 175.643 13.2678 174.384 12.3958C173.172 11.5237 171.477 11.0877 169.297 11.0877ZM169.297 41.7537C171.768 41.7537 173.778 41.2451 175.328 40.2277C176.879 39.2104 177.654 37.8054 177.654 36.013C177.654 34.2205 176.879 32.8882 175.328 32.0162C173.826 31.1442 171.816 30.7082 169.297 30.7082C166.778 30.7082 164.743 31.1442 163.193 32.0162C161.691 32.8882 160.94 34.2205 160.94 36.013C160.94 37.8054 161.715 39.2104 163.265 40.2277C164.816 41.2451 166.826 41.7537 169.297 41.7537Z" fill="#C1121F"/>
<path d="M50.3989 78.1633H54.3323V74.2699H50.3989V78.1633Z" fill="white"/>
<path d="M57.4705 78.1633H61.4039V74.2699H57.4705V78.1633Z" fill="white"/>
<path d="M64.5422 78.1633H68.4755V74.2699H64.5422V78.1633Z" fill="white"/>
<path d="M71.5339 73.5711H78.0828V70.2567H71.5339V73.5711Z" fill="white"/>
<path d="M81.1617 78.1633H85.095V74.2699H81.1617V78.1633Z" fill="white"/>
<path d="M88.1534 73.5711H94.7023V70.2567H88.1534V73.5711Z" fill="white"/>
<path d="M97.7812 78.1633H101.715V74.2699H97.7812V78.1633Z" fill="white"/>
<path d="M104.773 73.5711H111.322V70.2567H104.773V73.5711Z" fill="white"/>
<path d="M114.401 78.1633H118.334V74.2699H114.401V78.1633Z" fill="white"/>
<path d="M121.472 78.1633H125.406V74.2699H121.472V78.1633Z" fill="white"/>
<path d="M128.464 73.5711H135.013V70.2567H128.464V73.5711Z" fill="white"/>
<path d="M138.092 78.1633H142.025V74.2699H138.092V78.1633Z" fill="white"/>
<path d="M145.084 73.5711H151.632V70.2567H145.084V73.5711Z" fill="white"/>
<path d="M154.711 78.1633H158.645V74.2699H154.711V78.1633Z" fill="white"/>
<path d="M161.783 78.1633H165.716V74.2699H161.783V78.1633Z" fill="white"/>
<path d="M168.855 78.1633H172.788V74.2699H168.855V78.1633Z" fill="white"/>
<path d="M175.926 78.1633H179.86V74.2699H175.926V78.1633Z" fill="white"/>
<path d="M182.998 78.1633H186.931V74.2699H182.998V78.1633Z" fill="white"/>
<path d="M0.696045 70.7524H41.8641V74.1231H0.696045V70.7524Z" fill="#C1121F"/>
</svg>
