<svg width="475" height="73" viewBox="0 0 475 73" fill="none" xmlns="http://www.w3.org/2000/svg">
<path d="M474.565 1.32397H466.54V58.1092H474.565V1.32397Z" fill="#112C41"/>
<path d="M114.443 45.8986C114.45 64.9423 75.3691 63.4766 76.2411 44.6915H84.4016C84.7232 52.542 94.8155 54.1974 101.115 52.3288C106.005 51.2173 108.57 45.5695 103.618 42.6365C97.284 39.5809 89.8667 40.3163 83.4941 37.2355C74.1078 33.7283 75.7602 20.2988 84.6488 16.7362C95.4115 12.4231 113.207 15.6281 113.062 29.5848H105.15C105.031 21.7427 95.464 20.4365 89.4553 22.1691C85.0669 23.435 83.5923 29.4203 87.7606 31.2083C95.1287 35.199 114.435 32.4104 114.44 45.9003L114.443 45.8986Z" fill="#112C41"/>
<path d="M81.1052 44.6914H76.2411C77.8884 44.6914 79.5036 44.6864 81.1052 44.6914Z" fill="#112C41"/>
<path d="M84.4828 45.4453C84.5624 45.9288 84.6725 46.3821 84.8062 46.8086C84.6742 46.4006 84.559 45.9423 84.4828 45.4453Z" fill="#112C41"/>
<path d="M85.6765 48.7074C85.7052 48.7527 85.734 48.7981 85.7645 48.8434C85.7425 48.8115 85.7137 48.7662 85.6765 48.7074Z" fill="#112C41"/>
<path d="M69.9396 1.32397H61.8823V58.0404H69.9396V1.32397Z" fill="#112C41"/>
<path d="M158.522 16.2644H150.508V58.126H158.522V16.2644Z" fill="#112C41"/>
<path d="M158.479 1.32397H150.552V9.18456H158.479V1.32397Z" fill="#112C41"/>
<path d="M33.9114 1.32056H23.3265C16.688 17.8761 7.26956 41.3504 0.566772 58.1092H9.54333C9.54333 58.1008 9.54841 58.0924 9.55179 58.084L9.55687 58.1427C11.3921 53.4721 13.3121 44.077 21.6537 43.6639C27.7673 43.7076 38.503 44.8509 39.6949 37.0508C39.6949 37.0508 46.5551 54.4055 48.0145 58.1259H57.1739C57.1739 58.1259 41.3778 19.5382 33.9114 1.32056ZM37.4634 33.9482C34.9272 39.7773 22.9946 35.7026 17.5447 37.5796C21.2288 27.884 24.9332 18.1179 28.6155 8.41389C31.5445 15.9924 34.465 23.576 37.3737 31.1646C37.7191 32.051 37.7868 33.055 37.4634 33.9465V33.9482Z" fill="#112C41"/>
<path d="M144.17 51.3818C140.352 52.1927 133.654 53.5727 132.708 48.3329C132.564 47.5589 132.486 46.7615 132.486 45.9741C132.525 37.8902 132.359 29.8248 132.543 21.7443H144.114V16.2543H132.381C132.388 12.5909 132.371 8.9091 132.381 5.24744C130.055 5.24744 126.506 5.24744 124.198 5.24744V16.2526H117.123V21.7728H124.219C124.22 29.8466 124.197 37.9221 124.236 45.9959C124.242 47.574 124.352 49.169 124.613 50.7236C125.793 59.7242 137.387 59.4153 144.171 57.5433C144.171 55.8644 144.171 53.0321 144.168 51.3818H144.17Z" fill="#112C41"/>
<path d="M204.593 29.2069C204.569 26.3427 203.669 23.6515 202.047 21.2339C198.349 15.7288 190.542 13.1836 183.836 15.8161C177.721 18.2152 174.235 26.1497 174.057 26.519H173.666V16.2643H165.461V58.1259H173.669C173.669 58.1259 173.647 38.8539 173.805 34.3779C173.918 31.1746 174.965 28.2097 177.142 25.7652C180.638 21.84 185.086 21.2893 189.914 22.4897C193.077 23.2754 195.129 25.3404 195.914 28.4665C196.297 29.9859 196.483 31.591 196.495 33.1591C196.551 41.0532 196.52 48.9457 196.52 56.8382V58.1259H204.618C204.618 48.3682 204.667 38.7867 204.59 29.2069H204.593Z" fill="#112C41"/>
<path d="M275.295 37.0005C275.159 38.9866 274.611 41.0802 274.595 41.097C272.696 48.6956 267.283 55.9703 257.362 58.4282C249.166 60.4563 241.2 59.8082 233.9 55.2098C228.059 51.5313 224.601 46.0866 222.981 39.5373C221.024 31.633 221.097 23.7171 224.165 16.0814C227.955 6.65109 235.185 1.48514 245.284 0.274655C250.381 -0.334784 255.434 0.00771067 260.243 1.9334C268.145 5.09644 272.93 11.2882 274.843 19.4795C274.843 19.3116 274.865 19.5735 274.843 19.4795C273.387 19.4795 271.934 19.4862 270.483 19.4829H265.878C265.824 19.3318 265.77 19.1824 265.712 19.0363C265.363 18.1213 264.981 17.297 264.593 16.5666C264.591 16.5616 264.588 16.5566 264.586 16.5515C263.97 15.3259 263.223 14.1977 262.345 13.1635C262.334 13.1518 262.324 13.14 262.316 13.1299C262.04 12.7992 261.854 12.6061 261.804 12.5574C261.796 12.5491 261.793 12.544 261.793 12.544C261.104 11.807 260.338 11.1237 259.5 10.489C253.507 5.95939 240.469 5.55813 234.369 15.3427C229.435 23.2554 229.564 36.8208 234.804 44.5337C238.061 49.3303 242.703 51.7093 248.495 51.9963C255.403 52.3372 260.189 49.3454 263.069 45.2321C263.069 45.2321 263.071 45.2304 263.076 45.2237C263.125 45.1582 263.465 44.7083 263.926 43.8806C263.929 43.8755 263.931 43.8705 263.934 43.8655C263.95 43.8369 263.967 43.8084 263.983 43.7782C264.706 42.4988 265.263 41.144 265.661 39.7706C265.878 39.0773 266.083 38.3201 266.264 37.4991C266.3 37.3379 266.335 37.1751 266.367 37.0089H269.911C271.33 37.0122 272.748 36.9971 274.167 37.0005H275.295Z" fill="#112C41"/>
<path d="M319.277 53.65H319.27C319.273 45.4284 319.299 37.2052 319.216 28.9836C319.157 23.1562 316.085 19.1789 310.801 16.9208C305.607 14.6963 300.135 14.5183 294.638 15.4685C289.669 16.3214 285.453 18.5594 282.463 22.7264C280.696 25.1927 279.802 27.9629 279.576 30.9983H287.82C288.837 26.0573 291.482 23.1612 296.038 22.0465C299.07 21.3027 302.114 21.4085 305.113 22.2412C307.463 22.8909 309.269 24.2978 310.402 26.4603C312.389 30.2596 310.668 33.7903 306.579 35.078C302.248 36.4413 290.708 35.5783 286.953 36.898C282.384 38.503 279.463 42.1294 279.211 46.9931C278.952 52.0936 281.256 55.8896 285.914 57.9681C289.455 59.5479 293.195 59.8048 296.945 59.1752C303.677 58.047 308.655 53.9689 310.635 47.1963H311.265V58.1242H319.194H319.277V53.6516V53.65ZM299.309 52.9633C297.264 53.3948 295.009 53.2672 292.918 52.9599C289.452 52.4445 287.549 49.8909 287.74 46.5583C287.935 43.2274 290.094 40.9088 293.651 40.8031C307.793 40.38 310.343 37.2438 310.93 35.026C310.93 44.7787 308.06 51.14 299.311 52.9633H299.309Z" fill="#112C41"/>
<path d="M366.54 25.2213C363.176 17.6461 355.857 13.9206 347.625 15.2134C341.51 16.172 337.64 19.968 335.254 25.4496C335.102 25.8038 334.936 26.1547 334.773 26.509H334.497V16.2577H326.335V72.9992H334.497V48.0055H334.773C334.931 48.3514 335.102 48.6973 335.251 49.0481C336.712 52.5402 338.874 55.4632 342.209 57.4292C348.622 61.2134 360.267 60.5502 365.66 50.9738C370.356 42.6415 370.378 33.8508 366.54 25.2213ZM361.022 37.2556C360.797 41.0516 360.137 44.6444 357.905 47.7789C354.783 52.1524 350.393 53.6147 345.219 52.7904C340.259 51.9996 336.822 49.117 335.315 44.4043C334.951 43.266 334.68 42.1126 334.497 40.9559C334.118 38.55 334.125 36.1156 334.497 33.7047C334.665 32.6168 334.907 31.5322 335.222 30.4577C336.866 24.8368 341.813 21.4589 347.686 21.526C353.669 21.5932 358.6 24.9627 360.299 30.8791C360.721 32.5345 361.134 35.0176 361.024 37.2556H361.022Z" fill="#112C41"/>
<path d="M383.176 16.2644H375.163V58.126H383.176V16.2644Z" fill="#112C41"/>
<path d="M383.135 1.32397H375.208V9.18456H383.135V1.32397Z" fill="#112C41"/>
<path d="M415.791 51.4624C411.973 52.2733 405.275 53.6533 404.329 48.4135C404.185 47.6395 404.107 46.842 404.107 46.0546C404.146 37.9708 403.98 29.9054 404.165 21.8248H415.735V16.3349H404.002C404.009 12.6715 403.992 8.98969 404.002 5.24744H395.82V16.3349H388.744V21.8551H395.84C395.842 29.9289 395.818 38.0043 395.857 46.0781C395.864 47.6563 395.974 49.2513 396.234 50.8059C397.414 59.8065 409.009 59.4975 415.793 57.6256C415.793 55.9467 415.793 53.1144 415.789 51.464L415.791 51.4624Z" fill="#112C41"/>
<path d="M459.907 53.65H459.9C459.903 45.4284 459.929 37.2052 459.846 28.9836C459.786 23.1562 456.715 19.1789 451.431 16.9208C446.237 14.6963 440.765 14.5183 435.268 15.4685C430.299 16.3214 426.083 18.5594 423.093 22.7264C421.325 25.1927 420.431 27.9629 420.206 30.9983H428.45C429.467 26.0573 432.112 23.1612 436.668 22.0465C439.7 21.3027 442.744 21.4085 445.743 22.2412C448.093 22.8909 449.899 24.2978 451.032 26.4603C453.019 30.2596 451.297 33.7903 447.209 35.078C442.878 36.4413 431.338 35.5783 427.583 36.898C423.013 38.503 420.093 42.1294 419.841 46.9931C419.582 52.0936 421.886 55.8896 426.543 57.9681C430.085 59.5479 433.825 59.8048 437.575 59.1752C444.307 58.047 449.284 53.9689 451.265 47.1963H451.895V58.1242H459.824H459.907V53.6516V53.65ZM439.939 52.9633C437.894 53.3948 435.638 53.2672 433.548 52.9599C430.082 52.4445 428.179 49.8909 428.37 46.5583C428.565 43.2274 430.724 40.9088 434.281 40.8031C448.423 40.38 450.972 37.2438 451.56 35.026C451.56 44.7787 448.69 51.14 439.94 52.9633H439.939Z" fill="#112C41"/>
</svg>
