<svg width="123" height="22" viewBox="0 0 123 22" fill="none" xmlns="http://www.w3.org/2000/svg">
<g clip-path="url(#clip0_2233_629)">
<path d="M74.3794 7.86108C73.7188 8.20493 73.144 8.69303 72.6975 9.28925C72.592 9.43207 72.53 9.63698 72.2569 9.64319C72.1856 9.27518 72.1606 8.8997 72.1825 8.52549C72.1825 8.15292 72.2817 7.76173 72.0149 7.37053C71.3943 7.37053 70.7364 7.33328 70.0848 7.37053C69.4086 7.30889 68.7269 7.34655 68.0616 7.48231C67.9565 7.74497 67.9152 8.02883 67.9411 8.31057C67.967 8.5923 68.0593 8.86388 68.2105 9.10297H70.0724C70.0724 9.41344 70.1344 9.59972 70.1344 9.786C70.1344 13.0977 70.1344 16.3866 70.1344 19.6528C70.1209 19.8493 70.0919 20.0445 70.0476 20.2365L68.1857 20.3048C68.053 20.5587 67.9805 20.8398 67.9741 21.1263C67.9676 21.4127 68.0273 21.6968 68.1485 21.9565C68.8896 22.0164 69.6335 22.033 70.3765 22.0062C71.0902 22.0062 71.8101 22.0062 72.5238 22.0062C73.2613 22.052 74.0015 22.0229 74.7332 21.9192C74.8704 21.6756 74.9399 21.3997 74.9344 21.1202C74.929 20.8406 74.8488 20.5676 74.7021 20.3296C74.0815 20.1744 73.3616 20.3731 72.6789 20.193C72.6485 20.0622 72.6277 19.9294 72.6169 19.7956C72.6169 19.0008 72.6169 18.1998 72.6169 17.3988C72.6169 16.1569 72.6169 14.9771 72.6169 13.76C72.6253 12.8268 72.8847 11.9131 73.3678 11.1148C73.7136 10.5224 74.2403 10.0567 74.8704 9.78622C75.5005 9.51571 76.2007 9.45469 76.8681 9.61214C77.1784 9.67423 77.4887 9.74875 77.8424 9.82947C77.8983 9.4507 77.9603 9.10297 77.9976 8.76145C78.1027 8.38576 78.1027 7.98839 77.9976 7.6127C77.4133 7.40907 76.7933 7.3277 76.1763 7.37363C75.5592 7.41956 74.9582 7.59181 74.4104 7.87971" fill="white"/>
<path d="M87.1339 20.0564C86.7917 20.1162 86.4449 20.1453 86.0975 20.1433C85.8869 20.1629 85.6745 20.1404 85.4727 20.0771C85.2709 20.0138 85.0837 19.9109 84.922 19.7746C84.7603 19.6382 84.6273 19.471 84.5308 19.2827C84.4343 19.0945 84.3762 18.8889 84.3598 18.6779C84.3506 18.527 84.3506 18.3756 84.3598 18.2246C84.3598 15.5173 84.3598 12.8121 84.3598 10.1089C84.3748 9.92643 84.406 9.74566 84.4529 9.56868C85.5948 9.45071 86.7057 9.61836 87.7793 9.46933C87.9151 9.23659 87.9866 8.97195 87.9866 8.70247C87.9866 8.43299 87.9151 8.16834 87.7793 7.9356C86.6808 7.77416 85.5637 8.01011 84.4156 7.78657C84.4156 7.45747 84.3722 7.16563 84.3722 6.86758C84.3722 5.74367 84.3722 4.61977 84.3722 3.49587C84.3478 3.30505 84.302 3.11758 84.2357 2.93701L81.9642 4.09197V5.0358C81.9642 5.79956 81.9642 6.55711 81.9642 7.31466C81.9441 7.4822 81.9045 7.64683 81.8463 7.80521C81.1202 7.9977 80.4065 7.75553 79.761 7.96665C79.6328 8.19627 79.5654 8.45493 79.5654 8.71799C79.5654 8.98104 79.6328 9.23971 79.761 9.46933C80.4685 9.61215 81.176 9.42587 81.8711 9.59973C81.9736 9.92665 82.0074 10.2712 81.9704 10.6119V18.0073C81.9482 18.5871 82.0237 19.1664 82.1938 19.7211C82.3764 20.3213 82.7338 20.8534 83.2202 21.2494C83.7066 21.6454 84.3 21.8873 84.9245 21.9441C85.6481 22.0466 86.3833 22.034 87.1029 21.9068C87.473 21.8183 87.8377 21.7084 88.1952 21.5777C88.1952 21.2548 88.2324 20.9568 88.1952 20.7146C88.2337 20.4138 88.204 20.1082 88.1083 19.8205C87.7669 19.9136 87.4876 20.0129 87.1587 20.0688" fill="white"/>
<path d="M38.1172 20.0627C38.1172 19.6715 38.1172 19.2989 38.1172 18.9201C38.1172 13.9526 38.1172 8.98506 38.1172 4.01751C38.1172 2.97433 38.1172 1.93115 38.1172 0.912801C38.0997 0.682748 38.0644 0.454388 38.0117 0.22976C37.2235 0.22976 36.4912 0.192504 35.7527 0.22976C34.9986 0.166026 34.2393 0.199418 33.4937 0.329113C33.388 0.579218 33.3382 0.849422 33.3479 1.12079C33.3575 1.39216 33.4264 1.65814 33.5495 1.9001L35.5355 1.97461C35.5355 2.37822 35.5851 2.68249 35.5851 2.99296C35.5851 4.48323 35.5851 5.96727 35.5851 7.45133C35.5851 11.3467 35.5851 15.238 35.5851 19.1251C35.5851 19.4666 35.6782 19.8205 35.4424 20.1434C34.8218 20.3359 34.1019 20.0689 33.4689 20.3235C33.276 20.7993 33.276 21.3317 33.4689 21.8075C33.5696 21.8542 33.676 21.8876 33.7853 21.9069C35.7403 21.9069 37.689 21.9069 39.6439 21.9069C39.8084 21.8954 39.9721 21.8746 40.1342 21.8448C40.2878 21.6082 40.3695 21.3321 40.3695 21.05C40.3695 20.7678 40.2878 20.4918 40.1342 20.2552C39.4515 20.0999 38.7999 20.3173 38.142 20.0751" fill="white"/>
<path d="M98.1614 17.2747C98.0024 17.7227 97.7943 18.1517 97.5408 18.5538C97.2027 19.0412 96.7497 19.4377 96.222 19.7081C95.6942 19.9785 95.1079 20.1145 94.5151 20.104C93.9222 20.0936 93.3411 19.937 92.8231 19.6482C92.3052 19.3594 91.8664 18.9472 91.5457 18.4482C91.0569 17.6282 90.7559 16.71 90.6644 15.7596C90.6272 15.4367 90.621 15.1386 90.6148 14.9585C90.5736 14.0339 90.704 13.1096 90.9995 12.2326C91.0961 11.9516 91.2123 11.6777 91.3471 11.413C91.6256 10.7997 92.0797 10.2829 92.652 9.92802C93.2243 9.57318 93.889 9.39628 94.5619 9.41973C95.2328 9.39487 95.8964 9.56601 96.4717 9.91225C97.047 10.2585 97.509 10.7649 97.8015 11.3695C98.111 11.9513 98.3208 12.581 98.4221 13.2323C98.6884 14.584 98.5964 15.982 98.1552 17.2871M100.247 11.4316C99.8354 10.2554 99.0587 9.24171 98.0302 8.53893C97.0018 7.83615 95.7755 7.48115 94.5308 7.52585C94.0605 7.55134 93.5921 7.60526 93.1283 7.68731C92.1787 7.89207 91.2962 8.33354 90.5628 8.97076C89.8294 9.60797 89.2687 10.4203 88.9329 11.3322C88.5485 12.2716 88.3382 13.2732 88.3123 14.2879C88.2033 15.9074 88.5563 17.5246 89.3301 18.9512C89.9932 20.2351 91.1276 21.2122 92.4952 21.6771C93.7107 22.082 95.0178 22.123 96.2561 21.7951C97.1557 21.5709 97.9866 21.1293 98.6758 20.5089C99.3651 19.8886 99.8917 19.1085 100.209 18.2371C100.673 17.1598 100.917 16.0009 100.927 14.8282C100.938 13.6554 100.715 12.4923 100.271 11.4067" fill="white"/>
<path d="M57.3501 13.0709C57.4259 12.1327 57.7563 11.2331 58.3058 10.4691C58.6276 10.0307 59.0588 9.68452 59.5563 9.46528C60.0539 9.24604 60.6002 9.16142 61.1407 9.2199C61.6812 9.27838 62.1968 9.4779 62.636 9.79849C63.0752 10.1191 63.4225 10.5495 63.6431 11.0466C63.99 11.8275 64.1575 12.6762 64.1334 13.5304C61.8869 13.6701 59.6339 13.6701 57.3874 13.5304C57.3621 13.366 57.3497 13.1999 57.3501 13.0336M60.4097 15.2939C61.3841 15.2939 62.3584 15.2939 63.3328 15.2939C64.3072 15.2939 65.3374 15.2939 66.3986 15.2939C66.5067 14.6297 66.5067 13.9524 66.3986 13.2882C66.3119 12.049 65.9516 10.8444 65.3436 9.76126C64.7924 8.78809 63.9121 8.04381 62.8611 7.66247C61.7069 7.25908 60.4598 7.20296 59.274 7.50102C58.5176 7.68642 57.8132 8.04162 57.2143 8.53972C56.6154 9.03783 56.1376 9.66578 55.8172 10.376C55.3598 11.2996 55.0759 12.2993 54.9794 13.3255C54.7545 14.9827 54.9685 16.67 55.6 18.2185C55.9365 19.0859 56.4782 19.8588 57.1786 20.4708C57.879 21.0829 58.7172 21.516 59.6215 21.733C61.5384 22.2354 63.573 22.0143 65.3374 21.1121C65.5119 21.0112 65.6798 20.8992 65.8401 20.7768C65.8401 20.1558 65.8401 19.5349 65.8401 18.914C65.8401 18.8643 65.778 18.8208 65.7159 18.7215C65.5422 18.8084 65.3746 18.9015 65.1946 18.9823C64.7416 19.2058 64.2947 19.4355 63.8293 19.6032C62.9134 19.9582 61.9201 20.0653 60.9496 19.9137C60.3094 19.8301 59.7 19.5882 59.1766 19.2099C58.6533 18.8315 58.2324 18.3286 57.9521 17.7466C57.5139 17.0261 57.3202 16.1832 57.3998 15.3435C58.4114 15.2752 59.4105 15.3435 60.4097 15.3125" fill="white"/>
<path d="M27.6479 16.8586C27.6432 17.3484 27.5206 17.8299 27.2905 18.2622C27.0604 18.6946 26.7296 19.0651 26.326 19.3424C25.8515 19.6897 25.3114 19.937 24.7386 20.0694C24.1657 20.2017 23.572 20.2164 22.9933 20.1124C22.6833 20.0795 22.3836 19.9815 22.1139 19.8248C21.8443 19.6682 21.6108 19.4563 21.4286 19.2031C21.2464 18.9499 21.1197 18.6611 21.0567 18.3555C20.9938 18.05 20.996 17.7346 21.0632 17.4299C21.1027 16.9294 21.2929 16.4526 21.6086 16.0625C21.9244 15.6723 22.3509 15.387 22.832 15.2442C23.1437 15.1341 23.4661 15.0571 23.7939 15.0144C24.7496 14.8902 25.6992 14.7847 26.6549 14.6853C26.9574 14.6218 27.2709 14.6346 27.5672 14.7226C27.6032 14.8337 27.6282 14.9481 27.6417 15.0641C27.6417 15.6851 27.6417 16.275 27.6417 16.8835M31.595 19.9882L30 19.9199C29.8928 19.5875 29.8569 19.2363 29.8945 18.8891C29.8945 16.7407 29.8945 14.5922 29.8945 12.4437C29.8965 11.9895 29.8738 11.5356 29.8263 11.0839C29.7816 10.2474 29.4625 9.44906 28.9183 8.81253C28.3741 8.176 27.6353 7.73684 26.8163 7.56312C25.7329 7.3009 24.6077 7.26078 23.5084 7.44515C22.2878 7.58376 21.1254 8.04213 20.1385 8.77397C19.9455 9.41958 19.9784 10.1117 20.2316 10.7361C20.4364 10.612 20.6288 10.4753 20.8522 10.3698C21.3459 10.0876 21.8557 9.83467 22.3789 9.61224C23.4173 9.19403 24.559 9.10517 25.6495 9.35766C25.9784 9.40705 26.2922 9.52907 26.5681 9.71488C26.8439 9.90068 27.075 10.1456 27.2445 10.4319C27.631 11.1698 27.7536 12.0177 27.592 12.8349L25.8668 13.0336C24.7621 13.1578 23.6512 13.2199 22.5651 13.4186C19.9834 13.8843 18.6553 15.623 18.8414 18.2247C18.8583 19.0162 19.1266 19.7817 19.6075 20.4103C20.0885 21.0389 20.7571 21.4978 21.5163 21.7206C22.6726 22.0731 23.9045 22.0946 25.0724 21.7827C25.959 21.5837 26.7526 21.0915 27.3252 20.3856C27.4183 20.28 27.4741 20.1124 27.7162 20.1434C27.7596 20.5967 27.8031 21.0624 27.8465 21.5033C29.1277 21.6496 30.4218 21.6392 31.7005 21.4722C31.8021 21.2361 31.8493 20.98 31.8385 20.7231C31.8278 20.4662 31.7594 20.2151 31.6384 19.9882" fill="white"/>
<path d="M115.179 20.1743C115.179 19.9136 115.129 19.6714 115.129 19.4292C115.129 17.939 115.129 16.4487 115.129 14.9522C115.129 13.9277 115.129 12.9031 115.129 11.8475C115.121 11.0719 114.959 10.3056 114.651 9.59349C114.456 9.11749 114.161 8.68886 113.787 8.33647C113.412 7.98408 112.966 7.71611 112.479 7.55059C111.892 7.36473 111.276 7.28278 110.661 7.30842C109.929 7.28877 109.203 7.44817 108.547 7.7728C107.89 8.09743 107.323 8.57748 106.894 9.17125C106.807 9.27681 106.745 9.44446 106.54 9.401C106.335 8.89182 106.602 8.30193 106.366 7.79896C105.176 7.64767 103.971 7.66439 102.785 7.84864C102.678 8.08879 102.63 8.35113 102.645 8.61366C102.66 8.87619 102.738 9.13127 102.872 9.35754L104.436 9.43205C104.517 9.5314 104.548 9.55002 104.554 9.57486C104.578 9.66426 104.592 9.75579 104.597 9.84808C104.597 13.0521 104.597 16.2562 104.597 19.4603C104.597 19.6465 104.597 19.8328 104.597 20.0191C104.59 20.047 104.579 20.074 104.566 20.0998C104.54 20.1392 104.511 20.1766 104.48 20.2116C103.958 20.3668 103.356 20.1495 102.798 20.3544C102.624 20.8402 102.624 21.3713 102.798 21.8571C103.411 21.9732 104.038 22.0045 104.659 21.9503C105.28 21.9503 105.944 21.9503 106.59 21.9503C107.197 21.9978 107.807 21.9707 108.408 21.8695C108.515 21.6199 108.565 21.3499 108.557 21.0785C108.548 20.8072 108.481 20.541 108.358 20.2985L106.931 20.2178C106.901 20.0869 106.881 19.9541 106.869 19.8204C106.869 17.7403 106.869 15.6539 106.869 13.5737C106.883 12.9837 106.979 12.3986 107.154 11.8351C107.732 9.97226 109.153 9.07189 110.984 9.4072C111.373 9.46311 111.739 9.62887 112.038 9.88508C112.337 10.1413 112.557 10.4774 112.672 10.854C112.775 11.1775 112.848 11.5102 112.889 11.8475C112.946 12.2799 112.975 12.7154 112.976 13.1515C112.976 15.2937 112.976 17.4422 112.976 19.5845C112.964 19.7828 112.937 19.98 112.895 20.1743C112.374 20.3855 111.852 20.1247 111.381 20.3731C111.219 20.8417 111.219 21.3512 111.381 21.8199C113.076 22.0209 114.785 22.0645 116.488 21.9503C116.65 21.9306 116.809 21.8994 116.966 21.8571C117.183 20.9816 117.183 20.9692 116.892 20.311C116.352 20.1806 115.787 20.3731 115.21 20.1681" fill="white"/>
<path d="M50.6291 15.1324C50.5779 15.7605 50.4762 16.3834 50.325 16.9952C50.1692 17.6381 49.8653 18.2356 49.4375 18.74C49.0952 19.1842 48.6481 19.5365 48.1363 19.7653C47.6245 19.9941 47.064 20.0923 46.5049 20.051C45.9459 20.0098 45.4058 19.8304 44.9331 19.529C44.4603 19.2276 44.0697 18.8136 43.7962 18.324C43.2768 17.3893 42.9756 16.3491 42.9149 15.2814C42.9149 14.9957 42.9149 14.7163 42.9149 14.4307C42.8629 13.4871 42.9849 12.542 43.2749 11.6427C43.4229 11.2084 43.6185 10.7919 43.8582 10.4008C44.1239 9.9608 44.4928 9.59229 44.9329 9.3272C45.3731 9.0621 45.8712 8.90842 46.3841 8.87946C47.1792 8.75494 47.9925 8.92029 48.676 9.3454C49.3595 9.77051 49.8676 10.4271 50.1078 11.1956C50.5838 12.465 50.7683 13.8254 50.6477 15.1758M54.6693 19.9447H52.9564C52.9564 19.6093 52.9129 19.3982 52.9129 19.1809C52.9129 18.175 52.9129 17.169 52.9129 16.1569C52.9129 11.1521 52.9129 6.14731 52.9129 1.14251C52.9666 0.80675 52.9346 0.462867 52.8199 0.142796C51.4575 0.0153895 50.0862 0.0153895 48.7238 0.142796C48.5825 0.375862 48.5077 0.643261 48.5077 0.915876C48.5077 1.18849 48.5825 1.45588 48.7238 1.68895C49.3444 1.86902 49.934 1.62064 50.4926 1.88144C50.5186 2.01067 50.5372 2.14128 50.5484 2.27263C50.5484 4.35279 50.5484 6.42674 50.5484 8.48206C50.5243 8.61858 50.4847 8.75191 50.4305 8.87946L49.8099 8.20884C49.1942 7.54101 48.3806 7.08832 47.4888 6.91728C46.9269 6.82607 46.3566 6.79691 45.7883 6.83035C44.5354 6.88379 43.351 7.41738 42.4805 8.32061C41.7344 9.08818 41.1906 10.0291 40.8979 11.059C40.4275 12.6995 40.3321 14.4248 40.6186 16.1072C40.7251 16.8203 40.9083 17.5198 41.1648 18.1936C42.0585 20.5221 43.7031 21.851 46.1917 22C46.9651 22.098 47.7506 21.986 48.4658 21.6757C49.181 21.3654 49.7996 20.8683 50.2567 20.2365C50.3498 20.1123 50.4243 19.9571 50.6477 20.0626C50.6477 20.2924 50.6477 20.5408 50.685 20.7892C50.7222 21.0375 50.7222 21.2735 50.7408 21.5281C50.8753 21.5631 51.0122 21.588 51.1504 21.6026C52.1682 21.6026 53.186 21.6026 54.2038 21.6026C54.7624 21.6026 54.8989 21.4411 54.9175 20.8574C54.9386 20.6884 54.9247 20.5168 54.8766 20.3534C54.8286 20.1899 54.7474 20.0381 54.6382 19.9074" fill="white"/>
<path d="M14.3482 16.9021C14.2724 17.4561 14.0484 17.9793 13.6999 18.4165C13.3514 18.8537 12.8914 19.1886 12.3685 19.3859C11.8205 19.6165 11.2368 19.7509 10.6432 19.7832C8.83098 19.8329 7.01261 19.7832 5.19422 19.7832C5.09308 19.7727 4.99324 19.7519 4.8963 19.7212C4.84905 19.6119 4.81571 19.4972 4.79702 19.3796C4.79702 17.1567 4.79702 14.9399 4.79702 12.7169C4.81592 12.5887 4.85137 12.4635 4.90252 12.3444C5.13214 12.3444 5.34935 12.2885 5.56036 12.2823C7.00638 12.2823 8.4462 12.2823 9.90464 12.2823C10.5621 12.2676 11.2183 12.3471 11.8534 12.5182C12.5916 12.6725 13.2531 13.0792 13.7242 13.6684C14.1953 14.2576 14.4467 14.9926 14.4351 15.7471C14.4497 16.1169 14.4268 16.4872 14.3668 16.8524M4.90252 3.60769C5.16317 3.60769 5.40522 3.55181 5.64726 3.54561C6.88848 3.54561 8.12969 3.54561 9.32126 3.54561C9.94988 3.52822 10.5775 3.60566 11.1831 3.77535C11.7693 3.89423 12.2981 4.20804 12.6835 4.66576C13.0688 5.12347 13.2881 5.69817 13.3056 6.29638C13.345 6.78858 13.3158 7.28387 13.2187 7.76801C13.1413 8.1827 12.9656 8.57277 12.7065 8.90554C12.4473 9.2383 12.1122 9.50405 11.7292 9.68051C11.1998 9.95912 10.6142 10.1141 10.0163 10.1338C8.38414 10.1338 6.75192 10.1338 5.11971 10.1338C5.05295 10.1193 4.98831 10.0963 4.92733 10.0655C4.92733 9.99099 4.83426 9.91027 4.83426 9.82334C4.83426 7.91083 4.83426 5.99833 4.83426 4.08582C4.85174 3.91798 4.88285 3.75184 4.92733 3.58907M14.3544 11.2577C14.2427 11.2018 14.1248 11.1521 14.0193 11.0901C13.9138 11.028 13.7835 10.9224 13.6407 10.823C13.7177 10.7423 13.8006 10.6676 13.8889 10.5995C14.4677 10.2331 14.9545 9.73843 15.3118 9.15381C15.669 8.56918 15.8872 7.9102 15.9494 7.22779C16.1299 6.06345 15.8839 4.87305 15.2567 3.87581C14.6295 2.87857 13.6633 2.14165 12.536 1.80075C11.7334 1.54563 10.8957 1.41782 10.0536 1.42197H1.01128C0.763031 1.42197 0.52099 1.42198 0.309982 1.45924C0.101415 1.75482 0.0168005 2.12034 0.0741852 2.47758C0.0741852 3.2786 0.254133 3.37173 0.936805 3.35311C1.22229 3.35311 1.50156 3.35311 1.78704 3.35311C1.97972 3.37997 2.17047 3.41938 2.35803 3.47109V18.8891C2.35803 19.0443 2.35803 19.1996 2.35803 19.3486C2.35803 19.4976 2.28977 19.6963 2.24632 19.9012L0.216914 19.9695C0.00514594 20.5276 0.00514594 21.1439 0.216914 21.702C0.551208 21.8282 0.911774 21.8688 1.26575 21.82H10.1219C10.6253 21.8272 11.1288 21.8064 11.63 21.7579C14.2303 21.4598 16.6445 19.9261 17.1037 16.7468C17.3301 15.6548 17.1826 14.5184 16.685 13.5205C16.1874 12.5225 15.3687 11.7211 14.3606 11.2453" fill="white"/>
<path d="M120.721 17.6037C120.438 17.598 120.156 17.6485 119.892 17.7524C119.629 17.8563 119.389 18.0115 119.185 18.2091C118.982 18.4066 118.82 18.6425 118.709 18.9031C118.597 19.1638 118.539 19.4439 118.536 19.7273C118.506 20.0187 118.539 20.3131 118.631 20.5909C118.724 20.8687 118.875 21.1235 119.074 21.3381C119.274 21.5527 119.516 21.7222 119.786 21.8353C120.057 21.9484 120.348 22.0024 120.64 21.9938C120.932 22.0188 121.226 21.9812 121.502 21.8837C121.778 21.7862 122.03 21.6309 122.241 21.4282C122.453 21.2255 122.619 20.98 122.728 20.7081C122.837 20.4363 122.887 20.1442 122.874 19.8515C122.894 19.5591 122.853 19.2657 122.753 18.9902C122.653 18.7146 122.497 18.463 122.294 18.2514C122.092 18.0398 121.847 17.8729 121.576 17.7613C121.305 17.6498 121.014 17.5961 120.721 17.6037Z" fill="#F54A14"/>
</g>
<defs>
<clipPath id="clip0_2233_629">
<rect width="122.934" height="22" fill="white"/>
</clipPath>
</defs>
</svg>
