<?xml version="1.0" encoding="UTF-8"?><svg id="Layer_1" xmlns="http://www.w3.org/2000/svg" xmlns:xlink="http://www.w3.org/1999/xlink" viewBox="0 0 294.68 201.36"><defs><style>.cls-1{fill:#fff;}.cls-2{fill:#5ba4d6;}.cls-3{clip-path:url(#clippath);}.cls-4{fill:none;}.cls-5{fill:url(#linear-gradient);}</style><clipPath id="clippath"><rect class="cls-4" x="27.38" y="18.83" width="267.3" height="182.52"/></clipPath><linearGradient id="linear-gradient" x1="-664.74" y1="215.75" x2="-664.74" y2="203.91" gradientTransform="translate(805.3 -111.38)" gradientUnits="userSpaceOnUse"><stop offset="0" stop-color="#231f20" stop-opacity="0"/><stop offset="1" stop-color="#231f20" stop-opacity=".2"/></linearGradient></defs><g class="cls-3"><polygon class="cls-1" points="27.38 168.83 27.38 18.83 247.38 18.83 27.38 168.83"/><g><path class="cls-2" d="M87.67,71.92c-1.37,.2-2.29,.73-2.9,1.08l-31.62-19.18-2.04-5.08,36.56,23.18Zm9.65,3.69l18.06,11.75,3.46-.44-20.06-13.92-1.45,2.6Zm14.8,12.17l-17.71-11.33-1.79,1.45,16.76,10.22,2.73-.35Zm-6.1,.77l-15.36-9.07-1.88,1.52,14.24,7.93,3.01-.38Zm11.29-26.63l-10.82-.86c-1.29-2.99-4.31-5.21-7.64-5.21-4.85,0-7.36,3.79-7.36,7.57,0,1.95,.81,2.9,1.39,4.67,.4,1.22-.28,1.81-.96,2.27-.69-2.51-3.9-4.89-5.39-5.88l-40.34-28.01,2.82,7.02c9.19,5.97,28.42,18.47,35.84,23.35,2.63,1.73,5.82,3.4,5.12,8.09l3.16-2.08c1.95-1.21,2.69-2.17,2.85-3.57,.09-.84-.04-1.53-.61-2.58-.48-.89-.97-2.13-1-3.25-.07-2.87,2.26-5.13,5.05-4.94,1.6,.11,3.28,1.23,3.99,2.43l-3.1-.33c-1.34-.09-2.56,.16-3,1.72-.23,.81,.17,1.92,.62,2.68,.59,1.01,1.19,2.38,1.21,3.99,.04,2.57-1.85,4.67-3.75,5.82-5.74,3.47-24.67,14.64-34.28,20.56-1.93,1.19-3.37,2.91-4.13,4.95l.59,2.2c.8-2.45,2.76-4.24,4.33-5.3,9.61-5.59,29.37-16.73,35.28-20.17,2.92-1.69,4.64-4.65,4.64-8.05,0-2.19-.88-4.18-1.82-5.59h17.31v-1.51Zm-11.92-.08l11.69,.79,.23-.71-11.92-2.25v2.17Zm-50.46-3.45l1.95,4.84,20.8,11.64c-3.19,2.78-7.77,7.92-9.14,12.07l2.05,.61,8.11-5.3-.5-.19-5.89,2.76c1.96-2.9,6.65-7.73,10.09-10.25l-27.45-16.17Z"/><polygon class="cls-2" points="98.85 55.85 88.56 55.85 88.56 56.97 95.77 58.09 98.85 55.85"/></g><rect class="cls-5" x="-25.53" y="92.54" width="332.18" height="11.84" transform="translate(-31.04 96.29) rotate(-34.29)"/></g></svg>