<svg width="117" height="32" viewBox="0 0 117 32" fill="none" xmlns="http://www.w3.org/2000/svg">
<path d="M35.089 31.447C30.9991 32.9682 25.9118 31.2475 23.4928 27.5566C22.1461 25.4868 21.7222 22.9181 22.0713 20.4991C22.5451 17.332 24.8394 14.489 27.034 12.2945L30.2261 15.5364C30.1014 15.4118 27.3332 18.7036 27.1088 19.0527C26.1611 20.5241 25.9866 22.3196 26.5352 23.9905C27.0839 25.6863 28.3058 27.008 29.7772 27.5566C31.2735 28.1053 33.0441 27.8559 34.5404 26.9332C36.0117 25.9855 37.0092 24.4892 37.1838 22.8932C37.5329 19.7759 35.4132 17.2572 33.3683 14.8132C32.9693 14.3644 32.5952 13.8905 32.246 13.4416C30.6001 11.3718 29.6525 9.40167 29.3034 7.43156C28.8046 4.43899 29.9767 2.36912 31.872 0C31.5727 3.01751 32.8446 6.4091 35.7374 10.3493C36.0616 10.7733 36.3608 11.2222 36.685 11.6461C38.8048 14.489 40.9993 17.4317 41.4482 20.8981C41.9969 25.2873 39.2038 29.9257 35.089 31.447Z" fill="#FF553B"/>
<path d="M43.4922 31.4976V11.971H48.2803V14.1905C49.5272 12.7441 51.4474 11.6469 54.0659 11.6469C58.3054 11.6469 62.2207 14.5646 62.2207 19.4774V31.5475H57.4326V20.6994C57.4326 17.8564 55.4375 16.0858 53.1183 16.0858C50.2005 16.0858 48.2803 18.455 48.2803 21.4226V31.4976H43.4922Z" fill="#052B47"/>
<path d="M81.8222 31.4962H77.0341V16.0844H70.625L70.65 31.4962H65.9366L65.8369 16.0844H62.4453V11.9696H65.8369V11.2215C65.8369 4.46323 74.1662 2.99188 80.4008 6.5331L78.4556 9.8748C74.1164 7.10667 70.4504 8.72765 70.4504 11.396V11.9696H81.8472L81.8222 31.4962Z" fill="#052B47"/>
<path d="M83.8406 31.4972V11.9707H88.6287V14.8884C89.7758 12.8684 92.12 11.3223 95.9356 11.8959V17.0082C92.2946 15.7862 88.6287 17.7064 88.6287 21.5469V31.4972H83.8406Z" fill="#052B47"/>
<path d="M111.325 19.8515C110.801 17.7068 108.881 15.8614 106.088 15.8614C103.294 15.8614 101.324 17.7068 100.826 19.8515H111.325ZM96.0375 21.7468C96.0375 16.0609 100.601 11.6469 106.112 11.6469C110.975 11.6469 115.065 15.1881 115.963 19.8266C116.212 20.9986 116.287 22.2705 115.988 23.5174H100.801C101.349 26.1359 103.494 27.5823 106.112 27.5823C107.958 27.5823 109.878 26.8342 111.125 25.5623L115.34 26.7095C113.744 29.9265 109.728 31.8218 106.112 31.8218C100.452 31.7969 96.0624 27.1833 96.0375 21.7468Z" fill="#052B47"/>
<path d="M15.7609 21.9211C15.7609 18.8288 13.2421 16.1604 10.1249 16.1604C7.00761 16.1604 4.43898 18.8288 4.43898 21.9211C4.43898 25.0134 7.00761 27.6319 10.1249 27.6319C13.1923 27.6568 15.7609 25.0383 15.7609 21.9211ZM4.76318 29.602V31.6968H0V5.88586H4.76318V14.3399C6.10984 12.8187 8.12983 11.871 10.5488 11.8211C16.0103 11.7463 20.1999 16.2601 20.1999 21.9211C20.1999 27.582 16.2098 31.9961 10.5488 31.9961C8.10489 31.9961 6.10984 31.0484 4.76318 29.602Z" fill="#052B47"/>
</svg>
