<svg width="154" height="40" viewBox="0 0 154 40" fill="none" xmlns="http://www.w3.org/2000/svg">
<g id="Distributed_Ventures-Logo-Without_Clear_Space-RGB_Multicolor" clip-path="url(#clip0_2444_395)">
<path id="Vector" d="M20.4321 39.2413C20.4321 39.5785 20.7141 39.8482 21.0513 39.8375C31.7455 39.5111 40.3126 30.754 40.3126 20C40.3126 9.24594 31.7455 0.488855 21.0513 0.162419C20.7126 0.151691 20.4321 0.421422 20.4321 0.758587V39.2413Z" fill="#282828"/>
<g id="Group">
<path id="Vector_2" d="M80.388 11.2107C80.388 12.4735 80.175 13.5724 79.7489 14.5103C79.3229 15.4482 78.6685 16.1777 77.7888 16.6988C76.9076 17.2199 75.7964 17.4804 74.4555 17.4804H70.1597V5.11414H74.1152C78.2976 5.11414 80.3895 7.14632 80.3895 11.2092L80.388 11.2107ZM74.2164 15.3088C75.1022 15.3088 75.8133 15.1647 76.3466 14.8751C76.88 14.5854 77.2677 14.1456 77.5053 13.5555C77.7443 12.9655 77.8639 12.213 77.8639 11.298C77.8639 10.3831 77.7443 9.59689 77.5053 9.00532C77.2662 8.41529 76.8539 7.96624 76.2685 7.65973C75.683 7.35322 74.8846 7.19996 73.8731 7.19996H72.6792V15.3103H74.2133L74.2164 15.3088Z" fill="#282828"/>
<path id="Vector_3" d="M84.1887 17.4789H81.7856V8.51802H84.1887V17.4789ZM84.2056 7.33794H81.8025V5.11572H84.2056V7.33794Z" fill="#282828"/>
<path id="Vector_4" d="M86.7081 17.0268C86.0323 16.5057 85.6368 15.7655 85.5234 14.8045L87.7227 14.7172C87.8698 15.6429 88.4951 16.1057 89.5985 16.1057C90.0752 16.1057 90.4598 16.0214 90.7495 15.8544C91.0392 15.6873 91.1847 15.4406 91.1847 15.1157C91.1847 14.872 91.0943 14.6819 90.9119 14.5425C90.7296 14.403 90.4338 14.2942 90.0246 14.213L88.2851 13.8651C87.433 13.6919 86.7939 13.3854 86.3679 12.944C85.9418 12.5042 85.7288 11.9371 85.7288 11.2429C85.7288 10.6528 85.8759 10.1348 86.1717 9.68884C86.4675 9.24286 86.8844 8.89957 87.4254 8.65589C87.9648 8.41221 88.5932 8.29114 89.3089 8.29114C90.0246 8.29114 90.6391 8.40608 91.1847 8.63903C91.7303 8.87045 92.1702 9.20302 92.5058 9.63826C92.8414 10.072 93.0422 10.5793 93.1112 11.157L90.9457 11.2444C90.889 10.8505 90.7096 10.544 90.4093 10.3233C90.1073 10.1042 89.7303 9.99382 89.2752 9.99382C88.8767 9.99382 88.5595 10.0812 88.3204 10.2544C88.0813 10.4275 87.9618 10.6605 87.9618 10.9486C87.9618 11.4007 88.2913 11.7011 88.9503 11.8513L90.843 12.2513C91.7181 12.4367 92.3664 12.7371 92.7863 13.154C93.2062 13.5708 93.4177 14.1256 93.4177 14.8214C93.4177 15.4467 93.2583 15.9816 92.9411 16.4275C92.6223 16.8735 92.1686 17.2153 91.5771 17.4528C90.9855 17.6904 90.2989 17.8084 89.5142 17.8084C88.3204 17.8084 87.3855 17.5478 86.7097 17.0268H86.7081Z" fill="#282828"/>
<path id="Vector_5" d="M97.4807 10.2728V14.6666C97.4807 14.9685 97.5466 15.1846 97.6768 15.318C97.8071 15.4513 98.0201 15.5172 98.3159 15.5172H99.1174V17.4789H97.5496C96.9581 17.4789 96.4814 17.3946 96.1182 17.2275C95.755 17.0605 95.4899 16.7908 95.3259 16.4199C95.1604 16.049 95.0791 15.5632 95.0791 14.9609V10.2728L93.8853 10.3249V8.51797L95.0791 8.55322V5.75781H97.4822V8.57161L99.119 8.5195V10.3264L97.4822 10.2743L97.4807 10.2728Z" fill="#282828"/>
<path id="Vector_6" d="M105.452 8.34479V10.567C105.225 10.544 105.059 10.5318 104.957 10.5318C104.229 10.5318 103.683 10.7463 103.32 11.1739C102.957 11.603 102.774 12.2513 102.774 13.1187V17.4774H100.371V8.51644H102.724L102.69 9.75015C102.883 9.27506 103.156 8.91031 103.508 8.6559C103.861 8.40149 104.281 8.27429 104.77 8.27429C105.009 8.27429 105.235 8.29728 105.452 8.34326V8.34479Z" fill="#282828"/>
<path id="Vector_7" d="M108.786 17.4789H106.383V8.51802H108.786V17.4789ZM108.803 7.33794H106.4V5.11572H108.803V7.33794Z" fill="#282828"/>
<path id="Vector_8" d="M117.306 8.85666C117.851 9.23214 118.284 9.77467 118.601 10.4797C118.92 11.1862 119.077 12.0138 119.077 12.9624C119.077 13.9111 118.915 14.7509 118.592 15.4804C118.268 16.2099 117.819 16.7739 117.245 17.1739C116.67 17.5739 116.02 17.7731 115.292 17.7731C114.19 17.7731 113.336 17.3042 112.734 16.3662L112.648 17.4774H110.518V5.11414H112.921V9.42065C113.523 8.66816 114.376 8.29115 115.479 8.29115C116.15 8.29115 116.757 8.47965 117.303 8.85513L117.306 8.85666ZM115.815 15.2996C116.115 15.085 116.348 14.7785 116.513 14.3785C116.677 13.9785 116.76 13.508 116.76 12.9639C116.76 12.4199 116.677 11.9647 116.513 11.5662C116.348 11.1662 116.115 10.8597 115.815 10.6452C115.513 10.4306 115.169 10.3233 114.783 10.3233C114.397 10.3233 114.052 10.4306 113.752 10.6452C113.45 10.8597 113.217 11.1662 113.053 11.5662C112.887 11.9662 112.806 12.4321 112.806 12.9639C112.806 13.4957 112.889 13.9632 113.053 14.3616C113.217 14.7616 113.451 15.0712 113.752 15.2904C114.052 15.5111 114.397 15.6199 114.783 15.6199C115.169 15.6199 115.513 15.5126 115.815 15.298V15.2996Z" fill="#282828"/>
<path id="Vector_9" d="M125.741 8.51801H128.144V17.4789H125.792L125.758 16.2636C125.475 16.7494 125.122 17.1111 124.701 17.3487C124.281 17.5862 123.786 17.7042 123.217 17.7042C122.615 17.7042 122.097 17.574 121.666 17.3134C121.234 17.0529 120.904 16.6851 120.678 16.21C120.451 15.7349 120.337 15.174 120.337 14.5257V8.51648H122.74V13.9694C122.74 14.4444 122.848 14.8169 123.064 15.0897C123.28 15.3625 123.597 15.4973 124.019 15.4973C124.359 15.4973 124.661 15.4084 124.923 15.2276C125.185 15.0483 125.386 14.7939 125.528 14.4628C125.671 14.1333 125.741 13.7487 125.741 13.3088V8.51648V8.51801Z" fill="#282828"/>
<path id="Vector_10" d="M132.717 10.2728V14.6666C132.717 14.9685 132.783 15.1846 132.914 15.318C133.044 15.4513 133.257 15.5172 133.553 15.5172H134.354V17.4789H132.786C132.195 17.4789 131.718 17.3946 131.355 17.2275C130.992 17.0605 130.727 16.7908 130.563 16.4199C130.397 16.049 130.316 15.5632 130.316 14.9609V10.2728L129.122 10.3249V8.51797L130.316 8.55322V5.75781H132.719V8.57161L134.356 8.5195V10.3264L132.719 10.2743L132.717 10.2728Z" fill="#282828"/>
<path id="Vector_11" d="M143.695 13.7287H137.32C137.366 14.4 137.57 14.9272 137.933 15.3088C138.296 15.6904 138.779 15.882 139.383 15.882C140.235 15.882 140.803 15.4943 141.087 14.7188L143.473 14.892C143.177 15.8529 142.684 16.5732 141.99 17.0544C141.297 17.5341 140.443 17.7747 139.432 17.7747C138.488 17.7747 137.669 17.5663 136.977 17.1494C136.284 16.7326 135.755 16.1625 135.39 15.4391C135.027 14.7157 134.845 13.8912 134.845 12.964C134.845 12.0368 135.021 11.2904 135.373 10.5854C135.726 9.87893 136.229 9.32108 136.882 8.90882C137.534 8.49809 138.299 8.29272 139.174 8.29272C140.049 8.29272 140.828 8.49502 141.51 8.90115C142.192 9.30575 142.725 9.88506 143.113 10.6376C143.499 11.39 143.692 12.282 143.692 13.3119V13.7287H143.695ZM137.916 10.6115C137.564 10.9655 137.36 11.4483 137.301 12.0613H141.205C141.137 11.436 140.932 10.9502 140.592 10.6023C140.252 10.2544 139.807 10.0812 139.262 10.0812C138.716 10.0812 138.267 10.2575 137.914 10.6115H137.916Z" fill="#282828"/>
<path id="Vector_12" d="M150.7 5.11414H153.103V17.4789H150.973L150.887 16.3678C150.285 17.3057 149.433 17.7747 148.329 17.7747C147.601 17.7747 146.952 17.5754 146.377 17.1754C145.802 16.7754 145.355 16.2115 145.03 15.482C144.706 14.7524 144.544 13.9141 144.544 12.9639C144.544 12.0138 144.703 11.1862 145.021 10.4812C145.339 9.77467 145.77 9.23368 146.316 8.8582C146.861 8.48272 147.47 8.29421 148.139 8.29421C149.241 8.29421 150.093 8.66969 150.697 9.42372V5.1172L150.7 5.11414ZM149.873 15.2904C150.173 15.0712 150.406 14.7601 150.572 14.3616C150.736 13.9616 150.818 13.4957 150.818 12.9639C150.818 12.4321 150.736 11.9647 150.572 11.5662C150.406 11.1662 150.173 10.8597 149.873 10.6452C149.571 10.4306 149.227 10.3233 148.841 10.3233C148.455 10.3233 148.11 10.4306 147.81 10.6452C147.508 10.8597 147.275 11.1662 147.111 11.5662C146.945 11.9662 146.864 12.4321 146.864 12.9639C146.864 13.4957 146.947 13.98 147.111 14.3785C147.275 14.7785 147.509 15.085 147.81 15.2996C148.11 15.5141 148.455 15.6214 148.841 15.6214C149.227 15.6214 149.571 15.5111 149.873 15.2919V15.2904Z" fill="#282828"/>
<path id="Vector_13" d="M76.3633 27.8635L77.9312 22.4796H80.607L76.4813 34.8444H74.0951L69.9863 22.4796H72.6622L74.2821 27.8635L75.3227 31.9447L76.3633 27.8635Z" fill="#282828"/>
<path id="Vector_14" d="M89.0654 31.0942H82.6899C82.7359 31.7655 82.9397 32.2927 83.303 32.6743C83.6662 33.0559 84.1489 33.2475 84.7528 33.2475C85.6049 33.2475 86.1735 32.8597 86.457 32.0843L88.8432 32.2574C88.5474 33.2184 88.0539 33.9387 87.3597 34.4199C86.667 34.8996 85.8133 35.1402 84.8018 35.1402C83.8578 35.1402 83.0394 34.9318 82.3466 34.5149C81.6539 34.0981 81.1252 33.5279 80.7604 32.8046C80.3972 32.0812 80.2148 31.2567 80.2148 30.3295C80.2148 29.4023 80.3911 28.6559 80.7436 27.9509C81.0961 27.2444 81.5987 26.6866 82.2516 26.2743C82.9045 25.8636 83.6692 25.6582 84.5443 25.6582C85.4194 25.6582 86.198 25.8605 86.88 26.2666C87.562 26.6712 88.0953 27.2505 88.483 28.003C88.8692 28.7555 89.0624 29.6475 89.0624 30.6774V31.0942H89.0654ZM83.2861 27.977C82.9336 28.331 82.7298 28.8138 82.6715 29.4268H86.575C86.5076 28.8015 86.3022 28.3157 85.962 27.9678C85.6217 27.6199 85.1773 27.4467 84.6317 27.4467C84.0861 27.4467 83.6371 27.623 83.2846 27.977H83.2861Z" fill="#282828"/>
<path id="Vector_15" d="M96.7912 26.049C97.2233 26.3095 97.5528 26.6774 97.7797 27.1509C98.0065 27.626 98.1199 28.1869 98.1199 28.8352V34.8444H95.7168V29.3915C95.7168 28.9164 95.608 28.544 95.3935 28.2712C95.1774 28 94.8586 27.8636 94.4387 27.8636C94.0984 27.8636 93.7965 27.954 93.5344 28.1333C93.2724 28.3126 93.0716 28.567 92.9291 28.898C92.7866 29.2276 92.7161 29.6138 92.7161 30.0521V34.8444H90.313V25.8835H92.6655L92.6992 27.0988C92.9827 26.613 93.3352 26.2513 93.7567 26.0138C94.1766 25.7762 94.6716 25.6582 95.2402 25.6582C95.8425 25.6582 96.359 25.7885 96.7912 26.049Z" fill="#282828"/>
<path id="Vector_16" d="M102.566 27.6382V32.0321C102.566 32.334 102.632 32.5501 102.762 32.6834C102.892 32.8168 103.105 32.8827 103.401 32.8827H104.202V34.8444H102.635C102.043 34.8444 101.566 34.7601 101.203 34.593C100.84 34.426 100.575 34.1562 100.411 33.7854C100.245 33.4145 100.164 32.9287 100.164 32.3264V27.6382L98.9702 27.6903V25.8834L100.164 25.9187V23.1233H102.567V25.9371L104.204 25.885V27.6919L102.567 27.6398L102.566 27.6382Z" fill="#282828"/>
<path id="Vector_17" d="M110.704 25.8835H113.107V34.8444H110.754L110.72 33.6291C110.437 34.1149 110.084 34.4766 109.663 34.7141C109.243 34.9517 108.748 35.0697 108.179 35.0697C107.577 35.0697 107.059 34.9394 106.629 34.6789C106.196 34.4184 105.867 34.0505 105.64 33.5754C105.413 33.1003 105.3 32.5394 105.3 31.8912V25.882H107.703V31.3348C107.703 31.8099 107.81 32.1823 108.026 32.4551C108.242 32.7279 108.56 32.8628 108.981 32.8628C109.321 32.8628 109.623 32.7739 109.885 32.5931C110.147 32.4138 110.348 32.1594 110.491 31.8283C110.633 31.4988 110.704 31.1141 110.704 30.6743V25.882V25.8835Z" fill="#282828"/>
<path id="Vector_18" d="M119.922 25.7103V27.9325C119.695 27.9095 119.529 27.8972 119.427 27.8972C118.699 27.8972 118.153 28.1118 117.79 28.5394C117.427 28.9685 117.244 29.6168 117.244 30.4842V34.8428H114.841V25.8819H117.194L117.16 27.1156C117.353 26.6405 117.626 26.2758 117.978 26.0214C118.331 25.767 118.751 25.6398 119.24 25.6398C119.479 25.6398 119.706 25.6628 119.922 25.7087V25.7103Z" fill="#282828"/>
<path id="Vector_19" d="M129.27 31.0942H122.895C122.941 31.7655 123.145 32.2927 123.508 32.6743C123.871 33.0559 124.354 33.2475 124.958 33.2475C125.81 33.2475 126.379 32.8597 126.662 32.0843L129.048 32.2574C128.752 33.2184 128.259 33.9387 127.565 34.4199C126.872 34.8996 126.018 35.1402 125.007 35.1402C124.063 35.1402 123.244 34.9318 122.552 34.5149C121.859 34.0981 121.33 33.5279 120.966 32.8046C120.602 32.0812 120.42 31.2567 120.42 30.3295C120.42 29.4023 120.596 28.6559 120.949 27.9509C121.301 27.2444 121.804 26.6866 122.457 26.2743C123.11 25.8636 123.874 25.6582 124.749 25.6582C125.625 25.6582 126.403 25.8605 127.085 26.2666C127.767 26.6712 128.3 27.2505 128.688 28.003C129.074 28.7555 129.267 29.6475 129.267 30.6774V31.0942H129.27ZM123.491 27.977C123.139 28.331 122.935 28.8138 122.877 29.4268H126.78C126.713 28.8015 126.507 28.3157 126.167 27.9678C125.827 27.6199 125.382 27.4467 124.837 27.4467C124.291 27.4467 123.842 27.623 123.49 27.977H123.491Z" fill="#282828"/>
<path id="Vector_20" d="M131.249 34.3938C130.573 33.8728 130.178 33.1325 130.064 32.1716L132.264 32.0843C132.411 33.0099 133.036 33.4728 134.14 33.4728C134.616 33.4728 135.001 33.3885 135.291 33.2214C135.58 33.0544 135.726 32.8076 135.726 32.4827C135.726 32.239 135.635 32.049 135.453 31.9095C135.271 31.7701 134.975 31.6613 134.566 31.58L132.826 31.2321C131.974 31.059 131.335 30.7525 130.909 30.3111C130.483 29.8712 130.27 29.3042 130.27 28.6099C130.27 28.0199 130.417 27.5019 130.713 27.0559C131.009 26.6099 131.425 26.2666 131.966 26.023C132.506 25.7793 133.134 25.6582 133.85 25.6582C134.566 25.6582 135.18 25.7731 135.726 26.0061C136.271 26.2375 136.711 26.5701 137.047 27.0053C137.382 27.439 137.583 27.9463 137.652 28.5241L135.487 28.6115C135.43 28.2176 135.251 27.9111 134.95 27.6904C134.648 27.4712 134.271 27.3609 133.816 27.3609C133.418 27.3609 133.1 27.4482 132.861 27.6214C132.622 27.7946 132.503 28.0276 132.503 28.3157C132.503 28.7678 132.832 29.0682 133.491 29.2184L135.384 29.6184C136.259 29.8038 136.907 30.1042 137.327 30.521C137.747 30.9379 137.959 31.4927 137.959 32.1885C137.959 32.8138 137.799 33.3486 137.482 33.7946C137.163 34.2406 136.71 34.5823 136.118 34.8199C135.527 35.0574 134.84 35.1754 134.055 35.1754C132.861 35.1754 131.927 34.9149 131.251 34.3938H131.249Z" fill="#282828"/>
</g>
<path id="Vector_21" d="M17.4499 0.153198H0.749489C0.420234 0.153198 0.15332 0.420112 0.15332 0.749367V39.2505C0.15332 39.5798 0.420234 39.8467 0.749489 39.8467H17.4499C17.7791 39.8467 18.046 39.5798 18.046 39.2505V0.749367C18.046 0.420112 17.7791 0.153198 17.4499 0.153198Z" fill="#282828"/>
<path id="Vector_22" d="M40.0169 0.153198H31.1847C30.9793 0.153198 30.9088 0.425995 31.0897 0.524079C32.9058 1.52331 34.5901 2.78155 36.0981 4.28193C40.3173 8.47963 42.6422 14.0628 42.6422 19.9999C42.6422 25.9371 40.3188 31.5187 36.0981 35.7179C34.5901 37.2183 32.9058 38.4766 31.0897 39.4758C30.9088 39.5754 30.9793 39.8467 31.1847 39.8467H40.0138C40.1717 39.8467 40.3234 39.7838 40.4353 39.6735L59.7839 20.4199C60.0184 20.1869 60.0184 19.8099 59.7839 19.577L40.4383 0.326378C40.3265 0.214501 40.1747 0.153198 40.0169 0.153198Z" fill="#282828"/>
</g>
<defs>
<clipPath id="clip0_2444_395">
<rect width="153.257" height="40" fill="white"/>
</clipPath>
</defs>
</svg>
