<svg width="1200" height="501" viewBox="0 0 1200 501" fill="none" xmlns="http://www.w3.org/2000/svg">
<path d="M1050.01 305.955C1039.66 305.955 1030.72 303.595 1023.2 298.874C1015.67 294.153 1009.96 287.679 1006.06 279.451C1002.17 271.223 1000.22 261.984 1000.22 251.733C1000.22 241.482 1002.17 232.31 1006.06 224.217C1010.1 215.99 1015.81 209.515 1023.2 204.794C1030.72 200.074 1039.66 197.713 1050.01 197.713C1056.86 197.713 1063.51 199.399 1069.96 202.771C1076.42 206.008 1081.25 210.19 1084.48 215.315V156.844H1100V304.337H1084.48V288.353C1082.19 293.209 1077.83 297.39 1071.38 300.897C1064.93 304.269 1057.8 305.955 1050.01 305.955ZM1051.22 291.995C1058.07 291.995 1064.12 290.377 1069.36 287.139C1074.74 283.767 1078.83 279.047 1081.66 272.977C1084.61 266.907 1086.09 259.826 1086.09 251.733C1086.09 243.775 1084.61 236.761 1081.66 230.692C1078.83 224.622 1074.74 219.969 1069.36 216.731C1064.12 213.359 1058.07 211.673 1051.22 211.673C1044.36 211.673 1038.25 213.359 1032.87 216.731C1027.63 219.969 1023.53 224.622 1020.58 230.692C1017.76 236.761 1016.35 243.775 1016.35 251.733C1016.35 259.691 1017.76 266.772 1020.58 272.977C1023.53 279.047 1027.63 283.767 1032.87 287.139C1038.25 290.377 1044.36 291.995 1051.22 291.995Z" fill="#346021"/>
<path d="M943.132 305.955C933.322 305.955 924.52 303.662 916.725 299.076C909.065 294.356 903.018 287.881 898.583 279.654C894.283 271.426 892.133 262.119 892.133 251.733C892.133 241.347 894.283 232.108 898.583 224.015C903.018 215.787 909.065 209.38 916.725 204.795C924.52 200.074 933.322 197.713 943.132 197.713C952.942 197.713 961.744 200.006 969.539 204.592C977.333 209.178 983.38 215.585 987.681 223.813C992.115 232.04 994.333 241.347 994.333 251.733C994.333 262.119 992.115 271.426 987.681 279.654C983.38 287.881 977.333 294.356 969.539 299.076C961.744 303.662 952.942 305.955 943.132 305.955ZM943.132 291.995C949.986 291.995 956.1 290.309 961.476 286.937C966.851 283.43 971.017 278.642 973.973 272.572C976.93 266.368 978.408 259.421 978.408 251.733C978.408 244.045 976.93 237.166 973.973 231.096C971.017 225.027 966.784 220.306 961.274 216.934C955.899 213.427 949.851 211.673 943.132 211.673C936.278 211.673 930.164 213.427 924.788 216.934C919.547 220.306 915.449 225.027 912.492 231.096C909.67 237.166 908.259 244.045 908.259 251.733C908.259 259.556 909.67 266.503 912.492 272.572C915.449 278.642 919.547 283.43 924.788 286.937C930.164 290.309 936.278 291.995 943.132 291.995Z" fill="#346021"/>
<path d="M835.249 305.955C825.439 305.955 816.637 303.662 808.843 299.076C801.183 294.356 795.135 287.881 790.701 279.654C786.4 271.426 784.25 262.119 784.25 251.733C784.25 241.347 786.4 232.108 790.701 224.015C795.135 215.787 801.183 209.38 808.843 204.795C816.637 200.074 825.439 197.713 835.249 197.713C845.059 197.713 853.862 200.006 861.656 204.592C869.45 209.178 875.498 215.585 879.798 223.813C884.233 232.04 886.45 241.347 886.45 251.733C886.45 262.119 884.233 271.426 879.798 279.654C875.498 287.881 869.45 294.356 861.656 299.076C853.862 303.662 845.059 305.955 835.249 305.955ZM835.249 291.995C842.103 291.995 848.217 290.309 853.593 286.937C858.968 283.43 863.134 278.642 866.091 272.572C869.047 266.368 870.525 259.421 870.525 251.733C870.525 244.045 869.047 237.166 866.091 231.096C863.134 225.027 858.901 220.306 853.391 216.934C848.016 213.427 841.968 211.673 835.249 211.673C828.396 211.673 822.281 213.427 816.906 216.934C811.665 220.306 807.566 225.027 804.609 231.096C801.787 237.166 800.376 244.045 800.376 251.733C800.376 259.556 801.787 266.503 804.609 272.572C807.566 278.642 811.665 283.43 816.906 286.937C822.281 290.309 828.396 291.995 835.249 291.995Z" fill="#346021"/>
<path d="M638.668 199.332H654.593L672.735 262.052C675.422 271.089 677.371 279.114 678.58 286.128C679.924 279.114 682.007 271.089 684.829 262.052L703.979 199.332H719.501L738.852 262.456C741.674 271.493 743.757 279.519 745.101 286.532C746.445 279.519 748.394 271.426 750.947 262.254L768.887 199.332H784.61L752.559 304.337H736.836L717.888 242.426C715.2 233.389 713.117 225.364 711.639 218.35C710.161 225.364 708.011 233.389 705.189 242.426L686.24 304.337H670.92L638.668 199.332Z" fill="#346021"/>
<path d="M583.076 343.789C573.535 343.789 565.337 342.441 558.484 339.743C551.63 337.045 546.187 333.066 542.156 327.806C538.259 322.546 535.907 316.139 535.101 308.586H550.824C551.63 315.464 554.721 320.792 560.096 324.569C565.606 328.346 573.266 330.234 583.076 330.234C593.289 330.234 601.151 327.604 606.661 322.343C612.305 317.083 615.127 309.53 615.127 299.683V284.509C612.708 288.96 608.341 292.602 602.025 295.435C595.708 298.267 588.72 299.683 581.06 299.683C570.847 299.683 561.978 297.525 554.452 293.209C547.061 288.758 541.417 282.688 537.52 275C533.622 267.177 531.674 258.477 531.674 248.901C531.674 239.054 533.622 230.287 537.52 222.599C541.417 214.911 546.994 208.841 554.251 204.39C561.642 199.939 570.444 197.713 580.657 197.713C587.645 197.713 594.297 199.264 600.613 202.367C607.064 205.469 611.902 209.448 615.127 214.304V199.332H630.649V298.469C630.649 308.046 628.767 316.206 625.004 322.95C621.376 329.829 616.001 335.022 608.878 338.529C601.756 342.036 593.155 343.789 583.076 343.789ZM582.068 285.723C589.056 285.723 595.104 284.239 600.21 281.272C605.451 278.17 609.416 273.854 612.103 268.324C614.926 262.659 616.337 256.184 616.337 248.901C616.337 237.705 613.246 228.736 607.064 221.992C600.882 215.113 592.55 211.673 582.068 211.673C575.349 211.673 569.369 213.225 564.128 216.327C558.887 219.294 554.855 223.61 552.033 229.275C549.211 234.94 547.8 241.482 547.8 248.901C547.8 260.096 550.891 269.065 557.073 275.809C563.254 282.419 571.586 285.723 582.068 285.723Z" fill="#346021"/>
<path d="M474.591 305.955C464.781 305.955 455.979 303.662 448.184 299.076C440.524 294.356 434.477 287.881 430.042 279.654C425.742 271.426 423.592 262.119 423.592 251.733C423.592 241.347 425.742 232.108 430.042 224.015C434.477 215.787 440.524 209.38 448.184 204.795C455.979 200.074 464.781 197.713 474.591 197.713C484.401 197.713 493.203 200.006 500.998 204.592C508.792 209.178 514.839 215.585 519.14 223.813C523.574 232.04 525.792 241.347 525.792 251.733C525.792 262.119 523.574 271.426 519.14 279.654C514.839 287.881 508.792 294.356 500.998 299.076C493.203 303.662 484.401 305.955 474.591 305.955ZM474.591 291.995C481.445 291.995 487.559 290.309 492.935 286.937C498.31 283.43 502.476 278.642 505.432 272.572C508.389 266.368 509.867 259.421 509.867 251.733C509.867 244.045 508.389 237.166 505.432 231.096C502.476 225.027 498.243 220.306 492.733 216.934C487.358 213.427 481.31 211.673 474.591 211.673C467.737 211.673 461.623 213.427 456.247 216.934C451.006 220.306 446.908 225.027 443.951 231.096C441.129 237.166 439.718 244.045 439.718 251.733C439.718 259.556 441.129 266.503 443.951 272.572C446.908 278.642 451.006 283.43 456.247 286.937C461.623 290.309 467.737 291.995 474.591 291.995Z" fill="#346021"/>
<path d="M360.973 305.955C350.626 305.955 341.689 303.595 334.163 298.874C326.638 294.153 320.927 287.679 317.029 279.451C313.132 271.223 311.184 261.984 311.184 251.733C311.184 241.482 313.132 232.31 317.029 224.217C321.061 215.99 326.772 209.515 334.163 204.794C341.689 200.074 350.626 197.713 360.973 197.713C367.827 197.713 374.479 199.399 380.93 202.771C387.38 206.008 392.218 210.19 395.443 215.315V156.844H410.965V304.337H395.443V288.353C393.159 293.209 388.791 297.39 382.341 300.897C375.89 304.269 368.768 305.955 360.973 305.955ZM362.183 291.995C369.036 291.995 375.084 290.377 380.325 287.139C385.7 283.767 389.799 279.047 392.621 272.977C395.578 266.907 397.056 259.826 397.056 251.733C397.056 243.775 395.578 236.761 392.621 230.692C389.799 224.622 385.7 219.969 380.325 216.731C375.084 213.359 369.036 211.673 362.183 211.673C355.329 211.673 349.215 213.359 343.839 216.731C338.598 219.969 334.499 224.622 331.543 230.692C328.721 236.761 327.31 243.775 327.31 251.733C327.31 259.691 328.721 266.772 331.543 272.977C334.499 279.047 338.598 283.767 343.839 287.139C349.215 290.377 355.329 291.995 362.183 291.995Z" fill="#346021"/>
<path fill-rule="evenodd" clip-rule="evenodd" d="M242.552 181.661C242.307 181.25 242.117 180.815 241.984 180.367C241.265 179.272 240.478 178.217 239.625 177.21C237.409 174.59 234.808 172.36 231.932 170.584C231.481 170.463 231.041 170.285 230.625 170.052C218.365 163.175 202.578 164.967 192.157 175.426C180.722 186.903 179.685 204.864 189.046 217.517L210.879 195.603C212.52 193.956 215.186 193.956 216.827 195.603C218.46 197.241 218.46 199.891 216.827 201.529L194.87 223.568C207.512 233.694 225.989 232.882 237.695 221.133C248.362 210.427 249.981 194.079 242.552 181.661ZM244.117 227.579C252.202 219.464 256.232 208.822 256.209 198.187C256.208 197.705 256.2 197.222 256.183 196.739C255.853 187.439 252.408 178.522 246.405 171.429C240.402 164.337 232.192 159.483 223.101 157.652C220.364 157.101 217.595 156.834 214.837 156.845C204.301 156.867 193.773 160.913 185.735 168.981C182.57 172.157 180.027 175.721 178.105 179.519C176.182 175.72 173.639 172.157 170.474 168.981C162.425 160.901 151.878 156.856 141.328 156.844C138.589 156.838 135.839 157.105 133.122 157.652C124.031 159.483 115.82 164.337 109.817 171.429C107.581 174.071 105.7 176.966 104.202 180.04C96.649 195.507 99.2787 214.718 112.092 227.579C115.256 230.755 118.807 233.308 122.592 235.237C118.807 237.166 115.256 239.719 112.091 242.895C99.7432 255.289 96.8528 273.581 103.42 288.736C105.024 292.444 107.172 295.921 109.815 299.045C115.818 306.138 124.029 310.991 133.12 312.822C135.897 313.381 138.707 313.648 141.506 313.629C151.997 313.572 162.47 309.527 170.474 301.493C173.639 298.317 176.182 294.753 178.104 290.954C180.026 294.754 182.57 298.317 185.735 301.494C193.775 309.564 204.308 313.609 214.846 313.629C217.602 313.639 220.367 313.372 223.101 312.822C232.192 310.991 240.402 306.138 246.405 299.045C252.408 291.952 255.853 283.035 256.183 273.735C256.202 273.187 256.211 272.639 256.208 272.091C256.182 261.522 252.152 250.96 244.117 242.896C240.953 239.719 237.402 237.166 233.617 235.237C237.402 233.308 240.953 230.755 244.117 227.579ZM242.763 288.86C242.876 288.408 243.046 287.966 243.271 287.546C249.861 275.301 248.002 259.687 237.695 249.341C226.394 237.999 208.783 236.849 196.203 245.894L218.606 268.379C220.238 270.017 220.238 272.667 218.606 274.305C216.965 275.952 214.298 275.952 212.658 274.305L190.075 251.639C179.625 264.335 180.319 283.166 192.157 295.048C202.935 305.866 219.454 307.412 231.872 299.685C232.279 299.431 232.713 299.233 233.159 299.093C235.55 297.462 237.729 295.506 239.625 293.264C240.798 291.879 241.846 290.405 242.763 288.86ZM113.966 181.154C114.213 180.759 114.407 180.339 114.547 179.906C115.181 178.975 115.864 178.075 116.597 177.21C118.949 174.431 121.733 172.091 124.819 170.265C125.263 170.152 125.698 169.985 126.11 169.763C138.292 163.228 153.779 165.116 164.052 175.426C175.353 186.769 176.498 204.445 167.487 217.071L146.184 195.689C144.543 194.043 141.876 194.043 140.235 195.689C138.603 197.328 138.603 199.978 140.235 201.616L161.763 223.223C149.113 233.711 130.352 233.014 118.514 221.133C107.702 210.281 106.186 193.632 113.966 181.154ZM113.718 289.291C114.571 290.68 115.532 292.008 116.595 293.264C118.612 295.647 120.946 297.708 123.517 299.398C123.957 299.531 124.386 299.719 124.79 299.962C137.155 307.373 153.404 305.734 164.052 295.048C175.758 283.298 176.567 264.753 166.478 252.064L144.356 274.268C142.715 275.915 140.049 275.915 138.408 274.268C136.776 272.629 136.776 269.98 138.408 268.341L160.449 246.219C147.843 236.823 129.948 237.864 118.514 249.341C108.073 259.82 106.301 275.704 113.196 288.018C113.423 288.424 113.598 288.852 113.718 289.291ZM187.386 243.123C182.26 248.268 173.949 248.268 168.823 243.123C163.696 237.978 163.696 229.636 168.823 224.491C173.949 219.346 182.26 219.346 187.386 224.491C192.512 229.636 192.512 237.978 187.386 243.123Z" fill="#346021"/>
</svg>
