<svg width="322" height="120" fill="none" xmlns="http://www.w3.org/2000/svg"><g clip-path="url(#a)" fill="#fff"><g clip-path="url(#b)"><path d="M19.551 49.898c8.12 0 16.076-4.6 16.076-17.443 0-12.188-7.88-16.953-16.076-16.953h-6.688v34.396h6.688ZM.285 4.448h19.813c17.824 0 28.654 11.545 28.654 28.018 0 17.52-10.82 28.498-28.654 28.498H.285V4.448ZM84.323 39.639c0-6.454-4.294-11.066-10.185-11.066-5.814 0-10.109 4.6-10.109 11.066 0 6.54 4.295 11.065 10.11 11.065 5.89 0 10.184-4.6 10.184-11.065Zm-32.784 0c0-12.592 9.07-22.36 22.687-22.36 13.452 0 22.6 9.768 22.6 22.36 0 12.592-9.158 22.36-22.688 22.36-13.452.01-22.6-9.758-22.6-22.36ZM101.032 18.327h11.617v6.454h.634c1.432-3.15 5.169-6.78 10.819-6.78h4.054v11.784h-4.852c-6.043 0-9.944 4.437-9.944 11.785v19.373h-12.328V18.327ZM131.992 6.781c0-4.197 3.027-6.781 7.246-6.781 4.218 0 7.245 2.584 7.245 6.781 0 4.197-3.027 6.781-7.245 6.781-4.219 0-7.246-2.584-7.246-6.78ZM145.445 18.326h-12.338v42.626h12.338V18.326ZM151.488 47.555V.404h12.338v45.701c0 2.584 1.279 3.87 3.497 3.87h1.508v10.979h-4.218c-8.426 0-13.125-5.08-13.125-13.399ZM175.279 46.181V28.095h-6.765v-9.692h3.978c2.23 0 3.421-1.537 3.421-3.794V6.78h11.693v11.546h10.983v9.768h-10.983v17.443c0 3.15 1.749 5.091 5.409 5.091h5.41v10.336h-8.513c-9.136-.012-14.633-5.419-14.633-14.784ZM232.871 39.641c0-6.454-4.295-11.065-10.185-11.065-5.814 0-10.109 4.6-10.109 11.065 0 6.541 4.295 11.066 10.109 11.066 5.89 0 10.185-4.601 10.185-11.066Zm-32.785 0c0-12.592 9.071-22.36 22.687-22.36 13.453 0 22.6 9.768 22.6 22.36 0 12.592-9.158 22.36-22.676 22.36-13.453.011-22.611-9.757-22.611-22.36ZM249.427 18.328h11.617v4.688h.633c1.674-2.911 5.65-5.735 11.302-5.735 9.31 0 15.035 6.378 15.035 15.263v28.422h-12.338V36.425c0-4.36-2.545-7.511-6.763-7.511-4.296 0-7.159 3.63-7.159 8.154v23.898h-12.337V18.328h.01ZM293.697 43.64l7.213 17.379 17.125-7.326-7.213-17.367-17.125 7.315Z"/></g><path d="M.285 70.317h4.662l11.266 32.438h.389l11.654-32.438h4.662l-13.986 37.1h-5.05L.285 70.317ZM34.666 91.49c.389-5.051 4.468-8.353 8.936-8.353 4.662 0 8.546 2.913 8.935 8.352h-17.87Zm22.339 1.747c0-7.964-5.05-13.985-13.403-13.985-7.576 0-13.403 5.633-13.403 14.374 0 8.158 5.244 14.374 13.791 14.374 6.41 0 11.266-3.691 12.82-8.741h-4.273c-1.36 3.302-4.662 5.05-8.353 5.05-5.633 0-9.13-3.69-9.323-9.13h22.338v-1.942h-.194ZM61.084 79.835h4.079v4.079h.388c1.166-2.526 4.08-4.662 8.353-4.662 6.41 0 10.295 4.856 10.295 10.877v17.288h-4.273V90.324c0-4.468-3.303-7.187-6.993-7.187-4.274 0-7.77 3.302-7.77 7.964v16.316h-4.08V79.835ZM91.774 99.065v-15.54H86.53v-3.496h4.08c.777 0 1.36-.389 1.36-1.36V71.87h3.884v7.964h8.547v3.691h-8.547v15.54c0 2.913 1.166 4.661 4.274 4.661h3.885v3.691h-4.08c-5.05 0-8.158-2.719-8.158-8.352ZM107.896 97.122V79.834h4.079v17.094c0 4.467 3.303 7.187 6.993 7.187 4.274 0 7.77-3.302 7.77-7.964V79.64h4.273v27.582h-4.273v-4.079h-.194c-1.166 2.525-4.079 4.662-8.353 4.662-6.41.194-10.295-4.468-10.295-10.684ZM136.645 79.835h4.079v5.05h.388c.777-2.331 3.497-5.05 7.576-5.05h2.331v4.273h-2.331c-5.051 0-7.77 3.885-7.77 9.13v14.179h-4.079V79.835h-.194ZM156.263 91.49c.389-5.051 4.468-8.353 8.936-8.353 4.662 0 8.546 2.913 8.935 8.352h-17.871Zm22.144 1.747c0-7.964-5.05-13.985-13.403-13.985-7.575 0-13.402 5.633-13.402 14.374 0 8.158 5.244 14.374 13.791 14.374 6.41 0 11.266-3.691 12.82-8.741h-4.273c-1.36 3.302-4.662 5.05-8.353 5.05-5.633 0-9.129-3.69-9.324-9.13h22.339v-1.942h-.195ZM180.933 99.453h4.079c.388 3.302 2.719 5.051 6.798 5.051 4.079 0 6.41-1.943 6.41-4.857 0-7.77-16.51-1.942-16.51-12.82 0-4.662 4.273-7.575 9.906-7.575 5.05 0 9.324 2.913 9.712 7.964h-4.079c-.388-2.525-2.331-4.273-6.021-4.273-3.497 0-5.634 1.748-5.634 4.079 0 6.992 16.511 1.165 16.511 12.625 0 5.245-4.273 8.741-10.683 8.741-6.41-.388-10.101-3.884-10.489-8.935Z"/></g><defs><clipPath id="a"><path fill="#fff" transform="translate(.285)" d="M0 0h321.43v120H0z"/></clipPath><clipPath id="b"><path fill="#fff" transform="translate(.285)" d="M0 0h317.75v62H0z"/></clipPath></defs></svg>