<svg width="194" height="32" viewBox="0 0 194 32" fill="none" xmlns="http://www.w3.org/2000/svg">
<g clip-path="url(#clip0_1610_4379)">
<path d="M163.977 8.50796e-05H152.934V0.173287C152.935 1.39783 153.922 2.39028 155.139 2.39201H163.913L148.964 13.7333C148.244 14.2616 148.013 15.2384 148.421 16.0352C148.749 16.6639 149.399 17.0562 150.105 17.0519H161.106C161.2 17.0519 161.278 16.9739 161.278 16.8787C161.278 15.6524 151.777 14.6591 151.777 14.6591L165.423 4.23835C165.967 3.83305 166.311 3.21212 166.369 2.53404C166.399 2.12961 166.325 1.72518 166.154 1.35799C165.75 0.520558 164.903 -0.00770903 163.977 8.50796e-05Z" fill="url(#paint0_linear_1610_4379)"/>
<path d="M45.7982 0C44.5793 0 43.5912 0.994181 43.5912 2.22045V13.8501L31.641 0.704068L31.6307 0.692809C30.9291 -0.0095261 29.8678 -0.196585 28.9709 0.224297C28.1394 0.630457 27.6134 1.48261 27.6212 2.41271V17.0483H27.7933C29.0087 17.0466 29.9943 16.0576 29.9986 14.8348V2.44215L42.813 16.4975L42.8233 16.5079C43.1677 16.8569 43.6359 17.0526 44.124 17.0518C44.4166 17.0518 44.7059 16.9808 44.9667 16.8465C45.5856 16.5131 45.9703 15.8619 45.966 15.1552V0H45.7982Z" fill="url(#paint1_linear_1610_4379)"/>
<path d="M137.811 0C136.592 0 135.604 0.994181 135.604 2.22045V17.0518H135.776C136.995 17.0518 137.983 16.0576 137.983 14.8313V0H137.811Z" fill="url(#paint2_linear_1610_4379)"/>
<path d="M122.747 9.18925H120.404V9.36245C120.404 10.6156 121.412 11.6305 122.658 11.6314H122.747C122.849 11.6314 122.931 11.7137 122.931 11.8159V13.9263C122.931 13.9774 122.927 14.0277 122.915 14.077C122.844 14.3905 122.567 14.6139 122.247 14.6148H116.929C113.572 14.6148 110.817 11.9051 110.788 8.57438C110.772 6.95234 111.405 5.39179 112.545 4.24432C113.709 3.08647 115.283 2.43956 116.92 2.44648H122.059C123.304 2.44648 124.313 1.42979 124.312 0.177532C124.312 0.1758 124.312 0.174934 124.312 0.173202V0H116.836C112.156 0 108.361 3.81651 108.361 8.52589C108.361 8.54754 108.361 8.56919 108.361 8.59084C108.396 13.2569 112.235 17.0535 116.927 17.0535H122.245C123.961 17.0535 125.353 15.654 125.354 13.9272V11.8141C125.354 10.3653 124.188 9.19098 122.747 9.18925Z" fill="url(#paint3_linear_1610_4379)"/>
<path d="M96.2091 13.166C95.3853 11.7137 94.3877 9.97907 94.0253 9.40317C94.8121 9.11219 95.919 8.68438 96.5302 8.06952C97.477 7.1169 98.027 5.70184 98.027 4.19758V2.47508C98.027 1.11284 96.9296 0.00867851 95.5756 0.0078125H82.4315C82.1828 0.0078125 81.9805 0.211325 81.9805 0.461603V16.863C81.9805 16.9158 82.002 16.9669 82.039 17.0042C82.076 17.0405 82.1259 17.0613 82.1776 17.0613C83.3809 17.0613 84.3562 16.0793 84.3562 14.8686V2.59459C84.3562 2.4872 84.4423 2.4006 84.549 2.4006C84.549 2.4006 84.549 2.4006 84.5499 2.4006H95.5738C95.6143 2.4006 95.647 2.43438 95.6479 2.47508V5.29568C95.6479 6.61981 94.0856 7.41914 92.8305 8.06172C92.5396 8.21068 92.2642 8.35184 92.0257 8.48953C91.7856 8.62376 91.6031 8.84286 91.5136 9.1044C91.3896 9.48285 91.4809 9.8994 91.752 10.1895C92.3545 10.8434 93.1051 11.8064 93.8962 12.8257C95.8708 15.3735 97.2274 17.0431 98.052 17.0431C98.1174 17.0431 98.2577 16.837 97.5984 15.6428C97.2351 14.9846 96.7411 14.1013 96.2091 13.166Z" fill="url(#paint4_linear_1610_4379)"/>
<path d="M58.4219 0C57.203 0 56.2148 0.994181 56.2148 2.22045V2.39366H69.5267C70.7456 2.39366 71.7338 1.39947 71.7338 0.173202V0H58.4219Z" fill="url(#paint5_linear_1610_4379)"/>
<path d="M67.6571 9.72178C68.8743 9.72005 69.8607 8.72587 69.8607 7.50133V7.32812H58.4219C57.203 7.32812 56.2148 8.32231 56.2148 9.54858V9.72178H67.6571Z" fill="url(#paint6_linear_1610_4379)"/>
<path d="M58.4219 14.6649C57.203 14.6649 56.2157 15.6574 56.2148 16.8837V17.0577H69.5267C70.7456 17.0577 71.7338 16.0635 71.7338 14.8373V14.6641H58.4219V14.6649Z" fill="url(#paint7_linear_1610_4379)"/>
<path d="M0 0V0.173202C0.000860776 1.39861 0.989032 2.39192 2.20703 2.39192H17.373V0H0Z" fill="url(#paint8_linear_1610_4379)"/>
<path d="M3.72852 7.32812V7.50133C3.72938 8.7276 4.71841 9.72091 5.93727 9.72005C5.93727 9.72005 5.93813 9.72005 5.93899 9.72005H17.3735V7.32899H3.72852V7.32812Z" fill="url(#paint9_linear_1610_4379)"/>
<path d="M9.73242 14.6641V14.8373C9.73242 16.0635 10.7206 17.0577 11.9395 17.0577H17.3744V14.6649H9.73242V14.6641Z" fill="url(#paint10_linear_1610_4379)"/>
<path d="M176.631 0V2.39106H191.797C193.013 2.38846 193.998 1.39688 194 0.173202V0H176.631Z" fill="url(#paint11_linear_1610_4379)"/>
<path d="M176.631 7.33159V9.72178H188.07C189.289 9.72178 190.277 8.7276 190.277 7.50133V7.32812H176.631V7.33159Z" fill="url(#paint12_linear_1610_4379)"/>
<path d="M176.633 14.6597V17.0499H181.377C182.596 17.0499 183.584 16.0557 183.584 14.8295V14.6562H176.633V14.6597Z" fill="url(#paint13_linear_1610_4379)"/>
<path d="M47.3363 30.6579C48.2013 30.6579 48.6145 30.0907 48.6429 29.4291H50.1372C50.1183 30.8285 49.094 32.0011 47.3552 32.0011C45.3255 32.0011 44.3477 30.7151 44.3477 28.9943V28.124C44.3477 26.4032 45.3255 25.1172 47.3552 25.1172C49.094 25.1172 50.1183 26.2898 50.1372 27.6892H48.6429C48.6145 27.0276 48.2013 26.4604 47.3363 26.4604C46.3584 26.4604 45.9642 27.1125 45.9642 28.0486V29.0697C45.9642 30.0058 46.3584 30.6579 47.3363 30.6579Z" fill="#161D23"/>
<path d="M66.0072 30.6401H63.6297L63.263 31.8689H61.6465L63.9964 25.25H65.6508L67.9999 31.8689H66.3833L66.0072 30.6401ZM64.0239 29.335H65.6121L64.8228 26.7162L64.0239 29.335Z" fill="#161D23"/>
<path d="M81.5892 29.8736V31.8689H79.9727V25.25H82.7831C84.3333 25.25 85.3396 26.1481 85.3396 27.538C85.3396 28.928 84.3153 29.8736 82.7831 29.8736H81.5892ZM82.6884 26.6018H81.5892V28.5209H82.6884C83.4028 28.5209 83.7222 28.1052 83.7222 27.5371C83.7222 26.969 83.4028 26.601 82.6884 26.601V26.6018Z" fill="#161D23"/>
<path d="M98.9661 31.8689H97.3496V25.25H98.9661V31.8689Z" fill="#161D23"/>
<path d="M116.134 25.25V26.6209H114.357V31.8689H112.741V26.6209H110.965V25.25H116.134Z" fill="#161D23"/>
<path d="M131.292 30.6401H128.915L128.548 31.8689H126.932L129.282 25.25H130.936L133.285 31.8689H131.668L131.292 30.6401ZM129.309 29.335H130.897L130.108 26.7162L129.309 29.335Z" fill="#161D23"/>
<path d="M146.872 25.25V30.5171H149.777V31.8689H145.256V25.25H146.872Z" fill="#161D23"/>
</g>
<defs>
<linearGradient id="paint0_linear_1610_4379" x1="71.4387" y1="94.663" x2="183.092" y2="-16.3149" gradientUnits="userSpaceOnUse">
<stop stop-color="#841D80"/>
<stop offset="0.16" stop-color="#752888"/>
<stop offset="0.47" stop-color="#4F469E"/>
<stop offset="0.89" stop-color="#1275C0"/>
<stop offset="1" stop-color="#0083CA"/>
</linearGradient>
<linearGradient id="paint1_linear_1610_4379" x1="11.3826" y1="34.2404" x2="123.036" y2="-76.7374" gradientUnits="userSpaceOnUse">
<stop stop-color="#841D80"/>
<stop offset="0.16" stop-color="#752888"/>
<stop offset="0.47" stop-color="#4F469E"/>
<stop offset="0.89" stop-color="#1275C0"/>
<stop offset="1" stop-color="#0083CA"/>
</linearGradient>
<linearGradient id="paint2_linear_1610_4379" x1="61.3082" y1="84.4699" x2="172.962" y2="-26.5088" gradientUnits="userSpaceOnUse">
<stop stop-color="#841D80"/>
<stop offset="0.16" stop-color="#752888"/>
<stop offset="0.47" stop-color="#4F469E"/>
<stop offset="0.89" stop-color="#1275C0"/>
<stop offset="1" stop-color="#0083CA"/>
</linearGradient>
<linearGradient id="paint3_linear_1610_4379" x1="52.1268" y1="75.2322" x2="163.78" y2="-35.7457" gradientUnits="userSpaceOnUse">
<stop stop-color="#841D80"/>
<stop offset="0.16" stop-color="#752888"/>
<stop offset="0.47" stop-color="#4F469E"/>
<stop offset="0.89" stop-color="#1275C0"/>
<stop offset="1" stop-color="#0083CA"/>
</linearGradient>
<linearGradient id="paint4_linear_1610_4379" x1="37.9879" y1="61.0105" x2="149.641" y2="-49.9681" gradientUnits="userSpaceOnUse">
<stop stop-color="#841D80"/>
<stop offset="0.16" stop-color="#752888"/>
<stop offset="0.47" stop-color="#4F469E"/>
<stop offset="0.89" stop-color="#1275C0"/>
<stop offset="1" stop-color="#0083CA"/>
</linearGradient>
<linearGradient id="paint5_linear_1610_4379" x1="21.2561" y1="44.1744" x2="132.909" y2="-66.8034" gradientUnits="userSpaceOnUse">
<stop stop-color="#841D80"/>
<stop offset="0.16" stop-color="#752888"/>
<stop offset="0.47" stop-color="#4F469E"/>
<stop offset="0.89" stop-color="#1275C0"/>
<stop offset="1" stop-color="#0083CA"/>
</linearGradient>
<linearGradient id="paint6_linear_1610_4379" x1="24.4307" y1="47.3673" x2="136.084" y2="-63.6105" gradientUnits="userSpaceOnUse">
<stop stop-color="#841D80"/>
<stop offset="0.16" stop-color="#752888"/>
<stop offset="0.47" stop-color="#4F469E"/>
<stop offset="0.89" stop-color="#1275C0"/>
<stop offset="1" stop-color="#0083CA"/>
</linearGradient>
<linearGradient id="paint7_linear_1610_4379" x1="28.5426" y1="51.5085" x2="140.195" y2="-59.4702" gradientUnits="userSpaceOnUse">
<stop stop-color="#841D80"/>
<stop offset="0.16" stop-color="#752888"/>
<stop offset="0.47" stop-color="#4F469E"/>
<stop offset="0.89" stop-color="#1275C0"/>
<stop offset="1" stop-color="#0083CA"/>
</linearGradient>
<linearGradient id="paint8_linear_1610_4379" x1="-6.38782" y1="16.3624" x2="105.265" y2="-94.6154" gradientUnits="userSpaceOnUse">
<stop stop-color="#841D80"/>
<stop offset="0.16" stop-color="#752888"/>
<stop offset="0.47" stop-color="#4F469E"/>
<stop offset="0.89" stop-color="#1275C0"/>
<stop offset="1" stop-color="#0083CA"/>
</linearGradient>
<linearGradient id="paint9_linear_1610_4379" x1="-1.81316" y1="20.9626" x2="109.841" y2="-90.0143" gradientUnits="userSpaceOnUse">
<stop stop-color="#841D80"/>
<stop offset="0.16" stop-color="#752888"/>
<stop offset="0.47" stop-color="#4F469E"/>
<stop offset="0.89" stop-color="#1275C0"/>
<stop offset="1" stop-color="#0083CA"/>
</linearGradient>
<linearGradient id="paint10_linear_1610_4379" x1="3.33255" y1="26.1439" x2="114.985" y2="-84.8339" gradientUnits="userSpaceOnUse">
<stop stop-color="#841D80"/>
<stop offset="0.16" stop-color="#752888"/>
<stop offset="0.47" stop-color="#4F469E"/>
<stop offset="0.89" stop-color="#1275C0"/>
<stop offset="1" stop-color="#0083CA"/>
</linearGradient>
<linearGradient id="paint11_linear_1610_4379" x1="81.6029" y1="104.889" x2="193.256" y2="-6.08996" gradientUnits="userSpaceOnUse">
<stop stop-color="#841D80"/>
<stop offset="0.16" stop-color="#752888"/>
<stop offset="0.47" stop-color="#4F469E"/>
<stop offset="0.89" stop-color="#1275C0"/>
<stop offset="1" stop-color="#0083CA"/>
</linearGradient>
<linearGradient id="paint12_linear_1610_4379" x1="84.3135" y1="107.617" x2="195.967" y2="-3.36124" gradientUnits="userSpaceOnUse">
<stop stop-color="#841D80"/>
<stop offset="0.16" stop-color="#752888"/>
<stop offset="0.47" stop-color="#4F469E"/>
<stop offset="0.89" stop-color="#1275C0"/>
<stop offset="1" stop-color="#0083CA"/>
</linearGradient>
<linearGradient id="paint13_linear_1610_4379" x1="86.2857" y1="109.596" x2="197.939" y2="-1.3816" gradientUnits="userSpaceOnUse">
<stop stop-color="#841D80"/>
<stop offset="0.16" stop-color="#752888"/>
<stop offset="0.47" stop-color="#4F469E"/>
<stop offset="0.89" stop-color="#1275C0"/>
<stop offset="1" stop-color="#0083CA"/>
</linearGradient>
<clipPath id="clip0_1610_4379">
<rect width="194" height="32" fill="white"/>
</clipPath>
</defs>
</svg>
