<svg width="165" height="21" viewBox="0 0 165 21" fill="none" xmlns="http://www.w3.org/2000/svg">
<path d="M27.2471 17H19.3766L21.6206 5.45H29.3096L28.9466 7.331H23.4356L22.8911 10.136H27.1151V12.017H22.5281L21.9341 15.1025H27.6101L27.2471 17ZM34.815 17.132C31.746 17.132 29.5845 15.119 29.5845 12.2315C29.5845 8.4695 32.4885 5.318 36.2175 5.318C39.2865 5.318 41.415 7.331 41.415 10.2185C41.415 13.9805 38.544 17.132 34.815 17.132ZM34.947 15.2345C37.323 15.2345 39.204 12.941 39.204 10.4495C39.204 8.5355 37.95 7.199 36.0855 7.199C33.7095 7.199 31.812 9.509 31.812 12.0005C31.812 13.9145 33.066 15.2345 34.947 15.2345ZM46.9133 17.132C44.2403 17.132 42.5738 15.2345 43.0688 12.71L44.4713 5.45H46.5338L45.1148 12.6935C44.8343 14.2115 45.8078 15.218 47.2928 15.218C48.5963 15.218 49.7678 14.36 50.0813 12.6935L51.4838 5.45H53.5463L52.1273 12.71C51.5333 15.779 49.6193 17.132 46.9133 17.132ZM63.1347 17H60.8577L60.3957 14.3105H55.9407L54.4227 17H52.1622L58.8447 5.45H60.9237L63.1347 17ZM59.3562 8.2385L56.9802 12.4625H60.0822L59.3562 8.2385ZM72.3074 17H64.7174L66.9614 5.45H69.1559L67.2749 15.1025H72.6704L72.3074 17ZM83.5408 17H81.4123L79.4488 5.45H81.6103L82.9633 14.3105L87.7813 5.45H89.9923L83.5408 17ZM97.3244 17H89.4539L91.6979 5.45H99.3869L99.0239 7.331H93.5129L92.9684 10.136H97.1924V12.017H92.6054L92.0114 15.1025H97.6874L97.3244 17ZM101.715 17H99.5202L101.764 5.45H104.091L107.539 13.568L109.123 5.45H111.301L109.057 17H106.731L103.282 8.8985L101.715 17ZM116.481 17H114.303L116.184 7.331H112.686L113.049 5.45H122.206L121.86 7.331H118.362L116.481 17ZM126.187 17.132C123.514 17.132 121.847 15.2345 122.342 12.71L123.745 5.45H125.807L124.388 12.6935C124.108 14.2115 125.081 15.218 126.566 15.218C127.87 15.218 129.041 14.36 129.355 12.6935L130.757 5.45H132.82L131.401 12.71C130.807 15.779 128.893 17.132 126.187 17.132ZM135.315 5.45H140.05C142.459 5.45 143.598 6.9185 143.202 9.014C142.954 10.202 142.195 11.027 141.156 11.5055C141.849 12.017 142.179 12.8585 142.063 13.9145L141.75 17H139.588L139.869 14.162C139.951 13.2875 139.456 12.6605 138.598 12.6605H136.107L135.265 17H133.071L135.315 5.45ZM139.605 7.2815H137.146L136.47 10.7795H138.912C140.199 10.7795 140.892 9.938 141.073 9.014C141.238 8.09 140.875 7.2815 139.605 7.2815ZM152.361 17H144.49L146.734 5.45H154.423L154.06 7.331H148.549L148.005 10.136H152.229V12.017H147.642L147.048 15.1025H152.724L152.361 17ZM158.698 17.132C155.992 17.132 154.326 15.515 154.656 13.1225H156.751C156.619 14.3765 157.411 15.2345 158.896 15.2345C160.134 15.2345 161.173 14.6405 161.173 13.5515C161.173 11.1425 155.745 12.809 155.745 8.9645C155.745 6.737 157.84 5.318 160.216 5.318C162.724 5.318 164.275 6.803 163.995 8.882H161.916C161.998 7.8755 161.256 7.199 159.969 7.199C158.83 7.199 157.939 7.793 157.939 8.717C157.939 11.1425 163.45 9.3275 163.45 13.304C163.45 15.614 161.355 17.132 158.698 17.132Z" fill="#262626"/>
<path fill-rule="evenodd" clip-rule="evenodd" d="M0 17.2815H13.9747L14.9061 12.6205H0.931413L0 17.2815ZM1.52281 9.66101H15.4975L16.4289 5H2.50519L1.78882 8.3298L1.52281 9.66101Z" fill="#00C677"/>
<path d="M35.8457 13.3228H36.4042C37.265 13.3228 38.0293 13.8736 38.3016 14.6903L38.3899 14.9552C38.6621 15.7719 39.4264 16.3228 40.2872 16.3228H40.8457" stroke="#262626" stroke-width="1.7"/>
</svg>
