<svg version="1.1" id="Layer_1" xmlns="http://www.w3.org/2000/svg" xmlns:xlink="http://www.w3.org/1999/xlink" x="0px" y="0px"
	 width="48" height="48" viewBox="700 700 3100 3100" enable-background="new 700 700 3100 3100" xml:space="preserve">
<path fill="#1F2433" opacity="1.000000" stroke="none"
	d="
M2490.771240,3218.771973
	C2408.101562,3305.003418 2315.969971,3376.904053 2214.023682,3436.328369
	C2093.889648,3506.354248 1965.528931,3554.856445 1829.402466,3582.718262
	C1775.216187,3593.808838 1720.457031,3600.978760 1665.203735,3604.822510
	C1631.920044,3607.137695 1598.675659,3607.694092 1565.368652,3607.691406
	C1354.045044,3607.673096 1142.721558,3607.682129 931.397949,3607.682129
	C924.156860,3607.682129 916.915771,3607.682373 908.425903,3607.682373
	C907.797241,3602.898926 907.076904,3599.189941 906.877808,3595.453125
	C906.629944,3590.799805 906.809265,3586.123291 906.809265,3581.456787
	C906.808777,2697.497559 906.808899,1813.538452 906.808899,929.579224
	C906.808899,921.687561 906.808838,913.795837 906.808838,907.074219
	C908.694763,905.515686 909.169800,905.027039 909.733704,904.684753
	C910.270813,904.358582 910.900635,903.974182 911.489685,903.974121
	C1806.111328,903.845398 2700.733154,903.745850 3595.354736,903.671204
	C3599.319824,903.670898 3603.284912,904.025696 3607.133789,904.209106
	C3610.124756,911.248474 3605.432373,916.137146 3603.116211,921.308655
	C3545.427246,1050.113159 3487.574707,1178.844238 3429.783691,1307.603027
	C3295.666260,1606.419312 3161.594482,1905.256104 3027.449463,2204.060059
	C2927.929199,2425.738037 2828.546387,2647.478027 2728.667236,2868.994385
	C2671.747314,2995.234863 2594.643311,3108.113525 2500.227295,3209.273926
	C2497.501953,3212.194092 2494.593262,3214.943115 2490.771240,3218.771973
M2319.642578,2662.000000
	C2319.800293,2690.651855 2319.953369,2719.303467 2320.149170,2747.955078
	C2320.153076,2748.526855 2320.593262,2749.139160 2320.946289,2749.652344
	C2321.320801,2750.196045 2321.834229,2750.644043 2323.262451,2752.189453
	C2337.585693,2752.189453 2352.839600,2752.468750 2368.078613,2752.112061
	C2383.782471,2751.744873 2399.653076,2753.829590 2416.206543,2750.365723
	C2416.206543,2742.845703 2416.206543,2736.250488 2416.206543,2729.655029
	C2416.207520,2666.333496 2416.162109,2603.011475 2416.333008,2539.690430
	C2416.342529,2536.208252 2413.969727,2531.506592 2419.239502,2529.283691
	C2419.833984,2529.575928 2420.537598,2529.733398 2420.970459,2530.163574
	C2424.740967,2533.909668 2428.435303,2537.732910 2432.204590,2541.480469
	C2457.358398,2566.488037 2487.139160,2583.440674 2521.535156,2591.983154
	C2550.897705,2599.275391 2580.534180,2601.361572 2610.727051,2597.080322
	C2694.480713,2585.204834 2755.331787,2541.188477 2791.420898,2465.292969
	C2824.426514,2395.882812 2826.180908,2323.565674 2800.896973,2251.317627
	C2759.742676,2133.720215 2646.378174,2077.600586 2531.700684,2101.083496
	C2486.527588,2110.333496 2449.033936,2133.620605 2419.289307,2169.146240
	C2416.747314,2172.182129 2415.503662,2178.433838 2408.576660,2175.706055
	C2408.576660,2167.755371 2408.576660,2159.765625 2408.576660,2151.775879
	C2408.576660,2144.443848 2408.786621,2137.104492 2408.519043,2129.782227
	C2408.237549,2122.074707 2409.898682,2114.076904 2406.407715,2105.494141
	C2391.768799,2105.494141 2377.843750,2105.101562 2363.950684,2105.602295
	C2349.550781,2106.121338 2334.915771,2103.339600 2319.642334,2107.760010
	C2319.642334,2291.500488 2319.642334,2474.750244 2319.642578,2662.000000
M1180.735107,2247.632812
	C1182.926025,2227.074463 1185.838623,2206.632324 1192.154419,2186.869873
	C1213.715942,2119.402100 1255.586792,2070.345215 1323.006592,2045.727417
	C1366.697876,2029.773926 1411.570068,2028.569824 1456.844482,2039.307617
	C1505.220093,2050.780762 1542.661133,2077.626709 1570.031860,2118.878174
	C1580.767456,2135.058105 1588.952271,2152.504150 1595.834106,2170.619629
	C1597.160156,2174.110352 1599.329956,2177.280029 1601.446655,2181.224365
	C1629.003662,2170.094971 1655.522583,2159.451660 1681.965820,2148.623291
	C1685.407715,2147.213867 1688.459351,2144.851562 1692.067993,2142.706787
	C1656.666626,2047.684204 1593.937988,1982.443481 1496.528442,1953.862915
	C1443.912842,1938.425049 1390.174194,1936.100220 1336.305542,1947.271118
	C1222.083496,1970.957642 1143.520630,2037.424927 1103.191406,2146.758301
	C1073.824951,2226.370605 1073.770508,2307.704834 1100.959839,2387.900635
	C1131.057495,2476.674805 1190.123535,2539.913818 1277.307617,2575.380615
	C1336.765625,2599.568848 1398.832397,2605.285645 1461.871216,2594.500000
	C1569.944824,2576.008057 1643.906006,2514.407715 1685.676880,2413.491943
	C1687.910889,2408.094482 1689.749146,2402.533447 1691.664429,2397.339844
	C1676.254883,2387.958740 1616.735107,2364.125732 1599.720581,2360.452393
	C1598.289307,2363.836914 1596.675781,2367.350830 1595.300171,2370.956055
	C1588.635254,2388.423828 1580.773926,2405.304199 1570.584961,2421.019287
	C1545.671265,2459.446045 1511.539307,2485.922852 1467.410889,2498.481201
	C1428.940430,2509.429688 1389.800415,2510.948730 1350.716919,2501.956543
	C1269.488403,2483.268066 1217.711914,2432.495117 1192.278320,2354.048828
	C1181.469360,2320.710205 1178.809204,2286.210693 1180.735107,2247.632812
M2102.782227,2544.843994
	C2106.035889,2541.505127 2109.387451,2538.254883 2112.515625,2534.802490
	C2115.643066,2531.350586 2118.359619,2527.512939 2121.605469,2524.185059
	C2124.548584,2521.167969 2125.497314,2515.681396 2131.829102,2515.494629
	C2133.858154,2539.476562 2130.700439,2563.295654 2133.791504,2586.591309
	C2154.084229,2588.998291 2205.324951,2588.719238 2219.948242,2586.265625
	C2222.806152,2566.680664 2223.990967,2249.433838 2221.653809,2119.011230
	C2221.584717,2115.158936 2221.061279,2111.315186 2220.751221,2107.487061
	C2217.878906,2106.653809 2216.053467,2105.670166 2214.224121,2105.662109
	C2189.580078,2105.552979 2164.934814,2105.512939 2140.291504,2105.679443
	C2137.901123,2105.695557 2135.520752,2107.198975 2132.109375,2108.361572
	C2132.109375,2132.042725 2132.114258,2155.312500 2132.081787,2178.582520
	C2132.081055,2179.167969 2131.819824,2179.919678 2131.407715,2180.292969
	C2130.954834,2180.702881 2130.186035,2180.763672 2128.784180,2181.236572
	C2125.665771,2177.459717 2122.401367,2173.418945 2119.046387,2169.455322
	C2092.369141,2137.940186 2058.938721,2117.358887 2018.809692,2107.671875
	C1988.705933,2100.405273 1958.393066,2098.658203 1927.643555,2103.259277
	C1836.732300,2116.862549 1773.843506,2166.127197 1740.487061,2251.672607
	C1722.693970,2297.304199 1720.076904,2344.895264 1727.603638,2393.227539
	C1745.518799,2508.268555 1830.296265,2587.025635 1934.340698,2597.565674
	C1997.111206,2603.924561 2053.262207,2589.896973 2102.782227,2544.843994
M1838.569580,1818.527832
	C1850.566528,1818.527832 1862.580200,1818.924194 1874.555542,1818.415161
	C1886.283813,1817.916504 1898.350830,1820.889648 1910.943604,1815.762207
	C1910.943604,1808.263916 1910.943481,1801.010010 1910.943604,1793.756226
	C1910.944214,1705.109619 1910.821045,1616.462646 1911.092896,1527.816895
	C1911.129272,1515.919800 1911.533325,1503.596313 1914.561646,1492.213745
	C1924.880493,1453.427612 1950.550293,1427.587646 1987.033081,1412.454834
	C2016.953491,1400.044189 2048.180664,1399.462524 2079.312012,1406.631836
	C2124.680664,1417.079712 2151.851807,1446.566040 2163.217041,1491.025269
	C2166.849121,1505.232910 2167.910400,1519.855225 2167.875732,1534.627197
	C2167.671875,1621.273804 2167.772705,1707.921143 2167.782715,1794.568237
	C2167.783691,1801.791992 2167.874268,1809.015747 2167.927002,1816.790771
	C2184.975586,1820.012207 2200.921631,1818.473022 2216.725830,1818.369873
	C2233.104492,1818.263062 2249.689941,1820.273315 2266.055908,1816.823364
	C2266.435791,1812.816895 2266.899170,1810.203491 2266.899902,1807.589966
	C2266.926270,1708.279053 2267.266602,1608.965820 2266.580322,1509.659546
	C2266.452637,1491.172119 2263.853760,1472.307129 2259.504150,1454.315430
	C2245.107178,1394.762573 2210.126465,1351.874390 2152.634521,1328.726562
	C2129.554688,1319.434082 2105.314941,1315.312500 2080.483643,1314.343994
	C2016.085083,1311.832397 1959.512329,1329.806763 1914.167114,1377.473267
	C1912.127319,1379.617432 1909.676270,1381.370605 1905.368042,1385.060791
	C1904.242188,1375.970947 1904.681885,1369.495117 1904.608643,1363.079712
	C1904.540161,1357.081787 1904.829956,1351.070801 1904.529541,1345.087158
	C1904.206909,1338.662109 1906.229492,1331.873291 1902.734009,1326.043213
	C1877.443115,1323.203491 1826.571045,1323.806641 1813.177856,1327.011841
	C1811.136475,1344.991943 1811.283203,1800.558960 1813.427734,1816.933350
	C1820.184204,1819.697632 1827.576660,1818.100342 1838.569580,1818.527832
M1099.196045,1818.511475
	C1123.195679,1818.507568 1147.196167,1818.607544 1171.193848,1818.390503
	C1174.894287,1818.357056 1178.581543,1816.865356 1182.929932,1815.903198
	C1182.929932,1807.693726 1182.929932,1800.389404 1182.929932,1793.085083
	C1182.929932,1712.419922 1182.888916,1631.754761 1183.008423,1551.089722
	C1183.017944,1544.686157 1181.284668,1537.888916 1185.744507,1530.838257
	C1192.806152,1530.838257 1200.050537,1530.838379 1207.294922,1530.838379
	C1285.293457,1530.838379 1363.292114,1530.899902 1441.290283,1530.733887
	C1448.389160,1530.718750 1455.927734,1532.767334 1462.510864,1528.499756
	C1465.098267,1505.159668 1464.462402,1458.547363 1461.091187,1443.805664
	C1454.229492,1443.805664 1447.001221,1443.805664 1439.772949,1443.805664
	C1360.441040,1443.805542 1281.109253,1443.825073 1201.777344,1443.764893
	C1195.975220,1443.760498 1190.173584,1443.179565 1182.963501,1442.790649
	C1182.951904,1420.990967 1182.936401,1400.440063 1182.931152,1379.889282
	C1182.925659,1358.556396 1182.606567,1337.217041 1183.023071,1315.892334
	C1183.421143,1295.512939 1181.169678,1274.997192 1184.584595,1253.723022
	C1192.125732,1253.536987 1198.691040,1253.236450 1205.256348,1253.234131
	C1295.254639,1253.203003 1385.253174,1253.257202 1475.251221,1253.127075
	C1482.265869,1253.116821 1489.672729,1254.743286 1497.327393,1250.545288
	C1497.371216,1223.140747 1497.536377,1195.960205 1497.225586,1169.410156
	C1494.578735,1168.252441 1493.369629,1167.261108 1492.159424,1167.259888
	C1363.496582,1167.127197 1234.833618,1167.062134 1106.170654,1167.027344
	C1100.182007,1167.025757 1094.192749,1167.317383 1088.205444,1167.520508
	C1087.592529,1167.541260 1086.910889,1167.777954 1086.406250,1168.125366
	C1085.875977,1168.490234 1085.520020,1169.108643 1084.665405,1170.112915
	C1084.447510,1171.466187 1083.872070,1173.368896 1083.872681,1175.271362
	C1083.940430,1387.921753 1084.050903,1600.572144 1084.182983,1813.222534
	C1084.183350,1813.862305 1084.450562,1814.545166 1084.748535,1815.128662
	C1085.027588,1815.675171 1085.513184,1816.115967 1086.737427,1817.627563
	C1089.025269,1817.857788 1092.239136,1818.181274 1099.196045,1818.511475
M1685.304443,1466.000610
	C1685.185913,1420.727661 1685.078857,1375.454590 1684.885864,1330.181885
	C1684.880737,1328.995972 1683.938843,1327.813965 1683.431396,1326.631104
	C1667.687744,1323.666504 1604.121094,1323.703247 1587.608032,1326.906860
	C1587.414185,1333.155273 1587.045288,1339.690186 1587.036011,1346.225464
	C1586.980469,1384.849243 1587.008545,1423.473022 1587.008545,1462.096802
	C1587.008545,1573.306763 1586.978149,1684.516602 1587.079712,1795.726440
	C1587.086182,1802.808228 1585.713013,1810.180420 1589.356445,1818.138916
	C1605.382080,1818.834839 1621.287231,1818.726440 1637.149170,1818.367310
	C1652.786133,1818.013306 1668.651611,1820.524658 1685.304688,1816.138794
	C1685.304688,1700.268188 1685.304688,1585.134521 1685.304443,1466.000610
M1707.850464,1163.178711
	C1707.136963,1159.270996 1706.663818,1155.301147 1705.673340,1151.464966
	C1692.485962,1100.390381 1633.928101,1086.687012 1596.758057,1110.098267
	C1568.969727,1127.600464 1557.271484,1162.379395 1568.495483,1194.022705
	C1578.836914,1223.178101 1610.520142,1242.149292 1643.213623,1238.762207
	C1675.253296,1235.442993 1699.250000,1215.699707 1706.163696,1186.344849
	C1707.666016,1179.966553 1707.450195,1173.183472 1707.850464,1163.178711
z"/>
<path fill="#1F2738" opacity="1.000000" stroke="none"
	d="
M2455.730469,2468.231934
	C2425.485840,2435.200684 2413.002686,2396.864502 2411.703125,2354.172119
	C2410.903809,2327.921875 2414.402832,2302.450684 2423.830078,2277.852295
	C2455.097168,2196.268311 2532.570801,2173.256592 2589.836426,2182.401123
	C2648.262207,2191.730957 2687.997559,2224.699219 2709.035645,2279.335693
	C2726.981445,2325.940186 2726.594238,2373.418945 2707.258789,2419.524170
	C2686.226318,2469.675781 2648.506592,2501.977783 2594.530029,2510.815674
	C2542.670166,2519.307373 2495.278809,2507.571533 2455.730469,2468.231934
z"/>
<path fill="#1F2738" opacity="1.000000" stroke="none"
	d="
M1910.607910,2193.738770
	C1867.868530,2214.475098 1841.643066,2247.416504 1827.994263,2290.729004
	C1817.978882,2322.510986 1817.211304,2354.847412 1823.922241,2387.420654
	C1839.254395,2461.838867 1900.161499,2518.505127 1984.693237,2512.768066
	C2042.840332,2508.821533 2086.175049,2481.133057 2110.762695,2428.453857
	C2135.686768,2375.054443 2135.677734,2319.784912 2111.489990,2265.937988
	C2091.040771,2220.413330 2055.050293,2193.061279 2005.783081,2183.302979
	C1973.413574,2176.892090 1942.248657,2180.294189 1910.607910,2193.738770
z"/>
</svg>