<?xml version="1.0" encoding="utf-8"?>

<svg version="1.1" id="Layer_1" xmlns="http://www.w3.org/2000/svg" xmlns:xlink="http://www.w3.org/1999/xlink" x="0px" y="0px"
	 viewBox="0 0 391.7 75.6" style="enable-background:new 0 0 391.7 75.6;" xml:space="preserve">
<style type="text/css">
	.st0{fill:#433D50;}
	.st1{fill-rule:evenodd;clip-rule:evenodd;fill:#433D50;}
</style>
<path class="st0" d="M93.7,11.7v11.5h25.6v10.3H93.7v24.1H82.6v-57h39.6v11.1H93.7z"/>
<path class="st0" d="M123.3,37.8c0-12.2,7.7-20.9,20-20.9c12.2,0,19.9,8.6,19.9,20.9c0,12.1-7.6,20.9-19.9,20.9
	C131,58.8,123.3,49.9,123.3,37.8z M152.3,37.8c0-7.7-3.7-12.1-9.1-12.1c-5.4,0-9.1,4.4-9.1,12.1c0,7.8,3.7,12.1,9.1,12.1
	C148.6,50,152.3,45.6,152.3,37.8z"/>
<path class="st0" d="M169.2,18.2h10.7v7.4c1.6-3.1,3.8-5.9,6.7-7.1c2.2-1,4.4-1.3,7.6-1.3v11.2H193c-8.3,0-12.7,5.5-12.7,13.7v15.5
	h-11.1L169.2,18.2L169.2,18.2z"/>
<path class="st0" d="M195.9,37.8c0-12.3,7.1-20.9,19-20.9c10.7,0,19,7,19,19.1v4.7h-27.1c0.6,5.6,3.6,9.1,8.6,9.1
	c4.2,0,7-2.6,7.6-5.4H234c-0.7,6.8-7.6,14.2-18.9,14.2C202.9,58.8,195.9,50,195.9,37.8z M223,34c0-5.3-3.4-8.3-7.9-8.3
	c-4.6,0-8.2,2.9-8.2,8.3H223z"/>
<path class="st0" d="M239,44.7h10.3c0.9,4.1,3.8,5.9,9.1,5.9c3.5,0,5.8-1.3,5.8-3.9c0-2.9-4.8-3.8-8.2-4.8
	c-8.8-2.4-15.2-5.3-15.3-13.1C240.6,20.4,248,17,257.5,17c10.8,0,16.3,5.2,16.8,13.2h-10.5c-0.4-4-3.7-5.1-6.7-5.1
	c-3.3,0-6.4,0.9-6.4,3.6c0,3,5.4,4,12.1,5.8c6.2,1.7,12.1,3.8,12.1,11.8c0,8.4-6.1,12.5-16.3,12.5C245.9,58.8,239.7,53.1,239,44.7z"
	/>
<path class="st0" d="M282.4,45.6V28h-4.7v-8.9c4,0,5.2-1.9,5.2-6.2V8.1h10.6v10.1h7.8V28h-7.8v14.3c0,4.7,2.1,5.7,6.4,5.7h2.4v9.9
	c-1.8,0.2-3.4,0.4-6.6,0.4C285.7,58.2,282.4,53.7,282.4,45.6z"/>
<path class="st0" d="M306.4,37.7c0-11.9,6.4-20.7,17.4-20.7c5.2,0,8.8,2,11.4,6.2v-5h11.1v39.4h-11.1v-4.9
	c-1.9,3.4-5.6,6.1-11.4,6.1C313.2,58.8,306.4,49.9,306.4,37.7z M335.1,39.2V36c0-6.4-3.8-10.2-9-10.2c-5.5,0-9.1,4.2-9.1,11.9
	c0,7.9,3.8,12.1,9.2,12.1C331.4,49.9,335.1,46,335.1,39.2z"/>
<path class="st0" d="M365.8,57.5l-14.9-39.3h11.5l7.6,24.3l1.3,3.8h0.1l1.2-3.8l7.6-24.3h11.5l-13.9,36.7l-7.4,20.7h-11.2
	L365.8,57.5z"/>
<path class="st0" d="M18,45.2c3.2-8.9,3.9-18.1,3.8-24.4l23.8,36.9h11.2L20.2,0.6H8.8c4,9.1,5,17.4,4.4,26
	c-0.6,7.6-2.4,14.1-6.5,22.3C10.6,47.3,12.1,46.4,18,45.2z"/>
<path class="st1" d="M0,57.6L5.2,66c9.3-4.5,22.7-8.3,32.9-8.3L32.5,49C32.5,49,15.8,50.1,0,57.6z"/>
</svg>
