<svg xmlns="http://www.w3.org/2000/svg" width="172" height="22" viewBox="0 0 172 22" fill="none"><path d="M130.294 0C134.347 0 136.374 8.37407e-05 137.634 1.28013C138.893 2.56022 138.893 4.62051 138.893 8.74102V13.221C138.893 17.3415 138.893 19.4018 137.634 20.6819C136.374 21.9619 134.347 21.962 130.294 21.962H113.74C109.687 21.962 107.66 21.962 106.4 20.6819C105.141 19.4018 105.141 17.3415 105.141 13.221V8.74102C105.141 4.62053 105.141 2.56022 106.4 1.28013C107.66 3.43453e-05 109.687 0 113.74 0H130.294ZM112.45 5.46314C111.64 5.46314 111.234 5.46318 110.982 5.7192C110.73 5.97522 110.731 6.3873 110.731 7.21134V14.7507C110.731 15.5747 110.73 15.9868 110.982 16.2428C111.234 16.4988 111.64 16.4989 112.45 16.4989H131.584C132.394 16.4989 132.8 16.4988 133.052 16.2428C133.303 15.9868 133.303 15.5747 133.303 14.7507V7.21134C133.303 6.38727 133.303 5.97521 133.052 5.7192C132.8 5.46322 132.394 5.46314 131.584 5.46314H112.45Z" fill="white"></path><path d="M172 5.46327H160.606C160.012 5.46327 159.531 5.95246 159.531 6.5559V21.962H153.942V6.5559C153.942 5.95246 153.46 5.46327 152.867 5.46327H141.258V0.109375H154.508L154.479 3.69436C154.477 4.68758 155.096 5.18241 155.745 4.47425L160.363 0.109375H172V5.46327Z" fill="white"></path><path d="M41.8169 0.656761C41.8169 0.169968 41.2378 -0.0737121 40.8992 0.270605L37.1253 4.54638C36.5714 5.10977 36.117 6.22372 36.1169 7.02113V17.6296C36.1169 20.0434 38.042 22.0001 40.4166 22.0001H57.6999H64.2334V16.3154H63.8535H41.8169V0.656761Z" fill="white"></path><path d="M80.3597 0.656761C80.3597 0.169968 79.7806 -0.0737121 79.4421 0.270605L75.6681 4.54638C75.1142 5.10977 74.6598 6.22372 74.6598 7.02113V17.6296C74.6598 20.0434 76.5848 22.0001 78.9594 22.0001H96.2427H102.776V16.3154H102.396H80.3597V0.656761Z" fill="white"></path><path d="M71.427 0.270281C71.7472 -0.0733438 72.295 0.169846 72.295 0.65566L72.295 7.5486L72.295 21.962L66.598 21.962L66.598 7.00745C66.598 6.21164 67.0279 5.09993 67.5519 4.53768L71.427 0.270281Z" fill="white"></path><path d="M33.7521 5.90587H6.63176L6.63263 5.90764C6.07345 5.90764 5.61966 6.36936 5.61966 6.93832V15.1676C5.61966 15.7366 6.07345 16.1983 6.63263 16.1983L27.8639 16.0567C28.3147 16.0496 28.7447 15.8624 29.0608 15.5355L32.5343 11.927C33.155 11.2852 33.7482 11.7337 33.746 12.6338L33.7181 21.962H28.0871V18.2594L25.8129 20.5751C24.9402 21.4631 23.7574 21.962 22.5232 21.962H1.01297C0.453789 21.962 0 21.5003 0 20.9313V11.5541C0 10.8354 0.409368 9.83129 0.908449 9.32348L8.32062 1.78169C9.37279 0.711123 10.7995 0.109375 12.288 0.109375H33.7521V5.90587Z" fill="white"></path></svg>