<svg width="83" height="83" viewBox="0 0 83 83" fill="none" xmlns="http://www.w3.org/2000/svg">
<path d="M37.0705 0.0850258L35.7109 1.44922L45.9292 11.7024L47.2888 10.3382L37.0705 0.0850258Z" fill="white"/>
<path d="M44.9865 0.000134043L43.3945 1.08203L51.4983 13.0876L53.0903 12.0057L44.9865 0.000134043Z" fill="white"/>
<path d="M52.5653 1.34708L50.8008 2.11328L56.5399 15.4208L58.3045 14.6546L52.5653 1.34708Z" fill="white"/>
<path d="M59.6476 4.04195L57.7734 4.47266L60.9996 18.6068L62.8738 18.1761L59.6476 4.04195Z" fill="white"/>
<path d="M66.0653 7.93644L64.1445 8.02295L64.7925 22.5085L66.7133 22.422L66.0653 7.93644Z" fill="white"/>
<path d="M69.7718 12.6468L67.8281 27.0151L69.7334 27.2746L71.6771 12.9063L69.7718 12.6468Z" fill="white"/>
<path d="M74.4943 18.238L70 32.019L71.8274 32.6191L76.3217 18.838L74.4943 18.238Z" fill="white"/>
<path d="M78.2002 24.6863L71.2539 37.4014L72.9399 38.3287L79.8862 25.6136L78.2002 24.6863Z" fill="white"/>
<path d="M80.6762 31.8637L71.4766 43.0459L72.9593 44.2741L82.159 33.0919L80.6762 31.8637Z" fill="white"/>
<path d="M81.777 39.5683L70.6328 48.7993L71.8568 50.2871L83.001 41.0561L81.777 39.5683Z" fill="white"/>
<path d="M81.4375 47.1614L68.7656 54.1313L69.6898 55.8231L82.3617 48.8531L81.4375 47.1614Z" fill="white"/>
<path d="M79.7303 54.4068L65.9961 58.9165L66.5941 60.7501L80.3283 56.2404L79.7303 54.4068Z" fill="white"/>
<path d="M76.7844 61.099L62.4648 63.0493L62.7235 64.961L77.043 63.0107L76.7844 61.099Z" fill="white"/>
<path d="M58.2542 66.4892L58.168 68.4165L72.6043 69.0667L72.6905 67.1394L58.2542 66.4892Z" fill="white"/>
<path d="M53.4957 69.1141L53.0664 70.9946L67.1525 74.2318L67.5818 72.3512L53.4957 69.1141Z" fill="white"/>
<path d="M48.3105 70.8525L47.5469 72.623L60.8092 78.3817L61.5728 76.6112L48.3105 70.8525Z" fill="white"/>
<path d="M42.7931 71.5921L41.7148 73.1895L53.6796 81.3209L54.7578 79.7235L42.7931 71.5921Z" fill="white"/>
<path d="M37.0744 71.2867L35.7148 72.6509L45.9331 82.904L47.2927 81.5398L37.0744 71.2867Z" fill="white"/>
<path d="M31.5021 69.9127L29.9102 70.9946L38.014 83.0002L39.6059 81.9183L31.5021 69.9127Z" fill="white"/>
<path d="M26.456 67.5761L24.6914 68.3423L30.4305 81.6498L32.1951 80.8836L26.456 67.5761Z" fill="white"/>
<path d="M21.9953 64.4077L20.1211 64.8384L23.3472 78.9725L25.2214 78.5418L21.9953 64.4077Z" fill="white"/>
<path d="M18.2098 60.5019L16.2891 60.5884L16.937 75.0739L18.8578 74.9874L18.2098 60.5019Z" fill="white"/>
<path d="M13.2718 55.7313L11.3281 70.0996L13.2334 70.3591L15.1771 55.9907L13.2718 55.7313Z" fill="white"/>
<path d="M11.1662 50.3738L6.67188 64.1548L8.49922 64.7548L12.9936 50.9738L11.1662 50.3738Z" fill="white"/>
<path d="M10.0713 44.678L3.125 57.3931L4.81101 58.3204L11.7573 45.6054L10.0713 44.678Z" fill="white"/>
<path d="M10.0434 38.7192L0.84375 49.9014L2.3265 51.1296L11.5262 39.9474L10.0434 38.7192Z" fill="white"/>
<path d="M11.1442 32.7172L0 41.9482L1.22402 43.436L12.3682 34.205L11.1442 32.7172Z" fill="white"/>
<path d="M13.3125 27.1736L0.640625 34.1436L1.56483 35.8353L14.2367 28.8654L13.3125 27.1736Z" fill="white"/>
<path d="M16.4022 22.2633L2.66797 26.7729L3.26595 28.6065L17.0001 24.0969L16.4022 22.2633Z" fill="white"/>
<path d="M20.2769 18.0243L5.95703 19.9722L6.21531 21.8839L20.5352 19.9361L20.2769 18.0243Z" fill="white"/>
<path d="M10.3909 13.9242L10.3047 15.8516L24.741 16.5017L24.8272 14.5744L10.3909 13.9242Z" fill="white"/>
<path d="M15.8433 8.75957L15.4141 10.6401L29.5002 13.8773L29.9294 11.9967L15.8433 8.75957Z" fill="white"/>
<path d="M22.1933 4.62785L21.4297 6.39844L34.692 12.1571L35.4556 10.3865L22.1933 4.62785Z" fill="white"/>
<path d="M29.3165 1.67608L28.2383 3.27344L40.203 11.4049L41.2813 9.80751L29.3165 1.67608Z" fill="white"/>
<path d="M37.0705 0.0850258L35.7109 1.44922L45.9292 11.7024L47.2888 10.3382L37.0705 0.0850258Z" fill="white"/>
</svg>
