<svg viewBox="0 0 65 37" fill="none" xmlns="http://www.w3.org/2000/svg"><path d="M18.374 20.274c-.933 0-1.812.153-2.637.458a7.634 7.634 0 0 0-2.294 1.35l1.285 1.784a6.33 6.33 0 0 1 1.674-1.03 4.554 4.554 0 0 1 1.72-.343c.841 0 1.48.226 1.916.676.436.45.661 1.1.677 1.955h-2.798c-1.759 0-3.09.298-3.991.892-.903.595-1.354 1.472-1.354 2.63 0 1.053.386 1.9 1.159 2.54.772.64 1.792.96 3.062.96.825 0 1.578-.142 2.26-.424a4.557 4.557 0 0 0 1.73-1.246v1.418H23.4V25.33c0-1.601-.44-2.844-1.32-3.729-.879-.884-2.113-1.327-3.704-1.327Zm1.307 9.001c-.642.572-1.43.858-2.362.858-.627 0-1.132-.145-1.514-.434-.383-.29-.573-.664-.573-1.121 0-.534.218-.927.653-1.178.437-.252 1.105-.378 2.007-.378h2.822c-.046.93-.39 1.681-1.032 2.253Zm12.057-8.832c-.75 0-1.456.145-2.121.435a4.958 4.958 0 0 0-1.732 1.257v-1.44h-2.66V36.11h2.752v-5.215a5.002 5.002 0 0 0 1.629 1.017 5.294 5.294 0 0 0 1.926.355c1.62 0 2.978-.56 4.072-1.68 1.093-1.122 1.64-2.55 1.64-4.29 0-1.74-.525-3.11-1.571-4.208-1.048-1.098-2.36-1.647-3.933-1.647h-.002Zm1.824 8.486c-.605.656-1.396.983-2.374.983-.979 0-1.717-.335-2.351-1.006-.635-.67-.953-1.516-.953-2.538 0-1.021.322-1.876.964-2.562.642-.686 1.437-1.03 2.385-1.03.947 0 1.723.328 2.328.984.604.656.906 1.518.906 2.585s-.302 1.929-.906 2.584Zm8.021-8.234H38.83v11.299h2.753V20.695Zm13.792-.321c-.933 0-1.812.153-2.638.458a7.635 7.635 0 0 0-2.293 1.35l1.284 1.784a6.333 6.333 0 0 1 1.675-1.03 4.554 4.554 0 0 1 1.72-.343c.84 0 1.479.226 1.915.675.436.45.661 1.102.677 1.956h-2.798c-1.759 0-3.09.297-3.991.892-.903.595-1.354 1.472-1.354 2.63 0 1.053.386 1.899 1.159 2.54.772.64 1.792.96 3.062.96.825 0 1.578-.142 2.258-.424a4.558 4.558 0 0 0 1.732-1.246v1.418h2.615v-6.565c0-1.6-.44-2.843-1.319-3.728-.88-.884-2.114-1.327-3.704-1.327Zm1.307 9.001c-.642.572-1.43.858-2.363.858-.626 0-1.131-.145-1.513-.435-.383-.29-.573-.663-.573-1.12 0-.534.218-.927.653-1.178.436-.252 1.104-.378 2.007-.378h2.821c-.046.93-.39 1.681-1.032 2.253ZM65 15.983h-2.752v16.01h2.753v-16.01ZM6.152 29.627a3.506 3.506 0 0 1-3.511-3.502 3.507 3.507 0 0 1 3.511-3.502 3.51 3.51 0 0 1 3.097 1.852l2.324-1.252a6.152 6.152 0 0 0-5.42-3.233C2.754 19.99 0 22.737 0 26.126c0 3.388 2.754 6.135 6.152 6.135a6.152 6.152 0 0 0 5.428-3.246L9.266 27.74a3.51 3.51 0 0 1-3.114 1.887Zm40.2-12.774h-2.854v10.444c0 .881.077 1.63.228 2.228.15.59.406 1.073.76 1.434.355.36.824.622 1.394.779.575.158 1.308.238 2.178.238h.36v-2.649a7.13 7.13 0 0 1-1.032-.067c-.295-.046-.52-.146-.67-.296-.15-.15-.25-.367-.297-.645a6.631 6.631 0 0 1-.067-1.044v-3.78h2.066v-2.433h-2.066v-4.21.001Z" fill="#183544"/><path d="M41.686 15.95H38.75v2.767h2.936V15.95ZM3.551.322H.54v3.004h3.012V.322Z" fill="#EDB200"/><path d="M3.473 15.95V5.145H.619V15.95h2.854Zm18.919.11v-2.65a7.13 7.13 0 0 1-1.033-.067c-.295-.046-.52-.146-.67-.296-.15-.15-.25-.367-.297-.646a6.631 6.631 0 0 1-.067-1.043v-3.78h2.066V5.146h-2.066V.936H17.47V11.38c0 .881.077 1.63.229 2.228.149.59.405 1.072.76 1.433.354.361.824.623 1.394.78.575.158 1.308.238 2.177.238h.362Zm16.358-.11V.103h-2.854V15.95h2.854ZM14.72 6.21c-.79-.853-1.908-1.284-3.32-1.284-.682 0-1.312.14-1.873.416a4.032 4.032 0 0 0-1.419 1.152l-.155.2-.001-.179v-1.37H5.137V15.95h2.836v-5.756l.003.399.002-.195c.03-1.009.283-1.762.753-2.24a2.464 2.464 0 0 1 1.812-.769c.823 0 1.452.252 1.868.748.407.486.616 1.183.62 2.07v5.742h2.88V9.816c0-1.54-.401-2.754-1.193-3.607h.002Zm19.689 4.315c0-.774-.139-1.51-.412-2.184a5.596 5.596 0 0 0-1.15-1.784 5.24 5.24 0 0 0-1.765-1.198 5.83 5.83 0 0 0-2.267-.433 5.55 5.55 0 0 0-2.2.443 5.717 5.717 0 0 0-1.79 1.2 5.7 5.7 0 0 0-1.203 1.785 5.49 5.49 0 0 0-.444 2.194c0 .775.142 1.514.422 2.196a5.497 5.497 0 0 0 1.171 1.783 5.494 5.494 0 0 0 1.81 1.199 5.999 5.999 0 0 0 2.322.443c2.414 0 3.92-1.095 4.82-2.12l-2.055-1.56c-.433.512-1.46 1.207-2.743 1.207-.806 0-1.469-.186-1.97-.553a2.738 2.738 0 0 1-1.03-1.5l-.029-.1h8.512v-1.018Zm-8.489-.99c0-.791.91-2.173 2.873-2.175 1.963 0 2.876 1.38 2.876 2.171l-5.75.003h.001ZM42.001.644A1.068 1.068 0 0 0 41.028 0c-.147 0-.283.028-.41.084a1.08 1.08 0 0 0-.563.561 1.008 1.008 0 0 0-.084.41c0 .144.028.281.084.409a1.068 1.068 0 0 0 .973.645 1.07 1.07 0 0 0 1.058-1.055c0-.146-.029-.282-.085-.409Zm-.171.746a.872.872 0 0 1-.801.53.877.877 0 0 1-.8-.53.842.842 0 0 1-.07-.337.874.874 0 0 1 .531-.799.849.849 0 0 1 .339-.067.874.874 0 0 1 .8.53.842.842 0 0 1 .069.336c0 .12-.023.232-.068.337Zm-.602-.252a.34.34 0 0 0 .205-.093c.055-.053.082-.132.082-.238 0-.117-.034-.207-.103-.269-.07-.062-.177-.093-.323-.093h-.466v1.203h.222v-.493h.162l.3.493h.233l-.312-.51Zm-.12-.174a1.356 1.356 0 0 1-.102.004h-.162V.631h.162c.035 0 .068.001.102.003a.275.275 0 0 1 .093.02.16.16 0 0 1 .066.051.153.153 0 0 1 .026.094c0 .04-.009.07-.026.093a.156.156 0 0 1-.067.051.332.332 0 0 1-.092.021Z" fill="#183544"/></svg>