<svg xmlns="http://www.w3.org/2000/svg" width="64" height="64" viewBox="0 0 64 64" fill="none"><path d="M45.2254 32.6001C41.1596 29.3252 37.8196 25.1943 35.4843 20.4773C34.8796 24.3104 33.7073 27.9575 32.0605 31.3348C33.698 34.6748 35.81 37.7451 38.3034 40.4618C40.2479 37.5311 42.5831 34.8981 45.2347 32.6094L45.2254 32.6001Z" fill="#FAA61A"></path><path d="M35.4843 20.4772C37.8195 25.1942 41.1596 29.325 45.2253 32.6C47.9699 30.2275 51.0495 28.2458 54.3988 26.72C51.2262 24.2824 48.1746 21.6215 45.2625 18.7187C41.5131 14.96 38.1545 10.9687 35.1772 6.77271C35.6796 9.25681 35.9495 11.834 35.9495 14.4762C35.9495 16.5138 35.782 18.5234 35.475 20.4772H35.4843Z" fill="#F68B1F"></path><path d="M54.3987 26.7295C51.0587 28.2553 47.9791 30.237 45.2252 32.6095C42.5737 34.8982 40.2384 37.5405 38.2939 40.4619C34.4608 46.2395 32.1534 53.1057 31.9395 60.5115C31.9488 60.8929 31.9674 61.2744 31.9674 61.6651C31.9674 61.7582 31.9674 61.8605 31.9674 61.9536C31.9767 61.9722 31.986 61.9908 31.9953 62.0001C35.5214 56.3155 39.7267 50.9379 44.6019 45.9604C44.8252 45.7278 45.0485 45.4952 45.2718 45.2719C47.9885 42.5552 50.8354 40.0432 53.794 37.7358C56.4456 35.6611 59.1902 33.7445 61.9999 32.0047C59.4042 30.3952 56.8642 28.6275 54.4081 26.7388L54.3987 26.7295Z" fill="#006838"></path><path d="M35.1771 6.78214C34.0606 5.2098 33 3.61886 31.9952 2C31.9394 2.09304 31.8836 2.17677 31.8277 2.26051C31.3067 3.09784 30.7578 3.92588 30.2089 4.75392C30.2461 5.461 30.274 6.16809 30.274 6.87517C30.274 11.006 29.6134 14.9788 28.404 18.7096C26.599 24.2825 23.5474 29.2973 19.584 33.4281C21.9006 35.5587 23.9381 37.9684 25.678 40.6013C28.2365 37.8567 30.395 34.74 32.0603 31.3348C33.7071 27.9668 34.8794 24.3197 35.4841 20.4773C35.7911 18.5235 35.9586 16.5232 35.9586 14.4764C35.9586 11.8341 35.6888 9.26624 35.1864 6.77283L35.1771 6.78214Z" fill="#C1272D"></path><path d="M30.1998 4.75391C29.7997 5.34935 29.3997 5.93548 28.9903 6.52162C25.9759 10.8014 22.5521 14.8857 18.7189 18.7189C15.7975 21.6402 12.7366 24.3104 9.54541 26.7573C13.239 28.4506 16.6256 30.7021 19.5749 33.4281C23.5383 29.2972 26.5806 24.2825 28.3948 18.7096C29.6043 14.9787 30.2649 11.006 30.2649 6.87517C30.2649 6.15878 30.2463 5.45169 30.1998 4.75391Z" fill="#ED1C24"></path><path d="M31.9395 60.502C31.9302 60.8834 31.9116 61.2649 31.9116 61.6556C31.9116 61.73 31.9116 61.8045 31.9116 61.8789C31.9302 61.9068 31.9395 61.9254 31.9581 61.9533C31.9581 61.8603 31.9581 61.758 31.9581 61.6649C31.9581 61.2835 31.9395 60.902 31.9302 60.5113L31.9395 60.502Z" fill="#7B181A"></path><path d="M31.9395 60.5021C31.7255 53.1614 29.4554 46.3511 25.6781 40.6013C23.9476 37.9684 21.9008 35.5494 19.5841 33.4281C16.6348 30.7114 13.2483 28.4506 9.55466 26.7573C7.10777 28.6367 4.58645 30.3858 2 31.9953C5.55404 34.2003 8.97783 36.6658 12.2714 39.3918C14.495 41.234 16.6534 43.1878 18.7282 45.2625C18.9701 45.5044 19.212 45.7556 19.4539 46.0068C24.2732 50.9285 28.432 56.2503 31.9302 61.8697C31.9302 61.7953 31.9302 61.7209 31.9302 61.6465C31.9302 61.265 31.9488 60.8835 31.9581 60.4928L31.9395 60.5021Z" fill="#7B181A"></path></svg>