<svg width="152" height="24" viewBox="0 0 152 24" fill="none" xmlns="http://www.w3.org/2000/svg">
<g clip-path="url(#clip0_578_3186)">
<path d="M35.7982 7.22849H40.3442V23.7151H48.3205V7.22849H52.8427V0.16617H35.8101V7.22849H35.7982ZM5.60237 16.6647H0V23.727H8.04748C8.71217 23.727 9.13947 23.6795 9.13947 23.6795C11.6083 23.3116 13.5074 21.2344 13.5905 18.6825V0.16617H5.61424V16.6647H5.60237ZM34.8487 15.1929C34.8487 14.5638 34.8249 13.9703 34.7893 13.3412H32.3442C32.3442 13.8754 32.4392 14.4451 32.4036 14.9792C32.368 15.5015 32.3442 16.0119 32.3086 16.546L23.1454 8.8546C21.911 7.82196 21.5074 7.21662 21.5074 5.55489C21.5074 2.4451 23.5134 2.35015 26.0653 2.35015C29.5786 2.35015 30.0178 2.94362 30.0534 5.92285V7.21662H32.724V5.92285C32.724 0.961423 30.3383 -0.0118713 26.0653 -0.0118713C21.4481 -0.0118713 18.8487 0.890206 18.8487 5.54303C18.8487 8.17804 19.4421 8.90208 20.9852 10.1958C17.9703 11.0386 16.178 10.8843 16.178 16.6053C16.178 23.9525 19.9169 23.9169 25.1276 23.9169C28.8902 23.9169 32.5697 23.9169 33.9228 20.8309L37.4125 23.727L38.8487 21.8754L34.5757 18.4926C34.7893 17.4243 34.8487 16.2849 34.8487 15.1929ZM25.1276 21.5668C19.5727 21.5668 18.8487 21.2226 18.8487 16.6409C18.8487 12.9021 19.1929 12.4273 22.6469 11.6439L31.8457 19.2047C31.276 21.7804 27.6677 21.5668 25.1276 21.5668ZM58.9674 7.32344H61.0564L66.2552 22.2196L72.1068 7.32344H74.0297L67.5371 23.727H64.8902L58.9792 7.32344H58.9674ZM74.2789 17.6499C74.2789 12.7122 76.7122 10.7418 79.7982 10.7418C82.8843 10.7418 84.4866 12.8546 84.4866 17.0801V17.7567H76.1306C76.178 21.6736 78.1721 22.4451 80.5816 22.4451C81.816 22.4451 82.7656 22.2315 83.9407 21.8635L84.2611 23.3472C83.3116 23.7389 81.8754 24.0237 80.273 24.0237C76.5816 24.0237 74.2671 22.4926 74.2671 17.6617L74.2789 17.6499ZM82.5875 16.368C82.5875 13.7923 81.6855 12.1662 79.6202 12.1662C77.7923 12.1662 76.368 13.5312 76.1662 16.368H82.5875ZM87.2997 11.0504H89.1276V12.4866C90.4451 11.5134 91.6795 10.7181 93.6499 10.7181C97.2463 10.7181 97.4718 13.4125 97.4718 15.5371V23.7033H95.6914V15.8813C95.6914 13.6973 95.3472 12.3323 93.187 12.3323C91.5608 12.3323 90.2671 13.1039 89.1276 13.8872V23.7033H87.2997V11.0386V11.0504ZM101.377 20.2018V12.6172H99.5252V11.0623H101.377V8.46291H103.169V11.0623H107.134V12.6172H103.193V20.1306C103.193 21.9228 104 22.4095 105.472 22.4095C106.172 22.4095 107.074 22.2196 107.608 22.0415L107.929 23.549C107.276 23.7745 106.101 24.0119 105.234 24.0119C102.872 24.0119 101.389 23.2047 101.389 20.2018H101.377ZM109.697 19.1335V11.0623H111.513V18.7656C111.513 20.7596 111.68 22.3383 113.947 22.3383C115.573 22.3383 117.056 21.4599 118.03 20.7596V11.0623H119.786V23.727H118.03V22.2433C116.819 23.0979 115.573 24.0119 113.436 24.0119C109.958 24.0119 109.697 21.27 109.697 19.1335ZM123.347 11.0504H125.175V12.7478C125.757 11.7982 127.003 10.7774 128.795 10.7774C129.543 10.7774 130.053 10.9199 130.279 10.9911L129.982 12.546C129.591 12.451 129.223 12.3798 128.475 12.3798C126.944 12.3798 125.78 13.4718 125.175 14.3976V23.727H123.347V11.0623V11.0504ZM131.276 17.6499C131.276 12.7122 133.709 10.7418 136.795 10.7418C139.881 10.7418 141.484 12.8546 141.484 17.0801V17.7567H133.128C133.175 21.6736 135.169 22.4451 137.579 22.4451C138.813 22.4451 139.763 22.2315 140.938 21.8635L141.258 23.3472C140.309 23.7389 138.872 24.0237 137.27 24.0237C133.579 24.0237 131.264 22.4926 131.264 17.6617L131.276 17.6499ZM139.585 16.368C139.585 13.7923 138.682 12.1662 136.617 12.1662C134.789 12.1662 133.365 13.5312 133.163 16.368H139.585ZM143.312 23.4421L143.608 21.8872C144.724 22.2077 145.899 22.4451 146.991 22.4451C148.843 22.4451 150.03 21.7211 150.03 20.4748C150.03 17.638 143.656 18.457 143.656 14.2789C143.656 11.9525 145.579 10.73 147.953 10.73C148.95 10.73 150.231 10.9436 151.134 11.3353L150.718 12.7953C149.911 12.4748 148.866 12.2611 147.941 12.2611C146.196 12.2611 145.46 13.0682 145.46 14.1128C145.46 17.0089 151.798 16.1543 151.798 20.3561C151.798 23.0742 149.128 24 146.884 24C145.697 24 144.261 23.7389 143.335 23.4421H143.312Z" fill="#667085"/>
</g>
<defs>
<clipPath id="clip0_578_3186">
<rect width="151.786" height="24" fill="white"/>
</clipPath>
</defs>
</svg>
