<svg width="140" height="77" viewBox="0 0 140 77" fill="none" xmlns="http://www.w3.org/2000/svg">
<path fill-rule="evenodd" clip-rule="evenodd" d="M6.40879 21.909C8.92232 14.0404 14.0353 9.18778 16.4807 7.23022C17.1002 5.77974 17.7315 4.31452 17.5329 4.20544C17.5211 4.19954 17.5063 4.19659 17.4885 4.19954C17.1298 4.27619 15.7011 6.49614 14.6667 7.92893C15.0164 6.41654 15.4433 4.70957 15.2299 4.63587C15.2239 4.63587 15.218 4.63587 15.2091 4.63587C14.9512 4.6565 14.1272 6.57574 13.4455 8.02916C13.4336 6.2367 13.7034 2.87583 13.3773 2.83161C13.072 2.79034 12.4881 5.71193 12.0138 7.49555C11.7856 5.92715 11.5574 4.06982 11.3262 4.07867C11.0861 4.08751 11.009 6.12467 10.9023 7.74614C10.2443 6.04802 9.31654 2.97607 9.00531 3.04977C8.69705 3.12347 9.24836 6.21017 9.44103 8.02916C8.66444 6.66123 7.75447 4.95721 7.50549 4.95721C7.49956 4.95721 7.49364 4.95721 7.48771 4.96016C7.27133 5.0545 7.89971 6.88529 8.37989 8.41242C7.17648 7.07397 5.35061 4.75674 5.03049 4.81865C5.0216 4.81865 5.01567 4.81865 5.00975 4.82455C4.74298 5.00733 6.45028 7.79921 7.26837 9.41479C6.05903 8.43601 4.55624 7.13293 4.25687 7.15062C4.24205 7.15062 4.2302 7.15652 4.2213 7.16536C4.05532 7.32751 5.25873 8.75735 6.25169 9.99262C4.7163 9.20547 2.4399 7.87291 1.99825 7.8965C1.96565 7.8965 1.94193 7.90534 1.93008 7.92303C1.74631 8.19131 4.411 10.2255 5.74187 11.4313C4.32208 10.9773 2.48436 10.3169 2.0605 10.3582C2.01307 10.3641 1.9864 10.3759 1.97454 10.3995C1.87969 10.6088 3.49214 11.4962 4.85858 12.2833C3.3558 12.1212 1.23945 11.791 0.471757 11.8293C0.296877 11.8382 0.193135 11.8676 0.178314 11.9207C0.104213 12.2391 3.32615 13.1737 5.00382 13.8193C4.31319 13.8606 3.52178 13.8959 2.82226 13.9372C1.84116 13.9962 1.05864 14.0699 1.04975 14.2202C1.03789 14.4502 2.89044 14.6978 4.45843 14.9425C2.67406 15.4172 -0.0410269 15.9862 0.000470098 16.281C0.0478952 16.5994 3.32912 16.3193 5.1372 16.3105C3.62553 17.0033 1.49732 17.873 1.57735 18.1147C1.65146 18.3388 3.53068 17.8818 5.09867 17.5428C3.60181 18.6336 1.2602 20.1548 1.40544 20.4143C1.55957 20.6914 4.39915 19.3117 6.09756 18.6336C4.94157 19.8187 3.31133 21.3606 3.47139 21.5552C3.62553 21.7409 5.30022 20.5705 6.65777 19.6802C5.66184 21.2397 3.97529 23.5688 4.20945 23.7604C4.37247 23.8931 5.36247 22.932 6.40286 21.906" fill="white"/>
<path d="M52.7421 21.7321H45.0177V29.754H52.7421V21.7321Z" fill="white"/>
<path d="M52.6748 7.90198H46.5332V14.0105H52.6748V7.90198Z" fill="white"/>
<path d="M60.1018 10.4495H56.8947V13.6364H60.1018V10.4495Z" fill="white"/>
<path d="M64.5845 11.3137H62.5837V13.3008H64.5845V11.3137Z" fill="white"/>
<path d="M66.3331 15.125H62.1241V19.3113H66.3331V15.125Z" fill="white"/>
<path d="M65.2426 21.1631H58.2415V28.1295H65.2426V21.1631Z" fill="white"/>
<path d="M57.9542 15.7852H54.9249V18.7981H57.9542V15.7852Z" fill="white"/>
<path d="M70.1271 20.1602H67.7677V22.5069H70.1271V20.1602Z" fill="white"/>
<path d="M57.3663 6.19861H55.1106V8.44508H57.3663V6.19861Z" fill="white"/>
<path d="M52.3667 16.744H49.3374V19.7569H52.3667V16.744Z" fill="white"/>
<path d="M29.1782 19.1434C39.2205 20.7207 48.4951 19.3203 48.4951 19.3203C40.5632 19.5974 34.3772 18.7395 29.7058 17.5278C29.5606 17.8816 29.3501 18.4535 29.1782 19.1434Z" fill="white"/>
<path d="M51.2192 49.6123C48.3589 50.0221 45.4482 49.916 42.3211 49.916C29.46 49.916 17.9831 46.0539 12.7812 40.6942C10.2262 31.4076 12.0757 22.7106 15.4844 16.6316C13.8927 15.8385 12.6567 14.901 11.4266 13.9606C5.42437 22.5278 4.25652 32.3127 6.92419 41.1571C11.9631 46.7202 23.8964 50.9184 37.0599 50.9184C42.1818 50.9184 46.9124 50.6589 51.2163 49.6123H51.2192Z" fill="white"/>
<path d="M12.5917 12.5397C16.1456 15.4052 20.5057 17.1977 24.9518 18.2974C24.3027 19.91 23.784 21.6199 23.4491 23.4124C21.9315 31.5463 22.3672 39.8217 24.8125 44.7509C23.8077 39.4826 23.9026 32.4985 25.2275 25.6235C27.3023 14.8628 33.3935 7.73715 38.9126 4.25835C34.6295 5.13984 29.1134 9.71534 25.8292 16.3339C21.5017 14.7743 19.0859 13.0615 18.2323 12.3834C23.0341 6.18053 30.8829 0.997719 39.4906 0.0100949C29.3772 -0.246393 18.9289 4.39691 12.5917 12.5397Z" fill="white"/>
<path d="M16.5403 49.1438C13.4843 48.3979 10.5114 46.4905 8.25867 44.8041C13.8163 56.8561 25.9719 64.25 38.0476 64.2854C39.0464 64.2854 40.6174 64.3503 41.5748 64.2618C32.321 63.5425 22.5692 58.5955 16.5373 49.1438H16.5403Z" fill="white"/>
<path d="M67.3907 45.0078C67.3907 45.0078 63.3151 56.8357 51.0527 62.219C51.0527 62.219 66.0213 57.5374 71.0602 41.6941C71.0602 41.6941 68.9112 43.9406 67.3936 45.0107L67.3907 45.0078Z" fill="white"/>
<path d="M100.091 53.5841C100.091 53.5841 100.067 53.5664 100.055 53.5605C101.982 51.2993 102.797 48.5103 102.797 45.9189V45.7892C102.797 39.7573 98.4427 33.6694 88.7116 33.6694H62.696L48.0091 49.8665V33.6694H38.8619V76.665H48.0091V59.4302L64.7531 76.665H89.4052C93.5045 76.665 96.7769 75.8719 99.409 74.2387C103.07 71.9686 105.168 68.1419 105.168 63.7345V63.5871C105.168 59.4685 103.366 55.916 100.091 53.587M54.8738 53.9998L72.9458 34.1205V72.7056L54.8738 54.0027V53.9998ZM95.8432 63.7374C95.8432 67.6024 92.6301 69.2357 87.5497 69.2357H82.0425V41.1017H87.3393C91.5957 41.1017 93.9551 42.7939 93.9551 45.7922V45.9219C93.9551 49.3093 91.1392 50.7421 86.6842 50.7421H84.3752V58.2362H88.2937C93.1518 58.2362 95.8402 60.1672 95.8402 63.5871V63.7345L95.8432 63.7374Z" fill="white"/>
<path d="M139.205 76.6585L128.478 56.5552C133.301 54.2527 135.18 49.8541 135.18 45.9154V45.7857C135.18 39.7538 130.826 33.6659 121.094 33.6659H105.109V76.6585H114.224V41.0952H119.722C123.979 41.0952 126.338 42.7874 126.338 45.7857V45.9154C126.338 49.3028 123.522 50.7356 119.067 50.7356H116.556V58.2297H119.79L129.726 76.6585H139.202H139.205Z" fill="white"/>
<path d="M133.968 35.3786C133.968 33.8692 135.201 32.6545 136.707 32.6545C138.213 32.6545 139.458 33.8692 139.458 35.3786C139.458 36.8881 138.225 38.1027 136.707 38.1027C135.189 38.1027 133.968 36.8881 133.968 35.3786ZM139.102 35.3786C139.102 34.0696 138.023 33.0083 136.707 33.0083C135.391 33.0083 134.324 34.0696 134.324 35.3786C134.324 36.6876 135.391 37.7489 136.707 37.7489C138.023 37.7489 139.102 36.6876 139.102 35.3786ZM135.545 33.6923H136.861C137.62 33.6923 137.964 34.164 137.964 34.6946C137.964 35.1192 137.762 35.4847 137.3 35.638L138.284 37.0178H137.537L136.624 35.697H136.209V37.0178H135.545V33.6923ZM136.754 35.2135C137.134 35.2135 137.3 35.0013 137.3 34.6946C137.3 34.388 137.134 34.1758 136.754 34.1758H136.209V35.2135H136.754Z" fill="white"/>
</svg>

