<?xml version="1.0" encoding="UTF-8"?>
<svg xmlns="http://www.w3.org/2000/svg" width="290" height="35" viewBox="0 0 290 35" fill="none">
  <g clip-path="url(#clip0_3615_16999)">
    <path d="M28.16 26.3466L28.1877 26.3188C28.2293 26.2772 28.2756 26.2402 28.3219 26.1986L28.3357 26.1847C28.3727 26.1384 28.4144 26.0922 28.456 26.0505L28.4838 26.0228C28.4838 26.0228 28.5115 25.995 28.53 25.9719L28.7011 25.736C28.7289 25.6851 28.7567 25.6342 28.7844 25.5926C28.826 25.5371 28.8538 25.4816 28.8769 25.4261L28.8862 25.4076C28.8862 25.4076 28.9093 25.3613 28.9185 25.3382C28.9324 25.3105 28.9509 25.2735 28.9694 25.2272C28.9787 25.1856 28.9972 25.1439 29.0111 25.1023V25.0931C29.0434 25.0237 29.0712 24.9497 29.0804 24.8849C29.1498 24.686 29.1637 24.4779 29.1776 24.279C29.1776 24.2558 29.1776 24.2281 29.1822 24.205V24.1125V24.0246C29.1822 24.0014 29.1822 23.9737 29.1776 23.9506C29.1637 23.7517 29.1498 23.5435 29.0851 23.3631C29.0758 23.2799 29.0434 23.2012 29.0157 23.1319V23.1226C28.9972 23.081 28.9787 23.0393 28.9648 22.9838C28.9509 22.9515 28.937 22.9191 28.9139 22.8821C28.9 22.8589 28.8908 22.8358 28.8815 22.8127L28.8723 22.7942C28.8492 22.7387 28.8214 22.6832 28.7844 22.6369C28.752 22.586 28.7243 22.5352 28.6873 22.4704L28.5161 22.2391C28.5161 22.2391 28.4884 22.2114 28.4745 22.1975L28.4467 22.1697C28.4051 22.1281 28.3681 22.0819 28.3265 22.0356L28.3126 22.0217C28.2664 21.9847 28.2201 21.9431 28.1785 21.9015L28.1507 21.8737C28.1507 21.8737 28.123 21.846 28.0998 21.8275L27.8639 21.6563C27.8131 21.6286 27.7622 21.6008 27.7205 21.5731C27.665 21.5314 27.6095 21.5083 27.554 21.4805L27.5355 21.4713C27.5355 21.4713 27.4893 21.4482 27.4661 21.4389C27.4384 21.425 27.4014 21.4065 27.3551 21.388C27.3135 21.3788 27.2672 21.3603 27.2302 21.3418H27.221C27.1516 21.3094 27.0776 21.2817 27.0128 21.277C26.8139 21.2076 26.6058 21.1938 26.4069 21.1799C26.356 21.1799 26.3051 21.1706 26.2358 21.166C26.1849 21.166 26.134 21.1753 26.0831 21.1799C25.8842 21.1938 25.6761 21.2076 25.4957 21.2724C25.4124 21.2817 25.3338 21.314 25.2644 21.3418H25.2552C25.2135 21.3603 25.1719 21.3788 25.1164 21.3927C25.084 21.4065 25.0516 21.4204 25.0146 21.4435C24.9915 21.4574 24.9684 21.4667 24.9452 21.4759L24.9267 21.4852C24.9267 21.4852 24.8851 21.5037 24.862 21.5129L24.7695 21.5684C24.7232 21.6008 24.6723 21.6286 24.603 21.6656L24.3717 21.8367C24.3717 21.8367 24.3439 21.8645 24.3254 21.8783L24.2977 21.9061C24.256 21.9477 24.2098 21.9847 24.1635 22.0264L24.1497 22.0402C24.1127 22.0865 24.071 22.1327 24.0294 22.1744L24.0016 22.2021C24.0016 22.2021 23.9739 22.2299 23.9554 22.253L23.7842 22.4889C23.7565 22.5398 23.7287 22.5907 23.701 22.6323C23.6594 22.6878 23.6316 22.7433 23.6085 22.7988L23.5992 22.8173C23.59 22.8404 23.5761 22.8636 23.5668 22.8867C23.5483 22.9191 23.5345 22.9515 23.516 22.9977C23.5067 23.0393 23.4882 23.0856 23.4697 23.1319C23.442 23.2012 23.4142 23.2752 23.405 23.3446C23.3356 23.5435 23.3217 23.7517 23.3078 23.9506C23.3078 24.0014 23.2986 24.0523 23.2939 24.1217C23.2939 24.1726 23.3032 24.2235 23.3078 24.2743C23.3217 24.4732 23.3356 24.6814 23.4003 24.8618C23.4142 24.945 23.442 25.0191 23.4697 25.0931C23.4882 25.1347 23.5021 25.1763 23.5206 25.2318C23.5345 25.2688 23.553 25.3012 23.5668 25.3336C23.5807 25.3567 23.59 25.3798 23.5992 25.403L23.6085 25.4215C23.6316 25.477 23.6594 25.5325 23.6964 25.5787C23.7287 25.625 23.7565 25.6759 23.7935 25.7453L23.9646 25.9765C23.9646 25.9765 23.9924 26.0043 24.0063 26.0182L24.034 26.0459C24.0757 26.0875 24.1127 26.1338 24.1543 26.1801L24.1682 26.1939C24.2144 26.2309 24.2607 26.2679 24.3023 26.3142L24.3301 26.3419C24.3301 26.3419 24.3578 26.3697 24.3809 26.3882L24.6168 26.5593C24.6677 26.5871 24.7186 26.6148 24.7695 26.6472L24.8481 26.6981L24.862 26.7074C24.862 26.7074 24.9036 26.7259 24.9267 26.7351L24.9499 26.7444C24.9499 26.7444 24.9961 26.7675 25.0193 26.7767C25.0516 26.7952 25.084 26.8091 25.1303 26.8276C25.1719 26.8369 25.2182 26.8554 25.2644 26.8739C25.3338 26.9016 25.4078 26.9294 25.4772 26.9386C25.6761 27.008 25.8842 27.0219 26.0877 27.0358C26.1386 27.0358 26.1895 27.045 26.2589 27.0496C26.3098 27.0496 26.3606 27.0404 26.4115 27.0358C26.6104 27.0219 26.8186 27.008 26.999 26.9433C27.0822 26.934 27.1562 26.9016 27.2302 26.8739C27.2719 26.8554 27.3181 26.8415 27.3736 26.823C27.406 26.8091 27.4384 26.7906 27.4754 26.7721C27.4985 26.7629 27.5216 26.749 27.5448 26.7397L27.5633 26.7305C27.6142 26.7074 27.6743 26.6842 27.7205 26.6472C27.7668 26.6148 27.8177 26.5871 27.8871 26.5501L28.1183 26.3789C28.1183 26.3789 28.1461 26.3512 28.16 26.3373V26.3466ZM28.0952 25.0514C28.0813 25.0838 28.0721 25.1116 28.049 25.1393C28.0212 25.1856 27.9934 25.2272 27.9796 25.2596C27.9703 25.2735 27.9564 25.2873 27.9472 25.3012C27.9287 25.3243 27.9102 25.3475 27.8917 25.3752L27.8593 25.4261C27.8593 25.4261 27.8454 25.44 27.8362 25.4492C27.8269 25.4585 27.8177 25.4677 27.8084 25.477C27.776 25.5094 27.7437 25.5464 27.7159 25.5834C27.6789 25.6111 27.6419 25.6435 27.6095 25.6759C27.6003 25.6851 27.591 25.6944 27.5818 25.7036C27.5772 25.7083 27.5725 25.7129 27.5679 25.7175L27.5078 25.7545C27.48 25.773 27.4569 25.7915 27.4338 25.81C27.4153 25.8239 27.406 25.8331 27.4014 25.8378C27.3505 25.8609 27.3089 25.8886 27.258 25.921C27.2395 25.9395 27.2071 25.9488 27.1794 25.9627L27.1609 25.9719C27.1377 25.9812 27.11 25.995 27.0869 26.0089C27.073 26.0182 27.0545 26.0274 27.0452 26.032C26.999 26.0413 26.9527 26.0598 26.9157 26.0783C26.8741 26.0968 26.8324 26.1107 26.7908 26.1153H26.7677C26.6521 26.1615 26.5272 26.1708 26.393 26.1801H26.3791C26.3329 26.1847 26.2866 26.1893 26.2404 26.1939C26.1941 26.1893 26.1479 26.1847 26.097 26.1801H26.0831C25.949 26.1708 25.8241 26.1616 25.7038 26.1199H25.6807C25.6437 26.1107 25.6021 26.0922 25.5604 26.0783C25.5188 26.0598 25.4772 26.0459 25.4402 26.0367C25.4263 26.032 25.4078 26.0228 25.3939 26.0135H25.3893C25.3893 26.0135 25.343 25.9858 25.3199 25.9765L25.3014 25.9673C25.2737 25.9534 25.2552 25.9442 25.2367 25.9349L25.2182 25.921L25.1164 25.8609C25.1164 25.8609 25.0979 25.8516 25.0933 25.8516C25.0794 25.8424 25.0655 25.8331 25.0516 25.8193C25.0516 25.8193 25.0054 25.7776 24.9776 25.7591L24.9314 25.7268C24.9314 25.7268 24.9175 25.7129 24.9082 25.7036C24.899 25.6944 24.8897 25.6851 24.8805 25.6759C24.8481 25.6435 24.8111 25.6111 24.7741 25.5834C24.7464 25.5464 24.714 25.5094 24.6816 25.477C24.6723 25.4677 24.6631 25.4585 24.6538 25.4492C24.6492 25.4446 24.6446 25.44 24.64 25.4353L24.603 25.3798C24.5845 25.3521 24.566 25.329 24.5475 25.3058C24.5336 25.2873 24.5243 25.2781 24.5197 25.2735C24.4966 25.2272 24.4688 25.1809 24.4364 25.1301C24.4179 25.1116 24.4087 25.0838 24.3948 25.0514L24.3856 25.0329C24.3763 25.0052 24.3624 24.982 24.3486 24.9589C24.3393 24.945 24.3301 24.9265 24.3254 24.9173C24.3162 24.8664 24.2977 24.8248 24.2792 24.7878C24.2607 24.7461 24.2468 24.7045 24.2422 24.6629V24.6398C24.1959 24.5241 24.1867 24.3992 24.1774 24.2651V24.2512C24.1728 24.205 24.1682 24.1541 24.1635 24.1125C24.1682 24.0662 24.1728 24.0199 24.1774 23.9691V23.9552C24.1867 23.8211 24.1959 23.6962 24.2422 23.5759V23.5528C24.2514 23.5158 24.2699 23.4741 24.2884 23.4279C24.3069 23.3863 24.3208 23.3446 24.3254 23.3122C24.3301 23.2937 24.3393 23.2799 24.3486 23.2614C24.3624 23.2336 24.3763 23.2105 24.3856 23.1874L24.3948 23.1689C24.4087 23.1365 24.4179 23.1087 24.4411 23.081C24.4688 23.0393 24.4966 22.9931 24.5105 22.9607C24.5197 22.9468 24.529 22.933 24.5428 22.9191C24.5613 22.896 24.5798 22.8682 24.5983 22.8404L24.6307 22.7896C24.6307 22.7896 24.6446 22.7757 24.6492 22.7711C24.6585 22.7618 24.6677 22.7526 24.677 22.7433C24.7093 22.7109 24.7417 22.6739 24.7695 22.6369C24.8065 22.6092 24.8435 22.5768 24.8759 22.5444C24.8851 22.5352 24.8944 22.5259 24.9036 22.5167C24.9082 22.512 24.9129 22.5074 24.9175 22.5028L24.973 22.4658C25.0008 22.4473 25.0239 22.4288 25.047 22.4103C25.0655 22.3964 25.0748 22.3871 25.0794 22.3825C25.0886 22.3779 25.0979 22.3733 25.1071 22.364C25.1118 22.364 25.121 22.3548 25.1256 22.3501L25.2135 22.2993L25.2413 22.2808C25.2413 22.2808 25.2783 22.2623 25.3014 22.253L25.3199 22.2438C25.343 22.2345 25.3662 22.2206 25.3939 22.2068C25.4078 22.1975 25.4263 22.1883 25.4309 22.1836C25.4772 22.1744 25.5234 22.1559 25.5604 22.1374C25.6021 22.1189 25.6437 22.105 25.6853 22.1004H25.7085C25.8241 22.0541 25.949 22.0449 26.0831 22.0356H26.097C26.1432 22.031 26.1895 22.0264 26.2358 22.0217C26.282 22.0264 26.3283 22.031 26.3791 22.0356H26.393C26.5272 22.0449 26.6521 22.0541 26.7723 22.1004H26.7954C26.8324 22.1096 26.8741 22.1281 26.9157 22.142C26.9573 22.1605 26.999 22.1744 27.0313 22.1836C27.0498 22.1883 27.0637 22.1975 27.0776 22.2068C27.1054 22.2253 27.1285 22.2345 27.147 22.2438L27.1655 22.253C27.1979 22.2669 27.2256 22.2761 27.2534 22.2993C27.2996 22.327 27.3413 22.3548 27.3736 22.3686C27.3875 22.3779 27.4014 22.3918 27.4153 22.401C27.443 22.4242 27.4661 22.4427 27.4893 22.4565L27.5401 22.4889C27.5401 22.4889 27.554 22.5028 27.5633 22.512C27.5725 22.5213 27.5818 22.5305 27.591 22.5398C27.6234 22.5722 27.6604 22.6045 27.6974 22.6323C27.7252 22.6693 27.7575 22.7063 27.7899 22.7387C27.7992 22.7479 27.8084 22.7572 27.8177 22.7664C27.8223 22.7711 27.8269 22.7757 27.8316 22.7803L27.8686 22.8358C27.8871 22.8636 27.9056 22.8867 27.9241 22.9098C27.9379 22.9283 27.9472 22.9376 27.9518 22.9422C27.9749 22.9885 28.0027 23.0347 28.0351 23.0856C28.0536 23.1041 28.0628 23.1319 28.0767 23.1642L28.086 23.1827C28.0952 23.2105 28.1091 23.2336 28.123 23.2567C28.1322 23.2706 28.1415 23.2891 28.1461 23.2937C28.1553 23.3446 28.1738 23.3863 28.1923 23.4233C28.2108 23.4649 28.2247 23.5065 28.2293 23.5481V23.5713C28.2756 23.6869 28.2849 23.8118 28.2941 23.9459C28.2941 23.9968 28.3034 24.0523 28.308 24.0986C28.3034 24.1495 28.2987 24.205 28.2941 24.2558C28.2849 24.39 28.2756 24.5149 28.234 24.6351V24.6583C28.2247 24.6953 28.2062 24.7369 28.1923 24.7785C28.1738 24.8202 28.16 24.8618 28.1507 24.8942C28.1461 24.9127 28.1368 24.9265 28.123 24.945C28.1091 24.9728 28.0952 24.9913 28.086 25.0144L28.0767 25.0376L28.0952 25.0514Z" fill="white"></path>
    <path d="M13.7096 23.9464C13.6957 23.7475 13.6818 23.5394 13.6171 23.359C13.6078 23.2757 13.5755 23.1971 13.5477 23.1277V23.1184C13.5292 23.0768 13.5107 23.0352 13.4968 22.9797C13.4829 22.9427 13.4644 22.9103 13.4506 22.8779C13.4367 22.8548 13.4274 22.8317 13.4182 22.8085L13.4089 22.79C13.3858 22.7345 13.3581 22.679 13.3211 22.6281C13.2887 22.5819 13.2609 22.531 13.2239 22.4616L13.0528 22.2303C13.0528 22.2303 13.025 22.2026 13.0111 22.1887L12.9834 22.161C12.9418 22.1193 12.9048 22.0731 12.8631 22.0268L12.8493 22.0129C12.803 21.9759 12.7567 21.9343 12.7151 21.8927L12.6874 21.8649C12.6874 21.8649 12.6596 21.8372 12.6365 21.8187L12.4006 21.6475C12.3497 21.6198 12.2988 21.592 12.2572 21.5643C12.2017 21.5226 12.1462 21.4949 12.0907 21.4718L12.0722 21.4625C12.0722 21.4625 12.0305 21.444 12.012 21.4348H12.0028C11.9704 21.4116 11.938 21.3978 11.8918 21.3793C11.8455 21.3654 11.8039 21.3515 11.7576 21.333C11.6883 21.3052 11.6142 21.2775 11.5495 21.2682C11.3506 21.1989 11.1424 21.185 10.9435 21.1711C10.8927 21.1711 10.8418 21.1619 10.7724 21.1572C10.7215 21.1572 10.6706 21.1665 10.6198 21.1711C10.4209 21.185 10.2127 21.1989 10.0323 21.2636C9.94907 21.2729 9.87506 21.3052 9.80105 21.333C9.75942 21.3515 9.71317 21.3654 9.65766 21.3839C9.62066 21.3978 9.58828 21.4163 9.56053 21.4301H9.55128C9.55128 21.4301 9.50965 21.4579 9.49115 21.4671L9.47264 21.4764C9.47264 21.4764 9.43101 21.4949 9.40789 21.5041L9.31538 21.5596C9.26912 21.592 9.21824 21.6198 9.14886 21.6568L8.91758 21.8279C8.91758 21.8279 8.88983 21.8557 8.87133 21.8696L8.84358 21.8973C8.80195 21.9389 8.75569 21.9759 8.70944 22.0176L8.69556 22.0314C8.65856 22.0777 8.61693 22.124 8.5753 22.1656L8.54754 22.1933C8.54754 22.1933 8.51979 22.2211 8.50129 22.2442L8.33015 22.4801C8.30239 22.5264 8.27464 22.5773 8.24689 22.6235C8.20526 22.679 8.18213 22.7345 8.15438 22.79L8.14513 22.8085C8.13588 22.8317 8.122 22.8548 8.11275 22.8779C8.09425 22.9103 8.08037 22.9427 8.06187 22.9889C8.05262 23.0306 8.03411 23.0722 8.02024 23.1138V23.1231C7.98786 23.1924 7.96011 23.2665 7.95086 23.3312C7.88147 23.5301 7.8676 23.7383 7.85372 23.9371C7.85372 23.988 7.84447 24.0389 7.83984 24.1083C7.83984 24.1592 7.84909 24.2101 7.85372 24.2609C7.8676 24.4598 7.88147 24.668 7.94623 24.8484C7.95548 24.9316 7.98786 25.0103 8.01561 25.0796V25.0889C8.03411 25.1305 8.05262 25.1722 8.06649 25.2277C8.08037 25.2647 8.09887 25.297 8.11275 25.3294C8.12662 25.3525 8.13588 25.3757 8.14513 25.3988L8.15438 25.4173C8.1775 25.4728 8.20526 25.5283 8.24226 25.5792C8.27464 25.6255 8.30239 25.6763 8.3394 25.7457L8.51054 25.977C8.51054 25.977 8.53829 26.0047 8.55217 26.0186L8.57992 26.0464C8.62155 26.088 8.65856 26.1343 8.70019 26.1805L8.71406 26.1944C8.76032 26.2314 8.80657 26.2684 8.8482 26.3147L8.87595 26.3424C8.87595 26.3424 8.90371 26.3702 8.92683 26.3933L9.16273 26.5644C9.21361 26.5922 9.2645 26.6246 9.31538 26.6523L9.39401 26.7032L9.41251 26.7124C9.41251 26.7124 9.45414 26.7309 9.47264 26.7402L9.49577 26.7494C9.49577 26.7494 9.5374 26.768 9.56053 26.7818H9.56515C9.59291 26.8003 9.62991 26.8188 9.67616 26.8373C9.72242 26.8466 9.76405 26.8651 9.80568 26.8836C9.87969 26.9113 9.95369 26.9391 10.0185 26.9483C10.2173 27.0177 10.4255 27.0316 10.6244 27.0455C10.6753 27.0455 10.7262 27.0547 10.7955 27.0594C10.8464 27.0594 10.8973 27.0501 10.9482 27.0455C11.1471 27.0316 11.3552 27.0177 11.5356 26.953C11.6189 26.9437 11.6929 26.9113 11.7669 26.8836C11.8085 26.8651 11.8548 26.8512 11.9103 26.8327C11.9427 26.8188 11.975 26.805 12.0074 26.7865H12.012C12.012 26.7865 12.0537 26.7633 12.0768 26.7494L12.0999 26.7402C12.1554 26.7171 12.2109 26.6939 12.2572 26.6569C12.3034 26.6246 12.3543 26.5968 12.4237 26.5598L12.655 26.3887C12.655 26.3887 12.6827 26.3609 12.7012 26.347L12.729 26.3193C12.7706 26.2776 12.8169 26.2406 12.8631 26.199L12.877 26.1851C12.914 26.1389 12.9556 26.0926 12.9973 26.051L13.025 26.0232C13.025 26.0232 13.0528 25.9955 13.0713 25.9724L13.2424 25.7365C13.2702 25.6856 13.2979 25.6347 13.3257 25.5931C13.3673 25.5376 13.3904 25.4821 13.4182 25.4266L13.4274 25.4081C13.4367 25.3849 13.4506 25.3618 13.4598 25.3387C13.4783 25.3063 13.4922 25.2739 13.5107 25.2277C13.5199 25.186 13.5385 25.1444 13.5523 25.1028V25.0935C13.5847 25.0241 13.6125 24.9501 13.6217 24.8854C13.6911 24.6865 13.705 24.4783 13.7188 24.2748C13.7188 24.2517 13.7188 24.2286 13.7235 24.2054L13.7327 24.1083L13.7235 24.0158C13.7235 24.0158 13.7235 23.9695 13.7188 23.9464H13.7096ZM12.84 24.2656C12.8308 24.3997 12.8215 24.5246 12.7799 24.6448V24.668C12.7706 24.705 12.7521 24.7466 12.7382 24.7882C12.7197 24.8299 12.7059 24.8715 12.6966 24.9085C12.692 24.9224 12.6827 24.9363 12.6735 24.9548V24.964C12.655 24.9871 12.6457 25.0103 12.6319 25.0334L12.6226 25.0519C12.6087 25.0843 12.5995 25.112 12.5763 25.1398C12.5486 25.186 12.5208 25.2277 12.507 25.26C12.4977 25.2739 12.4885 25.2832 12.4792 25.297V25.3063C12.4515 25.334 12.433 25.3525 12.4191 25.3803L12.3867 25.4312C12.3867 25.4312 12.3728 25.4451 12.3636 25.4543C12.3543 25.4636 12.3451 25.4728 12.3358 25.4821C12.3034 25.5144 12.2711 25.5514 12.2433 25.5884C12.2063 25.6162 12.1693 25.6486 12.1369 25.681C12.1277 25.6902 12.1184 25.6995 12.1092 25.7087C12.1045 25.7133 12.0999 25.718 12.0953 25.7226L12.0398 25.7596C12.012 25.7781 11.9889 25.7966 11.9658 25.8151C11.9473 25.829 11.938 25.8382 11.9334 25.8429C11.8825 25.866 11.8409 25.8937 11.79 25.9261C11.7715 25.94 11.7438 25.9539 11.7114 25.9677L11.6929 25.977C11.6651 25.9862 11.642 26.0001 11.6189 26.014C11.605 26.0232 11.5865 26.0325 11.5772 26.0371C11.531 26.0464 11.4847 26.0649 11.4477 26.0834C11.4061 26.1019 11.3645 26.1158 11.3228 26.1204H11.2997C11.1841 26.1666 11.0592 26.1759 10.925 26.1851H10.9112C10.8649 26.1898 10.8187 26.1944 10.7724 26.199C10.7262 26.1944 10.6753 26.1898 10.629 26.1851H10.6151C10.481 26.1759 10.3561 26.1666 10.2358 26.125H10.2127C10.1757 26.1158 10.1341 26.0973 10.0925 26.0834C10.0508 26.0649 10.0092 26.051 9.9722 26.0417C9.95832 26.0371 9.93982 26.0279 9.92594 26.0186H9.92132C9.89819 26.0001 9.87506 25.9909 9.85193 25.9816L9.83343 25.9724C9.80105 25.9585 9.78255 25.9492 9.76405 25.94L9.74555 25.9261C9.74555 25.9261 9.62991 25.8567 9.62066 25.8567C9.60678 25.8475 9.59291 25.8382 9.57903 25.8244C9.57903 25.8244 9.53277 25.7827 9.50502 25.7642L9.45877 25.7318C9.45877 25.7318 9.44489 25.718 9.43564 25.7087C9.42639 25.6995 9.41714 25.6902 9.40789 25.681C9.37088 25.6486 9.3385 25.6162 9.3015 25.5884C9.27375 25.5514 9.24137 25.5144 9.20899 25.4821C9.19974 25.4728 9.19049 25.4636 9.18124 25.4543C9.17199 25.4497 9.16736 25.4451 9.16736 25.4404L9.13036 25.3849C9.11185 25.3572 9.09335 25.334 9.07485 25.3109C9.06097 25.2924 9.05172 25.2832 9.0471 25.2785C9.02397 25.2323 8.99622 25.186 8.96384 25.1352C8.94534 25.1166 8.93609 25.0889 8.92221 25.0565L8.91296 25.038C8.90371 25.0103 8.88983 24.9871 8.87595 24.964C8.8667 24.9501 8.85745 24.9316 8.85283 24.927C8.84358 24.8807 8.82507 24.8391 8.80657 24.7975C8.78807 24.7559 8.77419 24.7142 8.76957 24.6726V24.6495C8.72331 24.5338 8.71406 24.4089 8.70481 24.2748V24.2609C8.70019 24.2147 8.69556 24.1638 8.69093 24.1222C8.69556 24.0759 8.70019 24.0297 8.70481 23.9788V23.9603C8.71406 23.8261 8.72331 23.7012 8.76957 23.5856V23.5625C8.77882 23.5255 8.79732 23.4838 8.8112 23.4422C8.8297 23.4006 8.84358 23.359 8.85283 23.322C8.85745 23.3081 8.8667 23.2896 8.87595 23.2757C8.88983 23.2433 8.90371 23.2202 8.91296 23.1971L8.92221 23.1786C8.93609 23.1462 8.94534 23.1184 8.96846 23.0907C8.99622 23.0444 9.02397 23.0028 9.03785 22.9704C9.0471 22.9565 9.05635 22.9473 9.0656 22.9334V22.9242C9.09335 22.901 9.11185 22.8779 9.13036 22.8502L9.16273 22.7993C9.16273 22.7993 9.17661 22.7854 9.18586 22.7761C9.19511 22.7669 9.20436 22.7576 9.21362 22.7484C9.24599 22.716 9.27837 22.679 9.30613 22.642C9.34313 22.6143 9.38013 22.5819 9.41251 22.5495C9.42176 22.5402 9.43101 22.531 9.44026 22.5217C9.44489 22.5171 9.44952 22.5125 9.45414 22.5079L9.50965 22.4709C9.5374 22.4524 9.56053 22.4339 9.58365 22.4154C9.60216 22.4015 9.61141 22.3922 9.61603 22.3876C9.62528 22.383 9.63916 22.3737 9.64841 22.3691C9.65304 22.3691 9.66229 22.3599 9.66691 22.3599L9.7548 22.309L9.77793 22.2951C9.77793 22.2951 9.81493 22.2766 9.84268 22.2627L9.86118 22.2535C9.88894 22.2442 9.91206 22.2303 9.93519 22.2165C9.94907 22.2072 9.96757 22.198 9.9722 22.1933C10.0185 22.1841 10.0647 22.1656 10.1017 22.1471C10.1433 22.1286 10.185 22.1147 10.2266 22.1101H10.2497C10.3654 22.0638 10.4903 22.0546 10.6244 22.0453H10.6383C10.6845 22.0407 10.7308 22.0361 10.777 22.0314C10.8233 22.0361 10.8742 22.0407 10.9204 22.0453H10.9343C11.0684 22.0546 11.1933 22.0638 11.3136 22.1055H11.3367C11.3737 22.1147 11.4154 22.1332 11.457 22.1471C11.4986 22.1656 11.5402 22.1795 11.5772 22.1887C11.5957 22.1933 11.6096 22.2026 11.6281 22.2165C11.6559 22.2303 11.6744 22.2442 11.6975 22.2535L11.7206 22.2627C11.753 22.2766 11.7808 22.2858 11.8085 22.309C11.8548 22.3367 11.8964 22.3645 11.9288 22.3784C11.9427 22.3876 11.9565 22.4015 11.9704 22.4107C11.9935 22.4292 12.0167 22.4477 12.0444 22.4662L12.0953 22.4986C12.0953 22.4986 12.1092 22.5125 12.1184 22.5217C12.1277 22.531 12.1369 22.5402 12.1462 22.5495C12.1786 22.5819 12.2156 22.6143 12.2526 22.642C12.2803 22.679 12.3127 22.716 12.3451 22.7484C12.3543 22.7576 12.3636 22.7669 12.3728 22.7761C12.3775 22.7808 12.3821 22.7854 12.3867 22.79L12.4237 22.8455C12.4422 22.8733 12.4607 22.8964 12.4792 22.9195C12.4931 22.938 12.5023 22.9473 12.507 22.9519C12.5301 22.9982 12.5578 23.0444 12.5902 23.0953C12.6087 23.1138 12.618 23.1416 12.6319 23.1739L12.6411 23.1924C12.6504 23.2156 12.6642 23.2387 12.6781 23.2665C12.6874 23.2803 12.6966 23.2988 12.7012 23.3081C12.7105 23.359 12.729 23.4006 12.7475 23.4376H12.766H12.7521C12.7706 23.4792 12.7845 23.5209 12.7891 23.5579V23.581C12.8354 23.6966 12.8446 23.8215 12.8539 23.9557C12.8539 24.0065 12.8631 24.062 12.8678 24.1083C12.8631 24.1592 12.8585 24.2147 12.8539 24.2656H12.84Z" fill="white"></path>
    <path d="M15.6985 11.5266C15.7077 11.6098 15.7401 11.6885 15.7679 11.7578V11.7671C15.7864 11.8087 15.8049 11.8504 15.8188 11.9059C15.8326 11.9382 15.8511 11.9706 15.865 12.003C15.8789 12.0261 15.8881 12.0492 15.902 12.0724L15.9113 12.0863C15.9344 12.1418 15.9621 12.2019 15.9992 12.2481C16.0315 12.299 16.0593 12.3499 16.0963 12.4147C16.1148 12.4378 16.1333 12.4609 16.1518 12.484C16.1703 12.5072 16.1934 12.5349 16.2073 12.5581L16.2721 12.6459L16.3368 12.7107C16.3738 12.7523 16.4154 12.794 16.4571 12.8495L16.471 12.8633C16.5172 12.9003 16.5635 12.9373 16.6051 12.9836C16.6143 12.9928 16.6236 12.9975 16.6282 13.0067C16.6282 13.0067 16.6606 13.0345 16.6791 13.0576L16.915 13.2287C16.9659 13.2565 17.0168 13.2843 17.0676 13.3166L17.1463 13.3675L17.1648 13.3768C17.1648 13.3768 17.2064 13.3953 17.2249 13.3999L17.248 13.4091C17.248 13.4091 17.2897 13.4276 17.3128 13.4415C17.3452 13.46 17.3775 13.4785 17.4238 13.497C17.4654 13.5063 17.5117 13.5248 17.5533 13.5433H17.5579C17.6273 13.571 17.7013 13.6034 17.7661 13.608C17.965 13.6774 18.1731 13.6913 18.3767 13.7052C18.4275 13.7052 18.4784 13.7144 18.5385 13.7191C19.0659 13.7191 19.5608 13.5849 20.0095 13.3259C20.4489 13.0715 20.8328 12.6876 21.0918 12.2435C21.3323 11.8226 21.4665 11.3647 21.4804 10.879V10.768V10.6662C21.4804 10.6477 21.4804 10.6292 21.4804 10.6061C21.4665 10.4072 21.4526 10.1991 21.3879 10.0187C21.374 9.9354 21.3462 9.86139 21.3185 9.78738C21.3 9.74575 21.2861 9.70412 21.2676 9.64862C21.2537 9.61161 21.2352 9.57923 21.2213 9.54686C21.2075 9.52373 21.1982 9.5006 21.189 9.47747L21.1797 9.45897C21.1566 9.40347 21.1288 9.34796 21.0918 9.29708C21.0594 9.25082 21.0317 9.19994 20.9947 9.13519C20.9762 9.11206 20.9577 9.08893 20.9392 9.06118V9.05193C20.9161 9.0288 20.8976 9.00567 20.8837 8.98255L20.8235 8.89466C20.8235 8.89466 20.7958 8.86691 20.7819 8.85303L20.7542 8.82528C20.7125 8.78365 20.6755 8.73739 20.6339 8.69114L20.62 8.67726C20.5738 8.64026 20.5275 8.59863 20.4859 8.557L20.4581 8.52925C20.4581 8.52925 20.4304 8.50149 20.4072 8.48299L20.1713 8.31185C20.1205 8.2841 20.0696 8.25634 20.028 8.22859C19.9725 8.18696 19.9169 8.16383 19.8661 8.14071L19.8429 8.13145C19.8429 8.13145 19.8013 8.11295 19.7782 8.09908H19.7736C19.7412 8.07595 19.7088 8.06207 19.6625 8.04357C19.6209 8.03432 19.5793 8.01582 19.5377 8.00194H19.5284C19.459 7.96956 19.385 7.94181 19.3203 7.93718C19.1214 7.8678 18.9132 7.85393 18.7143 7.84005C18.6634 7.84005 18.6126 7.8308 18.5432 7.82617C18.4923 7.82617 18.4414 7.83542 18.3905 7.84005C18.1916 7.85393 17.9835 7.8678 17.8031 7.93256C17.7198 7.94181 17.6412 7.97419 17.5718 8.00194H17.5626C17.5209 8.02044 17.4793 8.03894 17.4238 8.05282C17.3914 8.0667 17.359 8.08057 17.3267 8.09908H17.3174C17.3174 8.09908 17.2758 8.12683 17.2573 8.13145L17.2388 8.14071C17.2388 8.14071 17.1925 8.15921 17.174 8.17308L17.0815 8.22859C17.0306 8.26097 16.9798 8.28872 16.915 8.32573C16.8919 8.34423 16.8687 8.36273 16.8456 8.38123H16.8364C16.8132 8.40436 16.7901 8.42286 16.767 8.43674L16.6791 8.49687C16.6791 8.49687 16.6513 8.52462 16.6375 8.5385L16.6097 8.56625C16.5681 8.60788 16.5218 8.64488 16.4756 8.68651L16.4617 8.70039C16.4247 8.74664 16.3831 8.7929 16.3414 8.83453C16.3322 8.84378 16.3229 8.85303 16.3183 8.86228C16.3044 8.87616 16.2906 8.89466 16.2674 8.91316L16.0963 9.14906C16.0685 9.19994 16.0408 9.25082 16.013 9.29245C15.9714 9.34333 15.9483 9.39884 15.9251 9.45435L15.9159 9.47747C15.9159 9.47747 15.8974 9.5191 15.8835 9.54223C15.8696 9.57923 15.8511 9.61161 15.8326 9.65787C15.8234 9.6995 15.8049 9.74575 15.7864 9.78738C15.7586 9.86139 15.7309 9.9354 15.7216 10.0002C15.6522 10.1991 15.6384 10.4072 15.6245 10.6107C15.6245 10.6616 15.6152 10.7125 15.6152 10.7819C15.6152 10.8327 15.6245 10.8836 15.6291 10.9345C15.643 11.1334 15.6569 11.3415 15.7216 11.5219L15.6985 11.5266ZM16.4756 10.62C16.4848 10.4858 16.4941 10.3609 16.5357 10.2407V10.2176C16.545 10.1805 16.5635 10.1389 16.5773 10.0973C16.5912 10.0557 16.6097 10.014 16.619 9.97703C16.6236 9.95852 16.6328 9.94465 16.6467 9.92615C16.6606 9.90302 16.6745 9.87989 16.6837 9.85676L16.693 9.83826C16.7069 9.80588 16.7161 9.77813 16.7392 9.75038C16.767 9.70412 16.7947 9.66249 16.8086 9.63011C16.8179 9.61624 16.8317 9.60236 16.841 9.58848C16.8595 9.56073 16.878 9.5376 16.8965 9.50985L16.9289 9.45897C16.9289 9.45897 16.9428 9.44509 16.952 9.43584C16.9613 9.42659 16.9705 9.41734 16.9798 9.40809C17.0121 9.37571 17.0445 9.33871 17.0723 9.3017C17.1093 9.27395 17.1463 9.24157 17.1787 9.20919C17.1879 9.19994 17.1972 9.19069 17.2064 9.18144C17.211 9.17682 17.2157 9.17219 17.2203 9.16756L17.2758 9.13056C17.3035 9.11206 17.3267 9.09356 17.3498 9.07506C17.3683 9.06118 17.3775 9.05193 17.3822 9.0473C17.4099 9.03343 17.5117 8.97329 17.5163 8.96867L17.5394 8.95479C17.5394 8.95479 17.5811 8.93167 17.6227 8.91316C17.6458 8.90391 17.669 8.89004 17.6967 8.87616C17.7106 8.86691 17.7291 8.85766 17.7337 8.85303C17.7846 8.84378 17.8262 8.82528 17.8679 8.80678C17.9095 8.78828 17.9511 8.7744 17.9927 8.76977H18.0159C18.1315 8.72352 18.2564 8.71427 18.3905 8.70502H18.4044C18.4507 8.70039 18.5015 8.69577 18.5432 8.69114C18.5941 8.69577 18.6496 8.70039 18.7004 8.70502C18.8346 8.71427 18.9595 8.72352 19.0751 8.76515H19.0982C19.1352 8.7744 19.1769 8.7929 19.2185 8.80678C19.2601 8.82528 19.3018 8.83915 19.3388 8.84841C19.3526 8.85303 19.3665 8.86228 19.385 8.87153H19.3943C19.4174 8.89004 19.4405 8.89929 19.4636 8.91316L19.4868 8.92241C19.5192 8.93629 19.5469 8.94554 19.5747 8.96867C19.6209 8.99642 19.6625 9.02418 19.6949 9.03805C19.7088 9.0473 19.7227 9.06118 19.7365 9.07043C19.7597 9.09356 19.7828 9.11206 19.8106 9.13056L19.8614 9.16294C19.8614 9.16294 19.8753 9.17682 19.8846 9.18607C19.8938 9.19532 19.9031 9.20457 19.9123 9.21382C19.9447 9.2462 19.9817 9.27858 20.0187 9.30633C20.0465 9.34333 20.0788 9.38034 20.1112 9.41272C20.1205 9.42197 20.1297 9.43122 20.139 9.44047C20.1436 9.44509 20.1482 9.44972 20.1528 9.45435L20.1898 9.50985C20.2084 9.53298 20.2222 9.55611 20.2454 9.58386H20.25C20.25 9.58386 20.2685 9.61161 20.2731 9.61624C20.2962 9.66249 20.324 9.70875 20.3564 9.75963C20.3749 9.77813 20.3841 9.80588 20.398 9.83826L20.4072 9.85676C20.4165 9.87989 20.4304 9.90764 20.4443 9.93077C20.4535 9.94465 20.4628 9.96315 20.4674 9.9724C20.4766 10.0187 20.4951 10.0603 20.5136 10.1065C20.5321 10.1482 20.546 10.1898 20.5506 10.2314V10.2546C20.5969 10.3702 20.6061 10.4951 20.6154 10.6292C20.6154 10.6801 20.6246 10.7356 20.6293 10.7865C20.6293 11.1565 20.5368 11.5034 20.3517 11.818C20.1713 12.1371 19.8984 12.4054 19.5885 12.5858C19.274 12.7662 18.9271 12.8587 18.5663 12.8633C18.5108 12.8587 18.4553 12.8541 18.3998 12.8495C18.2656 12.8402 18.1361 12.831 18.0205 12.7893H17.9974C17.9604 12.7801 17.9187 12.7616 17.8725 12.7477C17.8262 12.7292 17.7846 12.7107 17.7522 12.7061C17.7337 12.7014 17.7198 12.6922 17.7013 12.6783C17.6782 12.6644 17.6551 12.6506 17.632 12.6413L17.6088 12.6321C17.5811 12.6228 17.5626 12.6089 17.5441 12.5997L17.4377 12.5349H17.4331C17.4331 12.5349 17.4053 12.5164 17.4007 12.5164C17.3868 12.5072 17.3683 12.4933 17.3544 12.4794C17.3313 12.4609 17.3082 12.4424 17.2804 12.4239L17.2295 12.3915C17.2295 12.3915 17.2157 12.3777 17.2064 12.3684C17.1972 12.3592 17.1879 12.3499 17.1833 12.3407C17.1509 12.3083 17.1139 12.2759 17.0769 12.2481C17.0445 12.2065 17.0121 12.1741 16.9844 12.1371L16.9428 12.0955L16.9057 12.04C16.8872 12.0122 16.8641 11.9845 16.8502 11.966C16.8502 11.966 16.8317 11.9382 16.8271 11.9382C16.804 11.892 16.7762 11.8457 16.7439 11.7948C16.7254 11.7763 16.7161 11.744 16.693 11.6977C16.6837 11.67 16.6698 11.6468 16.656 11.6237C16.6467 11.6098 16.6375 11.5913 16.6328 11.5867C16.6236 11.5404 16.6051 11.4942 16.5866 11.4572H16.5681V11.4618L16.582 11.4526C16.5635 11.4109 16.5496 11.3693 16.545 11.3323V11.3092C16.4987 11.1935 16.4895 11.0686 16.4802 10.9299C16.4802 10.879 16.471 10.8281 16.4663 10.7772C16.471 10.7264 16.4756 10.6755 16.4802 10.62H16.4756Z" fill="white"></path>
    <path d="M36.6473 21.3282C36.5548 20.935 36.4114 20.5557 36.2727 20.1857L36.1987 19.9868C36.1293 19.8156 36.0506 19.6491 35.972 19.4918L35.9026 19.3484C35.8101 19.1542 35.6991 18.9321 35.5696 18.724C35.454 18.5251 35.3291 18.3308 35.1996 18.1227C35.0839 17.9515 34.959 17.7897 34.8388 17.6278L34.5705 17.2762C34.515 17.2068 34.4502 17.1375 34.3947 17.0727L34.3392 17.0126C34.1819 16.8368 34.0247 16.6657 33.8628 16.4945C33.6916 16.3326 33.5205 16.1754 33.3494 16.0227L33.2892 15.9672C33.2245 15.9071 33.1551 15.8469 33.0811 15.7868L32.7203 15.5139C32.563 15.3983 32.4011 15.2734 32.23 15.1577C32.0311 15.0329 31.8322 14.908 31.6333 14.7923C31.4205 14.6582 31.1985 14.5518 31.0042 14.4593L30.8608 14.3899H30.8562C30.6989 14.3113 30.5324 14.2326 30.3613 14.1586L30.1624 14.0846C29.7923 13.9459 29.4131 13.8025 29.0245 13.7146C28.9968 13.7053 28.9736 13.7007 28.9459 13.6915C28.932 13.6915 28.9228 13.6868 28.9089 13.6822C29.1679 12.7571 29.302 11.8181 29.3067 10.8884V10.6941L29.302 10.6756C29.2697 9.6164 29.154 8.76531 28.932 7.99748C28.8395 7.60431 28.6961 7.22502 28.5573 6.85498L28.4833 6.65146C28.4139 6.48494 28.3353 6.31843 28.2567 6.15653L28.1873 6.00852C28.0717 5.77262 27.9745 5.57372 27.8543 5.38408C27.7294 5.17593 27.6091 4.97703 27.4842 4.78276C27.3686 4.61624 27.2483 4.45435 27.1281 4.29708L26.8552 3.9363C26.7997 3.86691 26.7395 3.80216 26.684 3.74203L26.6239 3.67264C26.462 3.49225 26.3093 3.32573 26.1475 3.15459C25.9809 2.99732 25.8052 2.83543 25.634 2.68279L25.5693 2.62266C25.5045 2.56715 25.4398 2.50702 25.3657 2.44689L25.0142 2.17861C24.8616 2.0676 24.6951 1.93808 24.5193 1.81782C24.325 1.69293 24.1215 1.57267 23.9226 1.45241C23.7144 1.32289 23.4878 1.21188 23.2935 1.11937L23.1455 1.04999C22.9836 0.971354 22.8217 0.89272 22.6506 0.823338L22.4563 0.74933C22.0863 0.610565 21.707 0.467175 21.3184 0.374665C20.5229 0.148016 19.6348 0.027753 18.5293 0C17.4284 0.027753 16.5449 0.14339 15.7493 0.37004C15.3562 0.462549 14.9769 0.60594 14.6115 0.744705L14.408 0.823338C14.2368 0.89272 14.0703 0.975979 13.9084 1.04999L13.765 1.11937C13.5707 1.21188 13.3626 1.31364 13.1683 1.43853L13.1406 1.45241C12.9417 1.57267 12.7381 1.69756 12.5393 1.82244C12.3727 1.93346 12.2108 2.05834 12.0536 2.17398L11.6882 2.45151C11.6188 2.50702 11.554 2.56715 11.4893 2.62728L11.4245 2.68279C11.2395 2.8493 11.073 3.00195 10.9065 3.15921C10.7492 3.32573 10.5919 3.49687 10.4347 3.67264L10.3745 3.74203C10.319 3.80678 10.2589 3.87154 10.2034 3.94092L9.93047 4.30171C9.81484 4.45898 9.68995 4.62087 9.57431 4.79201C9.44942 4.99553 9.32453 5.19443 9.2089 5.3887C9.07938 5.59685 8.973 5.81425 8.87586 6.01777L8.80185 6.16578C8.72322 6.32305 8.64459 6.48957 8.5752 6.66071L8.5012 6.85498C8.36243 7.22502 8.21904 7.60431 8.12653 7.99285C7.89988 8.78844 7.77962 9.67653 7.75649 10.782C7.78425 11.8829 7.89988 12.7664 8.12653 13.5619C8.13116 13.5851 8.14041 13.6082 8.14503 13.636C8.14503 13.6452 8.14966 13.6545 8.15428 13.6637H8.13116C8.08028 13.6822 8.03402 13.6961 7.98777 13.71C7.5946 13.8025 7.21531 13.9459 6.84527 14.0846L6.64637 14.1586C6.47986 14.228 6.31334 14.3067 6.15607 14.3853L6.00805 14.4547C5.81841 14.5426 5.60101 14.6536 5.39286 14.7831L5.37899 14.7923C5.18009 14.9126 4.98119 15.0329 4.7823 15.1577C4.62041 15.2688 4.45851 15.389 4.30587 15.5047L3.93583 15.7868C3.86645 15.8469 3.79244 15.9117 3.73694 15.9626L3.67218 16.0227C3.49641 16.18 3.32989 16.3326 3.15413 16.4991C2.99686 16.6657 2.83497 16.8414 2.68232 17.0126L2.62682 17.0773C2.57131 17.1375 2.51118 17.2068 2.45105 17.2808L2.17815 17.6416C2.06251 17.7989 1.93762 17.9608 1.82198 18.1319C1.69709 18.3262 1.57683 18.5251 1.45657 18.7286C1.32705 18.9368 1.21604 19.1634 1.12353 19.3577L1.05415 19.5011C0.975517 19.663 0.896884 19.8295 0.827502 20.0006L0.753494 20.1995C0.614729 20.5696 0.471338 20.9489 0.383454 21.3374C0.156805 22.133 0.036542 23.0211 0.00878906 24.1266C0.036542 25.2321 0.152179 26.1155 0.378829 26.9065C0.471338 27.2997 0.614729 27.6836 0.753494 28.049L0.827502 28.2479C0.896884 28.419 0.975517 28.5856 1.05415 28.7428L1.12353 28.8862C1.21604 29.0805 1.32705 29.3025 1.45657 29.5107C1.58146 29.7188 1.70172 29.9131 1.82661 30.112C1.93762 30.2785 2.06251 30.4404 2.17815 30.5976L2.45568 30.9584C2.51118 31.0278 2.57594 31.0972 2.62682 31.1527L2.69158 31.2221C2.85347 31.4025 3.00611 31.569 3.168 31.7401C3.33452 31.8974 3.50566 32.0547 3.68143 32.2119L3.74619 32.2675C3.81095 32.3276 3.88033 32.3877 3.94971 32.4432L4.3105 32.7161C4.46777 32.8318 4.62966 32.9566 4.79618 33.0723C4.99045 33.1972 5.19397 33.3174 5.39286 33.4377L5.41599 33.4516C5.61489 33.5718 5.82304 33.6782 6.01731 33.7707L6.1607 33.8401C6.32259 33.9188 6.48911 33.9974 6.66025 34.0668L6.85915 34.1408C7.22456 34.2795 7.60385 34.4229 7.99239 34.5108C8.78798 34.7375 9.67607 34.8577 10.7816 34.8855C11.8871 34.8577 12.7705 34.7421 13.5615 34.5154C13.9547 34.4229 14.3339 34.2795 14.6994 34.1408L14.9029 34.0621C15.074 33.9928 15.2405 33.9095 15.4071 33.8309L15.5458 33.7661C15.7401 33.6736 15.9621 33.5626 16.1703 33.4331C16.3692 33.3128 16.5727 33.1926 16.7716 33.063C16.9381 32.952 17.1 32.8271 17.2573 32.7115L17.6227 32.434C17.6921 32.3738 17.7661 32.3091 17.8216 32.2582L17.8863 32.1981C18.0621 32.0408 18.2332 31.8835 18.4044 31.7216C18.4275 31.6985 18.4506 31.6708 18.4738 31.6476C18.4876 31.6338 18.5015 31.6153 18.5154 31.6014C18.5293 31.6153 18.5431 31.6338 18.557 31.6476C18.5801 31.6754 18.6079 31.7031 18.631 31.7309C18.8022 31.8928 18.9779 32.0547 19.1445 32.2027L19.2092 32.2582C19.2832 32.323 19.3434 32.3785 19.4127 32.434L19.7689 32.7022H19.7735C19.9308 32.8225 20.0927 32.9474 20.2638 33.063C20.4581 33.1879 20.657 33.3082 20.8605 33.4284L20.879 33.4377C21.0872 33.5672 21.3046 33.6736 21.4896 33.7615L21.633 33.8309C21.7949 33.9095 21.9614 33.9881 22.1325 34.0621L22.3361 34.1362C22.7015 34.2749 23.0808 34.4183 23.4693 34.5062C24.2649 34.7328 25.153 34.8531 26.2585 34.8809C27.364 34.8531 28.2474 34.7375 29.0384 34.5108C29.4316 34.4183 29.8108 34.2749 30.1763 34.1362L30.3798 34.0575C30.5509 33.9881 30.7174 33.9095 30.8793 33.8262L31.0181 33.7569C31.2124 33.6643 31.4344 33.5533 31.6425 33.4238C31.8414 33.3036 32.045 33.1833 32.2439 33.0538C32.4058 32.9428 32.563 32.8225 32.7157 32.7115L33.0903 32.4247C33.1597 32.3692 33.2245 32.3091 33.2938 32.2443L33.354 32.1888C33.5297 32.0315 33.7009 31.8743 33.872 31.7124C34.0293 31.5459 34.1912 31.3701 34.3438 31.199L34.404 31.1342C34.4595 31.0694 34.5196 31.0047 34.5797 30.9353L34.848 30.5838C34.9683 30.4265 35.0932 30.26 35.2088 30.0842C35.3337 29.8853 35.4586 29.6864 35.5742 29.4875C35.7084 29.2748 35.8147 29.0527 35.9072 28.8585L35.9766 28.7151C36.0553 28.5532 36.1339 28.3867 36.2033 28.2155L36.2773 28.0166C36.4161 27.6466 36.5594 27.2673 36.652 26.8787C36.874 26.1063 36.9942 25.3431 37.0266 24.2838V23.9878C37.0266 23.9878 36.874 22.0775 36.652 21.3097L36.6473 21.3282ZM8.97762 8.21488C9.05626 7.86797 9.18577 7.52568 9.31066 7.19264L9.38929 6.9845C9.45405 6.83186 9.52806 6.67921 9.59281 6.54045L9.6622 6.39243C9.75008 6.20741 9.84721 6.00852 9.96748 5.8235C10.0785 5.63385 10.1941 5.44883 10.3051 5.26844C10.4023 5.12505 10.5133 4.97703 10.6197 4.83827L10.8833 4.49135C10.9342 4.43122 10.9851 4.37572 11.036 4.31559L11.0961 4.2462C11.2349 4.08894 11.3829 3.93167 11.5309 3.76978C11.6835 3.62639 11.8454 3.47837 12.0119 3.33036L12.0767 3.27485C12.1368 3.22397 12.197 3.16846 12.2525 3.11758L12.5948 2.85856C12.7381 2.75217 12.8862 2.64116 13.0342 2.5394C13.1683 2.45614 13.3117 2.36825 13.4967 2.25262L13.6355 2.16936C13.8113 2.06297 14.0009 1.97046 14.1582 1.89183L14.3016 1.82244C14.445 1.75306 14.5976 1.67905 14.7456 1.61892L14.963 1.53566C15.2914 1.41078 15.6337 1.28126 15.9852 1.20263C16.7068 0.994481 17.5209 0.888095 18.5431 0.860342C19.57 0.888095 20.3841 0.994481 21.1103 1.20263C21.4572 1.28126 21.7995 1.41078 22.1325 1.53566L22.3407 1.6143C22.4887 1.67443 22.6413 1.74844 22.7847 1.81782L22.9327 1.8872C23.1178 1.97509 23.3167 2.07222 23.5017 2.19248C23.6867 2.3035 23.8763 2.41913 24.0567 2.53015C24.2047 2.63191 24.3481 2.73829 24.4915 2.84468L24.8384 3.10833C24.8939 3.15459 24.9541 3.20547 25.0096 3.25635L25.0836 3.32111C25.2455 3.46912 25.4074 3.61251 25.56 3.7559C25.708 3.91317 25.8561 4.07506 25.9994 4.23695L26.0688 4.31559C26.1151 4.37109 26.166 4.4266 26.2122 4.47748L26.4759 4.82902C26.5823 4.96778 26.6886 5.1158 26.7904 5.25919C26.906 5.43958 27.017 5.61998 27.1327 5.81887C27.2483 6.00389 27.3455 6.20279 27.4333 6.38781L27.5027 6.53582C27.5675 6.67459 27.6415 6.82723 27.7062 6.97525L27.7895 7.19264C27.9144 7.52105 28.0393 7.86334 28.1225 8.21488C28.3307 8.93646 28.4371 9.75054 28.4648 10.7774C28.4648 11.684 28.3353 12.6045 28.0763 13.5064C27.9977 13.784 27.9098 14.0523 27.8126 14.3067C27.623 14.8062 27.3963 15.2826 27.1373 15.7313C27.1049 15.7868 27.0679 15.8469 27.0356 15.8978C27.017 15.9256 26.9985 15.9533 26.98 15.9811L26.9754 15.9903C26.7858 16.2956 26.61 16.5546 26.4296 16.7905C25.7682 17.6555 24.9772 18.4002 24.0799 19.0015C23.8948 19.1264 23.7052 19.2467 23.5156 19.3531C23.3398 19.4548 23.1548 19.5566 22.9466 19.6584C22.2944 19.9775 21.6006 20.2273 20.8883 20.4031C20.8281 20.4169 20.7726 20.4308 20.7125 20.4401L20.6477 20.4539C20.6154 20.4632 20.583 20.4678 20.5506 20.4771C20.546 20.4771 20.5414 20.4771 20.5367 20.4771H20.5321C20.5321 20.4771 20.5229 20.4771 20.5182 20.4817C20.3702 20.5141 20.2176 20.5418 20.0649 20.5649C19.5654 20.6436 19.0704 20.6806 18.5848 20.6806H18.5663C18.4368 20.6806 18.3072 20.6713 18.1824 20.6667C17.8354 20.6482 17.5209 20.6205 17.211 20.5835C16.7716 20.5279 16.3738 20.4447 15.9945 20.3383C15.6476 20.2597 15.3007 20.1302 14.9723 20.0053L14.7687 19.9266C14.6161 19.8665 14.4681 19.7925 14.3247 19.7231L14.1767 19.6537C14.1073 19.6213 14.0333 19.5843 13.95 19.5427L13.9269 19.5242C13.9269 19.5242 13.8899 19.4965 13.8714 19.4826L13.5707 19.3022C13.4644 19.2328 13.3533 19.1773 13.2423 19.1264C13.2007 19.1079 13.1637 19.0894 13.1221 19.0663C13.0573 19.0339 12.9879 19.0015 12.9093 18.9692C12.8353 18.946 12.7659 18.9183 12.6919 18.8905C12.5393 18.835 12.3866 18.7749 12.2293 18.7471C11.9379 18.6592 11.6142 18.6037 11.184 18.5714H11.1794H11.1285C11.0036 18.5621 10.8833 18.5575 10.7862 18.5529C10.2959 18.576 9.81484 18.6084 9.36154 18.7471C9.19502 18.7795 9.04238 18.8396 8.88974 18.8951C8.82036 18.9229 8.74635 18.9507 8.66771 18.9738C8.59833 19.0015 8.52895 19.0385 8.45957 19.0709C8.41794 19.0894 8.38093 19.1125 8.33005 19.131C8.24679 19.1727 8.17279 19.2097 8.1034 19.2467L7.70099 19.4872C7.64548 19.5288 7.58997 19.5705 7.53447 19.6121H7.52984C7.49284 19.6445 7.45121 19.6769 7.41421 19.7046L7.26619 19.8156C7.23844 19.8387 7.21068 19.8665 7.18293 19.8896L6.85915 20.181L6.57699 20.4956C6.55386 20.5233 6.52611 20.5511 6.49373 20.5881L6.38735 20.7315C6.35959 20.7685 6.33184 20.8101 6.29946 20.8471C6.25321 20.9072 6.21158 20.9627 6.16995 21.0275L5.98955 21.3282C5.92017 21.4345 5.86466 21.5456 5.81378 21.6566C5.79528 21.6982 5.77678 21.7352 5.75365 21.7768C5.72127 21.8416 5.6889 21.911 5.65652 21.9896C5.63339 22.0636 5.60564 22.133 5.57788 22.207C5.52238 22.3596 5.46225 22.5123 5.43449 22.6695C5.2911 23.1321 5.25872 23.6178 5.24022 24.1173C5.26335 24.6076 5.29573 25.0887 5.43449 25.542C5.46687 25.7085 5.527 25.8658 5.58251 26.0138C5.61026 26.0832 5.63802 26.1572 5.66114 26.2358C5.6889 26.3052 5.72127 26.3699 5.75365 26.4347L5.7629 26.4578C5.78141 26.4902 5.79528 26.5272 5.81378 26.5642C5.86466 26.6706 5.91554 26.7862 5.98493 26.8834L6.17457 27.1933C6.2162 27.2534 6.26246 27.3089 6.30409 27.369L6.31334 27.3783C6.34109 27.4107 6.36422 27.4477 6.39197 27.4847L6.50298 27.6327C6.52611 27.6605 6.54924 27.6882 6.57699 27.716L6.87302 28.0397L7.18756 28.3219C7.21531 28.345 7.24306 28.3728 7.28007 28.4052L7.42346 28.5115C7.46046 28.5393 7.49746 28.5671 7.53447 28.5948C7.59923 28.6457 7.65473 28.6827 7.71486 28.7289L8.09878 28.9602L8.11728 28.9695C8.18666 29.0065 8.26067 29.0481 8.34855 29.0851C8.39018 29.1036 8.42719 29.1221 8.46882 29.1452C8.53357 29.1776 8.60296 29.21 8.68159 29.2424C8.75097 29.2655 8.82036 29.2933 8.88974 29.3164H8.89436C9.047 29.3765 9.19965 29.4366 9.35691 29.4644C9.81946 29.6078 10.3051 29.6402 10.8047 29.6587C11.295 29.6355 11.776 29.6032 12.2293 29.4644C12.3959 29.432 12.5531 29.3719 12.7011 29.3164H12.7058C12.7752 29.2886 12.8445 29.2609 12.9232 29.2378C12.9926 29.21 13.0619 29.173 13.1313 29.1406C13.1729 29.1221 13.2099 29.099 13.2608 29.0805C13.3672 29.0296 13.4782 28.9787 13.58 28.9093L13.8899 28.7197C13.9454 28.6781 14.0055 28.6364 14.0657 28.5902C14.1027 28.5624 14.1397 28.5347 14.1813 28.5069L14.3293 28.3959C14.3571 28.3728 14.3895 28.345 14.4172 28.3173L14.7364 28.0259L15.0185 27.716C15.0463 27.6882 15.074 27.6558 15.1018 27.6235L15.2082 27.4801C15.2313 27.4477 15.259 27.4107 15.2868 27.3783L15.296 27.369C15.3377 27.3135 15.3839 27.2534 15.4302 27.1887L15.6106 26.888C15.68 26.7816 15.7355 26.6706 15.7864 26.5596C15.7864 26.5596 15.7864 26.555 15.7864 26.5503L15.8049 26.5133V26.4995C15.8141 26.4763 15.8234 26.4578 15.8372 26.4393C15.8696 26.3699 15.902 26.3006 15.9344 26.2266C15.9575 26.1525 15.9852 26.0785 16.013 26.0092C16.0685 25.8565 16.1286 25.7039 16.161 25.5466C16.2535 25.2459 16.2952 24.9407 16.3229 24.64H16.3275C16.3322 24.5475 16.3368 24.4596 16.3414 24.3717C16.3414 24.3208 16.3507 24.2653 16.3507 24.2145V24.1081V24.0017C16.3507 24.0017 16.3645 23.8444 16.3877 23.5808C16.3969 23.4698 16.4062 23.3634 16.4108 23.3449C16.4339 23.1922 16.4802 22.2856 16.8317 21.5317C16.8456 21.5039 16.8595 21.4762 16.8687 21.453C17.0954 21.4669 17.3359 21.4762 17.6134 21.4993H17.6227H17.6504C17.928 21.5224 18.2101 21.5363 18.5061 21.5456V21.5687C18.4553 21.7306 18.4183 21.8693 18.3905 21.9896C18.1731 22.7251 18.0991 24.0942 18.0991 24.0942V24.1127C18.0806 24.6816 18.0343 25.3523 17.8447 25.9953C17.7938 26.2219 17.7106 26.444 17.6319 26.6614C17.5995 26.74 17.5718 26.8232 17.544 26.8973C17.5024 26.999 17.4515 27.1008 17.4099 27.1887C17.3868 27.2349 17.3636 27.2858 17.3405 27.332C17.2665 27.4847 17.2017 27.6188 17.1185 27.7483L17.0861 27.8038L16.8733 28.1554C16.8132 28.2433 16.7485 28.3265 16.6791 28.4237L16.5357 28.6179L16.4478 28.7336C16.4154 28.7752 16.3784 28.8122 16.3414 28.8538L15.9667 29.2655L15.5458 29.6494C15.5088 29.6818 15.4718 29.7188 15.4348 29.7466L15.1249 29.9778H15.1203C15.0324 30.0472 14.9445 30.112 14.8613 30.1721L14.445 30.4265C14.3201 30.5098 14.1813 30.5745 14.0287 30.6485C13.9824 30.6717 13.9315 30.6948 13.8853 30.7179C13.7974 30.7595 13.6956 30.8104 13.5985 30.852C13.5199 30.8798 13.4366 30.9122 13.358 30.9399C13.1406 31.0232 12.9185 31.1065 12.6826 31.1573C12.0443 31.347 11.3736 31.3932 10.8001 31.4117C10.2265 31.3932 9.55118 31.347 8.90361 31.1573C8.67696 31.1065 8.45494 31.0232 8.23754 30.9446C8.15891 30.9168 8.08028 30.8844 8.00164 30.8567C7.89988 30.815 7.79812 30.7642 7.71024 30.7225C7.66398 30.6994 7.6131 30.6763 7.56685 30.6532C7.42346 30.5838 7.28469 30.519 7.15518 30.4358L7.07192 30.3849L7.05342 30.3756L6.73426 30.1814C6.64637 30.1212 6.55386 30.0518 6.4706 29.9871L6.1607 29.7558C6.12369 29.7234 6.08669 29.691 6.04506 29.654L5.63339 29.2794L5.2541 28.8631C5.2171 28.8261 5.18472 28.7845 5.15234 28.7474L4.91644 28.4329C4.84706 28.3404 4.7823 28.2571 4.72679 28.1739L4.47239 27.7576C4.38913 27.6327 4.32437 27.4939 4.25037 27.3413C4.22724 27.295 4.20411 27.2442 4.18098 27.1979C4.13936 27.11 4.08847 27.0083 4.04685 26.9111C4.01909 26.8325 3.98671 26.7492 3.95896 26.6706C3.8757 26.4532 3.79244 26.2312 3.74156 25.9953C3.55192 25.357 3.50566 24.6863 3.48716 24.1127C3.50566 23.5391 3.55192 22.8638 3.74156 22.2162C3.79244 21.9896 3.8757 21.7676 3.95434 21.5502C3.98209 21.4715 4.01447 21.3883 4.04222 21.3143C4.08385 21.2125 4.13473 21.1108 4.17636 21.0229C4.19949 20.9766 4.22261 20.9257 4.24574 20.8795C4.31975 20.7268 4.38451 20.5927 4.46777 20.4632L4.71754 20.0561C4.77767 19.9683 4.84243 19.885 4.91181 19.7879L5.14309 19.478C5.17547 19.441 5.20784 19.4039 5.24947 19.3623L5.62414 18.9507L6.04043 18.5714C6.07744 18.5344 6.11907 18.502 6.15607 18.4696L6.46598 18.2337C6.55849 18.1643 6.64637 18.0996 6.72963 18.0394L7.04879 17.8452L7.13668 17.7897H7.14593C7.27081 17.7018 7.41421 17.637 7.5576 17.5676C7.60385 17.5445 7.65473 17.5214 7.70099 17.4982C7.78887 17.4566 7.89063 17.4057 7.98777 17.3641C8.0664 17.3364 8.14966 17.304 8.22829 17.2762C8.44569 17.1976 8.66771 17.1097 8.89899 17.0588C9.13951 16.9894 9.40317 16.9339 9.6992 16.8923C9.98598 16.8507 10.2959 16.8275 10.6613 16.809H10.6891H10.7076C10.7353 16.809 10.7584 16.809 10.7816 16.809C11.3551 16.8275 12.0304 16.8738 12.678 17.0634C12.9047 17.1143 13.1267 17.1976 13.3441 17.2762C13.4227 17.304 13.5014 17.3364 13.58 17.3641C13.6818 17.4057 13.7835 17.4566 13.8714 17.4982C13.9177 17.5214 13.9685 17.5445 14.0148 17.5676C14.024 17.5723 14.0379 17.5769 14.0472 17.5815L14.0703 17.5954C14.1906 17.6509 14.3154 17.7156 14.4311 17.7897L14.8427 18.0394L14.8844 18.0626C14.8844 18.0626 14.926 18.0857 14.9491 18.0949C15 18.1181 15.0463 18.1412 15.0972 18.1643C15.2035 18.2198 15.3145 18.2707 15.4348 18.3216C15.5134 18.3493 15.5875 18.3771 15.6661 18.4095C15.9159 18.502 16.1795 18.5991 16.4432 18.6592C16.5866 18.7009 16.7392 18.7379 16.915 18.7749H16.9196L16.9705 18.7841C17.5579 18.8998 18.1268 18.9275 18.557 18.9414H18.5709C18.7652 18.9414 18.9733 18.9321 19.2138 18.9136H19.2231H19.2508C19.5515 18.8905 19.8429 18.8489 20.1158 18.798H20.1297H20.1528V18.7934C20.8004 18.6639 21.4341 18.4557 22.0354 18.1736C22.2435 18.0764 22.4471 17.97 22.6413 17.8544C22.8171 17.7526 22.9929 17.6416 23.201 17.4936C23.7653 17.1051 24.2741 16.6472 24.7182 16.1337V16.1291L24.7506 16.0921C25.079 15.7082 25.3704 15.2965 25.6201 14.8663C25.7312 14.6767 25.8375 14.4685 25.9532 14.2188V14.2095L25.9671 14.1818C26.0919 13.9089 26.1983 13.6406 26.2908 13.3769V13.3631L26.3001 13.3399C26.5638 12.5443 26.7025 11.7164 26.7118 10.8838H26.7164V10.7774V10.6941V10.6756C26.6979 10.116 26.647 9.3805 26.4389 8.6728C26.3787 8.40452 26.2816 8.1455 26.1891 7.89572V7.88647C26.1567 7.81246 26.129 7.73383 26.1012 7.65519C26.0549 7.53956 25.9994 7.42392 25.9439 7.31753C25.9208 7.27128 25.8977 7.2204 25.8746 7.17414C25.7959 7.00762 25.7173 6.85036 25.6201 6.69772L25.3426 6.24442C25.2686 6.13803 25.19 6.03164 25.1113 5.92988L24.8616 5.60147C24.8246 5.55984 24.7876 5.51359 24.7506 5.47659L24.3204 5.00941L23.8717 4.59774C23.8208 4.55149 23.7792 4.51448 23.7283 4.47285L23.3999 4.2277C23.2982 4.15369 23.1964 4.07506 23.0854 3.99643L22.6367 3.72352C22.4887 3.62639 22.3314 3.55238 22.1603 3.46912C22.114 3.44599 22.0631 3.42287 22.0123 3.39974C21.9013 3.34886 21.7902 3.29335 21.67 3.24247C21.5913 3.21472 21.5127 3.18697 21.4341 3.15459C21.1843 3.06208 20.9253 2.96494 20.6616 2.90481C19.9215 2.68741 19.1398 2.64116 18.5431 2.62266C17.9511 2.64116 17.174 2.69204 16.4385 2.90481C16.1703 2.96494 15.9112 3.06208 15.6615 3.15459C15.5828 3.18234 15.5042 3.21472 15.4209 3.24247C15.3053 3.28873 15.1897 3.34423 15.0786 3.39974L15.0648 3.40899C15.0231 3.42749 14.9815 3.45062 14.9353 3.46912C14.7872 3.5385 14.667 3.60326 14.556 3.66802L14.0102 4.00105C13.9038 4.07506 13.7974 4.15369 13.6956 4.2277L13.3672 4.47748C13.321 4.51911 13.2747 4.56074 13.2285 4.59774L12.7705 5.01404L12.3589 5.46271C12.3219 5.50434 12.2756 5.55522 12.234 5.6061L11.9888 5.93451C11.9148 6.03627 11.8362 6.13803 11.7575 6.24904L11.4846 6.69772C11.3875 6.84573 11.3135 7.003 11.2302 7.17414C11.2071 7.22502 11.184 7.27128 11.1609 7.32216C11.11 7.42854 11.0545 7.54418 11.0036 7.65982C10.9805 7.7292 10.9527 7.79858 10.9296 7.86334L10.9203 7.89109C10.8278 8.14087 10.7307 8.3999 10.6706 8.66818C10.4532 9.41288 10.4069 10.19 10.3884 10.7867C10.4069 11.3787 10.4578 12.1558 10.6706 12.8913C10.6983 13.0254 10.7399 13.1642 10.8001 13.3399H10.7446C10.0924 13.3584 9.55581 13.4047 9.0285 13.4879C9.0285 13.4879 9.00075 13.3862 8.9915 13.3446C8.78335 12.623 8.67234 11.8089 8.64921 10.7867C8.67234 9.76442 8.78335 8.94571 8.9915 8.2195L8.97762 8.21488ZM27.845 28.5301L27.8311 28.5162C27.7062 28.5624 27.586 28.6087 27.4518 28.6364C27.0633 28.7567 26.6516 28.7798 26.2492 28.803C25.8468 28.7798 25.4259 28.7613 25.0235 28.6364C24.8986 28.6133 24.7829 28.5671 24.658 28.5208V28.5393H24.6534V28.5208C24.584 28.493 24.5147 28.4699 24.4545 28.4468C24.4036 28.4283 24.3528 28.4005 24.3019 28.3774H24.2926C24.2556 28.3543 24.214 28.3358 24.1677 28.3127C24.0752 28.271 24.0012 28.234 23.9272 28.1878L23.8208 28.1138L23.6497 28.0166C23.6034 27.9842 23.5526 27.9472 23.5109 27.9149C23.4739 27.8871 23.4369 27.8594 23.3999 27.8316L23.2797 27.7437C23.2797 27.7437 23.238 27.7067 23.2149 27.6882L22.9374 27.4384L22.683 27.1563C22.683 27.1563 22.6413 27.1146 22.6275 27.0961L22.5349 26.9713C22.5118 26.9389 22.4841 26.9019 22.4563 26.8695L22.4378 26.8464C22.4054 26.8047 22.3731 26.7631 22.3499 26.7261L22.1834 26.4532C22.1325 26.3792 22.0909 26.2913 22.0446 26.1942C22.0261 26.1572 22.0123 26.1248 21.9938 26.0878V26.0785C21.966 26.0277 21.9336 25.9722 21.9151 25.9259C21.892 25.8565 21.8643 25.7871 21.8411 25.7177H21.8226L21.8365 25.7131C21.7902 25.5882 21.744 25.468 21.7162 25.3338C21.596 24.9453 21.5728 24.5336 21.5497 24.1358C21.5497 24.0896 21.5543 24.0433 21.559 23.9971V23.9786V23.9693V23.9601C21.5775 23.6363 21.6052 23.2616 21.7162 22.9054C21.7394 22.7806 21.7856 22.6603 21.8319 22.5354C21.855 22.4614 21.8828 22.392 21.9059 22.3273C21.929 22.2718 21.9568 22.2162 21.9799 22.1654V22.1561C22.003 22.1191 22.0215 22.0821 22.04 22.0405C22.077 21.9572 22.1187 21.8647 22.1788 21.7861L22.3361 21.5224C22.3684 21.4762 22.4054 21.4299 22.4378 21.3837C22.4656 21.3467 22.4933 21.3097 22.5211 21.2726L22.609 21.1524C22.609 21.1524 22.646 21.1108 22.6691 21.0876L22.9142 20.8147L23.201 20.5557C23.201 20.5557 23.2426 20.5187 23.2565 20.5048C23.2565 20.5048 23.6404 20.2365 23.8856 20.1255L24.6904 19.7046C24.8014 19.663 24.9078 19.626 25.0235 19.6028C25.412 19.4826 25.8237 19.4595 26.2215 19.4363H26.2261C26.6285 19.4595 27.0494 19.478 27.4518 19.6028C27.5767 19.626 27.6924 19.6722 27.8219 19.7185C27.8959 19.7462 27.9653 19.774 28.0254 19.7925C28.0763 19.8156 28.1272 19.8387 28.178 19.8619H28.1873C28.2289 19.885 28.2659 19.9035 28.3214 19.9313C28.4093 19.9729 28.4926 20.0099 28.5712 20.0654L28.8349 20.2227C28.8811 20.255 28.9228 20.2874 28.9644 20.3198H28.9736C29.0106 20.3568 29.0476 20.3846 29.0846 20.4077L29.2049 20.4956C29.2049 20.4956 29.2465 20.5326 29.265 20.5511L29.5426 20.8008L29.797 21.083C29.797 21.083 29.8386 21.1246 29.8525 21.1431L29.945 21.268C29.9727 21.305 29.9959 21.3374 30.0236 21.3744L30.0329 21.3837C30.0653 21.4299 30.1023 21.4715 30.13 21.5132L30.2965 21.7861C30.3474 21.8601 30.3844 21.9433 30.4353 22.0451C30.4538 22.0821 30.4723 22.1237 30.4908 22.1607C30.5139 22.2162 30.5417 22.2671 30.5602 22.3134C30.5833 22.3874 30.6111 22.4614 30.6388 22.5262C30.6851 22.651 30.7313 22.7667 30.7544 22.9054C30.8747 23.2986 30.8978 23.7149 30.921 24.1127C30.8978 24.5151 30.8793 24.9314 30.7544 25.3338C30.7313 25.4587 30.6851 25.5744 30.6388 25.7039C30.6111 25.7779 30.5833 25.8473 30.5648 25.9074C30.5417 25.9629 30.5185 26.0138 30.4908 26.0647C30.4723 26.1063 30.4538 26.1479 30.426 26.1988C30.3844 26.2867 30.3474 26.3699 30.2919 26.4532L30.1346 26.7169C30.1023 26.7631 30.0699 26.8047 30.0329 26.8556L30.0236 26.8649C29.9959 26.8973 29.9727 26.9343 29.9496 26.9666L29.8617 27.0869C29.8617 27.0869 29.8201 27.1332 29.8016 27.1517L29.5564 27.4246L29.2743 27.679H29.2697C29.2512 27.7021 29.228 27.7206 29.2142 27.7345L29.0893 27.827C29.0523 27.8547 29.0153 27.8825 28.9783 27.9102C28.932 27.9472 28.8857 27.9796 28.8441 28.0074L28.5712 28.1739C28.4972 28.2248 28.4093 28.2664 28.3122 28.3127C28.2706 28.3312 28.2336 28.3497 28.1966 28.3682C28.1457 28.3959 28.0902 28.4237 28.0439 28.4422C27.9745 28.4653 27.9051 28.493 27.8358 28.5162V28.5347L27.845 28.5301ZM21.6237 27.1979C21.6654 27.258 21.707 27.3135 21.7532 27.3737L21.7625 27.3876C21.7902 27.4199 21.8134 27.4569 21.8411 27.4893L21.9521 27.6373C21.9753 27.6651 22.003 27.6975 22.0308 27.7252L22.3222 28.0444L22.6367 28.3265C22.6645 28.3543 22.6922 28.3774 22.7292 28.4098L22.8726 28.5162C22.9096 28.5439 22.9466 28.5717 22.9836 28.5994C23.0484 28.6503 23.1039 28.6873 23.164 28.7336L23.5479 28.9648L23.5618 28.9741C23.6312 29.0111 23.7052 29.0527 23.7931 29.0897C23.8301 29.1082 23.8671 29.1267 23.9041 29.1452H23.9087C23.9735 29.1776 24.0429 29.2146 24.1215 29.247C24.1955 29.2701 24.2649 29.2979 24.3389 29.3256C24.4869 29.3811 24.6442 29.4413 24.7968 29.469C25.2594 29.6124 25.745 29.6448 26.2446 29.6633C26.7349 29.6402 27.2159 29.6078 27.6692 29.469C27.8358 29.4366 27.993 29.3765 28.141 29.321H28.1457C28.2151 29.2933 28.2844 29.2655 28.3631 29.2424C28.4325 29.2146 28.5018 29.1776 28.5712 29.1452C28.6128 29.1267 28.6498 29.1036 28.7007 29.0805C28.8071 29.0296 28.9181 28.9787 29.0153 28.914L29.3252 28.7243C29.3853 28.6827 29.4408 28.6411 29.5009 28.5948C29.5379 28.5671 29.5749 28.5347 29.6166 28.5069L29.7646 28.3959C29.7923 28.3728 29.8201 28.345 29.8479 28.3173L30.1716 28.0259L30.4584 27.7113C30.4815 27.679 30.5093 27.6512 30.5371 27.6188L30.6434 27.4754C30.6666 27.4431 30.6943 27.4061 30.7221 27.3737L30.7313 27.3644C30.773 27.3089 30.8192 27.2488 30.8655 27.184L31.0459 26.8834C31.1152 26.777 31.1707 26.666 31.2216 26.555C31.2355 26.518 31.254 26.4856 31.2725 26.4532L31.2818 26.4301C31.3141 26.3653 31.3465 26.2959 31.3789 26.2219C31.402 26.1479 31.4298 26.0785 31.4575 26.0045C31.513 25.8519 31.5732 25.6992 31.6055 25.542C31.7397 25.0979 31.7767 24.64 31.7952 24.2052V24.0988V23.9924C31.7721 23.5623 31.7397 23.1043 31.6055 22.6695C31.5732 22.503 31.513 22.3504 31.4575 22.1977C31.4298 22.1284 31.402 22.0544 31.3789 21.9757C31.3511 21.9063 31.3141 21.837 31.2818 21.7676C31.2633 21.7259 31.2401 21.6889 31.2216 21.6381C31.1707 21.5317 31.1199 21.4207 31.0551 21.3189L30.8655 21.009C30.8238 20.9489 30.7822 20.8934 30.7359 20.8332C30.7082 20.7962 30.6804 20.7592 30.6481 20.7176L30.5371 20.5696C30.5139 20.5418 30.4908 20.5141 30.4677 20.4909L30.1716 20.1625L29.8525 19.8711C29.8247 19.848 29.8016 19.8202 29.7646 19.7971L29.6212 19.6907C29.5796 19.663 29.5426 19.6306 29.5056 19.6028C29.4454 19.5566 29.3899 19.515 29.3298 19.4733L29.0291 19.2929C28.9274 19.2236 28.8164 19.1727 28.7007 19.1172C28.6591 19.0987 28.6221 19.0802 28.5805 19.057C28.5157 19.0247 28.4463 18.9923 28.3677 18.9599C28.2937 18.9368 28.2243 18.909 28.1503 18.8813C27.9977 18.8258 27.845 18.7656 27.6877 18.7379C27.2252 18.5945 26.7395 18.5621 26.24 18.5436C26.1521 18.5436 26.0642 18.5529 25.9763 18.5575C26.5082 18.0487 26.9847 17.4936 27.3963 16.8969C27.6646 16.9386 27.9051 16.9894 28.1364 17.0588C28.3631 17.1097 28.5851 17.193 28.8025 17.2716C28.8811 17.2993 28.9598 17.3317 29.0384 17.3595C29.1402 17.4011 29.2419 17.452 29.3298 17.4936C29.3761 17.5167 29.4269 17.5399 29.4732 17.563C29.6258 17.637 29.7646 17.7018 29.8895 17.785L30.2965 18.0348C30.389 18.0996 30.4815 18.1689 30.5648 18.2337L30.8701 18.465C30.9117 18.4974 30.9533 18.5344 30.9904 18.5714L31.3974 18.9414L31.7767 19.3577C31.8137 19.3947 31.8461 19.4363 31.8784 19.4687L32.119 19.7879C32.1837 19.8711 32.2485 19.959 32.3086 20.0423L32.563 20.4586C32.6463 20.5835 32.711 20.7222 32.785 20.8749C32.8082 20.9211 32.8313 20.972 32.8544 21.0182C32.8961 21.1061 32.9469 21.2079 32.9839 21.305C33.0117 21.379 33.0394 21.4577 33.0672 21.5317V21.5456C33.1551 21.763 33.2383 21.985 33.2892 22.2209C33.4789 22.8592 33.5251 23.5345 33.5436 24.1035C33.5251 24.677 33.4789 25.3477 33.2892 25.9953C33.2383 26.2219 33.1551 26.444 33.0765 26.6614V26.6706C33.0441 26.7492 33.0163 26.8232 32.9886 26.8973C32.9469 26.999 32.8961 27.1008 32.8544 27.1887C32.8313 27.2349 32.8082 27.2858 32.785 27.332C32.711 27.4847 32.6463 27.6188 32.563 27.7483L32.3132 28.1554C32.2531 28.2433 32.1884 28.3312 32.1236 28.419L31.8877 28.7336C31.8553 28.7752 31.8183 28.8122 31.7813 28.8538L31.4066 29.2655L30.9904 29.6448C30.9533 29.6772 30.9117 29.7142 30.8793 29.7466L30.5694 29.9778C30.4815 30.0426 30.389 30.112 30.3012 30.1721L29.8849 30.4265C29.76 30.5098 29.6212 30.5745 29.4686 30.6485C29.4223 30.6717 29.3714 30.6948 29.3252 30.7179C29.2373 30.7595 29.1355 30.8104 29.0384 30.852C28.9598 30.8798 28.8811 30.9122 28.7979 30.9399C28.5805 31.0186 28.3584 31.1065 28.1272 31.1573C27.4888 31.347 26.8182 31.3932 26.2446 31.4117C25.671 31.3932 24.9957 31.347 24.3481 31.1573C24.1215 31.1065 23.8995 31.0232 23.6821 30.9446C23.6034 30.9168 23.5248 30.8844 23.4462 30.8567C23.349 30.815 23.2473 30.7688 23.1548 30.7225L23.1409 30.7133C23.0993 30.6948 23.0576 30.6717 23.0114 30.6532C22.868 30.5838 22.7292 30.519 22.5997 30.4358L22.5164 30.3849L22.4979 30.3756L22.1788 30.1814C22.0863 30.1166 21.9984 30.0518 21.9105 29.9825L21.6052 29.7512C21.5682 29.7188 21.5312 29.6864 21.4896 29.6494L21.0779 29.2748L20.6986 28.8585C20.6616 28.8215 20.6292 28.7798 20.5969 28.7474L20.5321 28.6596C20.5969 28.5254 20.6662 28.382 20.7264 28.2386L20.8004 28.0397C20.9391 27.6697 21.0825 27.2904 21.175 26.9019C21.2028 26.8001 21.2306 26.6937 21.2629 26.5688C21.2629 26.5688 21.2629 26.5688 21.2629 26.5735C21.3138 26.6799 21.3647 26.7909 21.4341 26.8926L21.6237 27.2025V27.1979ZM15.7493 21.9989C15.5319 22.7343 15.4579 24.1035 15.4579 24.1035V24.122C15.4579 24.2006 15.4533 24.2792 15.4487 24.3579C15.4302 24.6816 15.3978 25.0147 15.296 25.3338C15.2729 25.4587 15.2267 25.579 15.1804 25.7039C15.1527 25.7779 15.1295 25.8426 15.1064 25.9074C15.0833 25.9629 15.0555 26.0184 15.0324 26.0693V26.0785C15.0093 26.1155 14.9908 26.1525 14.9723 26.1988C14.9306 26.2867 14.8936 26.3699 14.8381 26.4532L14.6809 26.7169C14.6485 26.7631 14.6161 26.8047 14.5791 26.8556L14.5698 26.8649C14.5421 26.8973 14.519 26.9343 14.4958 26.9666L14.408 27.0869C14.408 27.0869 14.3663 27.1332 14.3478 27.1517L14.1027 27.4246L13.8251 27.679H13.8205C13.802 27.7021 13.7789 27.7206 13.765 27.7345L13.6401 27.827C13.6031 27.8547 13.5661 27.8825 13.5291 27.9102C13.4829 27.9472 13.4366 27.9796 13.395 28.0074L13.1221 28.1739C13.0481 28.2248 12.9648 28.2664 12.8677 28.308C12.826 28.3265 12.789 28.345 12.752 28.3682H12.7428C12.6919 28.3959 12.6456 28.4237 12.5994 28.4422C12.5254 28.4653 12.456 28.493 12.3866 28.5162C12.2617 28.5624 12.1415 28.6087 12.0027 28.6364C11.6142 28.7567 11.2025 28.7798 10.8001 28.803C10.3976 28.7798 9.97673 28.7613 9.57431 28.6364C9.44942 28.6133 9.32916 28.5671 9.20427 28.5208C9.13489 28.493 9.06551 28.4699 9.00075 28.4468C8.94987 28.4283 8.89899 28.4005 8.84811 28.3774H8.83886C8.80185 28.3543 8.76022 28.3358 8.70934 28.3127C8.62146 28.271 8.54283 28.234 8.47344 28.1878L8.36706 28.1138L8.19591 28.0166C8.14966 27.9842 8.10803 27.9519 8.05715 27.9149C8.02014 27.8871 7.98314 27.8594 7.94614 27.8316L7.82587 27.7437C7.82587 27.7437 7.78425 27.7067 7.76112 27.6882L7.48359 27.4384L7.22919 27.1563C7.22919 27.1563 7.18756 27.1146 7.17368 27.0961L7.08117 26.9713C7.05804 26.9389 7.03029 26.9019 7.00716 26.8695L6.99791 26.8602C6.96091 26.814 6.92853 26.7677 6.90078 26.7307L6.73426 26.4578C6.68338 26.3838 6.64637 26.3006 6.59549 26.1988C6.57699 26.1618 6.56311 26.1294 6.54461 26.0924V26.0832C6.51686 26.0323 6.48448 25.9768 6.46598 25.9305C6.44285 25.8611 6.41972 25.7964 6.39197 25.7224C6.34572 25.5975 6.29946 25.4772 6.27171 25.3385C6.15145 24.9499 6.12832 24.5382 6.10519 24.1358C6.12832 23.7288 6.14682 23.3125 6.27171 22.9054C6.29484 22.7806 6.34109 22.6603 6.38735 22.5354C6.4151 22.4614 6.43823 22.3966 6.46135 22.3319C6.48448 22.2764 6.51223 22.2209 6.53536 22.17V22.1607C6.55849 22.1237 6.57699 22.0867 6.60012 22.0405C6.63712 21.9572 6.67875 21.8693 6.73426 21.7861L6.89152 21.5224C6.9239 21.4762 6.96091 21.4299 6.99329 21.3837V21.3744C7.02566 21.342 7.05342 21.305 7.07654 21.268L7.16443 21.1478C7.16443 21.1478 7.20143 21.1061 7.22456 21.083L7.46971 20.8101L7.74724 20.5557H7.75187C7.77037 20.5326 7.7935 20.5141 7.80737 20.5002L7.93226 20.4077C7.96926 20.3799 8.00627 20.3522 8.0479 20.3244H8.05715C8.09878 20.2874 8.14041 20.255 8.18204 20.2273L8.35781 20.1209L8.45032 20.0608H8.45494C8.52895 20.0053 8.61221 19.9683 8.70934 19.922C8.74635 19.9035 8.78798 19.885 8.82498 19.8665H8.83423C8.88511 19.8341 8.93599 19.811 8.98225 19.7925C9.05163 19.7694 9.12101 19.7462 9.18577 19.7185H9.19502C9.31991 19.6676 9.44017 19.6213 9.57431 19.5982C9.96285 19.478 10.3745 19.4548 10.7769 19.4317C11.1794 19.4548 11.6003 19.4733 12.0027 19.5982C12.1276 19.6213 12.2478 19.6676 12.3727 19.7139H12.382C12.4467 19.7416 12.5161 19.7694 12.5763 19.7879C12.6271 19.811 12.6826 19.8341 12.7289 19.8619H12.7335C12.7613 19.8804 12.789 19.8943 12.8214 19.9081L12.863 19.9266C12.9509 19.9683 13.0342 20.0053 13.1174 20.0608L13.3811 20.218C13.4088 20.2365 13.728 20.4354 13.728 20.4354C13.765 20.4632 14.1027 20.6343 14.1027 20.6343C15.2128 21.1709 15.8141 21.3004 15.9066 21.3189C15.9297 21.3235 15.9529 21.3282 15.976 21.3374C15.9251 21.4715 15.8742 21.5826 15.8742 21.5826C15.8187 21.7444 15.7771 21.8832 15.754 22.0035L15.7493 21.9989ZM18.6912 30.0565L18.5108 30.2924L18.4923 30.3155H18.4876L18.4321 30.3941C18.3859 30.4496 18.335 30.5051 18.2887 30.5606L18.2194 30.6347C18.15 30.7133 18.076 30.7873 18.0066 30.8659L17.9372 30.9399L17.928 30.9492C17.928 30.9492 17.8909 30.9908 17.8724 31.0093C17.8447 31.0417 17.8123 31.0741 17.7846 31.1065C17.6227 31.2591 17.4608 31.4071 17.3035 31.5459L17.2388 31.606C17.1832 31.6569 17.1231 31.7124 17.0676 31.7586L16.7161 32.0269C16.5773 32.1333 16.4293 32.2397 16.2859 32.3368C16.1055 32.4478 15.9251 32.5635 15.7262 32.6791C15.5412 32.7948 15.3423 32.8919 15.1573 32.9798L15.0093 33.0538C14.8659 33.1232 14.7179 33.1925 14.5745 33.2527L14.3571 33.3313C14.0287 33.4562 13.6864 33.5857 13.3348 33.6643C12.6133 33.8725 11.7992 33.9789 10.7769 34.0066C9.75008 33.9789 8.93599 33.8725 8.20979 33.6643C7.86288 33.5857 7.52059 33.4562 7.19218 33.3313L6.97941 33.2527C6.83139 33.1925 6.68338 33.1185 6.53999 33.0492L6.39197 32.9798C6.2162 32.8965 6.01731 32.7994 5.83229 32.6791H5.82304L5.81378 32.6884V32.6699L5.74903 32.6282L5.73515 32.619C5.60564 32.5404 5.43449 32.4386 5.2726 32.3368C5.12459 32.2351 4.9812 32.1287 4.84243 32.0223L4.49552 31.7586C4.43539 31.7078 4.37526 31.6569 4.31975 31.6014L4.25499 31.5412C4.10235 31.4025 3.94046 31.2545 3.77857 31.1065C3.63055 30.9492 3.48254 30.7919 3.33914 30.6254L3.27901 30.5606C3.22351 30.4959 3.17263 30.4404 3.12637 30.3849L2.86734 30.0426C2.76096 29.8992 2.64995 29.7512 2.54819 29.6078C2.43717 29.4274 2.32154 29.247 2.2059 29.0481C2.09026 28.8631 1.99313 28.6642 1.90524 28.4792L1.83586 28.3312C1.76648 28.1878 1.69247 28.0351 1.63234 27.8917L1.5537 27.679C1.42882 27.3505 1.2993 27.0083 1.22067 26.6521C1.01252 25.9305 0.906135 25.1164 0.878382 24.0942C0.906135 23.0673 1.01252 22.2533 1.22067 21.5271C1.2993 21.1801 1.42882 20.8379 1.5537 20.5094L1.63234 20.3013C1.69247 20.1533 1.76648 20.0006 1.83586 19.8526L1.90524 19.7092C1.9885 19.5335 2.09026 19.3299 2.21052 19.1403C2.32616 18.9507 2.43717 18.761 2.54819 18.5852C2.64995 18.4372 2.76096 18.2892 2.87197 18.1412L3.131 17.8035C3.18188 17.7434 3.23738 17.6833 3.28826 17.6231L3.34377 17.563C3.48254 17.4057 3.63055 17.2485 3.77857 17.0866C3.93583 16.9386 4.09773 16.7905 4.25962 16.6472L4.31975 16.5916C4.37988 16.5408 4.44001 16.4853 4.50014 16.4344L4.85168 16.1661C4.99045 16.0597 5.13846 15.9533 5.28185 15.8562C5.44837 15.7498 5.61026 15.6527 5.74903 15.5694L5.83229 15.5185L5.84616 15.5093C6.03118 15.3936 6.2347 15.2919 6.40585 15.2086L6.55386 15.1346C6.69725 15.0652 6.84527 14.9959 6.99329 14.9357L7.21068 14.8571C7.53909 14.7322 7.88138 14.6027 8.23292 14.5241C8.31155 14.5009 8.39018 14.4824 8.46419 14.4639C8.72322 14.3992 8.99612 14.3437 9.29216 14.302C9.74545 14.2373 10.2358 14.1956 10.7908 14.1818C10.9157 14.1818 11.0452 14.191 11.1701 14.1956C11.517 14.2141 11.8316 14.2419 12.1415 14.2789C12.5855 14.3344 12.9833 14.4177 13.358 14.5241C13.7049 14.6027 14.0425 14.7322 14.3709 14.8571L14.5837 14.9357C14.7364 14.9959 14.889 15.0745 15.0278 15.1392L15.1758 15.2086C15.2498 15.2456 15.3238 15.2826 15.4024 15.3196C15.4996 15.3659 15.6245 15.4353 15.7447 15.5139C15.8372 15.5694 15.9297 15.6249 16.0176 15.6804L16.1009 15.7313H16.1055C16.1471 15.7544 16.1841 15.7729 16.2258 15.7914C16.2905 15.8238 16.3599 15.8562 16.4385 15.8886C16.5079 15.9117 16.5727 15.9348 16.6421 15.9626H16.6559C16.8086 16.0227 16.9658 16.0828 17.1185 16.1152C17.4932 16.2309 17.8724 16.2679 18.1639 16.2864H18.1685H18.2194C18.3442 16.2956 18.4645 16.3002 18.5616 16.3049C18.6495 16.3049 18.7374 16.3049 18.8207 16.2956H18.8716H18.8762C19.5191 16.2586 20.1389 16.1152 20.731 15.8608C20.9438 15.7683 21.1473 15.6665 21.3369 15.5602C21.5173 15.4584 21.6931 15.3428 21.8735 15.204C22.4008 14.8108 22.8495 14.3344 23.2056 13.784V13.7793L23.2334 13.7377C23.2796 13.6683 23.3259 13.599 23.3675 13.5203C23.8347 12.7109 24.0937 11.7904 24.1076 10.8468H24.1169V10.7404L24.1122 10.634H24.1076C24.0845 10.2038 24.0521 9.74592 23.918 9.31112C23.8856 9.1446 23.8255 8.99196 23.77 8.83932C23.7422 8.76994 23.7144 8.69593 23.6913 8.6173C23.6636 8.54791 23.6266 8.47853 23.5942 8.40915C23.5757 8.36752 23.5526 8.33052 23.5341 8.28426C23.4832 8.17787 23.4323 8.06224 23.3629 7.9651L23.1733 7.65519C23.1363 7.59969 23.09 7.54418 23.053 7.48868V7.47942C23.016 7.44242 22.9882 7.40079 22.9605 7.36379L22.8495 7.21577C22.8264 7.18802 22.7986 7.16027 22.7755 7.13251L22.4841 6.80873L22.1695 6.52195C22.1418 6.49419 22.1187 6.47107 22.0863 6.44331L21.9429 6.33693C21.9059 6.30917 21.8689 6.28142 21.8272 6.25367H21.8226C21.7671 6.20741 21.7116 6.16578 21.6469 6.12415L21.3462 5.94376C21.2444 5.87438 21.1334 5.8235 21.0178 5.76799C20.9808 5.74949 20.9391 5.73099 20.9021 5.71249H20.8975C20.8328 5.67548 20.7634 5.6431 20.6847 5.61072C20.6107 5.5876 20.5414 5.55984 20.4674 5.53209C20.3147 5.47659 20.1621 5.41645 20.0048 5.38408C19.5376 5.24069 19.0566 5.20831 18.557 5.18981C18.0667 5.21293 17.5857 5.24531 17.1324 5.38408C16.9659 5.41645 16.8132 5.47659 16.6606 5.53209C16.5912 5.55984 16.5172 5.5876 16.4385 5.61072C16.3645 5.63848 16.2952 5.67548 16.235 5.70786H16.2304C16.1934 5.73099 16.1518 5.74949 16.1148 5.76799C16.0269 5.80962 15.9529 5.84663 15.8835 5.88363L15.4811 6.12415C15.4256 6.16116 15.3701 6.20741 15.3145 6.24442H15.3053C15.2683 6.28142 15.2313 6.30917 15.1897 6.33693L15.0416 6.44794C15.0139 6.47107 14.9908 6.49419 14.9676 6.51732L14.6346 6.81798L14.3478 7.13251C14.3201 7.16027 14.2969 7.18802 14.2692 7.2204L14.1628 7.36379C14.1397 7.39617 14.1165 7.42854 14.0934 7.4563L14.0795 7.4748C14.0379 7.5303 13.9917 7.59044 13.9454 7.65519L13.765 7.95585C13.6956 8.05761 13.6447 8.16862 13.5892 8.28426C13.5707 8.32126 13.5522 8.35827 13.5337 8.3999V8.40915C13.4967 8.47391 13.4644 8.54329 13.432 8.62192C13.4088 8.68668 13.3857 8.75606 13.358 8.82082V8.83469C13.2978 8.98734 13.2377 9.1446 13.2053 9.30187C13.0619 9.76904 13.0296 10.2501 13.0111 10.7496C13.0342 11.24 13.0666 11.721 13.2053 12.1743C13.2377 12.3408 13.2978 12.4935 13.3533 12.6461V12.6554C13.3811 12.7247 13.4088 12.7941 13.4366 12.8681C13.4644 12.9375 13.5014 13.0069 13.5337 13.0716C13.5522 13.1133 13.5754 13.1503 13.5939 13.1919C13.6447 13.3029 13.6956 13.4139 13.765 13.5157L13.9084 13.7562C13.7881 13.7192 13.6864 13.6915 13.5892 13.6683C13.0388 13.5111 12.4421 13.4047 11.7575 13.3492L11.739 13.2983C11.6558 13.0809 11.5725 12.8589 11.5216 12.6276C11.332 11.9893 11.2857 11.3186 11.2672 10.745C11.2857 10.1715 11.332 9.49614 11.5216 8.84857C11.5725 8.62192 11.6558 8.39527 11.739 8.17787C11.7668 8.09924 11.7992 8.02061 11.8269 7.9466C11.8639 7.84946 11.9148 7.75233 11.9564 7.65982C11.9796 7.60431 12.0027 7.55806 12.0258 7.5118C12.0906 7.37304 12.16 7.22965 12.2478 7.09551L12.4976 6.68847C12.5578 6.60058 12.6271 6.5127 12.6873 6.42481L12.9232 6.11028C12.9555 6.06865 12.9926 6.02702 13.0249 5.99464L13.3996 5.58297L13.8159 5.20368C13.8529 5.16668 13.8945 5.12967 13.9269 5.10192L14.2414 4.86602C14.3247 4.80126 14.4172 4.73651 14.5005 4.67637L14.8242 4.4821L14.9168 4.4266C15.0463 4.34334 15.185 4.27396 15.3331 4.20457C15.3793 4.18145 15.4302 4.15832 15.4811 4.13519C15.5736 4.08894 15.6707 4.04268 15.7632 4.00568C15.8419 3.97793 15.9251 3.94555 16.0037 3.91779C16.2211 3.83454 16.4432 3.75128 16.6744 3.7004C17.3128 3.51075 17.9835 3.4645 18.557 3.44599C19.1306 3.4645 19.8059 3.51075 20.4535 3.7004C20.6801 3.75128 20.9021 3.83453 21.1195 3.91317C21.1982 3.94092 21.2814 3.9733 21.3554 4.00105C21.4526 4.04268 21.5497 4.08894 21.6469 4.13519C21.6931 4.15832 21.744 4.18145 21.7902 4.20457C21.9429 4.27858 22.0816 4.34334 22.2065 4.4266L22.6136 4.67637C22.7061 4.74113 22.7986 4.81051 22.8819 4.87065L23.1871 5.10192C23.2241 5.1343 23.2611 5.16668 23.2935 5.19906L23.7144 5.58297L24.0937 5.99927C24.1307 6.03627 24.1631 6.0779 24.1955 6.1149L24.4268 6.42481C24.4869 6.50807 24.5609 6.60058 24.621 6.68847L24.8754 7.10476C24.9587 7.22965 25.0235 7.36841 25.0975 7.52105C25.1206 7.56731 25.1437 7.61819 25.1669 7.66444C25.2085 7.75233 25.2594 7.85409 25.301 7.95123C25.3287 8.02986 25.3611 8.11312 25.3889 8.19175C25.4721 8.40915 25.5554 8.63117 25.6063 8.86707C25.7959 9.50539 25.8422 10.1807 25.8607 10.7543C25.8607 11.6424 25.6988 12.5212 25.375 13.3677C25.2594 13.6683 25.1206 13.9644 24.968 14.2419L24.9495 14.2743C24.9495 14.2743 24.9356 14.2974 24.931 14.3113C24.9125 14.3437 24.8986 14.376 24.8801 14.4038C24.3574 15.3104 23.6219 16.1106 22.7616 16.7212C22.5581 16.8646 22.3823 16.9802 22.2112 17.0773C22.0123 17.193 21.8087 17.2993 21.6006 17.3965C20.9808 17.6833 20.324 17.8775 19.6486 17.9793C19.3249 18.0256 18.9964 18.0533 18.6727 18.0579H18.6357C18.631 18.0579 18.6264 18.0579 18.6218 18.0579C18.6033 18.0579 18.5801 18.0579 18.5616 18.0579C17.9881 18.0394 17.3128 17.9932 16.6652 17.8035C16.4385 17.7526 16.2119 17.6694 15.9945 17.5861C15.9159 17.5584 15.8372 17.526 15.7632 17.5029C15.6661 17.4659 15.5736 17.4196 15.4811 17.3734H15.4764C15.4302 17.3456 15.3793 17.3225 15.3331 17.2994L15.3053 17.2855C15.3053 17.2855 15.2868 17.2762 15.2729 17.2716L14.8751 17.0264C14.7595 16.9524 14.6392 16.8877 14.4912 16.8183C14.4773 16.809 14.4588 16.8044 14.445 16.7952C14.4265 16.7859 14.4126 16.7767 14.3941 16.772C14.3571 16.7535 14.3247 16.7397 14.2877 16.7212L14.2507 16.7027C14.1443 16.6518 14.0287 16.5963 13.9084 16.5454C13.8344 16.5176 13.765 16.4899 13.691 16.4668H13.6725C13.4227 16.365 13.1637 16.2679 12.9 16.2124C12.7567 16.1707 12.604 16.1337 12.4282 16.0967H12.4236L12.3727 16.0875C11.7853 15.9765 11.221 15.9441 10.7862 15.9302C10.5503 15.9395 10.3375 15.9487 10.134 15.9672H10.1247H10.097C9.78246 15.995 9.5003 16.032 9.23202 16.0828H9.21815H9.19502V16.0875C9.01 16.1245 8.84348 16.1615 8.68622 16.2124C8.41794 16.2725 8.15891 16.3696 7.90913 16.4621C7.8305 16.4899 7.75187 16.5223 7.66861 16.55C7.54834 16.5963 7.43271 16.6564 7.33095 16.7073L7.28932 16.7258C7.25694 16.7443 7.21993 16.7582 7.18293 16.7767C7.03491 16.8461 6.91003 16.9108 6.80364 16.9756L6.25321 17.3086C6.14682 17.378 6.04506 17.4566 5.94792 17.5306L5.61026 17.785C5.56401 17.8267 5.51775 17.8683 5.4715 17.9099L5.01357 18.3262L4.6019 18.7795H4.59728C4.56028 18.8258 4.51865 18.872 4.47702 18.9183L4.23186 19.2421C4.15786 19.3392 4.07922 19.4456 4.00059 19.5612L3.72769 20.0099C3.63055 20.1579 3.55654 20.3152 3.47328 20.4863C3.45016 20.5326 3.42703 20.5835 3.4039 20.6297C3.3484 20.7407 3.29752 20.8517 3.24663 20.972C3.21888 21.046 3.19113 21.12 3.16338 21.194V21.2079C3.06624 21.4577 2.96911 21.7167 2.90897 21.9804C2.69158 22.7204 2.6407 23.4975 2.62219 24.0988C2.6407 24.6955 2.69158 25.468 2.90435 26.2034C2.96448 26.4763 3.06162 26.7354 3.15413 26.9851C3.18188 27.0638 3.21426 27.1424 3.24201 27.2257C3.28826 27.3413 3.34377 27.4569 3.39928 27.5679C3.4224 27.6142 3.44553 27.6651 3.46866 27.7113C3.55192 27.8825 3.62593 28.0397 3.72306 28.1878L4.00059 28.6411C4.0746 28.7474 4.15786 28.8585 4.22724 28.9556L4.47702 29.284C4.51402 29.3303 4.55565 29.3719 4.59265 29.4135L5.0182 29.8807L5.46687 30.2924C5.51313 30.334 5.55938 30.3756 5.61026 30.4173L5.93867 30.6624C6.03581 30.7364 6.14219 30.815 6.25783 30.8937L6.78514 31.2175L6.80364 31.2267C6.91465 31.2915 7.03491 31.3516 7.18756 31.4256C7.22456 31.4441 7.25694 31.458 7.29394 31.4765L7.33095 31.495C7.43733 31.5459 7.55297 31.6014 7.67323 31.6523C7.75187 31.68 7.8305 31.7124 7.90913 31.7401C8.15891 31.8327 8.41794 31.9298 8.68159 31.9899C9.42167 32.2073 10.2034 32.2582 10.8001 32.2767C11.3921 32.2582 12.1692 32.2073 12.9047 31.9945C13.1729 31.9344 13.432 31.8373 13.6817 31.7448L13.7003 31.7355C13.7743 31.7078 13.8436 31.68 13.9223 31.6523C14.0425 31.606 14.1582 31.5459 14.2599 31.495L14.2923 31.4811C14.3293 31.4626 14.3663 31.4441 14.4033 31.4302C14.5698 31.3516 14.7271 31.273 14.8798 31.1758L15.3331 30.8983C15.4394 30.8243 15.5505 30.741 15.6476 30.6717L15.976 30.4219C16.0222 30.3802 16.0685 30.3386 16.1148 30.297L16.5727 29.8807L16.9335 29.4875L16.9473 29.4737L16.9566 29.4598L16.9844 29.4274C17.026 29.3811 17.0676 29.3395 17.1092 29.2886L17.3544 28.9602C17.4006 28.9001 17.4423 28.84 17.4885 28.7798L17.5209 28.7336C17.544 28.7058 17.5625 28.6734 17.5857 28.6411L17.8586 28.1924C17.9557 28.0444 18.0297 27.8871 18.113 27.716C18.1361 27.6697 18.1592 27.6188 18.1824 27.5726C18.2379 27.4616 18.2887 27.3505 18.3396 27.2303C18.3674 27.1517 18.3951 27.073 18.4275 26.9944C18.4645 26.8926 18.4969 26.8047 18.5293 26.7169L18.5431 26.6752C18.5431 26.6752 18.5431 26.6752 18.5431 26.6706C18.6033 26.4902 18.6449 26.3514 18.6727 26.2219C18.8808 25.5096 18.9317 24.7741 18.9548 24.2145V24.1081V24.0017C18.9548 23.9832 18.9687 23.849 18.9918 23.5808C19.0011 23.4698 19.0103 23.3634 19.0149 23.3449C19.0381 23.1922 19.1953 22.2255 19.4359 21.5317C19.6255 21.5085 20.1343 21.4345 20.324 21.4022H20.3378H20.3563C20.6061 21.3605 20.8698 21.305 21.138 21.2403H21.1565H21.175C21.3046 21.2033 21.4387 21.1663 21.5913 21.12L21.4618 21.3374C21.3924 21.4392 21.3416 21.5502 21.2861 21.6658L21.2629 21.7121C21.2491 21.7398 21.2398 21.763 21.2259 21.7907C21.1936 21.8555 21.1612 21.9248 21.1288 22.0035C21.1057 22.0775 21.0779 22.1469 21.0502 22.2209C20.9947 22.3735 20.9345 22.5262 20.9068 22.6834C20.7819 23.0997 20.7403 23.5299 20.7171 23.9739C20.7171 23.9739 20.7032 24.0988 20.7032 24.122C20.6755 25.1488 20.5691 25.9629 20.361 26.6891C20.2823 27.036 20.1528 27.3783 20.0279 27.7067L19.9817 27.827L19.9493 27.9195C19.8892 28.0675 19.8152 28.2201 19.7458 28.3635L19.6764 28.5069C19.6394 28.5856 19.5978 28.6688 19.5561 28.7521C19.4867 28.8862 19.4312 28.9833 19.3757 29.0759C19.2601 29.2655 19.1491 29.4551 19.0381 29.6309C18.9363 29.7789 18.8253 29.9269 18.7143 30.075L18.6912 30.0565ZM14.0194 11.9847C13.8991 11.5961 13.876 11.1844 13.8529 10.7867C13.876 10.3796 13.8945 9.95869 14.0194 9.55627C14.0425 9.43138 14.0888 9.31112 14.1397 9.18161C14.1674 9.11222 14.1906 9.04284 14.2091 8.98271C14.2322 8.93183 14.2553 8.88095 14.2784 8.83007V8.82082C14.3016 8.78381 14.3201 8.74218 14.3386 8.70518L14.3478 8.68668C14.3895 8.59879 14.4265 8.52016 14.482 8.44153L14.6392 8.17787C14.6716 8.13162 14.704 8.08536 14.7364 8.04373V8.03448C14.7687 7.99748 14.7965 7.96048 14.8242 7.9281L14.9121 7.80783C14.9121 7.80783 14.9538 7.76158 14.9723 7.74308L15.2174 7.47017L15.4996 7.21577C15.4996 7.21577 15.5412 7.17414 15.5597 7.16027L15.6846 7.06776C15.717 7.04463 15.754 7.01688 15.7864 6.99375L15.8049 6.97987C15.8465 6.94749 15.8881 6.91511 15.9297 6.88736L16.1055 6.78097L16.198 6.72547L16.2119 6.71622C16.2859 6.66534 16.3645 6.62833 16.4617 6.5867C16.5033 6.5682 16.5403 6.5497 16.5819 6.52657C16.6328 6.49882 16.6837 6.47569 16.7299 6.45719C16.7993 6.43406 16.8733 6.40631 16.9427 6.37856C17.0676 6.3323 17.1879 6.28605 17.322 6.25829C17.7152 6.13803 18.1269 6.1149 18.5246 6.09178C18.9271 6.1149 19.348 6.13341 19.7504 6.25829C19.8753 6.28142 19.9956 6.32768 20.1204 6.37393H20.1343C20.1991 6.40168 20.2638 6.42944 20.324 6.44794C20.3795 6.47107 20.435 6.49882 20.4859 6.52195C20.5229 6.54045 20.5645 6.55895 20.62 6.5867C20.7079 6.62833 20.7911 6.66534 20.8698 6.72084L21.1334 6.87811C21.1797 6.91049 21.2259 6.94749 21.2722 6.97987C21.3092 7.00762 21.3462 7.03538 21.3832 7.06313L21.5035 7.15101C21.5035 7.15101 21.5451 7.18802 21.5682 7.20652L21.8457 7.4563L22.1001 7.73845C22.1001 7.73845 22.1418 7.78008 22.1557 7.79858L22.2482 7.92347C22.2759 7.96048 22.3037 7.99748 22.3314 8.03448C22.3638 8.08074 22.4008 8.12699 22.4286 8.16862L22.5951 8.44153C22.646 8.51554 22.683 8.59417 22.7338 8.70055C22.7523 8.74218 22.7708 8.77919 22.7893 8.81619C22.8125 8.86707 22.8402 8.92258 22.8634 8.96883C22.8865 9.04284 22.9142 9.11222 22.9374 9.18161C22.9836 9.30649 23.0299 9.42676 23.0576 9.56552C23.1779 9.95869 23.201 10.375 23.2241 10.7774C23.2241 11.6007 23.0067 12.4102 22.5951 13.1179C22.2898 13.6498 21.8874 14.1124 21.4017 14.487C21.2352 14.6166 21.0594 14.7368 20.879 14.8386C20.6986 14.9403 20.509 15.0375 20.3055 15.1207C19.7411 15.352 19.1491 15.4677 18.5385 15.4677C18.1361 15.4445 17.7152 15.426 17.3128 15.3011C17.1879 15.278 17.0676 15.2318 16.9427 15.1855C16.878 15.1624 16.8086 15.1346 16.7392 15.1115C16.6837 15.0884 16.6328 15.0652 16.5773 15.0375C16.5496 15.0236 16.5172 15.0097 16.4894 14.9959L16.4015 14.9403C16.3229 14.8895 16.2396 14.8386 16.161 14.7923C16.0639 14.7322 15.9529 14.6674 15.828 14.6027L15.8141 14.5934C15.8141 14.5934 15.8002 14.5842 15.7956 14.5796C15.7586 14.5518 15.7216 14.5241 15.6846 14.4963L15.5643 14.4084C15.5643 14.4084 15.5181 14.3714 15.4996 14.3483L15.2267 14.1031L14.9168 13.7608L14.8242 13.636C14.7965 13.599 14.7687 13.5619 14.741 13.5249V13.5157C14.704 13.4741 14.6716 13.4324 14.6439 13.3954L14.4773 13.1225C14.4265 13.0439 14.3848 12.9606 14.3386 12.8635C14.3201 12.8265 14.3016 12.7895 14.2831 12.7525C14.2599 12.697 14.2322 12.6415 14.2091 12.5952C14.1859 12.5258 14.1582 12.4518 14.135 12.3824C14.0888 12.2576 14.0425 12.1373 14.0148 12.0032L14.0194 11.9847ZM35.8101 26.6752C35.7315 27.0221 35.602 27.3598 35.4771 27.6928L35.3984 27.9056C35.3383 28.0536 35.2643 28.2063 35.1949 28.3543L35.1255 28.4977C35.0377 28.6827 34.9405 28.8816 34.8203 29.0666C34.7046 29.2563 34.5936 29.4459 34.4826 29.6217C34.3808 29.7697 34.2745 29.9177 34.1634 30.0565L33.9044 30.3988C33.8535 30.4589 33.8027 30.5144 33.7564 30.5699L33.6916 30.6393C33.5482 30.8012 33.4002 30.9584 33.2568 31.1157C33.095 31.2683 32.9331 31.4164 32.7758 31.5551L32.7018 31.6199C32.6463 31.6708 32.5908 31.7216 32.5353 31.7679L32.1884 32.0315C32.0542 32.1333 31.9016 32.2443 31.7582 32.3461C31.5778 32.4571 31.3974 32.5727 31.1985 32.6884C31.0135 32.8086 30.8146 32.9011 30.6296 32.989L30.4815 33.0584C30.3382 33.1278 30.1855 33.2018 30.0421 33.2619L29.8247 33.3406C29.4963 33.4655 29.154 33.595 28.8025 33.6736C28.0809 33.8817 27.2668 33.9881 26.2446 34.0159C25.2177 33.9881 24.4036 33.8817 23.6774 33.6736C23.3305 33.595 22.9929 33.4655 22.6598 33.3406L22.4471 33.2619C22.299 33.2018 22.151 33.1278 22.003 33.0584L21.855 32.989C21.67 32.9011 21.4757 32.804 21.2861 32.6884L21.2074 32.6375L21.1936 32.6282C21.0039 32.5172 20.8605 32.4293 20.731 32.3461C20.583 32.2443 20.4396 32.1379 20.3008 32.0315L19.9539 31.7679C19.8984 31.7216 19.8429 31.6708 19.7874 31.6245L19.7134 31.5551C19.5561 31.4117 19.3942 31.2637 19.237 31.1203C19.2046 31.0879 19.1722 31.0509 19.1398 31.0186C19.1213 31.0001 19.1075 30.9816 19.089 30.9631C19.089 30.9631 19.0982 30.9538 19.0982 30.9492L19.3665 30.593C19.4821 30.4311 19.607 30.2692 19.7226 30.0981C19.8429 29.9038 19.9678 29.7049 20.0881 29.5014C20.0881 29.5014 20.0927 29.4922 20.0973 29.4875L20.4627 29.8853L20.916 30.297C20.9623 30.3386 21.0085 30.3802 21.0594 30.4219L21.3878 30.667C21.485 30.7364 21.5913 30.8197 21.707 30.8983L22.2343 31.2221L22.2528 31.2313C22.3638 31.2961 22.4841 31.3609 22.6321 31.4302C22.6691 31.4487 22.7061 31.4672 22.7431 31.4857L22.7755 31.4996C22.8772 31.5505 22.9975 31.606 23.1178 31.6569C23.1918 31.6846 23.2611 31.7124 23.3352 31.7355H23.3537C23.6034 31.8373 23.8625 31.9344 24.1261 31.9899C24.8662 32.2073 25.6479 32.2582 26.2446 32.2767C26.8367 32.2582 27.6137 32.2073 28.3492 31.9945C28.6175 31.9344 28.8765 31.8373 29.1263 31.7448C29.2049 31.717 29.2835 31.6846 29.3668 31.6569C29.4824 31.6106 29.5981 31.5551 29.7045 31.4996C29.7507 31.4765 29.8016 31.4534 29.8479 31.4302C30.0144 31.3516 30.1716 31.273 30.3243 31.1758L30.7776 30.8983C30.884 30.8243 30.995 30.741 31.0921 30.6717L31.4205 30.4219C31.4668 30.3802 31.513 30.3386 31.5593 30.297L32.0172 29.8807L32.4289 29.4274C32.4705 29.3811 32.5121 29.3349 32.5538 29.2886L32.7989 28.9648C32.8776 28.8631 32.9562 28.7567 33.0302 28.6457L33.3031 28.197C33.4002 28.0444 33.4789 27.8825 33.5575 27.7206C33.5806 27.6743 33.6038 27.6281 33.6269 27.5772C33.6824 27.4662 33.7379 27.3505 33.7841 27.2303C33.8119 27.1563 33.8397 27.0869 33.8628 27.0129V26.9944C33.9645 26.7446 34.0617 26.4856 34.1172 26.2219C34.3253 25.5096 34.404 24.2145 34.404 24.2145L34.3947 24.0017C34.3762 23.442 34.3253 22.7066 34.1172 21.9989C34.0571 21.7306 33.9599 21.4715 33.8674 21.2218C33.8397 21.1431 33.8073 21.0645 33.7795 20.9812C33.7333 20.8656 33.6778 20.75 33.6223 20.639C33.5991 20.5927 33.576 20.5464 33.5529 20.4956C33.4742 20.329 33.3956 20.1718 33.2985 20.0191L33.0209 19.5658C32.9469 19.4595 32.8683 19.3531 32.7897 19.2513L32.5445 18.9229C32.5075 18.8766 32.4659 18.835 32.4243 18.7841L32.0033 18.3262L31.5547 17.9145C31.5084 17.8729 31.4622 17.8313 31.4113 17.7897L31.0875 17.5445H31.0782C30.9765 17.4659 30.8747 17.3872 30.7683 17.3132L30.3197 17.0403C30.167 16.9432 30.0097 16.8646 29.8432 16.7859C29.797 16.7628 29.7461 16.7397 29.6998 16.7165C29.5888 16.6657 29.4778 16.6101 29.3575 16.5593C29.2789 16.5315 29.2003 16.4991 29.1216 16.4714C28.8719 16.3789 28.6128 16.2817 28.3492 16.2216C28.2104 16.18 28.0624 16.143 27.8913 16.1106C28.1827 15.6064 28.4324 15.0652 28.6406 14.4963L28.6684 14.5056C28.71 14.5148 28.7562 14.5287 28.7979 14.5426C29.1448 14.6212 29.4824 14.7507 29.8155 14.8756L30.0282 14.9542C30.1763 15.0144 30.3243 15.0837 30.463 15.1531L30.6157 15.2271C30.7915 15.3104 30.9996 15.4121 31.1846 15.5324C31.3743 15.648 31.5593 15.7591 31.7397 15.8701C31.8877 15.9718 32.0403 16.0875 32.1745 16.1846L32.5214 16.4483C32.5815 16.4991 32.6463 16.5546 32.7064 16.6102L32.7665 16.6657C32.9238 16.8044 33.0811 16.9524 33.243 17.1005C33.391 17.2577 33.539 17.4196 33.6824 17.5815L33.7379 17.6416C33.7888 17.7018 33.8443 17.7619 33.8952 17.822L34.1588 18.1689C34.2652 18.3123 34.3716 18.4557 34.4733 18.5991C34.589 18.7795 34.7 18.9599 34.8156 19.1588C34.9313 19.3438 35.033 19.5473 35.1163 19.7277L35.1857 19.8757C35.2551 20.0191 35.3291 20.1718 35.3892 20.3152L35.4725 20.5326C35.5973 20.861 35.7222 21.2033 35.8055 21.5548C36.0136 22.2764 36.12 23.0905 36.1478 24.1127C36.12 25.1396 36.0136 25.9536 35.8055 26.6799L35.8101 26.6752Z" fill="white"></path>
    <path d="M52.6467 17.9655V29.5153H49.6494V6.95215H52.6467V17.3734L62.8321 6.95215H66.7221L56.2685 17.6417L67.8461 29.5199H63.8682L52.6467 17.9701V17.9655Z" fill="white"></path>
    <path d="M69.0078 6.95215H72.1532V10.8699H69.0078V6.95215ZM69.1234 13.599H72.0329V29.5153H69.1234V13.599Z" fill="white"></path>
    <path d="M77.0886 13.5992H79.998V16.837C80.7104 14.9683 82.2553 13.2754 84.9843 13.2754C88.5783 13.2754 90.5072 16.0368 90.5072 19.5984V29.5155H87.5977V20.0425C87.5977 16.8046 86.113 15.4124 83.7956 15.4124C81.4782 15.4124 79.9934 16.837 79.9934 20.1026V29.5155H77.084V13.5992H77.0886Z" fill="white"></path>
    <path d="M93.3701 21.5595C93.3701 16.6611 96.3119 13.2752 100.142 13.2752C103.111 13.2752 105.012 15.3243 105.753 17.4613V6.95215H108.662V29.5199H105.753V26.0462C104.772 28.3312 102.515 29.8483 100.142 29.8483C96.2842 29.8483 93.3701 26.4625 93.3701 21.5641V21.5595ZM101.09 27.7067C104.12 27.7067 105.868 25.3015 105.868 21.5595C105.868 17.8174 104.115 15.4122 101.09 15.4122C98.065 15.4122 96.3397 17.8174 96.3397 21.5595C96.3397 25.3015 98.0604 27.7067 101.09 27.7067Z" fill="white"></path>
    <path d="M112.907 13.5989H115.817V17.0125C116.529 14.7877 118.102 13.2705 121.043 13.2705V16.1522H120.151C117.241 16.1522 115.817 17.0727 115.817 19.922V29.5106H112.907V13.5989Z" fill="white"></path>
    <path d="M122.593 21.5597C122.593 16.7214 125.415 13.2754 130.133 13.2754C134.587 13.2754 137.617 16.4207 137.617 21.3237C137.617 21.6198 137.589 22.0361 137.557 22.4246H125.531C125.767 25.8706 127.52 27.7116 130.161 27.7116C132.478 27.7116 133.695 26.6431 134.287 24.8623H137.256C136.336 28.2481 133.755 29.8485 130.161 29.8485C125.35 29.8485 122.589 26.347 122.589 21.5643L122.593 21.5597ZM134.648 20.2229C134.472 17.3736 132.746 15.4124 130.133 15.4124C127.52 15.4124 125.919 17.0452 125.558 20.2229H134.643H134.648Z" fill="white"></path>
    <path d="M139.925 21.5595C139.925 16.6611 142.862 13.2752 146.697 13.2752C149.666 13.2752 151.567 15.3243 152.307 17.4613V6.95215H155.217V29.5199H152.307V26.0462C151.327 28.3312 149.069 29.8483 146.697 29.8483C142.839 29.8483 139.925 26.4625 139.925 21.5641V21.5595ZM147.645 27.7067C150.674 27.7067 152.423 25.3015 152.423 21.5595C152.423 17.8174 150.67 15.4122 147.645 15.4122C144.62 15.4122 142.894 17.8174 142.894 21.5595C142.894 25.3015 144.615 27.7067 147.645 27.7067Z" fill="white"></path>
    <path d="M173.993 30.0935L166.102 6.95215H169.89L175.843 26.3422H175.875L181.796 6.95215H185.432L177.725 30.0935H173.997H173.993Z" fill="white"></path>
    <path d="M184.812 21.9015C184.812 16.9198 187.716 13.3721 192.578 13.3721C197.162 13.3721 200.284 16.6145 200.284 21.6563C200.284 21.9616 200.251 22.3918 200.224 22.7896H187.841C188.086 26.3373 189.89 28.2292 192.61 28.2292C194.997 28.2292 196.246 27.1283 196.861 25.2966H199.918C198.97 28.7796 196.311 30.4309 192.61 30.4309C187.656 30.4309 184.816 26.823 184.816 21.9015H184.812ZM197.222 20.5231C197.037 17.5905 195.265 15.5692 192.573 15.5692C189.881 15.5692 188.234 17.2529 187.864 20.5231H197.217H197.222Z" fill="white"></path>
    <path d="M203.337 13.7058H206.334V17.0362C207.069 15.112 208.656 13.3682 211.468 13.3682C215.169 13.3682 217.153 16.2128 217.153 19.8809V30.0893H214.156V20.3388C214.156 17.0084 212.625 15.5699 210.243 15.5699C207.86 15.5699 206.329 17.0362 206.329 20.3989V30.0893H203.332V13.7058H203.337Z" fill="white"></path>
    <path d="M222.287 25.5972V15.9669H218.832V13.705H222.287V9.82422H225.285V13.705H229.443V15.9669H225.285V25.5972C225.285 27.341 226.173 27.8266 227.671 27.8266H229.508V30.0885H227.366C224.521 30.0885 222.292 28.7147 222.292 25.5925L222.287 25.5972Z" fill="white"></path>
    <path d="M231.825 23.9184V13.71H234.823V23.4605C234.823 26.7631 236.289 28.2294 238.676 28.2294C241.062 28.2294 242.496 26.7307 242.496 23.4004V13.71H245.494V30.0981H242.496V26.8279C241.793 28.6919 240.174 30.4357 237.45 30.4357C233.749 30.4357 231.825 27.5911 231.825 23.9231V23.9184Z" fill="white"></path>
    <path d="M249.587 13.7058H252.584V17.2212C253.32 14.927 254.939 13.3682 257.964 13.3682V16.3331H257.048C254.05 16.3331 252.584 17.2813 252.584 20.2139V30.0893H249.587V13.7058Z" fill="white"></path>
    <path d="M258.939 21.9015C258.939 16.9198 261.844 13.3721 266.706 13.3721C271.29 13.3721 274.412 16.6145 274.412 21.6563C274.412 21.9616 274.379 22.3918 274.352 22.7896H261.969C262.214 26.3373 264.018 28.2292 266.738 28.2292C269.125 28.2292 270.374 27.1283 270.989 25.2966H274.046C273.098 28.7796 270.438 30.4309 266.738 30.4309C261.784 30.4309 258.944 26.823 258.944 21.9015H258.939ZM271.35 20.5231C271.165 17.5905 269.393 15.5692 266.701 15.5692C264.009 15.5692 262.362 17.2529 261.992 20.5231H271.345H271.35Z" fill="white"></path>
    <path d="M276.211 25.2924H279.268C279.726 27.6144 281.498 28.225 283.149 28.225C285.716 28.225 287.03 27.249 287.03 25.7504C287.03 24.2517 286.174 23.581 283.727 23.0583L281.433 22.568C278.588 21.9574 276.632 20.6716 276.632 18.1645C276.632 15.2597 279.504 13.3633 283.084 13.3633C286.262 13.3633 288.987 14.8296 289.717 17.7945H286.66C286.202 16.356 284.671 15.565 283.084 15.565C281.313 15.565 279.601 16.3884 279.601 17.8593C279.601 19.1729 280.67 19.6308 282.872 20.0888L285.166 20.5791C288.589 21.3145 289.995 22.8409 289.995 25.3803C289.995 28.5303 287.183 30.4267 283.149 30.4267C279.514 30.4267 276.669 28.6552 276.211 25.2924Z" fill="white"></path>
  </g>
  <defs>
    <clipPath id="clip0_3615_16999">
      <rect width="290" height="34.8855" fill="white"></rect>
    </clipPath>
  </defs>
</svg>
