<svg width="130" height="23" viewBox="0 0 130 23" fill="none" xmlns="http://www.w3.org/2000/svg">
<path fill-rule="evenodd" clip-rule="evenodd" d="M127.824 0.0540122C126.982 -0.175896 126.095 0.329902 125.867 1.18056L121.591 17.3891L111.423 0.766727L111.4 0.720746C111.377 0.697755 111.355 0.674764 111.355 0.651773L111.309 0.605792L111.241 0.536819C111.218 0.513828 111.195 0.490837 111.195 0.490837C111.173 0.467847 111.15 0.444856 111.15 0.444856C111.127 0.421865 111.104 0.421865 111.082 0.398874C111.013 0.352893 110.968 0.306911 110.9 0.260929C110.877 0.237939 110.854 0.237939 110.832 0.214948L110.763 0.168966C110.741 0.145975 110.718 0.145975 110.695 0.145975C110.672 0.145975 110.65 0.122985 110.627 0.122985C110.604 0.122985 110.559 0.0999938 110.536 0.0999938C110.513 0.0999938 110.513 0.077003 110.49 0.077003H110.468L110.377 0.0540122L110.308 0.0310214H110.24C110.217 0.0310214 110.195 0.0310214 110.172 0.0310214H110.013C109.967 0.0310214 109.922 0.0310214 109.876 0.0540122H109.853C109.717 0.077003 109.558 0.122985 109.444 0.168966H109.421C109.398 0.191957 109.353 0.191957 109.33 0.214948L109.239 0.237939H109.216C109.194 0.260929 109.171 0.260929 109.148 0.28392L109.103 0.306911L109.034 0.375883C109.012 0.398874 109.012 0.398874 108.989 0.421865C108.966 0.444856 108.944 0.467847 108.921 0.490837L108.875 0.536819C108.853 0.55981 108.83 0.582801 108.807 0.605792L108.762 0.651773C108.739 0.674764 108.716 0.697755 108.716 0.720746L108.671 0.766727C108.648 0.789718 108.648 0.812709 108.625 0.8357C108.625 0.85869 108.602 0.881681 108.602 0.904672C108.58 0.927663 108.58 0.950654 108.557 0.996635C108.557 1.01963 108.534 1.04262 108.534 1.06561C108.534 1.0886 108.511 1.13458 108.511 1.15757V1.18056L103.28 20.9986C103.052 21.8493 103.552 22.7 104.394 22.9299H104.417C104.553 22.9758 104.69 22.9758 104.826 22.9758C105.531 22.9758 106.191 22.516 106.373 21.8033L110.65 5.5948L120.84 22.2171L120.863 22.2401C120.886 22.2861 120.931 22.3321 120.954 22.3781L120.977 22.4241C121.022 22.47 121.045 22.493 121.09 22.539L121.113 22.562C121.159 22.608 121.204 22.631 121.25 22.677L121.295 22.7C121.341 22.7459 121.409 22.7689 121.454 22.7919C121.5 22.8149 121.523 22.8379 121.568 22.8379C121.591 22.8379 121.591 22.8609 121.614 22.8609C121.727 22.9069 121.841 22.9299 121.955 22.9529H121.978C122.023 22.9529 122.091 22.9529 122.137 22.9529H122.182C122.273 22.9529 122.341 22.9529 122.432 22.9299C122.455 22.9299 122.478 22.9299 122.501 22.9069C122.66 22.8839 122.819 22.8149 122.978 22.7229L123.024 22.7C123.069 22.677 123.115 22.631 123.16 22.608C123.229 22.562 123.274 22.516 123.32 22.4471L123.342 22.4241C123.388 22.3781 123.433 22.3091 123.479 22.2401L123.502 22.2171C123.547 22.1482 123.593 22.0792 123.615 22.0102C123.638 21.9413 123.684 21.8493 123.706 21.7803C123.706 21.7803 123.706 21.7803 123.706 21.7573L128.938 1.93926C129.188 1.15757 128.688 0.28392 127.824 0.0540122C127.846 0.0540122 127.846 0.0540122 127.824 0.0540122ZM90.5639 19.8261C85.9235 19.8261 82.1703 16.1016 82.1703 11.5034C82.1703 6.90527 85.9463 3.18076 90.5639 3.18076C95.2043 3.18076 98.9576 6.90527 98.9576 11.5034C98.9576 16.1016 95.2043 19.8261 90.5639 19.8261ZM90.5639 0.00803056C84.172 0.00803056 78.963 5.15797 78.963 11.5034C78.963 17.8489 84.172 22.9988 90.5639 22.9988C96.9558 22.9988 102.165 17.8489 102.165 11.5034C102.165 5.15797 96.9558 0.00803056 90.5639 0.00803056ZM76.4608 0.0540122C75.5964 -0.175896 74.732 0.329902 74.5045 1.18056L69.2727 20.9986C69.0453 21.8493 69.5457 22.7 70.3873 22.9299H70.4101C70.5466 22.9758 70.683 22.9758 70.8195 22.9758C71.5247 22.9758 72.1844 22.516 72.3663 21.8033L77.5981 1.98524C77.8029 1.15757 77.3024 0.28392 76.4608 0.0540122ZM69.2045 2.85889H59.992L60.2194 1.98524C60.4469 1.13458 59.9237 0.28392 59.1048 0.0540122H59.0821C58.2404 -0.175896 57.3533 0.329902 57.1258 1.18056L56.6936 2.85889H52.2807C51.3936 2.85889 50.6884 3.57161 50.6884 4.44526C50.6884 5.31891 51.3936 6.03162 52.2807 6.03162H55.852L51.894 20.9986C51.6665 21.8493 52.1897 22.7 53.0086 22.9299H53.0314C53.1679 22.9758 53.3043 22.9758 53.4408 22.9758C54.146 22.9758 54.8056 22.516 54.9876 21.8033L59.1503 6.03162H69.2045C70.0916 6.03162 70.7968 5.31891 70.7968 4.44526C70.7968 3.57161 70.0916 2.85889 69.2045 2.85889ZM37.9501 19.8261C33.3097 19.8261 29.5565 16.1016 29.5565 11.5034C29.5565 6.90527 33.3325 3.18076 37.9501 3.18076C42.5677 3.18076 46.3438 6.90527 46.3438 11.5034C46.3438 16.1016 42.5905 19.8261 37.9501 19.8261ZM37.9501 0.00803056C31.5582 0.00803056 26.3491 5.15797 26.3491 11.5034C26.3491 17.8489 31.5582 22.9988 37.9501 22.9988C44.342 22.9988 49.5511 17.8489 49.5511 11.5034C49.5511 5.15797 44.342 0.00803056 37.9501 0.00803056ZM24.6204 0.0540122C23.756 -0.175896 22.8916 0.329902 22.6641 1.18056L18.3877 17.3891L8.19703 0.766727L8.17429 0.720746C8.15154 0.697755 8.15154 0.674764 8.12879 0.651773C8.10605 0.628782 8.10605 0.605791 8.0833 0.582801C8.06055 0.55981 8.06055 0.536819 8.0378 0.513828C7.99231 0.467847 7.96956 0.444856 7.92407 0.398874L7.85583 0.352893L7.78759 0.306911C7.76484 0.28392 7.74209 0.28392 7.71935 0.260929C7.71935 0.260929 7.6966 0.237939 7.67385 0.237939C7.65111 0.214948 7.62836 0.214948 7.60561 0.191957C7.58286 0.168966 7.56012 0.168966 7.53737 0.145975C7.51462 0.145975 7.49188 0.122985 7.46913 0.122985L7.40089 0.0999938L7.3099 0.077003L7.26441 0.0540122H7.24166L7.15067 0.0310214L7.08243 0.00803056H6.99144C6.9687 0.00803056 6.94595 0.00803056 6.9232 0.00803056H6.76397C6.71848 0.00803056 6.69573 0.00803056 6.65024 0.00803056H6.60474C6.51376 0.0310214 6.42277 0.0540122 6.33178 0.077003H6.30903C6.28629 0.077003 6.24079 0.0999938 6.21804 0.122985C6.1953 0.122985 6.17255 0.145975 6.17255 0.145975L6.10431 0.191957L6.01332 0.237939H5.99057C5.96783 0.237939 5.94508 0.260929 5.94508 0.28392L5.87684 0.329902L5.8086 0.375883L5.7631 0.421865C5.69486 0.467847 5.64937 0.536819 5.60388 0.605792C5.58113 0.628782 5.58113 0.651773 5.55838 0.651773L5.51289 0.720746L5.46739 0.766727C5.44465 0.789718 5.44465 0.812709 5.4219 0.8357L5.37641 0.904672C5.37641 0.927663 5.35366 0.950653 5.35366 0.973644C5.35366 0.996635 5.33091 1.01963 5.33091 1.04262C5.33091 1.06561 5.30816 1.0886 5.30816 1.13458L5.28542 1.18056L0.053607 20.9986C-0.173863 21.8493 0.326571 22.7 1.16821 22.9299H1.19096C1.32744 22.9758 1.46392 22.9988 1.6004 22.9988C2.30556 22.9988 2.96522 22.539 3.1472 21.8263L7.42364 5.61779L17.6143 22.2401L17.637 22.2631C17.7053 22.3551 17.7735 22.47 17.8645 22.539L17.8873 22.562C17.9328 22.608 17.9782 22.631 18.0237 22.677L18.0692 22.7C18.1602 22.7689 18.2512 22.8149 18.3649 22.8609L18.4104 22.8839C18.4559 22.9069 18.5242 22.9299 18.5924 22.9299C18.6607 22.9529 18.7061 22.9529 18.7744 22.9529H18.7971C18.8426 22.9529 18.8881 22.9529 18.9336 22.9529H18.9791C19.0701 22.9529 19.1383 22.9529 19.2293 22.9299C19.2521 22.9299 19.2748 22.9299 19.2976 22.9069C19.4341 22.8839 19.5705 22.8379 19.6843 22.7689C19.707 22.7459 19.7298 22.7459 19.7753 22.7229L19.798 22.7689C19.8435 22.7459 19.889 22.7 19.9345 22.677C20.0027 22.631 20.0482 22.585 20.0937 22.516L20.1165 22.493C20.2302 22.3781 20.3212 22.2401 20.3894 22.0792V22.0562C20.4122 21.9872 20.4577 21.8953 20.4804 21.8263V21.8033L25.7122 1.98524C25.9852 1.15757 25.4848 0.28392 24.6204 0.0540122C24.6431 0.0540122 24.6204 0.0540122 24.6204 0.0540122Z" fill="#1D1D1B"/>
</svg>
