<svg width="118" height="48" viewBox="0 0 118 48" fill="none" xmlns="http://www.w3.org/2000/svg">
<g id="QIC Logo">
<path id="path112" d="M57.2062 47.9719H62.5756V0.030899H57.2062V47.9719Z" fill="#BA2E29"/>
<path id="path114" d="M114.393 34.8687C112.226 36.9349 106.945 42.671 96.27 42.5939C83.6479 42.5018 76.0756 33.1844 76.1551 23.7261C76.2224 14.2903 83.9106 5.3093 95.618 5.40469C104.897 5.47963 111.199 10.8589 113.686 13.0173L117.552 9.3062C115.189 6.95596 108.159 0.107147 95.5367 0.00853348C83.9516 -0.0893631 70.9036 7.91628 70.7767 23.8139C70.6651 39.7094 83.6098 47.9001 95.9844 47.9929C109.407 48.0908 115.372 41.45 118 39.0123L114.393 34.8687Z" fill="#BA2E29"/>
<path id="path116" d="M40.6247 42.594H47.9365V47.9987C47.9365 47.9987 25.4051 48.0016 24.4227 47.9987C10.6283 47.8929 -0.0966577 37.2513 0.000657004 23.8132C0.100467 10.3788 10.9705 -0.0975723 24.7649 0.000682831C38.5312 0.107544 49.2529 10.7345 49.1563 24.1679C49.1079 31.6044 45.8733 38.2345 40.6247 42.594ZM24.4616 42.5861C38.5255 42.5861 43.7912 31.3818 43.7912 24.1281C43.7912 13.9529 35.7112 5.4915 24.7197 5.40221C13.6864 5.31758 5.43958 13.6815 5.3658 23.8573C5.29771 34.0411 13.4743 42.5861 24.4616 42.5861Z" fill="#BA2E29"/>
</g>
</svg>
