<svg width="215" height="18" viewBox="0 0 215 18" fill="none" xmlns="http://www.w3.org/2000/svg">
<path fill-rule="evenodd" clip-rule="evenodd" d="M5.18292 17.9994C0.669056 17.9994 -0.168478 15.3414 0.0254769 12.3263H3.66214C3.66214 13.9925 3.73707 15.3898 5.74275 15.3898C6.9726 15.3898 7.5721 14.5964 7.5721 13.4106C7.56769 10.2765 0.245881 10.0826 0.245881 4.90313C0.245881 2.17455 1.54185 0.00579834 5.97637 0.00579834C9.52046 0.00579834 11.2837 1.5971 11.0412 5.23814H7.49716C7.49716 3.93336 7.28116 2.61095 5.81327 2.61095C4.63191 2.61095 3.93103 3.26334 3.93103 4.46673C3.93103 7.76835 11.2661 7.48183 11.2661 12.9566C11.2661 17.4704 7.9556 17.9994 5.18292 17.9994Z" fill="#04408C"/>
<path fill-rule="evenodd" clip-rule="evenodd" d="M21.1969 11.1676H17.7233L19.3808 3.64308H19.4381L21.2013 11.1676H21.1969ZM16.0086 17.7091L17.0004 13.8433H21.9683L22.9293 17.7091H26.7687L22.0388 0.292969H17.234L12.4204 17.7091H16.013H16.0086Z" fill="#04408C"/>
<path fill-rule="evenodd" clip-rule="evenodd" d="M28.292 17.7091V0.292969H34.1503L36.8701 12.133H36.923L39.8191 0.292969H45.4835V17.7091H41.9394V4.27342H41.8821L38.5408 17.7091H35.0628L31.8758 4.27342H31.8405V17.7091H28.292Z" fill="#04408C"/>
<path fill-rule="evenodd" clip-rule="evenodd" d="M53.0475 17.9994C48.538 17.9994 47.6917 15.3414 47.8857 12.3263H51.5355C51.5355 13.9925 51.6017 15.3898 53.6073 15.3898C54.8372 15.3898 55.4411 14.5964 55.4411 13.4106C55.4411 10.2765 48.1105 10.0826 48.1105 4.90313C48.1105 2.17455 49.4064 0.00579834 53.8454 0.00579834C57.3895 0.00579834 59.1527 1.5971 58.9146 5.23814H55.3706C55.3706 3.93336 55.1502 2.61095 53.6823 2.61095C52.5009 2.61095 51.8044 3.26334 51.8044 4.46673C51.8044 7.76835 59.1306 7.48183 59.1306 12.9566C59.1306 17.4704 55.829 17.9994 53.0519 17.9994H53.0475Z" fill="#04408C"/>
<path fill-rule="evenodd" clip-rule="evenodd" d="M208.839 17.9994C204.33 17.9994 203.483 15.3414 203.677 12.3263H207.327C207.327 13.9925 207.393 15.3898 209.399 15.3898C210.629 15.3898 211.233 14.5964 211.233 13.4106C211.233 10.2765 203.902 10.0826 203.902 4.90313C203.902 2.17455 205.198 0.00579834 209.637 0.00579834C213.181 0.00579834 214.944 1.5971 214.706 5.23814H211.162C211.162 3.93336 210.942 2.61095 209.474 2.61095C208.292 2.61095 207.596 3.26334 207.596 4.46673C207.596 7.76835 214.922 7.48183 214.922 12.9566C214.922 17.4704 211.621 17.9994 208.843 17.9994H208.839Z" fill="#04408C"/>
<path fill-rule="evenodd" clip-rule="evenodd" d="M73.3821 0.292969V12.6443C73.3821 15.2494 71.9098 18 67.4797 18C63.4771 18 61.5464 15.9195 61.5464 12.6443V0.292969H65.183V12.4018C65.183 14.5486 66.0999 15.3905 67.4268 15.3905C69.0181 15.3905 69.7454 14.3282 69.7454 12.4018V0.292969H73.3821Z" fill="#04408C"/>
<path fill-rule="evenodd" clip-rule="evenodd" d="M76.2524 17.7091V0.292969H81.1674L85.8003 12.3489H85.8488V0.292969H89.2474V17.7091H84.4515L79.6995 4.96989H79.6467V17.7091H76.2524Z" fill="#04408C"/>
<path fill-rule="evenodd" clip-rule="evenodd" d="M100.16 5.64228C100.177 4.02454 99.9085 2.60515 97.9778 2.60515C95.7076 2.60515 95.7076 5.66433 95.7076 9.04088C95.7076 14.4936 96.2454 15.4546 98.3216 15.4546C98.9123 15.4546 99.5735 15.3091 100.125 15.1152V11.2581H98.1497V8.58244H103.766V17.4073C102.778 17.6057 100.296 17.9936 98.8462 17.9936C92.7145 17.9936 92.0181 15.459 92.0181 8.84693C92.0181 4.46093 92.2385 0 98.1938 0C101.764 0 103.982 2.00125 103.766 5.63788H100.155L100.16 5.64228Z" fill="#04408C"/>
<path fill-rule="evenodd" clip-rule="evenodd" d="M110.638 0.292969H114.429L117.126 12.9528H117.179L120.216 0.292969H123.809L119.203 17.7091H114.931L110.638 0.292969Z" fill="#04408C"/>
<path fill-rule="evenodd" clip-rule="evenodd" d="M125.332 17.7091V0.292969H134.831V2.96865H128.968V7.26207H134.372V9.94216H128.968V15.029H135.025V17.7091H125.332Z" fill="#04408C"/>
<path fill-rule="evenodd" clip-rule="evenodd" d="M137.289 17.7091V0.292969H142.208L146.837 12.3489H146.885V0.292969H150.288V17.7091H145.488L140.741 4.96989H140.688V17.7091H137.289Z" fill="#04408C"/>
<path fill-rule="evenodd" clip-rule="evenodd" d="M163.606 0.292969V3.18905H159.551V17.7091H155.909V3.18905H151.854V0.292969H163.606Z" fill="#04408C"/>
<path fill-rule="evenodd" clip-rule="evenodd" d="M176.939 0.292969V12.6443C176.939 15.2494 175.463 18 171.028 18C167.025 18 165.095 15.9195 165.095 12.6443V0.292969H168.74V12.4018C168.74 14.5486 169.657 15.3905 170.984 15.3905C172.571 15.3905 173.298 14.3282 173.298 12.4018V0.292969H176.939Z" fill="#04408C"/>
<path fill-rule="evenodd" clip-rule="evenodd" d="M183.355 2.96424H184.964C186.128 2.96424 186.82 3.59459 186.82 5.25642C186.82 6.36724 186.41 7.80867 184.964 7.80867H183.355V2.96424ZM183.355 10.4932H184.299C187.093 10.4932 186.899 12.252 186.899 14.3237C186.899 15.461 186.803 16.6424 187.287 17.7047H190.862C190.519 16.9774 190.448 13.6978 190.448 12.587C190.448 9.45727 188.081 9.26332 187.287 9.16634V9.11786C189.655 8.73436 190.519 7.07253 190.519 4.85088C190.519 1.88427 188.927 0.292969 186.45 0.292969H179.719V17.7091H183.364V10.4976L183.355 10.4932Z" fill="#04408C"/>
<path fill-rule="evenodd" clip-rule="evenodd" d="M193.071 17.7091V0.292969H202.579V2.96865H196.716V7.26207H202.116V9.94216H196.716V15.029H202.773V17.7091H193.071Z" fill="#04408C"/>
</svg>
