<?xml version="1.0" encoding="UTF-8"?> <svg xmlns="http://www.w3.org/2000/svg" width="213" height="31" viewBox="0 0 213 31" fill="none"><path d="M46.6895 10.5625C46.822 10.4799 46.931 10.3646 47.0061 10.2278C47.1974 9.86339 47.2566 9.37833 46.3707 9.68804C46.3707 9.68804 37.0337 12.8877 28.7625 22.7781C27.6534 21.2728 26.517 19.854 25.367 18.5172C31.2429 11.4173 38.4587 5.54334 46.603 1.23007C46.7697 1.13807 46.9106 1.00575 47.0129 0.845207C47.2816 0.412516 47.2817 -0.254738 46.2318 0.100523C46.2318 0.100523 34.6448 4.58001 23.5816 16.5177C12.5184 4.58001 0.931351 0.100523 0.931351 0.100523C-0.118494 -0.254738 -0.118494 0.412516 0.15023 0.845207C0.252548 1.00575 0.393484 1.13807 0.560148 1.23007C8.70447 5.54334 15.9203 11.4173 21.7962 18.5172C20.6575 19.854 19.5188 21.2728 18.4007 22.7781C10.1272 12.8877 0.792434 9.68804 0.792434 9.68804C-0.0934436 9.37833 -0.0342317 9.86339 0.157063 10.2278C0.23215 10.3646 0.341152 10.4799 0.473611 10.5625C8.71296 14.7574 13.9667 20.3117 17.098 24.6182C16.1765 25.9557 15.2815 27.357 14.4131 28.8221C8.69474 20.3345 0.678568 17.5926 0.678568 17.5926C0.0682461 17.4218 0.0135906 17.8204 0.134289 18.0162C0.209602 18.1184 0.306875 18.2025 0.418954 18.2622C8.88375 22.6096 12.1813 27.8269 13.3997 30.5938C13.3746 30.6439 13.3473 30.6895 13.32 30.7396H17.7243C17.7445 30.4194 17.8034 30.1028 17.8997 29.7968C17.8997 29.7968 18.2709 28.9747 19.0611 27.5809C19.6786 28.602 20.2359 29.6582 20.7304 30.7441H26.4237C26.9205 29.6596 27.4801 28.6049 28.0998 27.5855C28.89 28.9792 29.2612 29.8013 29.2612 29.8013C29.3575 30.1074 29.4164 30.4239 29.4366 30.7441H33.8409C33.8136 30.694 33.7863 30.6485 33.7612 30.5984C34.9796 27.8383 38.2771 22.6141 46.7419 18.2667C46.854 18.207 46.9513 18.123 47.0266 18.0208C47.1473 17.8226 47.0926 17.4264 46.4823 17.5972C46.4823 17.5972 38.4661 20.33 32.7478 28.8266C31.8824 27.36 30.9874 25.9587 30.0628 24.6227C33.1964 20.3117 38.4616 14.7574 46.6895 10.5625ZM23.5816 30.2887C22.6175 28.5754 21.5529 26.9207 20.3933 25.3332C21.2291 24.0147 22.2835 22.4615 23.5816 20.7626C24.8728 22.4615 25.9272 24.0147 26.7698 25.3332C25.6103 26.9207 24.5457 28.5754 23.5816 30.2887Z" fill="#FEFEFF"></path><path d="M70.0587 1.89443V5.86817H69.7471C69.6844 5.2278 69.4989 4.6055 69.2009 4.03527C68.9335 3.58036 68.5452 3.20855 68.0791 2.96118C67.6193 2.70144 67.1006 2.56387 66.5725 2.56161C66.0317 2.54057 65.5046 2.73428 65.1061 3.10048C64.9289 3.25214 64.786 3.43972 64.6868 3.65081C64.5875 3.86189 64.5343 4.09165 64.5306 4.32486C64.5318 4.67787 64.6622 5.01823 64.8972 5.28164C65.2467 5.70199 66.0788 6.26652 67.3936 6.97525C68.1584 7.36145 68.8936 7.80378 69.5931 8.29861C69.9736 8.59259 70.2831 8.96847 70.4986 9.39835C70.7084 9.80396 70.8178 10.254 70.8175 10.7107C70.8193 11.1358 70.7299 11.5564 70.5554 11.9441C70.3809 12.3317 70.1252 12.6774 69.8057 12.9579C69.0946 13.6 68.1603 13.9381 67.203 13.9C66.8874 13.9026 66.5722 13.8781 66.2609 13.8267C65.8885 13.7443 65.5213 13.6402 65.1611 13.5151C64.8223 13.3893 64.4707 13.3008 64.1127 13.2511C64.0515 13.2477 63.9903 13.257 63.9328 13.2785C63.8754 13.2999 63.8231 13.3331 63.7791 13.3758C63.6711 13.5301 63.6088 13.7118 63.5995 13.9H63.2842V9.96655H63.5995C63.6882 10.6072 63.8879 11.2274 64.1897 11.7995C64.468 12.2382 64.8627 12.591 65.3298 12.8186C65.8469 13.0916 66.4239 13.2314 67.0087 13.2255C67.6165 13.2594 68.2144 13.0601 68.6803 12.6683C68.8727 12.5063 69.0275 12.3043 69.1338 12.0764C69.2402 11.8484 69.2956 11.6001 69.2962 11.3486C69.2917 11.0474 69.211 10.7523 69.0616 10.4908C68.8773 10.1739 68.6273 9.90012 68.3284 9.68795C68.1084 9.51933 67.5072 9.15885 66.5248 8.60654C65.795 8.21913 65.0942 7.7793 64.428 7.29051C64.0415 6.99273 63.7208 6.61833 63.4858 6.19076C63.2692 5.79023 63.1582 5.34109 63.1633 4.88573C63.1607 4.48358 63.244 4.08551 63.4078 3.71819C63.5715 3.35087 63.8119 3.02278 64.1127 2.75589C64.7676 2.15178 65.6344 1.83037 66.5248 1.86143C67.2081 1.88263 67.8791 2.04882 68.4933 2.34899C68.7019 2.45761 68.9276 2.52954 69.1605 2.56161C69.2274 2.56535 69.2943 2.55558 69.3572 2.53291C69.4202 2.51024 69.478 2.47512 69.5271 2.42964C69.6512 2.27726 69.7299 2.09307 69.7544 1.89809L70.0587 1.89443Z" fill="#FEFEFF"></path><path d="M85.6058 7.27277L89.8361 11.4811C90.357 12.0376 90.9558 12.5155 91.614 12.8998C92.0691 13.1391 92.5679 13.2837 93.0804 13.325V13.6403H87.6293V13.325C87.8755 13.3458 88.1218 13.288 88.3331 13.1601C88.3964 13.1213 88.4491 13.0676 88.4868 13.0037C88.5245 12.9398 88.546 12.8676 88.5494 12.7935C88.5529 12.6665 88.5252 12.5407 88.4688 12.4269C88.3207 12.2036 88.1432 12.0014 87.9409 11.8257L83.9782 7.90329V11.6058C83.9561 11.9928 83.9932 12.381 84.0881 12.7568C84.1653 12.917 84.2945 13.0463 84.4547 13.1234C84.6893 13.2566 84.9547 13.3261 85.2245 13.325H85.6168V13.6403H80.7119V13.325H81.1152C81.308 13.3432 81.5024 13.3151 81.6822 13.2431C81.862 13.171 82.022 13.0571 82.1489 12.9108C82.2845 12.7312 82.3542 12.2949 82.3542 11.6094V4.18249C82.3758 3.79302 82.3388 3.40252 82.2442 3.02409C82.1669 2.86405 82.0377 2.73487 81.8776 2.65751C81.639 2.52399 81.3703 2.45335 81.0968 2.45222H80.7119V2.14062H85.6058V2.45222H85.2135C84.9445 2.45357 84.68 2.52159 84.4437 2.65018C84.3591 2.68999 84.2832 2.7461 84.2203 2.81529C84.1574 2.88448 84.1087 2.9654 84.0771 3.05342C83.9878 3.41898 83.9532 3.79577 83.9745 4.17149V7.68701L85.1366 6.60926C86.8131 5.07694 87.826 4.05296 88.1755 3.53731C88.3081 3.36605 88.3872 3.15945 88.4028 2.94344C88.4014 2.87696 88.3848 2.81168 88.3543 2.7526C88.3238 2.69351 88.2802 2.64218 88.2268 2.60252C88.0489 2.48659 87.8372 2.43367 87.6256 2.45222H87.3617V2.14062H91.5774V2.45222C91.3478 2.45593 91.1197 2.49046 90.8992 2.55486C90.6417 2.64877 90.3957 2.77176 90.1661 2.92145C89.7732 3.17334 89.405 3.46178 89.0663 3.78291C88.9453 3.89655 88.3698 4.47209 87.3507 5.51684L85.6058 7.27277Z" fill="#FEFEFF"></path><path d="M109.876 2.1582H113.883V2.4698H113.663C113.437 2.49232 113.218 2.55961 113.018 2.66775C112.728 2.80224 112.467 2.99144 112.248 3.22496C111.926 3.59117 111.64 3.9877 111.394 4.40901L108.623 8.77134V11.649C108.623 12.3565 108.703 12.7964 108.861 12.9687C108.994 13.0987 109.154 13.1987 109.329 13.2619C109.504 13.3251 109.691 13.3502 109.876 13.3353H110.243V13.6505H105.367V13.3353H105.771C105.966 13.355 106.163 13.325 106.344 13.2481C106.525 13.1712 106.683 13.0499 106.804 12.8954C106.968 12.5053 107.032 12.0809 106.991 11.66V8.9473L103.842 4.13775C103.611 3.76954 103.358 3.41574 103.084 3.07833C102.838 2.86637 102.559 2.69554 102.259 2.57244C102.104 2.50586 101.936 2.47576 101.768 2.48446V2.17287H106.676V2.48446H106.423C106.167 2.48157 105.914 2.54604 105.69 2.67142C105.587 2.72358 105.501 2.80403 105.442 2.90335C105.383 3.00268 105.353 3.11677 105.356 3.23229C105.443 3.63349 105.619 4.00966 105.873 4.33203L108.271 8.03084L110.522 4.49333C110.787 4.14554 110.962 3.73749 111.031 3.30561C111.032 3.15586 110.989 3.00919 110.906 2.88404C110.815 2.75284 110.688 2.65096 110.54 2.59077C110.321 2.50893 110.088 2.47274 109.854 2.48446L109.876 2.1582Z" fill="#FEFEFF"></path><path d="M139.038 2.15796V2.46956C138.784 2.45879 138.531 2.51438 138.305 2.63085C138.079 2.78328 137.895 2.99 137.77 3.23205C137.558 3.69001 137.38 4.16296 137.238 4.64705L134.038 13.8996H133.7L131.083 6.56794L128.484 13.8996H128.18L124.767 4.36845C124.514 3.65728 124.353 3.23571 124.283 3.10741C124.181 2.90438 124.02 2.73697 123.821 2.62718C123.574 2.51199 123.302 2.45794 123.029 2.46956V2.15796H127.282V2.46956H127.076C126.831 2.45354 126.587 2.5264 126.391 2.67484C126.317 2.73382 126.258 2.80861 126.217 2.89366C126.177 2.9787 126.156 3.07181 126.156 3.16606C126.222 3.63397 126.345 4.092 126.523 4.52974L128.785 10.9706L130.691 5.49386L130.35 4.52974L130.079 3.75993C129.971 3.50304 129.839 3.25745 129.683 3.02676C129.61 2.92058 129.518 2.82865 129.411 2.75549C129.281 2.66228 129.138 2.58821 128.986 2.53554C128.821 2.49501 128.651 2.47774 128.48 2.48422V2.17263H132.949V2.48422H132.645C132.396 2.46361 132.149 2.53685 131.952 2.6895C131.878 2.75997 131.82 2.84557 131.782 2.94046C131.744 3.03535 131.727 3.1373 131.732 3.23938C131.781 3.75662 131.904 4.26408 132.099 4.74603L134.298 10.9779L136.498 4.65438C136.689 4.18564 136.813 3.69184 136.864 3.18805C136.863 3.05573 136.819 2.92733 136.739 2.82147C136.663 2.71359 136.556 2.6317 136.432 2.58686C136.161 2.49779 135.877 2.45686 135.592 2.46589V2.1543L139.038 2.15796Z" fill="#FEFEFF"></path><path d="M151.462 2.78506V7.32334H153.984C154.64 7.32334 155.084 7.22436 155.296 7.02641C155.464 6.84134 155.594 6.625 155.678 6.38976C155.763 6.15452 155.8 5.90498 155.787 5.65539H156.103V9.65113H155.787C155.754 9.2847 155.676 8.92386 155.553 8.57705C155.441 8.37122 155.264 8.20772 155.051 8.11149C154.712 7.97778 154.348 7.919 153.984 7.9392H151.462V11.726C151.442 12.0369 151.466 12.349 151.531 12.6534C151.576 12.7654 151.659 12.8577 151.766 12.9137C151.971 12.9963 152.191 13.0302 152.411 13.0127H154.358C154.833 13.0321 155.31 12.9865 155.773 12.877C156.094 12.7693 156.384 12.5857 156.62 12.3418C157.052 11.8763 157.414 11.3502 157.694 10.7802H158.031L157.041 13.6579H148.199V13.3426H148.602C148.873 13.3439 149.139 13.2771 149.376 13.1483C149.461 13.1084 149.537 13.0519 149.6 12.982C149.663 12.9121 149.712 12.8303 149.743 12.7414C149.827 12.3814 149.861 12.0111 149.842 11.6417V4.15607C149.842 3.42291 149.768 2.97935 149.622 2.81072C149.485 2.6852 149.324 2.58993 149.149 2.53117C148.973 2.47241 148.787 2.4515 148.602 2.4698H148.199V2.1582H157.045L157.173 4.67295H156.843C156.78 4.24574 156.646 3.83199 156.447 3.44857C156.295 3.21319 156.071 3.03223 155.809 2.93169C155.421 2.82463 155.017 2.78131 154.614 2.80339L151.462 2.78506Z" fill="#FEFEFF"></path><path d="M177.042 10.4649L177.324 10.5236L176.342 13.6395H167.452V13.3243H167.881C168.081 13.3425 168.283 13.3086 168.466 13.2257C168.649 13.1428 168.807 13.0138 168.926 12.8514C169.081 12.4528 169.141 12.0236 169.102 11.5977V4.18173C169.102 3.44857 169.021 3.01601 168.863 2.83638C168.736 2.70717 168.583 2.60737 168.413 2.54404C168.243 2.4807 168.062 2.45536 167.881 2.4698H167.452V2.1582H172.65V2.4698C172.215 2.43764 171.778 2.49632 171.367 2.64209C171.154 2.73107 170.976 2.88836 170.861 3.08932C170.741 3.50944 170.695 3.9474 170.726 4.38336V11.5977C170.704 11.9262 170.75 12.2556 170.861 12.5655C170.933 12.6862 171.045 12.7782 171.177 12.8257C171.611 12.9083 172.055 12.9366 172.496 12.91H173.336C173.96 12.9421 174.586 12.8766 175.191 12.7158C175.567 12.5715 175.902 12.3345 176.162 12.0266C176.537 11.5562 176.834 11.029 177.042 10.4649Z" fill="#FEFEFF"></path><path d="M196.305 10.4649L196.584 10.5236L195.602 13.6395H186.712V13.3243H187.144C187.344 13.3423 187.545 13.3081 187.727 13.2252C187.91 13.1424 188.068 13.0135 188.186 12.8514C188.341 12.4528 188.401 12.0236 188.362 11.5977V4.18173C188.362 3.44857 188.285 3.01601 188.127 2.83638C188 2.70757 187.846 2.60805 187.676 2.54474C187.506 2.48143 187.325 2.45586 187.144 2.4698H186.712V2.1582H191.91V2.4698C191.475 2.43797 191.038 2.49663 190.627 2.64209C190.414 2.73005 190.237 2.88772 190.125 3.08932C190.003 3.50913 189.957 3.94737 189.989 4.38336V11.5977C189.966 11.9262 190.012 12.256 190.125 12.5655C190.195 12.6859 190.305 12.778 190.436 12.8257C190.871 12.9078 191.314 12.9361 191.756 12.91H192.596C193.22 12.9421 193.846 12.8766 194.45 12.7158C194.828 12.5708 195.163 12.3339 195.426 12.0266C195.8 11.5562 196.097 11.029 196.305 10.4649Z" fill="#FEFEFF"></path><path d="M69.2895 21.0899L69.4508 23.524H69.2895C69.1438 22.9175 68.8179 22.3693 68.3547 21.9514C67.9367 21.6255 67.4181 21.4557 66.8884 21.4712C66.4322 21.4683 65.9846 21.5955 65.598 21.8378C65.1827 22.1184 64.866 22.5223 64.6925 22.9925C64.4552 23.6222 64.3432 24.2921 64.3626 24.9647C64.3486 25.5423 64.4547 26.1165 64.6742 26.651C64.8613 27.1085 65.1902 27.494 65.6127 27.7507C66.0451 28.0054 66.5407 28.1325 67.0423 28.1173C67.4704 28.1258 67.8934 28.0235 68.2704 27.8204C68.7394 27.5099 69.1388 27.1054 69.4434 26.6326L69.6084 26.739C69.3149 27.3048 68.8822 27.7867 68.351 28.1393C67.8349 28.4455 67.2426 28.5992 66.6428 28.5829C66.1129 28.6067 65.5852 28.4998 65.1064 28.2715C64.6276 28.0433 64.2123 27.7008 63.8971 27.2742C63.4043 26.6037 63.1466 25.7893 63.1639 24.9574C63.1579 24.2703 63.323 23.5926 63.6441 22.9852C63.9474 22.408 64.4057 21.9268 64.9675 21.5958C65.5303 21.2602 66.1744 21.0852 66.8297 21.0899C67.3624 21.0885 67.8877 21.2141 68.362 21.4565C68.4581 21.5158 68.5655 21.5545 68.6773 21.5702C68.7699 21.5698 68.859 21.5345 68.9266 21.4712C69.0179 21.3619 69.0786 21.2303 69.1025 21.0899H69.2895Z" fill="#FEFEFF"></path><path d="M78.4829 27.7309C78.1877 27.9754 77.8753 28.1984 77.5481 28.3981C77.3574 28.4862 77.1497 28.5313 76.9396 28.53C76.7855 28.5349 76.6321 28.5067 76.4898 28.4473C76.3475 28.3878 76.2196 28.2985 76.1148 28.1854C76.0036 28.0641 75.9175 27.922 75.8615 27.7672C75.8055 27.6124 75.7807 27.4481 75.7885 27.2836C75.782 27.0676 75.8367 26.8541 75.9462 26.6678C76.1391 26.3847 76.3984 26.1532 76.7013 25.9933C77.2723 25.6858 77.8683 25.427 78.4829 25.2198V25.0292C78.5181 24.6816 78.4369 24.3321 78.252 24.0357C78.1683 23.9435 78.0648 23.8714 77.9492 23.825C77.8336 23.7787 77.709 23.7592 77.5848 23.7681C77.392 23.7561 77.2023 23.8207 77.0569 23.9478C76.995 23.997 76.9449 24.0594 76.91 24.1304C76.8752 24.2014 76.8565 24.2792 76.8553 24.3583V24.6663C76.8628 24.8 76.8181 24.9314 76.7306 25.0328C76.689 25.077 76.6383 25.1117 76.5819 25.1345C76.5256 25.1573 76.4651 25.1676 76.4044 25.1648C76.3446 25.1666 76.2851 25.1554 76.2301 25.1319C76.175 25.1085 76.1257 25.0735 76.0855 25.0292C76.0008 24.9261 75.9566 24.7959 75.9608 24.6626C75.971 24.4978 76.0181 24.3375 76.0987 24.1934C76.1793 24.0494 76.2913 23.9253 76.4264 23.8304C76.8059 23.561 77.2671 23.4315 77.7314 23.4639C78.0968 23.4503 78.4601 23.5244 78.7908 23.6802C78.9994 23.7917 79.1618 23.9735 79.2491 24.1934C79.3305 24.4966 79.3627 24.811 79.3444 25.1245V26.7668C79.3367 27.0493 79.3453 27.332 79.37 27.6136C79.3765 27.6908 79.4073 27.7639 79.458 27.8225C79.4957 27.8581 79.5455 27.8777 79.5973 27.8775C79.6496 27.8775 79.7012 27.8649 79.7476 27.8409C79.9001 27.7236 80.0424 27.5937 80.1728 27.4523V27.7492C79.7806 28.2771 79.403 28.541 79.0438 28.541C78.9656 28.5444 78.8878 28.5299 78.816 28.4988C78.7443 28.4677 78.6805 28.4207 78.6295 28.3614C78.5092 28.1745 78.4573 27.9517 78.4829 27.7309ZM78.4829 27.3863V25.5534C78.1345 25.6819 77.7931 25.8287 77.4601 25.9933C77.2281 26.1092 77.0242 26.2743 76.8626 26.4772C76.7446 26.6389 76.6817 26.8342 76.683 27.0344C76.6761 27.2658 76.7573 27.4911 76.9103 27.6649C76.9739 27.7425 77.0539 27.805 77.1445 27.8481C77.2351 27.8912 77.3341 27.9137 77.4345 27.9142C77.8306 27.8524 78.1974 27.6677 78.4829 27.3863Z" fill="#FEFEFF"></path><path d="M85.6057 24.0689L87.0977 23.4677H87.2993V24.5968C87.4763 24.2492 87.7264 23.9441 88.0325 23.7024C88.2649 23.537 88.5427 23.4474 88.828 23.4457C89.0643 23.4401 89.2987 23.4892 89.513 23.589C89.7273 23.6888 89.9156 23.8368 90.0634 24.0213C90.4799 24.5385 90.6913 25.191 90.6572 25.8542C90.6811 26.6121 90.4195 27.3513 89.9241 27.9254C89.7421 28.1346 89.5166 28.3014 89.2632 28.4142C89.0099 28.5269 88.735 28.5828 88.4577 28.5779C88.2265 28.5837 87.9963 28.5451 87.7796 28.4642C87.6041 28.3888 87.4439 28.2819 87.3067 28.149V29.6153C87.2891 29.8293 87.3065 30.0447 87.358 30.2532C87.4027 30.347 87.4776 30.4231 87.5706 30.4694C87.7453 30.5331 87.9314 30.5593 88.1168 30.5464V30.7444H85.5801V30.5464H85.712C85.885 30.5547 86.0571 30.5167 86.2106 30.4365C86.2816 30.3934 86.3359 30.3275 86.3646 30.2495C86.4148 30.0346 86.4333 29.8136 86.4195 29.5933V25.0147C86.4303 24.8146 86.4167 24.614 86.3792 24.4172C86.356 24.3405 86.3084 24.2736 86.2436 24.2266C86.1682 24.1823 86.0817 24.1606 85.9943 24.1642C85.8834 24.1703 85.7744 24.1951 85.6717 24.2376L85.6057 24.0689ZM87.2993 24.9084V26.7157C87.2888 26.9744 87.3048 27.2336 87.347 27.4891C87.4056 27.7046 87.5347 27.8943 87.7136 28.028C87.9237 28.1878 88.183 28.2695 88.4467 28.259C88.6115 28.2636 88.775 28.2287 88.9236 28.1573C89.0722 28.0859 89.2016 27.98 89.3009 27.8484C89.612 27.4059 89.7632 26.8706 89.7298 26.3307C89.7698 25.7221 89.5975 25.1183 89.2422 24.6225C89.1497 24.4962 89.0289 24.3933 88.8895 24.322C88.7501 24.2507 88.596 24.213 88.4394 24.2119C88.2639 24.2123 88.0913 24.2564 87.9372 24.3402C87.698 24.4975 87.4831 24.6889 87.2993 24.9084Z" fill="#FEFEFF"></path><path d="M98.4473 23.4471V27.3219C98.4342 27.5258 98.4565 27.7305 98.5133 27.9268C98.5522 28.0215 98.6219 28.1003 98.7112 28.1504C98.8607 28.2123 99.0229 28.2374 99.1841 28.2237V28.4217H96.8306V28.231C96.9924 28.2434 97.1549 28.2209 97.3072 28.165C97.3945 28.1119 97.4626 28.0323 97.5015 27.9378C97.5609 27.7407 97.5845 27.5346 97.5711 27.3292V25.489C97.5824 25.1486 97.5664 24.8078 97.5235 24.4699C97.5116 24.3808 97.4703 24.2982 97.4062 24.2353C97.3443 24.1882 97.2676 24.1648 97.1899 24.1693C97.0642 24.1738 96.9402 24.1999 96.8233 24.2463L96.75 24.0557L98.2163 23.4655L98.4473 23.4471ZM98.011 20.9141C98.1492 20.9166 98.2808 20.9732 98.3776 21.0717C98.4262 21.1196 98.4648 21.1767 98.4913 21.2396C98.5177 21.3025 98.5314 21.37 98.5316 21.4383C98.5296 21.5758 98.4744 21.7072 98.3776 21.8049C98.2798 21.9072 98.1454 21.9665 98.0038 21.97C97.8623 21.9734 97.7252 21.9206 97.6225 21.8232C97.53 21.7235 97.4786 21.5926 97.4786 21.4566C97.4786 21.3206 97.53 21.1897 97.6225 21.09C97.6716 21.0354 97.7314 20.9916 97.7983 20.9614C97.8652 20.9311 97.9376 20.915 98.011 20.9141Z" fill="#FEFEFF"></path><path d="M106.604 21.9978V23.5888H107.733V23.9554H106.604V27.0933C106.58 27.3137 106.628 27.536 106.739 27.7275C106.78 27.7804 106.832 27.8229 106.892 27.8516C106.952 27.8803 107.018 27.8943 107.084 27.8924C107.205 27.891 107.323 27.8526 107.421 27.7825C107.536 27.7039 107.624 27.5928 107.674 27.4635H107.887C107.789 27.7679 107.607 28.0385 107.363 28.2444C107.166 28.4063 106.921 28.4979 106.666 28.5046C106.498 28.5042 106.333 28.4573 106.189 28.369C106.035 28.2822 105.914 28.1468 105.845 27.9841C105.759 27.7357 105.722 27.4731 105.735 27.2106V23.9554H104.954V23.7794C105.174 23.6852 105.375 23.5523 105.548 23.3872C105.757 23.1923 105.94 22.9704 106.091 22.7273C106.22 22.4913 106.333 22.2463 106.428 21.9941L106.604 21.9978Z" fill="#FEFEFF"></path><path d="M116.359 27.7312C116.062 27.9739 115.75 28.1968 115.424 28.3983C115.233 28.4865 115.026 28.5316 114.816 28.5303C114.661 28.5343 114.507 28.5057 114.365 28.4463C114.222 28.387 114.093 28.2982 113.987 28.1857C113.765 27.9395 113.649 27.6153 113.664 27.2839C113.658 27.0679 113.713 26.8544 113.822 26.6681C114.013 26.385 114.272 26.1533 114.574 25.9936C115.146 25.6869 115.743 25.4282 116.359 25.2201V25.0295C116.394 24.6819 116.313 24.3324 116.128 24.036C116.044 23.944 115.941 23.8721 115.825 23.8257C115.709 23.7794 115.585 23.7598 115.461 23.7684C115.268 23.7564 115.078 23.821 114.933 23.948C114.871 23.9973 114.821 24.0597 114.786 24.1307C114.751 24.2017 114.732 24.2795 114.731 24.3586V24.6665C114.737 24.8 114.692 24.9308 114.607 25.0331C114.565 25.0769 114.514 25.1114 114.458 25.1341C114.401 25.1569 114.341 25.1674 114.28 25.1651C114.221 25.1668 114.161 25.1556 114.106 25.1322C114.051 25.1088 114.002 25.0738 113.961 25.0295C113.876 24.9271 113.831 24.7963 113.837 24.6629C113.845 24.4977 113.891 24.3366 113.972 24.1923C114.053 24.048 114.166 23.9242 114.302 23.8307C114.682 23.5613 115.143 23.4318 115.607 23.4641C115.977 23.4392 116.347 23.5047 116.685 23.6548C116.895 23.7651 117.059 23.9472 117.147 24.168C117.228 24.4713 117.261 24.7856 117.242 25.0991V26.7414C117.235 27.0239 117.243 27.3066 117.268 27.5882C117.274 27.6654 117.305 27.7385 117.356 27.7971C117.394 27.8327 117.443 27.8524 117.495 27.8521C117.546 27.8521 117.597 27.8395 117.642 27.8155C117.796 27.6987 117.939 27.5687 118.071 27.4269V27.7238C117.675 28.2517 117.301 28.5156 116.942 28.5156C116.864 28.5195 116.785 28.5054 116.714 28.4742C116.642 28.4431 116.578 28.3958 116.527 28.336C116.405 28.159 116.346 27.946 116.359 27.7312ZM116.359 27.3866V25.5537C116.008 25.6855 115.664 25.836 115.329 26.0046C115.097 26.1204 114.893 26.2856 114.731 26.4884C114.613 26.6502 114.55 26.8455 114.552 27.0457C114.545 27.277 114.626 27.5024 114.779 27.6762C114.843 27.7537 114.923 27.8163 115.013 27.8594C115.104 27.9025 115.203 27.925 115.303 27.9254C115.703 27.8621 116.073 27.6734 116.359 27.3866Z" fill="#FEFEFF"></path><path d="M125.483 20.9133V27.3212C125.47 27.5239 125.492 27.7273 125.549 27.9224C125.59 28.0187 125.662 28.0985 125.754 28.1497C125.918 28.2102 126.093 28.2352 126.267 28.223V28.4209H123.892V28.2303C124.046 28.2419 124.201 28.2194 124.346 28.1643C124.434 28.1129 124.502 28.0326 124.537 27.937C124.596 27.74 124.62 27.5339 124.607 27.3285V22.9295C124.617 22.5931 124.605 22.2563 124.57 21.9214C124.557 21.8261 124.516 21.7367 124.453 21.6648C124.393 21.6181 124.319 21.5935 124.244 21.5952C124.117 21.6008 123.993 21.6294 123.877 21.6795L123.789 21.4962L125.233 20.9023L125.483 20.9133Z" fill="#FEFEFF"></path><path d="M142.246 25.0734V27.1592C142.211 27.449 142.264 27.7425 142.397 28.0024C142.474 28.0833 142.568 28.146 142.673 28.1859C142.778 28.2259 142.89 28.2421 143.001 28.2333H143.276V28.4203H140.208V28.226H140.476C140.601 28.2365 140.726 28.2147 140.841 28.1627C140.955 28.1107 141.054 28.0303 141.128 27.929C141.22 27.6809 141.255 27.4153 141.231 27.1519V22.533C141.265 22.244 141.216 21.9512 141.088 21.6898C141.009 21.6089 140.913 21.5463 140.807 21.5064C140.702 21.4665 140.588 21.4503 140.476 21.4589H140.208V21.2646H142.833C143.346 21.2466 143.859 21.3135 144.35 21.4625C144.719 21.592 145.043 21.8234 145.285 22.1297C145.53 22.4431 145.66 22.8316 145.652 23.2295C145.661 23.4946 145.615 23.7588 145.515 24.0046C145.415 24.2504 145.264 24.4722 145.073 24.6555C144.621 25.0458 144.034 25.2432 143.438 25.2053C143.25 25.205 143.063 25.1927 142.877 25.1687C142.69 25.1613 142.477 25.121 142.246 25.0734ZM142.246 24.7728C142.433 24.8058 142.613 24.8351 142.745 24.8497C142.866 24.8669 142.989 24.8767 143.111 24.8791C143.29 24.8798 143.467 24.8422 143.63 24.7688C143.793 24.6955 143.939 24.5881 144.057 24.4538C144.329 24.1537 144.473 23.7589 144.457 23.3541C144.46 23.055 144.395 22.7591 144.266 22.489C144.154 22.2379 143.965 22.0287 143.727 21.8914C143.485 21.7568 143.212 21.6885 142.935 21.6935C142.701 21.7005 142.469 21.735 142.243 21.7961L142.246 24.7728Z" fill="#FEFEFF"></path><path d="M154.538 27.7327C154.243 27.9772 153.931 28.2002 153.604 28.3998C153.413 28.488 153.205 28.5331 152.995 28.5318C152.841 28.5367 152.687 28.5085 152.545 28.4491C152.403 28.3896 152.275 28.3003 152.17 28.1872C151.947 27.9413 151.83 27.6173 151.844 27.2854C151.837 27.0694 151.892 26.8559 152.002 26.6696C152.195 26.3865 152.454 26.155 152.757 25.9951C153.328 25.6875 153.924 25.4288 154.538 25.2216V25.031C154.572 24.6839 154.493 24.3352 154.311 24.0375C154.226 23.9454 154.122 23.8735 154.006 23.8271C153.89 23.7808 153.765 23.7613 153.64 23.7699C153.447 23.7579 153.258 23.8225 153.112 23.9495C153.05 23.9988 153 24.0612 152.965 24.1322C152.931 24.2032 152.912 24.281 152.911 24.3601V24.668C152.918 24.8018 152.874 24.9332 152.786 25.0346C152.745 25.0784 152.695 25.1127 152.639 25.1355C152.583 25.1583 152.524 25.1689 152.463 25.1666C152.403 25.1689 152.343 25.1579 152.287 25.1345C152.231 25.1111 152.181 25.0757 152.141 25.031C152.056 24.9279 152.012 24.7976 152.016 24.6644C152.026 24.4996 152.074 24.3393 152.154 24.1952C152.235 24.0512 152.347 23.9271 152.482 23.8322C152.862 23.5634 153.323 23.4339 153.787 23.4657C154.152 23.4521 154.515 23.5262 154.846 23.6819C155.055 23.7935 155.217 23.9753 155.304 24.1952C155.386 24.4984 155.418 24.8128 155.4 25.1263V26.7686C155.392 27.0511 155.401 27.3338 155.425 27.6154C155.432 27.6926 155.463 27.7657 155.513 27.8243C155.551 27.8598 155.601 27.8795 155.653 27.8793C155.705 27.8793 155.757 27.8667 155.803 27.8426C155.956 27.7254 156.098 27.5954 156.228 27.4541V27.751C155.836 28.2789 155.458 28.5428 155.099 28.5428C155.021 28.5462 154.943 28.5317 154.871 28.5006C154.8 28.4695 154.736 28.4225 154.685 28.3632C154.566 28.1756 154.515 27.9534 154.538 27.7327ZM154.538 27.3881V25.5552C154.187 25.687 153.843 25.8375 153.508 26.0061C153.276 26.122 153.072 26.2871 152.911 26.49C152.794 26.6525 152.731 26.8473 152.731 27.0472C152.724 27.2785 152.805 27.5039 152.958 27.6777C153.022 27.7552 153.102 27.8178 153.193 27.8609C153.283 27.904 153.382 27.9265 153.483 27.927C153.883 27.8636 154.252 27.6749 154.538 27.3881Z" fill="#FEFEFF"></path><path d="M163.427 23.4468V24.5465C163.831 23.8134 164.249 23.4468 164.674 23.4468C164.851 23.4401 165.023 23.5033 165.154 23.6227C165.214 23.6734 165.261 23.7363 165.294 23.8072C165.327 23.8781 165.344 23.9552 165.345 24.0333C165.346 24.0975 165.335 24.1613 165.312 24.2211C165.289 24.2808 165.254 24.3354 165.209 24.3816C165.167 24.4273 165.116 24.4637 165.059 24.4883C165.003 24.5129 164.941 24.5253 164.879 24.5245C164.725 24.5102 164.579 24.4459 164.465 24.3412C164.371 24.2498 164.253 24.1875 164.124 24.1616C164.045 24.1685 163.972 24.2052 163.919 24.2643C163.715 24.4791 163.549 24.727 163.427 24.9974V27.3179C163.417 27.5255 163.451 27.7329 163.526 27.9264C163.581 28.0287 163.667 28.1109 163.772 28.161C163.929 28.2346 164.102 28.2674 164.274 28.2563V28.4213H161.796V28.2307C161.986 28.2437 162.177 28.2044 162.346 28.117C162.438 28.052 162.503 27.9555 162.529 27.8458C162.554 27.6759 162.563 27.504 162.555 27.3325V25.4593C162.565 25.1229 162.554 24.7862 162.522 24.4512C162.51 24.3596 162.465 24.2759 162.394 24.2166C162.327 24.1667 162.246 24.1408 162.163 24.1433C162.037 24.147 161.913 24.173 161.796 24.2203L161.741 24.0296L163.208 23.4395L163.427 23.4468Z" fill="#FEFEFF"></path><path d="M172.431 21.9978V23.5888H173.563V23.9554H172.431V27.0933C172.409 27.3136 172.456 27.5353 172.566 27.7275C172.607 27.7802 172.66 27.8226 172.721 27.8513C172.781 27.8799 172.848 27.894 172.915 27.8924C173.035 27.8903 173.153 27.852 173.252 27.7825C173.366 27.7039 173.454 27.5928 173.505 27.4635H173.71C173.615 27.7683 173.434 28.0393 173.189 28.2444C172.992 28.407 172.745 28.4987 172.489 28.5046C172.322 28.5035 172.159 28.4566 172.016 28.369C171.861 28.2833 171.74 28.1476 171.672 27.9841C171.586 27.7357 171.548 27.4731 171.562 27.2106V23.9554H170.792V23.7794C171.013 23.6845 171.215 23.5517 171.39 23.3872C171.598 23.1922 171.779 22.9703 171.928 22.7273C172.06 22.4916 172.174 22.2466 172.269 21.9941L172.431 21.9978Z" fill="#FEFEFF"></path><path d="M180.854 24.472C181.421 23.7877 181.963 23.4456 182.478 23.4456C182.721 23.4393 182.959 23.5085 183.16 23.6435C183.375 23.8093 183.534 24.0371 183.615 24.2961C183.706 24.6114 183.746 24.9395 183.732 25.2675V27.3203C183.718 27.5308 183.742 27.7422 183.805 27.9435C183.842 28.0318 183.908 28.1044 183.992 28.1488C184.143 28.2108 184.307 28.2359 184.469 28.2221V28.4201H182.075V28.2295H182.178C182.342 28.2445 182.507 28.2086 182.651 28.1268C182.746 28.0494 182.811 27.9422 182.838 27.8226C182.859 27.6585 182.866 27.493 182.86 27.3277V25.3445C182.881 25.0163 182.822 24.6877 182.687 24.3877C182.629 24.2878 182.544 24.2064 182.441 24.1532C182.339 24.1 182.223 24.077 182.108 24.0871C181.863 24.1073 181.624 24.1792 181.408 24.2979C181.192 24.4167 181.003 24.5797 180.854 24.7763V27.3423C180.841 27.547 180.861 27.7526 180.913 27.9509C180.956 28.0452 181.028 28.1235 181.118 28.1745C181.286 28.2348 181.465 28.2586 181.643 28.2441V28.4201H179.249V28.2295H179.37C179.462 28.2414 179.555 28.2306 179.642 28.198C179.729 28.1654 179.807 28.112 179.868 28.0425C179.979 27.815 180.024 27.5609 179.997 27.3094V25.5131C180.007 25.1583 179.995 24.8032 179.96 24.45C179.946 24.3525 179.903 24.2615 179.835 24.1897C179.773 24.1427 179.697 24.1193 179.619 24.1238C179.493 24.1274 179.369 24.1534 179.253 24.2007L179.172 24.0101L180.638 23.4199H180.865L180.854 24.472Z" fill="#FEFEFF"></path><path d="M191.101 25.4121C191.062 26.0213 191.247 26.6238 191.622 27.1057C191.77 27.2939 191.959 27.4465 192.174 27.5524C192.389 27.6583 192.625 27.7148 192.864 27.7179C193.162 27.7246 193.454 27.6317 193.693 27.454C193.97 27.2172 194.174 26.9072 194.283 26.5595L194.444 26.6658C194.365 27.1599 194.14 27.6191 193.799 27.9855C193.634 28.1766 193.429 28.3289 193.198 28.4315C192.968 28.5342 192.717 28.5847 192.465 28.5794C192.181 28.5812 191.9 28.5211 191.642 28.4034C191.384 28.2856 191.154 28.113 190.969 27.8975C190.536 27.3885 190.314 26.7324 190.35 26.0646C190.307 25.3616 190.536 24.6691 190.988 24.1291C191.188 23.9043 191.434 23.7257 191.71 23.6055C191.986 23.4852 192.285 23.4262 192.586 23.4326C192.834 23.4246 193.081 23.4684 193.312 23.5612C193.542 23.6539 193.751 23.7937 193.924 23.9714C194.102 24.1635 194.24 24.3893 194.329 24.6354C194.419 24.8816 194.458 25.1432 194.444 25.4048L191.101 25.4121ZM191.101 25.1078H193.341C193.339 24.8847 193.302 24.6633 193.231 24.4517C193.148 24.2605 193.011 24.0984 192.835 23.9861C192.674 23.8766 192.484 23.8179 192.289 23.8175C192.142 23.819 191.997 23.85 191.862 23.9085C191.727 23.9671 191.606 24.052 191.504 24.1584C191.256 24.4193 191.113 24.7625 191.101 25.1225V25.1078Z" fill="#FEFEFF"></path><path d="M201.9 23.4468V24.5465C202.304 23.8134 202.722 23.4468 203.147 23.4468C203.324 23.4409 203.496 23.504 203.627 23.6227C203.686 23.6734 203.734 23.7363 203.767 23.8072C203.8 23.8781 203.817 23.9552 203.818 24.0333C203.819 24.0977 203.807 24.1616 203.783 24.2214C203.759 24.2811 203.723 24.3356 203.678 24.3816C203.637 24.4272 203.587 24.4635 203.531 24.4882C203.474 24.5128 203.413 24.5252 203.352 24.5245C203.197 24.511 203.052 24.4465 202.938 24.3412C202.844 24.2498 202.725 24.1875 202.597 24.1616C202.518 24.1685 202.444 24.2052 202.392 24.2643C202.186 24.4781 202.02 24.7262 201.9 24.9974V27.3179C201.89 27.5255 201.924 27.7329 201.999 27.9264C202.053 28.0286 202.138 28.1109 202.241 28.161C202.398 28.2339 202.571 28.2666 202.744 28.2563V28.4213H200.265V28.2307C200.456 28.2437 200.646 28.2044 200.815 28.117C200.908 28.0522 200.975 27.9558 201.002 27.8458C201.025 27.6757 201.034 27.504 201.028 27.3325V25.4593C201.04 25.1228 201.027 24.786 200.991 24.4512C200.981 24.3602 200.936 24.2765 200.867 24.2166C200.8 24.1667 200.719 24.1408 200.636 24.1433C200.51 24.1474 200.386 24.1734 200.269 24.2203L200.218 24.0296L201.684 23.4395L201.9 23.4468Z" fill="#FEFEFF"></path><path d="M212.626 23.4473V25.0969H212.454C212.383 24.7027 212.204 24.3359 211.937 24.0375C211.715 23.8468 211.43 23.7472 211.138 23.7589C210.922 23.7486 210.709 23.8177 210.54 23.9531C210.472 24.0034 210.416 24.0685 210.377 24.1434C210.338 24.2183 210.316 24.3011 210.313 24.3857C210.308 24.57 210.368 24.7502 210.482 24.8953C210.667 25.0938 210.894 25.2501 211.145 25.3535L211.919 25.7201C212.635 26.0696 212.993 26.529 212.993 27.0984C212.999 27.3026 212.956 27.5054 212.869 27.6901C212.782 27.8748 212.652 28.0363 212.49 28.1615C212.178 28.4256 211.782 28.5698 211.372 28.5684C211.029 28.5604 210.689 28.5062 210.361 28.4071C210.268 28.3777 210.172 28.3605 210.075 28.3558C210.033 28.3576 209.992 28.3718 209.958 28.3966C209.924 28.4213 209.899 28.4556 209.884 28.4951H209.708V26.7648H209.884C209.949 27.1828 210.147 27.5686 210.449 27.8646C210.702 28.1019 211.036 28.233 211.383 28.2312C211.492 28.2437 211.602 28.2346 211.707 28.2044C211.812 28.1742 211.91 28.1235 211.996 28.0552C212.069 27.9912 212.127 27.9122 212.167 27.8237C212.207 27.7351 212.227 27.6391 212.227 27.542C212.229 27.4271 212.208 27.3129 212.164 27.2068C212.119 27.1007 212.053 27.0051 211.97 26.9261C211.659 26.6715 211.315 26.4605 210.947 26.2993C210.569 26.1394 210.228 25.905 209.943 25.6101C209.779 25.3919 209.696 25.1237 209.708 24.8513C209.703 24.666 209.737 24.4817 209.807 24.3101C209.877 24.1385 209.982 23.9833 210.115 23.8542C210.255 23.7188 210.421 23.6133 210.603 23.544C210.786 23.4747 210.98 23.443 211.174 23.4509C211.41 23.4585 211.643 23.4992 211.867 23.5719C211.986 23.6135 212.109 23.6406 212.234 23.6526C212.281 23.655 212.327 23.6421 212.366 23.6159C212.414 23.5686 212.452 23.5126 212.479 23.4509L212.626 23.4473Z" fill="#FEFEFF"></path></svg>