<svg xmlns="http://www.w3.org/2000/svg" xmlns:xlink="http://www.w3.org/1999/xlink" viewBox="0 0 2135.54 835.81"><defs><radialGradient id="b" cx="1946.58" cy="953.33" r="5.89" gradientTransform="matrix(29.12 52.12 58.73 -25.84 -111140.3 -76599.64)" gradientUnits="userSpaceOnUse"><stop offset="0" stop-color="#f9441b"/><stop offset=".46" stop-color="#f71818"/><stop offset="1" stop-color="#bc1212"/></radialGradient><radialGradient id="d" cx="1954.44" cy="956.96" r="5.89" gradientTransform="matrix(89.08 111.9 126.1 -79.06 -293517.52 -142956.4)" gradientUnits="userSpaceOnUse"><stop offset="0" stop-color="#ffff25"/><stop offset=".06" stop-color="#ffe816"/><stop offset=".13" stop-color="#fed50b"/><stop offset=".2" stop-color="#feca03"/><stop offset=".28" stop-color="#fec601"/><stop offset=".67" stop-color="#fb7b1e"/><stop offset=".89" stop-color="#f9441b"/><stop offset="1" stop-color="#f71818"/></radialGradient><radialGradient id="f" cx="1973.24" cy="960.97" r="5.89" gradientTransform="matrix(-51.53 -41.84 -47.15 45.73 148777.71 39306.5)" xlink:href="#d"/><radialGradient id="h" cx="1951.73" cy="952.58" r="5.89" gradientTransform="matrix(12.09 88.25 99.44 -10.73 -116753.49 -162077.02)" xlink:href="#d"/><radialGradient id="j" cx="1971.23" cy="958.95" r="5.89" gradientTransform="matrix(-73.53 -66.57 -75.02 65.26 218712.08 69092.75)" xlink:href="#d"/><clipPath id="a" transform="translate(0 120.18)"><path fill="none" d="M1528.23 532.72l163.53 62.73 176.76-380.54L1528.23 0v532.72z"/></clipPath><clipPath id="c" transform="translate(0 120.18)"><path fill="none" d="M1528.23 532.72l163.53 62.73-59.89-331.03-103.64 268.3z"/></clipPath><clipPath id="e" transform="translate(0 120.18)"><path fill="none" d="M1528.23 532.72l103.64-268.3L1528.23 0v532.72z"/></clipPath><clipPath id="g" transform="translate(0 120.18)"><path fill="none" d="M1631.87 264.42l236.65-49.51L1528.23 0l103.64 264.42z"/></clipPath></defs><path d="M0 281.06v-53.23h242.14v53.23h-88.58v234.67h-65V281.06zm303 26.21v38.7h.83A69.84 69.84 0 01315 328.03a72.65 72.65 0 0116.14-14.11 79.7 79.7 0 0119.46-9.07 71.86 71.86 0 0121.52-3.23 46.75 46.75 0 0112.83 2v53.22c-2.76-.53-6.07-1-9.93-1.41a108.72 108.72 0 00-11.18-.6q-16.14 0-27.31 5.24a46.93 46.93 0 00-18 14.31 56.77 56.77 0 00-9.73 21.17 112.5 112.5 0 00-2.89 26.21v93.95h-58.8V307.27zm106.78-32.26v-47.18h58.77v47.18zm58.77 32.26v208.46h-58.77V307.27zm105.14-79.44v104.84h.83a62.39 62.39 0 0129.18-23.59 101.07 101.07 0 0138.3-7.46 83.37 83.37 0 0131.88 6.45 81.68 81.68 0 0128.35 19.76q12.6 13.35 20.47 34.07t7.86 49.4q0 28.63-7.86 49.39t-20.49 34.07a81.42 81.42 0 01-28.35 19.76 83.37 83.37 0 01-31.86 6.45q-23.58 0-42.22-7.25a53.13 53.13 0 01-28.14-24.6h-.83v26.61h-55.9v-287.9zm95.2 158.47a65.31 65.31 0 00-9.11-21.37 47.19 47.19 0 00-15.52-14.75q-9.32-5.44-22.56-5.44-12.83 0-22.35 5.44a46.51 46.51 0 00-15.73 14.72 65.09 65.09 0 00-9.1 21.37 108.23 108.23 0 00-2.9 25.4 106.44 106.44 0 002.9 25 65.18 65.18 0 009.1 21.37 46.41 46.41 0 0015.73 14.72q9.52 5.44 22.35 5.44 13.24 0 22.56-5.44a47.08 47.08 0 0015.52-14.72 65.41 65.41 0 009.11-21.37 107 107 0 002.9-25 108.76 108.76 0 00-2.9-25.37zm157.7 79.43q13.24 12.51 38.08 12.5 17.79 0 30.63-8.67t15.7-18.38h51.74q-12.42 37.5-38.08 53.63t-62.06 16.16q-25.25 0-45.53-7.86a94.69 94.69 0 01-34.35-22.38A100.29 100.29 0 01761 456.06q-7.66-20.16-7.65-44.36a118.89 118.89 0 017.84-43.52 101.86 101.86 0 0122.35-34.88 105.24 105.24 0 0134.57-23.18q20.07-8.47 44.49-8.47 27.31 0 47.6 10.28a94.52 94.52 0 0133.32 27.62 112.26 112.26 0 0118.84 39.52 143.71 143.71 0 014.14 46.37H812.1q1.24 27.79 14.49 40.29zM893 356.06q-10.56-11.3-32.08-11.29-14.09 0-23.39 4.63a44.51 44.51 0 00-14.9 11.49 41.88 41.88 0 00-7.87 14.52 64.37 64.37 0 00-2.69 13.71h95.62q-4.11-21.78-14.69-33.06zm205.12-11.29q-14.08 0-23.59 6.25a50.17 50.17 0 00-15.53 16.16 68.54 68.54 0 00-8.48 21.78 114.86 114.86 0 00-2.49 23.59 110.06 110.06 0 002.49 23 69.58 69.58 0 008.07 21.17 45.57 45.57 0 0015.11 15.46q9.51 6.06 23.18 6.05 21.11 0 32.49-11.49t14.28-30.85h56.71q-5.8 41.54-33.12 63.31t-70 21.77a119.87 119.87 0 01-44.08-7.86 97.85 97.85 0 01-34.15-22 99.77 99.77 0 01-21.94-33.67 114.14 114.14 0 01-7.86-43 135.61 135.61 0 017.24-45 100.48 100.48 0 0121.32-35.88 97.51 97.51 0 0134.35-23.59q20.28-8.47 46.36-8.47a137.48 137.48 0 0136.64 4.84 98.79 98.79 0 0131.5 14.84 79.43 79.43 0 0122.56 24.59q8.7 14.73 9.94 34.88h-57.54q-5.8-35.88-43.46-35.88zm128.72 26.61q1.25-20.16 10.35-33.47a69.79 69.79 0 0123.18-21.37 102.71 102.71 0 0131.63-11.49 184.94 184.94 0 0135.39-3.43 245.91 245.91 0 0132.7 2.22 102.08 102.08 0 0130.21 8.67 59.14 59.14 0 0122.35 17.94q8.7 11.49 8.7 30.44v108.47a213 213 0 001.65 27q1.65 12.9 5.8 19.35h-59.61a80.43 80.43 0 01-2.69-9.88 84.5 84.5 0 01-1.45-10.28 76.91 76.91 0 01-33.05 19.78 136.31 136.31 0 01-38.91 5.64 108.13 108.13 0 01-28.56-3.62 66.06 66.06 0 01-23.18-11.3 52.64 52.64 0 01-15.52-19.35q-5.6-11.68-5.59-27.82 0-17.74 6.42-29.24a52.63 52.63 0 0116.55-18.34 75 75 0 0123.18-10.28 253.42 253.42 0 0126.29-5.45q13.24-2 26.07-3.22a161.67 161.67 0 0022.77-3.63q9.93-2.43 15.73-7.06t5.38-13.51q0-9.27-3.1-14.72a22.51 22.51 0 00-8.28-8.46 33.28 33.28 0 00-12-4 102.48 102.48 0 00-14.69-1q-17.38 0-27.32 7.25t-11.59 24.2zm135.77 42.34a26.58 26.58 0 01-9.31 5 98 98 0 01-12 3q-6.42 1.22-13.45 2t-14.07 2a109.38 109.38 0 00-13 3.23 39.18 39.18 0 00-11.18 5.44 26.06 26.06 0 00-7.65 8.67q-2.91 5.25-2.9 13.31a26.24 26.24 0 002.9 12.9 21.78 21.78 0 007.86 8.27 33.89 33.89 0 0011.59 4.23 75.45 75.45 0 0013.66 1.21q17.38 0 26.9-5.64t14.04-13.42a42.71 42.71 0 005.59-15.93 108.48 108.48 0 001-12.9z"/><g clip-path="url(#a)"><path fill="url(#b)" d="M1801.38 0l334.16 598.14-540.16 237.67-334.17-598.14L1801.38 0z"/></g><g clip-path="url(#c)"><path fill="url(#d)" d="M1661.2 302.28l241.59 303.49-308.19 193.22-241.59-303.49 308.19-193.22z"/></g><g clip-path="url(#e)"><path fill="url(#f)" d="M1636.74 741l-407.46-330.84 389.78-378.08 407.46 330.84L1636.74 741z"/></g><g clip-path="url(#g)"><path fill="url(#h)" d="M1863.56 84l40.8 297.78-371.17 40.05-40.8-297.78L1863.56 84z"/></g><g clip-path="url(#e)"><path fill="url(#j)" d="M1625.91 741.33l-397.75-360.1 401.73-349.48 397.75 360.1-401.73 349.48z"/></g><path d="M84.29 570.38h15.1l20.8 63.94h.23l21.26-63.94h14.75l-28.34 80.8h-16.15zm91.19 0h59.71v12.23H190v21.16h41.82v11.54H190v23.65h46v12.22h-60.52zm83.41 0h15.34l37.87 59.53h.23v-59.53h13.82v80.8h-15.33l-37.76-59.42h-.35v59.42h-13.82zm87.36 0h67.14v12.23H387v68.57h-14.5v-68.57h-26.25zm86.66 0h14.52v47.08a82.6 82.6 0 00.41 8.26 18.51 18.51 0 002.32 7.53 14.71 14.71 0 005.81 5.49q3.88 2.15 11 2.15t11-2.15a14.64 14.64 0 005.81-5.49 18.68 18.68 0 002.33-7.53q.4-4.19.4-8.26v-47.08H501v51.72a34.63 34.63 0 01-2.44 13.58 26.14 26.14 0 01-6.91 9.68 29.18 29.18 0 01-10.76 5.82 51.57 51.57 0 01-27.89 0 29.15 29.15 0 01-10.75-5.83 26.25 26.25 0 01-6.91-9.68 34.63 34.63 0 01-2.44-13.58zm95.61 0h39.61q13.71 0 20.56 5.78t6.85 16.07a23 23 0 01-1.74 9.56 21 21 0 01-4.06 6.11 15.84 15.84 0 01-4.59 3.34c-1.51.68-2.62 1.13-3.31 1.36v.22a15.23 15.23 0 014 1.13 11.87 11.87 0 014 2.89 15.59 15.59 0 013.08 5.15 22.27 22.27 0 011.22 7.92 70.48 70.48 0 001.1 13c.74 3.88 1.88 6.66 3.43 8.32h-15.56a13 13 0 01-1.91-5.78c-.2-2.11-.29-4.14-.29-6.11a56.23 56.23 0 00-.7-9.56 16.38 16.38 0 00-2.56-6.68 10.73 10.73 0 00-5-3.9 22.82 22.82 0 00-8.19-1.25H543v33.23h-14.48zm14.48 36.8h23.81q7 0 10.57-3.22t3.6-9.68a14.55 14.55 0 00-1.16-6.28 9.24 9.24 0 00-3.19-3.79 12 12 0 00-4.63-1.83 31.73 31.73 0 00-5.4-.45H543zm78.1-36.8h59.71v12.23h-45.19v21.16h41.82v11.54h-41.82v23.65h46v12.22H621.1zm127.09 0h36.59q8.84 0 14.41 2.49a22.62 22.62 0 018.59 6.23 20.87 20.87 0 014.13 8.15 34 34 0 011.1 8.14 33.45 33.45 0 01-1.1 8.1 21 21 0 01-4.13 8.09 22.1 22.1 0 01-8.59 6.16q-5.58 2.44-14.41 2.44h-22.07v31h-14.52zm14.52 38.25H784a19.56 19.56 0 005-.67 14.58 14.58 0 004.7-2.21 11.53 11.53 0 003.49-4.08 13.76 13.76 0 001.33-6.39 16.19 16.19 0 00-1.16-6.56 10.51 10.51 0 00-3.14-4.13 11.36 11.36 0 00-4.53-2.1 25.63 25.63 0 00-5.46-.56h-21.52zm95.96-38.25h15.45l31.94 80.8H890.5l-7.79-21.39H849.6l-7.78 21.39h-15zm-5.12 48.67h25.33l-12.43-34.75h-.35zm71.22-48.67h39.61q13.71 0 20.56 5.78t6.85 16.07a23 23 0 01-1.74 9.56 21 21 0 01-4.06 6.11 15.84 15.84 0 01-4.59 3.34c-1.51.68-2.62 1.13-3.31 1.36v.22a15.29 15.29 0 014 1.13 11.93 11.93 0 014 2.89 15.59 15.59 0 013.08 5.15 22.27 22.27 0 011.22 7.92 69.57 69.57 0 001.11 13c.73 3.88 1.87 6.66 3.42 8.32h-15.56a13 13 0 01-1.91-5.78c-.2-2.11-.29-4.14-.29-6.11a56.23 56.23 0 00-.7-9.56 16.52 16.52 0 00-2.55-6.68 10.8 10.8 0 00-5.06-3.9 22.82 22.82 0 00-8.19-1.25h-21.37v33.23h-14.52zm14.52 36.8h23.81q7 0 10.57-3.22t3.6-9.68a14.55 14.55 0 00-1.16-6.28 9.24 9.24 0 00-3.19-3.79 12 12 0 00-4.65-1.81 31.73 31.73 0 00-5.4-.45h-23.58zm70.16-36.8h67.15v12.23h-26.37v68.57h-14.52v-68.57h-26.26zm87.01 0h15.34l37.87 59.53h.23v-59.53h13.82v80.8h-15.33l-37.75-59.42h-.35v59.42h-13.83zm95.26 0h59.71v12.23h-45.19v21.16h41.82v11.54h-41.82v23.65h46v12.22h-60.52zm83.99 0h39.61q13.71 0 20.56 5.78t6.86 16.07a23 23 0 01-1.74 9.56 21 21 0 01-4.07 6.11 15.84 15.84 0 01-4.59 3.34c-1.51.68-2.61 1.13-3.31 1.36v.22a15.29 15.29 0 014 1.13 12 12 0 014 2.89 15.75 15.75 0 013.07 5.15 22 22 0 011.22 7.92 69.57 69.57 0 001.11 13c.73 3.88 1.87 6.66 3.42 8.32h-15.56a12.88 12.88 0 01-1.92-5.78 68.11 68.11 0 01-.29-6.11 56.23 56.23 0 00-.7-9.56 16.38 16.38 0 00-2.55-6.68 10.8 10.8 0 00-5.06-3.9 22.82 22.82 0 00-8.19-1.25h-21.37v33.23h-14.52zm14.52 36.8H1314q7 0 10.58-3.22t3.6-9.68a14.7 14.7 0 00-1.16-6.28 9.34 9.34 0 00-3.2-3.79 12 12 0 00-4.65-1.81 31.73 31.73 0 00-5.4-.45h-23.58zm87.59 17.07a17.56 17.56 0 001.63 7.92 14.35 14.35 0 004.53 5.38 19.36 19.36 0 006.68 3 32.61 32.61 0 008.19 1 26.86 26.86 0 008.13-1.08 16.42 16.42 0 005.46-2.77 10 10 0 003-3.91 11.41 11.41 0 00.93-4.47q0-4.64-2.15-6.84a12.26 12.26 0 00-4.7-3.11 99.44 99.44 0 00-10.29-3q-5.87-1.43-14.46-3.68a31.49 31.49 0 01-8.89-3.57 21 21 0 01-5.63-4.92 17.13 17.13 0 01-3-5.77 22.62 22.62 0 01-.87-6.22 20.66 20.66 0 012.61-10.59 22.87 22.87 0 016.91-7.41 31 31 0 019.76-4.36 44 44 0 0111-1.41 44.6 44.6 0 0112.25 1.64 30.72 30.72 0 0110.11 4.92 24.29 24.29 0 016.91 8.1 23.42 23.42 0 012.56 11.14h-14.52q-.58-7.8-5.46-11t-12.43-3.23a27.81 27.81 0 00-5.23.51 17 17 0 00-4.88 1.7 10.62 10.62 0 00-3.66 3.23 9.66 9.66 0 001.28 11.82 17.86 17.86 0 007.14 3.68c.31.08 1.53.39 3.66 1s4.51 1.19 7.15 1.87l7.72 2q3.78 1 5.4 1.41a24.68 24.68 0 017.09 3.4 21.9 21.9 0 015.05 4.92 20.09 20.09 0 013 5.94 21.22 21.22 0 011 6.34 22.37 22.37 0 01-2.85 11.6 23.57 23.57 0 01-7.49 7.86 32.89 32.89 0 01-10.57 4.47 52.74 52.74 0 01-25.44-.28 31.59 31.59 0 01-10.92-5.2 25.63 25.63 0 01-7.44-9 29.47 29.47 0 01-2.9-13z"/></svg>