<svg width="745" height="96" viewBox="0 0 745 96" fill="none" xmlns="http://www.w3.org/2000/svg">
<path fill-rule="evenodd" clip-rule="evenodd" d="M95.6319 11.9661C95.6319 5.3574 90.295 0 83.7117 0H11.9202C5.33686 0 0 5.3574 0 11.9661V84.0339C0 90.6426 5.33686 96 11.9202 96H83.7117C90.295 96 95.6319 90.6426 95.6319 84.0339V11.9661ZM60.4124 67.8323L35.8714 74.9814C35.5301 75.0808 35.2128 74.7651 35.309 74.4216L40.9233 54.3597C41.019 54.0179 40.705 53.7028 40.3646 53.7988L20.3796 59.4348C20.0375 59.5313 19.7229 59.2128 19.822 58.8702L26.9437 34.2348C26.9873 34.0838 27.1055 33.9662 27.2563 33.9237L73.0202 21.0175C73.3607 20.9215 73.6746 21.2366 73.5789 21.5784L60.7223 67.5185C60.6799 67.6698 60.5627 67.7885 60.4124 67.8323Z" fill="#FF3E35"/>
<path d="M161.144 81H139.531L122.509 13.8H135.515L149.668 72.84H151.007L165.161 13.8H178.167L161.144 81Z" fill="#FF3E35"/>
<path d="M199.578 82.344C194.86 82.344 190.684 81.352 187.05 79.368C183.48 77.32 180.675 74.472 178.634 70.824C176.658 67.112 175.67 62.76 175.67 57.768V56.616C175.67 51.624 176.658 47.304 178.634 43.656C180.611 39.944 183.384 37.096 186.954 35.112C190.525 33.064 194.669 32.04 199.387 32.04C204.041 32.04 208.089 33.096 211.532 35.208C214.975 37.256 217.652 40.136 219.565 43.848C221.477 47.496 222.434 51.752 222.434 56.616V60.744H187.911C188.038 64.008 189.25 66.664 191.545 68.712C193.84 70.76 196.645 71.784 199.96 71.784C203.339 71.784 205.826 71.048 207.42 69.576C209.013 68.104 210.225 66.472 211.054 64.68L220.904 69.864C220.011 71.528 218.704 73.352 216.983 75.336C215.325 77.256 213.094 78.92 210.289 80.328C207.483 81.672 203.913 82.344 199.578 82.344ZM188.006 51.72H210.193C209.938 48.968 208.822 46.76 206.846 45.096C204.933 43.432 202.415 42.6 199.291 42.6C196.039 42.6 193.457 43.432 191.545 45.096C189.632 46.76 188.453 48.968 188.006 51.72Z" fill="#FF3E35"/>
<path d="M239.47 81H227.421V33.384H239.279V39.624H241.001C241.766 37.96 243.2 36.392 245.304 34.92C247.408 33.384 250.596 32.616 254.867 32.616C258.565 32.616 261.785 33.48 264.526 35.208C267.331 36.872 269.499 39.208 271.029 42.216C272.559 45.16 273.324 48.616 273.324 52.584V81H261.275V53.544C261.275 49.96 260.382 47.272 258.597 45.48C256.875 43.688 254.389 42.792 251.138 42.792C247.44 42.792 244.571 44.04 242.531 46.536C240.491 48.968 239.47 52.392 239.47 56.808V81Z" fill="#FF3E35"/>
<path d="M310.863 81H297.475C294.351 81 291.801 80.04 289.824 78.12C287.912 76.136 286.955 73.512 286.955 70.248V43.368H275.097V33.384H286.955V18.6H299.005V33.384H312.011V43.368H299.005V68.136C299.005 70.056 299.898 71.016 301.683 71.016H310.863V81Z" fill="#FF3E35"/>
<path d="M335.255 81.768C331.557 81.768 328.306 80.936 325.5 79.272C322.759 77.544 320.623 75.176 319.093 72.168C317.563 69.16 316.798 65.704 316.798 61.8V33.384H328.847V60.84C328.847 64.424 329.708 67.112 331.429 68.904C333.215 70.696 335.733 71.592 338.984 71.592C342.682 71.592 345.551 70.376 347.591 67.944C349.631 65.448 350.651 61.992 350.651 57.576V33.384H362.701V81H350.843V74.76H349.121C348.356 76.36 346.922 77.928 344.818 79.464C342.714 81 339.526 81.768 335.255 81.768Z" fill="#FF3E35"/>
<path d="M382.421 81H370.372V33.384H382.23V38.76H383.952C384.653 36.84 385.8 35.432 387.394 34.536C389.052 33.64 390.965 33.192 393.132 33.192H398.87V43.944H392.941C389.881 43.944 387.362 44.776 385.386 46.44C383.41 48.04 382.421 50.536 382.421 53.928V81Z" fill="#FF3E35"/>
<path d="M422.482 82.344C417.764 82.344 413.588 81.352 409.954 79.368C406.384 77.32 403.579 74.472 401.539 70.824C399.562 67.112 398.574 62.76 398.574 57.768V56.616C398.574 51.624 399.562 47.304 401.539 43.656C403.515 39.944 406.289 37.096 409.859 35.112C413.429 33.064 417.573 32.04 422.291 32.04C426.945 32.04 430.993 33.096 434.436 35.208C437.879 37.256 440.557 40.136 442.469 43.848C444.382 47.496 445.338 51.752 445.338 56.616V60.744H410.815C410.943 64.008 412.154 66.664 414.449 68.712C416.744 70.76 419.55 71.784 422.865 71.784C426.244 71.784 428.73 71.048 430.324 69.576C431.918 68.104 433.129 66.472 433.958 64.68L443.808 69.864C442.916 71.528 441.609 73.352 439.887 75.336C438.23 77.256 435.998 78.92 433.193 80.328C430.388 81.672 426.818 82.344 422.482 82.344ZM410.911 51.72H433.097C432.842 48.968 431.727 46.76 429.75 45.096C427.838 43.432 425.319 42.6 422.195 42.6C418.944 42.6 416.362 43.432 414.449 45.096C412.537 46.76 411.357 48.968 410.911 51.72Z" fill="#FF3E35"/>
<path d="M462.566 81H449.943V13.8H492.021V25.32H462.566V41.544H489.726V53.064H462.566V81Z" fill="#FF3E35"/>
<path d="M507.722 81H495.672V33.384H507.53V38.76H509.252C509.953 36.84 511.101 35.432 512.694 34.536C514.352 33.64 516.265 33.192 518.432 33.192H524.17V43.944H518.241C515.181 43.944 512.663 44.776 510.686 46.44C508.71 48.04 507.722 50.536 507.722 53.928V81Z" fill="#FF3E35"/>
<path d="M539.9 81H527.851V33.384H539.9V81ZM533.875 27.816C531.708 27.816 529.859 27.112 528.329 25.704C526.862 24.296 526.129 22.44 526.129 20.136C526.129 17.832 526.862 15.976 528.329 14.568C529.859 13.16 531.708 12.456 533.875 12.456C536.107 12.456 537.956 13.16 539.422 14.568C540.888 15.976 541.622 17.832 541.622 20.136C541.622 22.44 540.888 24.296 539.422 25.704C537.956 27.112 536.107 27.816 533.875 27.816Z" fill="#FF3E35"/>
<path d="M569.128 82.344C564.41 82.344 560.234 81.352 556.6 79.368C553.03 77.32 550.225 74.472 548.184 70.824C546.208 67.112 545.22 62.76 545.22 57.768V56.616C545.22 51.624 546.208 47.304 548.184 43.656C550.161 39.944 552.934 37.096 556.504 35.112C560.075 33.064 564.219 32.04 568.936 32.04C573.591 32.04 577.639 33.096 581.082 35.208C584.524 37.256 587.202 40.136 589.115 43.848C591.027 47.496 591.984 51.752 591.984 56.616V60.744H557.461C557.588 64.008 558.799 66.664 561.095 68.712C563.39 70.76 566.195 71.784 569.51 71.784C572.889 71.784 575.376 71.048 576.97 69.576C578.563 68.104 579.775 66.472 580.604 64.68L590.454 69.864C589.561 71.528 588.254 73.352 586.533 75.336C584.875 77.256 582.644 78.92 579.839 80.328C577.033 81.672 573.463 82.344 569.128 82.344ZM557.556 51.72H579.743C579.488 48.968 578.372 46.76 576.396 45.096C574.483 43.432 571.965 42.6 568.841 42.6C565.589 42.6 563.007 43.432 561.095 45.096C559.182 46.76 558.003 48.968 557.556 51.72Z" fill="#FF3E35"/>
<path d="M609.02 81H596.971V33.384H608.829V39.624H610.551C611.316 37.96 612.75 36.392 614.854 34.92C616.958 33.384 620.146 32.616 624.417 32.616C628.115 32.616 631.335 33.48 634.076 35.208C636.881 36.872 639.049 39.208 640.579 42.216C642.109 45.16 642.874 48.616 642.874 52.584V81H630.825V53.544C630.825 49.96 629.932 47.272 628.147 45.48C626.425 43.688 623.939 42.792 620.688 42.792C616.99 42.792 614.121 44.04 612.081 46.536C610.041 48.968 609.02 52.392 609.02 56.808V81Z" fill="#FF3E35"/>
<path d="M669.289 82.344C665.527 82.344 661.989 81.416 658.674 79.56C655.422 77.64 652.808 74.856 650.832 71.208C648.855 67.56 647.867 63.144 647.867 57.96V56.424C647.867 51.24 648.855 46.824 650.832 43.176C652.808 39.528 655.422 36.776 658.674 34.92C661.925 33 665.463 32.04 669.289 32.04C672.158 32.04 674.548 32.392 676.461 33.096C678.438 33.736 680.031 34.568 681.243 35.592C682.454 36.616 683.378 37.704 684.016 38.856H685.737V13.8H697.787V81H685.929V75.24H684.207C683.123 77.032 681.434 78.664 679.139 80.136C676.907 81.608 673.624 82.344 669.289 82.344ZM672.923 71.784C676.62 71.784 679.713 70.6 682.199 68.232C684.685 65.8 685.929 62.28 685.929 57.672V56.712C685.929 52.104 684.685 48.616 682.199 46.248C679.776 43.816 676.684 42.6 672.923 42.6C669.225 42.6 666.133 43.816 663.646 46.248C661.16 48.616 659.917 52.104 659.917 56.712V57.672C659.917 62.28 661.16 65.8 663.646 68.232C666.133 70.6 669.225 71.784 672.923 71.784Z" fill="#FF3E35"/>
<path d="M725.109 82.344C718.924 82.344 713.856 81 709.903 78.312C705.95 75.624 703.559 71.784 702.731 66.792L713.824 63.912C714.27 66.152 715.003 67.912 716.024 69.192C717.107 70.472 718.414 71.4 719.944 71.976C721.538 72.488 723.26 72.744 725.109 72.744C727.914 72.744 729.986 72.264 731.325 71.304C732.663 70.28 733.333 69.032 733.333 67.56C733.333 66.088 732.695 64.968 731.42 64.2C730.145 63.368 728.105 62.696 725.3 62.184L722.622 61.704C719.307 61.064 716.279 60.2 713.537 59.112C710.796 57.96 708.596 56.392 706.938 54.408C705.281 52.424 704.452 49.864 704.452 46.728C704.452 41.992 706.173 38.376 709.616 35.88C713.059 33.32 717.586 32.04 723.196 32.04C728.488 32.04 732.887 33.224 736.393 35.592C739.9 37.96 742.195 41.064 743.279 44.904L732.09 48.36C731.58 45.928 730.528 44.2 728.934 43.176C727.404 42.152 725.491 41.64 723.196 41.64C720.901 41.64 719.148 42.056 717.936 42.888C716.725 43.656 716.119 44.744 716.119 46.152C716.119 47.688 716.757 48.84 718.032 49.608C719.307 50.312 721.028 50.856 723.196 51.24L725.874 51.72C729.444 52.36 732.663 53.224 735.532 54.312C738.465 55.336 740.76 56.84 742.418 58.824C744.139 60.744 745 63.368 745 66.696C745 71.688 743.183 75.56 739.549 78.312C735.979 81 731.165 82.344 725.109 82.344Z" fill="#FF3E35"/>
</svg>
