<svg width="169" height="47" viewBox="0 0 169 47" fill="none" xmlns="http://www.w3.org/2000/svg">
<path d="M105.38 10.5402C105.04 10.4802 104.69 10.4402 104.32 10.4102C103.71 10.3602 103.1 10.3402 102.49 10.3402C100.431 10.2572 98.3956 10.8088 96.66 11.9202C94.9588 13.149 93.5853 14.7766 92.66 16.6602H92.49V11.2802C92.4874 11.0768 92.4054 10.8824 92.2616 10.7386C92.1177 10.5947 91.9234 10.5128 91.72 10.5102H82.72C82.5166 10.5128 82.3222 10.5947 82.1783 10.7386C82.0345 10.8824 81.9525 11.0768 81.95 11.2802V44.5802C81.9525 44.7836 82.0345 44.9779 82.1783 45.1218C82.3222 45.2656 82.5166 45.3476 82.72 45.3502H91.72C91.9234 45.3476 92.1177 45.2656 92.2616 45.1218C92.4054 44.9779 92.4874 44.7836 92.49 44.5802V31.0802C92.4871 29.5352 92.5873 27.9918 92.7899 26.4602C92.936 25.1794 93.3554 23.9448 94.02 22.8402C94.6707 21.7986 95.613 20.971 96.7299 20.4602C98.2429 19.8348 99.8744 19.5481 101.51 19.6202C102.273 19.6198 103.035 19.6767 103.79 19.7902C104.2 19.8602 104.62 19.9402 105.04 20.0502C105.156 20.0844 105.279 20.091 105.399 20.0694C105.518 20.0478 105.631 19.9987 105.728 19.9259C105.825 19.853 105.904 19.7586 105.958 19.6499C106.012 19.5413 106.04 19.4216 106.04 19.3002V11.3002C106.039 11.1154 105.973 10.9369 105.851 10.7974C105.73 10.6579 105.563 10.5666 105.38 10.5402V10.5402Z" fill="white"/>
<path d="M129.38 11.18H121.64C121.436 11.18 121.24 11.0989 121.096 10.9545C120.951 10.8101 120.87 10.6142 120.87 10.41V0.77C120.867 0.566589 120.785 0.372239 120.642 0.228394C120.498 0.0845485 120.303 0.00259154 120.1 0H111.1C110.897 0.00259154 110.702 0.0845485 110.558 0.228394C110.415 0.372239 110.333 0.566589 110.33 0.77V35.86C110.285 37.5043 110.61 39.1377 111.28 40.64C111.877 41.9118 112.785 43.0124 113.92 43.84C115.1 44.6891 116.435 45.2974 117.85 45.63C119.465 46.0152 121.12 46.2032 122.78 46.19C124.023 46.1884 125.265 46.1183 126.5 45.98C127.562 45.8633 128.611 45.6423 129.63 45.32C129.786 45.269 129.921 45.1698 130.016 45.0367C130.111 44.9036 130.162 44.7437 130.16 44.58V37.65C130.157 37.5303 130.127 37.4129 130.071 37.3068C130.016 37.2007 129.937 37.1089 129.84 37.0383C129.743 36.9677 129.632 36.9203 129.514 36.8998C129.396 36.8793 129.275 36.8862 129.16 36.92C128.82 37.0371 128.468 37.1175 128.11 37.16C127.378 37.2635 126.64 37.3203 125.9 37.33C124.975 37.3659 124.053 37.2128 123.19 36.88C122.563 36.616 122.034 36.1612 121.68 35.58C121.334 34.9641 121.119 34.2831 121.05 33.58C120.949 32.7305 120.902 31.8754 120.91 31.02V20.39C120.909 20.2885 120.928 20.1878 120.966 20.0938C121.004 19.9997 121.061 19.9143 121.133 19.8425C121.204 19.7708 121.29 19.7141 121.384 19.6759C121.478 19.6377 121.579 19.6187 121.68 19.62H129.42C129.625 19.6174 129.821 19.534 129.965 19.388C130.109 19.242 130.19 19.0451 130.19 18.84V11.95C130.189 11.8458 130.167 11.743 130.125 11.6475C130.083 11.552 130.023 11.4659 129.947 11.3941C129.872 11.3223 129.783 11.2664 129.685 11.2296C129.588 11.1929 129.484 11.176 129.38 11.18V11.18Z" fill="white"/>
<path d="M168.05 19.95C167.776 18.1291 167.14 16.3814 166.18 14.81C165.246 13.3386 163.919 12.1575 162.35 11.4C160.316 10.5005 158.102 10.0797 155.88 10.17C154.692 10.162 153.509 10.3305 152.37 10.67C151.378 10.9544 150.432 11.3787 149.56 11.93C148.812 12.4171 148.138 13.0099 147.56 13.69C147.04 14.2766 146.633 14.9548 146.36 15.69H146.22V0.77C146.22 0.565784 146.139 0.369932 145.994 0.225529C145.85 0.0811257 145.654 2.63798e-09 145.45 2.63795e-09H136.45C136.245 -1.68577e-05 136.048 0.0807882 135.902 0.224911C135.756 0.369033 135.673 0.564869 135.67 0.77V44.46C135.67 44.6669 135.752 44.8653 135.898 45.0115C136.045 45.1578 136.243 45.24 136.45 45.24H145.45C145.552 45.24 145.653 45.2198 145.747 45.1804C145.841 45.1411 145.926 45.0835 145.998 45.0109C146.07 44.9384 146.126 44.8523 146.164 44.7577C146.202 44.6632 146.221 44.562 146.22 44.46V28.17C146.217 27.0898 146.287 26.0107 146.43 24.94C146.551 23.9673 146.849 23.0249 147.31 22.16C147.754 21.3266 148.423 20.6339 149.24 20.16C150.245 19.6519 151.365 19.4108 152.49 19.46C153.599 19.3877 154.7 19.6867 155.62 20.31C156.348 20.8656 156.912 21.6088 157.25 22.46C157.617 23.3897 157.833 24.3721 157.89 25.37C157.96 26.43 157.99 27.45 157.99 28.43V44.46C157.99 44.6651 158.071 44.862 158.215 45.008C158.359 45.154 158.555 45.2374 158.76 45.24H167.76C167.965 45.2374 168.161 45.154 168.305 45.008C168.449 44.862 168.53 44.6651 168.53 44.46V26.34C168.542 24.2006 168.382 22.0636 168.05 19.95V19.95Z" fill="white"/>
<path d="M73.7599 10.46H64.87C64.6657 10.46 64.4699 10.5411 64.3255 10.6855C64.1811 10.8299 64.0999 11.0258 64.0999 11.23V15.38C62.6426 13.7051 60.8457 12.3592 58.8286 11.4317C56.8114 10.5042 54.6201 10.0161 52.4 10C43.32 10 35.96 18.1 35.96 28.09C35.96 38.08 43.32 46.18 52.4 46.18C54.6198 46.162 56.8105 45.6731 58.8274 44.7457C60.8442 43.8182 62.6413 42.4734 64.0999 40.8V44.46C64.0999 44.6642 64.1811 44.8601 64.3255 45.0045C64.4699 45.1489 64.6657 45.23 64.87 45.23H73.7599C73.9563 45.2174 74.1407 45.131 74.2761 44.9882C74.4114 44.8454 74.4878 44.6568 74.49 44.46V11.25C74.4929 11.0498 74.4188 10.8561 74.2829 10.709C74.147 10.562 73.9598 10.4728 73.7599 10.46ZM54.49 37.24C52.7356 37.24 51.0207 36.7198 49.562 35.7451C48.1034 34.7705 46.9665 33.3852 46.2951 31.7644C45.6238 30.1436 45.4482 28.3602 45.7904 26.6395C46.1327 24.9189 46.9774 23.3385 48.2179 22.098C49.4584 20.8575 51.0389 20.0127 52.7595 19.6704C54.4801 19.3282 56.2636 19.5038 57.8844 20.1752C59.5051 20.8465 60.8904 21.9834 61.8651 23.4421C62.8397 24.9008 63.36 26.6157 63.36 28.37C63.36 30.7225 62.4254 32.9786 60.762 34.642C59.0985 36.3055 56.8424 37.24 54.49 37.24Z" fill="white"/>
<path d="M31.55 0H0.769989C0.564858 0.0026301 0.369037 0.085966 0.224915 0.23196C0.080792 0.377955 -1.68577e-05 0.574851 2.63782e-09 0.779999V44.46C2.63776e-09 44.6642 0.0811219 44.8601 0.225525 45.0045C0.369928 45.1489 0.565772 45.23 0.769989 45.23H31.55C31.7542 45.23 31.95 45.1489 32.0945 45.0045C32.2389 44.8601 32.32 44.6642 32.32 44.46V36.46C32.3174 36.2566 32.2354 36.0622 32.0916 35.9184C31.9477 35.7746 31.7534 35.6926 31.55 35.69H10.55V27.46H29.09C29.2951 27.46 29.492 27.3792 29.638 27.2351C29.784 27.091 29.8674 26.8951 29.87 26.69V18.39C29.87 17.96 29.52 17.87 29.09 17.87H10.55V9.56H31.55C31.7542 9.56 31.95 9.47888 32.0945 9.33447C32.2389 9.19007 32.32 8.99422 32.32 8.79V0.790001C32.3213 0.687568 32.3024 0.585874 32.2645 0.490734C32.2265 0.395594 32.1701 0.308868 32.0986 0.235508C32.0271 0.162148 31.9419 0.103592 31.8477 0.0631828C31.7536 0.0227738 31.6524 0.00130483 31.55 0V0Z" fill="white"/>
</svg>
