<svg width="144" height="33" viewBox="0 0 144 33" fill="none" xmlns="http://www.w3.org/2000/svg">
<mask id="mask0_1780_229" style="mask-type:luminance" maskUnits="userSpaceOnUse" x="0" y="0" width="144" height="33">
<path d="M144 0H0V32.3021H144V0Z" fill="white"/>
</mask>
<g mask="url(#mask0_1780_229)">
<path d="M3.57905 21.9573H14.052V24.513H0V22.4384L10.1102 2.92051H0.0988518V0.348145H13.7056V2.35631L3.57905 21.9573Z" fill="white"/>
<path d="M23.8998 10.8372C25.1093 10.8372 25.9998 10.4636 26.5715 9.71692C27.1433 8.97004 27.4293 7.96588 27.4293 6.70443C27.4293 5.4875 27.1405 4.49716 26.5634 3.73379C25.9861 2.97032 25.1422 2.58858 24.0315 2.58858C23.009 2.58858 22.1623 2.97032 21.4917 3.73379C20.821 4.49716 20.4857 5.47096 20.4857 6.65469H17.2201L17.1871 6.55522C17.132 4.69649 17.7615 3.13906 19.0755 1.883C20.3894 0.627487 22.0413 -0.000488281 24.0315 -0.000488281C26.1205 -0.000488281 27.7783 0.580471 29.0043 1.74206C30.2301 2.90398 30.8434 4.56344 30.8434 6.72125C30.8434 7.87206 30.5518 8.91769 29.9692 9.85791C29.3862 10.7986 28.5837 11.5232 27.5611 12.0321C28.7266 12.508 29.6228 13.2382 30.2495 14.223C30.8763 15.2078 31.1895 16.4135 31.1895 17.8408C31.1895 20.0318 30.5216 21.7494 29.1857 22.9944C27.8499 24.2392 26.1318 24.8611 24.0315 24.8611C22.1293 24.8611 20.4611 24.2615 19.026 23.0607C17.591 21.8602 16.9011 20.209 16.9562 18.1065L16.9891 18.0068H20.2382C20.2382 19.2243 20.5929 20.2448 21.302 21.0689C22.0114 21.8936 22.921 22.3056 24.0315 22.3056C25.1862 22.3056 26.1042 21.8988 26.7861 21.0857C27.4676 20.2726 27.8086 19.2021 27.8086 17.8742C27.8086 16.3583 27.4787 15.2299 26.819 14.4884C26.1593 13.7472 25.1862 13.3764 23.8998 13.3764H21.5908V10.8372H23.8998Z" fill="white"/>
<path d="M38.3477 12.3974H42.801C44.0983 12.3974 45.0824 11.9521 45.7535 11.0614C46.4235 10.1708 46.7593 9.05056 46.7593 7.70058C46.7593 6.33971 46.4268 5.20565 45.7616 4.29813C45.096 3.39105 44.1093 2.93727 42.801 2.93727H38.3477V12.3974ZM38.3477 14.9865V24.513H35V0.348145H42.801C45.077 0.348145 46.8605 1.0202 48.1529 2.36469C49.4448 3.70901 50.0904 5.47649 50.0904 7.66738C50.0904 9.86905 49.4448 11.6395 48.1529 12.9781C46.8605 14.3172 45.077 14.9865 42.801 14.9865H38.3477Z" fill="white"/>
<path d="M58.0397 22.272C58.952 22.272 59.7599 21.9871 60.4639 21.4175C61.1675 20.8476 61.6293 20.1588 61.8494 19.3513V16.1644H59.0617C58.0283 16.1644 57.2204 16.4941 56.6375 17.1524C56.0545 17.8105 55.7631 18.604 55.7631 19.5335C55.7631 20.3633 55.961 21.0275 56.3568 21.5253C56.7527 22.0233 57.3134 22.272 58.0397 22.272ZM62.3604 24.5127C62.2176 23.9705 62.1051 23.4868 62.0224 23.0605C61.9397 22.6347 61.8878 22.2117 61.8661 21.791C61.393 22.676 60.7689 23.4088 59.994 23.99C59.2186 24.5708 58.336 24.861 57.3464 24.861C55.7523 24.861 54.529 24.3856 53.6768 23.4338C52.8251 22.4825 52.3984 21.1825 52.3984 19.5335C52.3984 17.8406 52.9895 16.5075 54.1721 15.534C55.3537 14.5603 57.0003 14.0734 59.1115 14.0734H61.8494V12.231C61.8494 11.1358 61.6071 10.2809 61.1237 9.66683C60.6397 9.05268 59.9464 8.74571 59.0455 8.74571C58.2317 8.74571 57.5854 9.01116 57.1074 9.54244C56.6294 10.0735 56.3898 10.754 56.3898 11.5838L53.1901 11.6006L53.1571 11.5008C53.0912 10.1069 53.6298 8.87855 54.774 7.81632C55.9172 6.7542 57.4124 6.22314 59.2597 6.22314C61.0301 6.22314 62.4648 6.74582 63.5647 7.79129C64.664 8.83703 65.2135 10.3282 65.2135 12.2642V20.5957C65.2135 21.2822 65.2578 21.9488 65.3459 22.5958C65.4336 23.2432 65.5709 23.8819 65.758 24.5127H62.3604Z" fill="white"/>
<path d="M76.6925 9.3597L75.2405 9.27677C74.537 9.27677 73.9514 9.49009 73.4841 9.9159C73.0164 10.3419 72.6562 10.9424 72.4037 11.7168V24.5127H69.0391V6.55504H72.1236L72.3545 9.21044C72.7503 8.27021 73.2559 7.53694 73.8719 7.01138C74.4873 6.48582 75.1962 6.22314 75.9992 6.22314C76.2085 6.22314 76.4032 6.24241 76.5843 6.28121C76.766 6.32012 76.9283 6.36691 77.0716 6.42204L76.6925 9.3597Z" fill="white"/>
<path d="M84.0164 2.09033V6.555H86.8041V8.96145H84.0164V19.65C84.0164 20.5795 84.1565 21.2404 84.4366 21.6332C84.7178 22.0261 85.0887 22.2223 85.5506 22.2223C85.7371 22.2223 85.9134 22.2057 86.0783 22.1727C86.2427 22.1393 86.4347 22.0897 86.6553 22.0232L87.0014 24.3467C86.6824 24.5021 86.3282 24.6259 85.9377 24.7201C85.5473 24.8142 85.1434 24.8609 84.7254 24.8609C83.4389 24.8609 82.4379 24.4437 81.7236 23.6082C81.0092 22.7729 80.6518 21.4533 80.6518 19.65V8.96145H78.293V6.555H80.6518V2.09033H84.0164Z" fill="white"/>
<path d="M92.8724 6.55504L93.0704 9.22709C93.576 8.27555 94.2141 7.53694 94.9836 7.01138C95.7531 6.48582 96.6275 6.22314 97.6057 6.22314C99.1891 6.22314 100.424 6.80965 101.308 7.98218C102.193 9.15515 102.636 10.9807 102.636 13.4593V24.5127H99.2881V13.4757C99.2881 11.7831 99.0544 10.588 98.5872 9.89087C98.12 9.19395 97.4132 8.84541 96.468 8.84541C95.6979 8.84541 95.0387 9.04735 94.4888 9.45118C93.9388 9.85512 93.4992 10.4113 93.1699 11.119V24.5127H89.8047V6.55504H92.8724Z" fill="white"/>
<path d="M112.598 8.81227C111.63 8.81227 110.86 9.263 110.288 10.1647C109.716 11.0666 109.359 12.2589 109.217 13.7413H115.533V13.3596C115.533 12.0099 115.294 10.9145 114.816 10.0735C114.338 9.23258 113.598 8.81227 112.598 8.81227ZM112.911 24.861C110.69 24.861 108.95 24.0425 107.691 22.4051C106.432 20.7673 105.803 18.6374 105.803 16.015V15.235C105.803 12.6018 106.429 10.4413 107.682 8.75398C108.936 7.06683 110.574 6.22314 112.598 6.22314C114.632 6.22314 116.179 6.94787 117.24 8.39728C118.301 9.84674 118.832 11.7942 118.832 14.2392V16.1313H109.151C109.151 17.9681 109.478 19.4566 110.132 20.5957C110.786 21.7358 111.79 22.3054 113.142 22.3054C114.076 22.3054 114.89 22.1588 115.583 21.8657C116.276 21.5726 116.913 21.1434 117.496 20.5795L118.585 22.6705C117.991 23.2901 117.207 23.81 116.235 24.2308C115.261 24.6509 114.153 24.861 112.911 24.861Z" fill="white"/>
<path d="M129.504 9.3597L128.053 9.27677C127.349 9.27677 126.763 9.49009 126.296 9.9159C125.829 10.3419 125.469 10.9424 125.216 11.7168V24.5127H121.852V6.55504H124.936L125.166 9.21044C125.563 8.27021 126.068 7.53694 126.684 7.01138C127.299 6.48582 128.009 6.22314 128.812 6.22314C129.02 6.22314 129.215 6.24241 129.397 6.28121C129.579 6.32012 129.74 6.36691 129.884 6.42204L129.504 9.3597Z" fill="white"/>
<path d="M140.702 19.9816C140.702 19.2849 140.471 18.7015 140.009 18.2307C139.547 17.7608 138.662 17.2325 137.354 16.6458C135.517 15.9487 134.143 15.191 133.23 14.372C132.318 13.5534 131.862 12.5024 131.862 11.2187C131.862 9.83558 132.414 8.65728 133.519 7.68349C134.624 6.71018 136.062 6.22314 137.832 6.22314C139.668 6.22314 141.147 6.75692 142.269 7.8247C143.39 8.89248 143.929 10.1842 143.885 11.7L143.852 11.7994H140.619C140.619 10.9476 140.369 10.2147 139.869 9.6005C139.369 8.9864 138.689 8.67927 137.832 8.67927C136.974 8.67927 136.307 8.92012 135.828 9.40122C135.35 9.88276 135.111 10.4443 135.111 11.0859C135.111 11.772 135.317 12.3115 135.73 12.7042C136.141 13.097 137.024 13.6031 138.377 14.2228C140.246 14.8865 141.65 15.6555 142.59 16.5298C143.531 17.4037 144 18.4992 144 19.816C144 21.3096 143.431 22.5238 142.294 23.4588C141.156 24.394 139.663 24.861 137.816 24.861C135.814 24.861 134.239 24.2998 133.09 23.1769C131.941 22.054 131.394 20.7401 131.449 19.2349L131.483 19.1352H134.599C134.643 20.297 134.971 21.1351 135.581 21.65C136.191 22.1644 136.952 22.4214 137.865 22.4214C138.756 22.4214 139.451 22.1922 139.952 21.7326C140.452 21.2738 140.702 20.6898 140.702 19.9816Z" fill="white"/>
<path d="M38.5443 32.3031L0 32.3024V30.4019L38.5443 30.4027V32.3031Z" fill="#8ECEEB"/>
</g>
</svg>
